999
DXF file: D:\KOP_Mechatron\CAD_Files\DXF\bodenplatte.dxf
999
Pro/ENGINEER 2021063 by Parametric Technology Corporation
  0
SECTION
  2
HEADER
  9
$ACADVER
  1
AC1032
  9
$DWGCODEPAGE
  3
ANSI_1252
  9
$EXTMAX
 10
594.0
 20
420.0
 30
0.0
  9
$EXTMIN
 10
0.0
 20
0.0
 30
0.0
  9
$LIMMIN
 10
0.0
 20
0.0
  9
$LIMMAX
 10
594.0
 20
420.0
  9
$VIEWCTR
 10
297.0
 20
210.0
  9
$VIEWSIZE
 40
420.0
  9
$CLAYER
  8
0
  9
$LTSCALE
 40
32.67
  9
$CELTYPE
  6
BYLAYER
  9
$DIMSCALE
 40
1.0
  9
$DIMASZ
 40
3.5
  9
$DIMEXO
 40
0.0
  9
$DIMDLI
 40
22.572
  9
$DIMEXE
 40
2.0
  9
$DIMCEN
 40
5.346
  9
$DIMLFAC
 40
1.0
  9
$DIMBLK
  1
_FILLED
  9
$DIMALT
 70
0
  9
$DIMALTF
 40
0.0393700787
  9
$DIMTXT
 40
3.5
  9
$DIMTOL
 70
1
  9
$DIMLIM
 70
0
  9
$DIMTFAC
 40
1.0
  9
$DIMTP
 40
0.001
  9
$DIMTM
 40
0.001
  9
$DIMGAP
 40
0.625
  9
$DIMDSEP
 70
46
  9
$AUNITS
 70
0
  9
$PDMODE
 70
3
  9
$PDSIZE
 40
0.3125
  9
$HANDSEED
  5
275
  9
$TILEMODE
 70
1
  9
$MEASUREMENT
 70
1
  9
$INSUNITS
 70
4
  0
ENDSEC
  0
SECTION
  2
CLASSES
  0
CLASS
  1
ACDBDICTIONARYWDFLT
  2
AcDbDictionaryWithDefault
  3
AutoCAD 2000
 90
0
 91
1
280
0
281
0
  0
CLASS
  1
ACDBPLACEHOLDER
  2
AcDbPlaceHolder
  3
AutoCAD 2000
 90
0
 91
1
280
0
281
0
  0
CLASS
  1
LAYOUT
  2
AcDbLayout
  3
AutoCAD 2000
 90
0
 91
0
280
0
281
0
  0
ENDSEC
  0
SECTION
  2
TABLES
  0
TABLE
  2
VPORT
  5
8
100
AcDbSymbolTable
 70
2
  0
VPORT
  5
1F4
100
AcDbSymbolTableRecord
100
AcDbViewportTableRecord
  2
*ACTIVE
 70
0
 10
0.0
 20
0.0
 11
1.0
 21
1.0
 12
297.0
 22
210.0
 13
0.0
 23
0.0
 14
1.0
 24
1.0
 15
0.0
 25
0.0
 16
0.0
 26
0.0
 36
1.0
 17
0.0
 27
0.0
 37
0.0
 40
420.0
 41
1.4142857143
 42
50.0
 43
0.0
 44
0.0
 50
0.0
 51
0.0
 71
0
 72
100
 73
1
 74
1
 75
0
 76
0
 77
0
 78
0
  0
ENDTAB
  0
TABLE
  2
LTYPE
  5
5
100
AcDbSymbolTable
 70
6
  0
LTYPE
  5
14
100
AcDbSymbolTableRecord
100
AcDbLinetypeTableRecord
  2
BYBLOCK
 70
0
  3

 72
65
 73
0
 40
0.0
  0
LTYPE
  5
15
100
AcDbSymbolTableRecord
100
AcDbLinetypeTableRecord
  2
BYLAYER
 70
0
  3

 72
65
 73
0
 40
0.0
  0
LTYPE
  5
16
100
AcDbSymbolTableRecord
100
AcDbLinetypeTableRecord
  2
CONTINUOUS
 70
64
  3
Solid line
 72
65
 73
0
 40
0.0
  0
LTYPE
  5
1F5
100
AcDbSymbolTableRecord
100
AcDbLinetypeTableRecord
  2
CENTER
 70
64
  3
____ _ ____ _ ____ _ ____ _ ____ _ ____ _ ____
 72
65
 73
4
 40
0.6
 49
0.375
 74
0
 49
-0.075
 74
0
 49
0.075
 74
0
 49
-0.075
 74
0
  0
LTYPE
  5
1F6
100
AcDbSymbolTableRecord
100
AcDbLinetypeTableRecord
  2
HIDDEN
 70
64
  3
- - - - - - - - - - - - - - - - - - - -
 72
65
 73
2
 40
0.2
 49
0.1
 74
0
 49
-0.1
 74
0
  0
LTYPE
  5
1F7
100
AcDbSymbolTableRecord
100
AcDbLinetypeTableRecord
  2
PHANTOM
 70
64
  3
_____ _ _ _____ _ _ _____ _ _ _____
 72
65
 73
6
 40
0.8
 49
0.45
 74
0
 49
-0.05
 74
0
 49
0.1
 74
0
 49
-0.05
 74
0
 49
0.1
 74
0
 49
-0.05
 74
0
  0
LTYPE
  5
1F8
100
AcDbSymbolTableRecord
100
AcDbLinetypeTableRecord
  2
DOT
 70
64
  3
. . . . . . . . . . . . . . . . . . . .
 72
65
 73
2
 40
0.2
 49
0.1
 74
0
 49
-0.1
 74
0
  0
LTYPE
  5
1F9
100
AcDbSymbolTableRecord
100
AcDbLinetypeTableRecord
  2
DASHED
 70
64
  3
- - - - - - - - - - - - - - - - - - - -
 72
65
 73
2
 40
0.2
 49
0.1
 74
0
 49
-0.1
 74
0
  0
ENDTAB
  0
TABLE
  2
LAYER
  5
2
100
AcDbSymbolTable
 70
36
  0
LAYER
  5
10
100
AcDbSymbolTableRecord
100
AcDbLayerTableRecord
  2
0
 70
0
 62
7
  6
CONTINUOUS
370
-3
390
F
  0
LAYER
  5
1FA
100
AcDbSymbolTableRecord
100
AcDbLayerTableRecord
  2
DEFAULT_1
 70
0
 62
7
  6
CENTER
370
-3
390
F
  0
LAYER
  5
1FB
100
AcDbSymbolTableRecord
100
AcDbLayerTableRecord
  2
DEFAULT_2
 70
0
 62
8
  6
HIDDEN
370
-3
390
F
  0
LAYER
  5
1FC
100
AcDbSymbolTableRecord
100
AcDbLayerTableRecord
  2
DEFAULT_3
 70
0
 62
7
  6
PHANTOM
370
-3
390
F
  0
LAYER
  5
1FD
100
AcDbSymbolTableRecord
100
AcDbLayerTableRecord
  2
ACHSEN
 70
0
 62
7
  6
CONTINUOUS
370
-3
390
F
  0
LAYER
  5
1FE
100
AcDbSymbolTableRecord
100
AcDbLayerTableRecord
  2
AXIS
 70
0
 62
7
  6
CONTINUOUS
370
-3
390
F
  0
LAYER
  5
1FF
100
AcDbSymbolTableRecord
100
AcDbLayerTableRecord
  2
COPY_GEOMETRY
 70
0
 62
7
  6
CONTINUOUS
370
-3
390
F
  0
LAYER
  5
200
100
AcDbSymbolTableRecord
100
AcDbLayerTableRecord
  2
COSMETICS
 70
0
 62
7
  6
CONTINUOUS
370
-3
390
F
  0
LAYER
  5
201
100
AcDbSymbolTableRecord
100
AcDbLayerTableRecord
  2
CSYS
 70
0
 62
7
  6
CONTINUOUS
370
-3
390
F
  0
LAYER
  5
202
100
AcDbSymbolTableRecord
100
AcDbLayerTableRecord
  2
CURVES
 70
0
 62
7
  6
CONTINUOUS
370
-3
390
F
  0
LAYER
  5
203
100
AcDbSymbolTableRecord
100
AcDbLayerTableRecord
  2
DRAFTS
 70
0
 62
7
  6
CONTINUOUS
370
-3
390
F
  0
LAYER
  5
204
100
AcDbSymbolTableRecord
100
AcDbLayerTableRecord
  2
EBENEN
 70
0
 62
7
  6
CONTINUOUS
370
-3
390
F
  0
LAYER
  5
205
100
AcDbSymbolTableRecord
100
AcDbLayerTableRecord
  2
HOLES
 70
0
 62
7
  6
CONTINUOUS
370
-3
390
F
  0
LAYER
  5
206
100
AcDbSymbolTableRecord
100
AcDbLayerTableRecord
  2
ISDX_KURVEN
 70
0
 62
7
  6
CONTINUOUS
370
-3
390
F
  0
LAYER
  5
207
100
AcDbSymbolTableRecord
100
AcDbLayerTableRecord
  2
KURVEN
 70
0
 62
7
  6
CONTINUOUS
370
-3
390
F
  0
LAYER
  5
208
100
AcDbSymbolTableRecord
100
AcDbLayerTableRecord
  2
NOTES
 70
0
 62
7
  6
CONTINUOUS
370
-3
390
F
  0
LAYER
  5
209
100
AcDbSymbolTableRecord
100
AcDbLayerTableRecord
  2
NO_SHOW
 70
0
 62
7
  6
CONTINUOUS
370
-3
390
F
  0
LAYER
  5
20A
100
AcDbSymbolTableRecord
100
AcDbLayerTableRecord
  2
POINTS
 70
0
 62
7
  6
CONTINUOUS
370
-3
390
F
  0
LAYER
  5
20B
100
AcDbSymbolTableRecord
100
AcDbLayerTableRecord
  2
PUNKTE
 70
0
 62
7
  6
CONTINUOUS
370
-3
390
F
  0
LAYER
  5
20C
100
AcDbSymbolTableRecord
100
AcDbLayerTableRecord
  2
QUILTS
 70
0
 62
7
  6
CONTINUOUS
370
-3
390
F
  0
LAYER
  5
20D
100
AcDbSymbolTableRecord
100
AcDbLayerTableRecord
  2
REFDIM
 70
0
 62
7
  6
CONTINUOUS
370
-3
390
F
  0
LAYER
  5
20E
100
AcDbSymbolTableRecord
100
AcDbLayerTableRecord
  2
RIBS
 70
0
 62
7
  6
CONTINUOUS
370
-3
390
F
  0
LAYER
  5
20F
100
AcDbSymbolTableRecord
100
AcDbLayerTableRecord
  2
ROUNDS
 70
0
 62
7
  6
CONTINUOUS
370
-3
390
F
  0
LAYER
  5
210
100
AcDbSymbolTableRecord
100
AcDbLayerTableRecord
  2
SURFACES
 70
0
 62
7
  6
CONTINUOUS
370
-3
390
F
  0
LAYER
  5
211
100
AcDbSymbolTableRecord
100
AcDbLayerTableRecord
  2
SYMBOLS
 70
0
 62
7
  6
CONTINUOUS
370
-3
390
F
  0
ENDTAB
  0
TABLE
  2
STYLE
  5
3
100
AcDbSymbolTable
 70
1
  0
STYLE
  5
11
100
AcDbSymbolTableRecord
100
AcDbTextStyleTableRecord
  2
STANDARD
 70
0
 40
0.0
 41
0.8
 50
0.0
 71
0
 42
0.2
  3
txt
  4

  0
STYLE
  5
212
100
AcDbSymbolTableRecord
100
AcDbTextStyleTableRecord
  2
TEXTSTYLE_1
 70
0
 40
0.0
 41
0.8
 50
0.0
 71
0
 42
0.2
  3
gdt
  4

  0
ENDTAB
  0
TABLE
  2
VIEW
  5
6
100
AcDbSymbolTable
 70
0
  0
ENDTAB
  0
TABLE
  2
UCS
  5
7
100
AcDbSymbolTable
 70
0
  0
ENDTAB
  0
TABLE
  2
APPID
  5
9
100
AcDbSymbolTable
 70
1
  0
APPID
  5
213
100
AcDbSymbolTableRecord
100
AcDbRegAppTableRecord
  2
ACAD
 70
0
  0
ENDTAB
  0
TABLE
  2
BLOCK_RECORD
  5
1
100
AcDbSymbolTable
 70
0
  0
BLOCK_RECORD
  5
214
100
AcDbSymbolTableRecord
100
AcDbBlockTableRecord
  2
*Model_Space
  0
BLOCK_RECORD
  5
215
100
AcDbSymbolTableRecord
100
AcDbBlockTableRecord
  2
*Paper_Space
  0
BLOCK_RECORD
  5
216
100
AcDbSymbolTableRecord
100
AcDbBlockTableRecord
  2
_FILLED
  0
ENDTAB
  0
TABLE
  2
DIMSTYLE
  5
A
100
AcDbSymbolTable
 70
1
100
AcDbDimStyleTable
 71
0
  0
DIMSTYLE
105
217
100
AcDbSymbolTableRecord
100
AcDbDimStyleTableRecord
  2
STANDARD
 70
0
  3

  4

 40
1.0
 41
3.5
 42
0.0
 43
0.38
 44
2.0
 45
0.0
 46
0.0
 47
0.001
 48
0.001
140
3.5
141
0.09
142
0.0
143
25.4
144
1.0
145
0.0
146
1.0
147
0.625
 71
1
 72
0
 73
0
 74
0
 75
0
 76
0
 77
1
 78
8
 79
2
170
0
171
2
172
0
173
0
174
0
175
0
176
0
177
0
178
0
270
2
179
3
271
3
272
3
273
2
274
2
275
0
280
0
281
0
282
0
283
1
284
8
285
0
286
0
287
3
288
0
340
11
278
46
341
216
342
216
343
216
344
216
  0
ENDTAB
  0
ENDSEC
  0
SECTION
  2
BLOCKS
  0
BLOCK
  5
20
100
AcDbEntity
  8
0
100
AcDbBlockBegin
  2
*Model_Space
 70
0
 10
0.0
 20
0.0
 30
0.0
  3
*Model_Space
  1

  0
ENDBLK
  5
21
100
AcDbEntity
  8
0
100
AcDbBlockEnd
  0
BLOCK
  5
1C
100
AcDbEntity
  8
0
100
AcDbBlockBegin
  2
*Paper_Space
 70
0
 10
0.0
 20
0.0
 30
0.0
  3
*Paper_Space
  1

  0
ENDBLK
  5
1D
100
AcDbEntity
  8
0
100
AcDbBlockEnd
  0
BLOCK
  5
218
100
AcDbEntity
  8
0
100
AcDbBlockBegin
  2
_FILLED
 70
64
 10
0.0
 20
0.0
  3
_FILLED
  1

  0
SOLID
  5
219
100
AcDbEntity
  8
0
  6
BYBLOCK
 62
0
100
AcDbTrace
 10
0.0
 20
0.0
 11
-1.0
 21
0.1071428571
 12
-1.0
 22
-0.1071428571
 13
-1.0
 23
-0.1071428571
  0
ENDBLK
  5
21A
100
AcDbEntity
  8
0
  6
BYBLOCK
 62
0
100
AcDbBlockEnd
  0
ENDSEC
  0
SECTION
  2
ENTITIES
  0
LINE
  5
21B
100
AcDbEntity
  8
0
100
AcDbLine
 62
7
  6
CONTINUOUS
 10
0.0
 20
0.0
 11
0.0
 21
420.0
  0
LINE
  5
21C
100
AcDbEntity
  8
0
100
AcDbLine
 62
7
  6
CONTINUOUS
 10
0.0
 20
0.0
 11
594.0
 21
0.0
  0
LINE
  5
21D
100
AcDbEntity
  8
0
100
AcDbLine
 62
7
  6
CONTINUOUS
 10
0.0
 20
420.0
 11
594.0
 21
420.0
  0
LINE
  5
21E
100
AcDbEntity
  8
0
100
AcDbLine
 62
7
  6
CONTINUOUS
 10
594.0
 20
0.0
 11
594.0
 21
420.0
  0
LINE
  5
21F
100
AcDbEntity
  8
0
100
AcDbLine
 62
1
  6
CONTINUOUS
 10
53.6846769958
 20
321.1348805147
 11
53.6846769958
 21
151.1348805147
  0
LINE
  5
220
100
AcDbEntity
  8
0
100
AcDbLine
 62
1
  6
CONTINUOUS
 10
118.6846769958
 20
321.1348805147
 11
118.6846769958
 21
293.1348805147
  0
LINE
  5
221
100
AcDbEntity
  8
0
100
AcDbLine
 62
1
  6
CONTINUOUS
 10
118.6846769958
 20
151.1348805147
 11
118.6846769958
 21
179.1348805147
  0
LINE
  5
222
100
AcDbEntity
  8
0
100
AcDbLine
 62
1
  6
CONTINUOUS
 10
132.1846769958
 20
293.1348805147
 11
132.1846769958
 21
253.1348805147
  0
LINE
  5
223
100
AcDbEntity
  8
0
100
AcDbLine
 62
1
  6
CONTINUOUS
 10
132.1846769958
 20
179.1348805147
 11
132.1846769958
 21
219.1348805147
  0
LINE
  5
224
100
AcDbEntity
  8
0
100
AcDbLine
 62
1
  6
CONTINUOUS
 10
157.1846769958
 20
219.1348805147
 11
157.1846769958
 21
179.1348805147
  0
LINE
  5
225
100
AcDbEntity
  8
0
100
AcDbLine
 62
1
  6
CONTINUOUS
 10
157.1846769958
 20
253.1348805147
 11
157.1846769958
 21
293.1348805147
  0
LINE
  5
226
100
AcDbEntity
  8
0
100
AcDbLine
 62
1
  6
CONTINUOUS
 10
170.6846769958
 20
321.1348805147
 11
170.6846769958
 21
293.1348805147
  0
LINE
  5
227
100
AcDbEntity
  8
0
100
AcDbLine
 62
1
  6
CONTINUOUS
 10
170.6846769958
 20
151.1348805147
 11
170.6846769958
 21
179.1348805147
  0
LINE
  5
228
100
AcDbEntity
  8
0
100
AcDbLine
 62
1
  6
CONTINUOUS
 10
53.6846769958
 20
151.1348805147
 11
118.6846769958
 21
151.1348805147
  0
LINE
  5
229
100
AcDbEntity
  8
0
100
AcDbLine
 62
1
  6
CONTINUOUS
 10
170.6846769958
 20
151.1348805147
 11
386.6846769958
 21
151.1348805147
  0
LINE
  5
22A
100
AcDbEntity
  8
0
100
AcDbLine
 62
1
  6
CONTINUOUS
 10
438.6846769958
 20
151.1348805147
 11
533.6846769958
 21
151.1348805147
  0
LINE
  5
22B
100
AcDbEntity
  8
0
100
AcDbLine
 62
1
  6
CONTINUOUS
 10
293.6846769958
 20
175.6348805147
 11
369.6846769958
 21
175.6348805147
  0
LINE
  5
22C
100
AcDbEntity
  8
0
100
AcDbLine
 62
1
  6
CONTINUOUS
 10
118.6846769958
 20
179.1348805147
 11
132.1846769958
 21
179.1348805147
  0
LINE
  5
22D
100
AcDbEntity
  8
0
100
AcDbLine
 62
1
  6
CONTINUOUS
 10
157.1846769958
 20
179.1348805147
 11
170.6846769958
 21
179.1348805147
  0
LINE
  5
22E
100
AcDbEntity
  8
0
100
AcDbLine
 62
1
  6
CONTINUOUS
 10
386.6846769958
 20
179.1348805147
 11
400.1846769958
 21
179.1348805147
  0
LINE
  5
22F
100
AcDbEntity
  8
0
100
AcDbLine
 62
1
  6
CONTINUOUS
 10
425.1846769958
 20
179.1348805147
 11
438.6846769958
 21
179.1348805147
  0
LINE
  5
230
100
AcDbEntity
  8
0
100
AcDbLine
 62
1
  6
CONTINUOUS
 10
132.1846769958
 20
219.1348805147
 11
157.1846769958
 21
219.1348805147
  0
LINE
  5
231
100
AcDbEntity
  8
0
100
AcDbLine
 62
1
  6
CONTINUOUS
 10
400.1846769958
 20
219.1348805147
 11
425.1846769958
 21
219.1348805147
  0
LINE
  5
232
100
AcDbEntity
  8
0
100
AcDbLine
 62
1
  6
CONTINUOUS
 10
486.6846769958
 20
220.6348805147
 11
508.6846769958
 21
220.6348805147
  0
LINE
  5
233
100
AcDbEntity
  8
0
100
AcDbLine
 62
1
  6
CONTINUOUS
 10
293.6846769958
 20
296.6348805147
 11
293.6846769958
 21
175.6348805147
  0
LINE
  5
234
100
AcDbEntity
  8
0
100
AcDbLine
 62
1
  6
CONTINUOUS
 10
508.6846769958
 20
251.6348805147
 11
486.6846769958
 21
251.6348805147
  0
LINE
  5
235
100
AcDbEntity
  8
0
100
AcDbLine
 62
1
  6
CONTINUOUS
 10
132.1846769958
 20
253.1348805147
 11
157.1846769958
 21
253.1348805147
  0
LINE
  5
236
100
AcDbEntity
  8
0
100
AcDbLine
 62
1
  6
CONTINUOUS
 10
400.1846769958
 20
253.1348805147
 11
425.1846769958
 21
253.1348805147
  0
LINE
  5
237
100
AcDbEntity
  8
0
100
AcDbLine
 62
1
  6
CONTINUOUS
 10
118.6846769958
 20
293.1348805147
 11
132.1846769958
 21
293.1348805147
  0
LINE
  5
238
100
AcDbEntity
  8
0
100
AcDbLine
 62
1
  6
CONTINUOUS
 10
157.1846769958
 20
293.1348805147
 11
170.6846769958
 21
293.1348805147
  0
LINE
  5
239
100
AcDbEntity
  8
0
100
AcDbLine
 62
1
  6
CONTINUOUS
 10
386.6846769958
 20
293.1348805147
 11
400.1846769958
 21
293.1348805147
  0
LINE
  5
23A
100
AcDbEntity
  8
0
100
AcDbLine
 62
1
  6
CONTINUOUS
 10
425.1846769958
 20
293.1348805147
 11
438.6846769958
 21
293.1348805147
  0
LINE
  5
23B
100
AcDbEntity
  8
0
100
AcDbLine
 62
1
  6
CONTINUOUS
 10
369.6846769958
 20
296.6348805147
 11
293.6846769958
 21
296.6348805147
  0
LINE
  5
23C
100
AcDbEntity
  8
0
100
AcDbLine
 62
1
  6
CONTINUOUS
 10
369.6846769958
 20
175.6348805147
 11
369.6846769958
 21
296.6348805147
  0
LINE
  5
23D
100
AcDbEntity
  8
0
100
AcDbLine
 62
1
  6
CONTINUOUS
 10
533.6846769958
 20
321.1348805147
 11
438.6846769958
 21
321.1348805147
  0
LINE
  5
23E
100
AcDbEntity
  8
0
100
AcDbLine
 62
1
  6
CONTINUOUS
 10
386.6846769958
 20
321.1348805147
 11
170.6846769958
 21
321.1348805147
  0
LINE
  5
23F
100
AcDbEntity
  8
0
100
AcDbLine
 62
1
  6
CONTINUOUS
 10
118.6846769958
 20
321.1348805147
 11
53.6846769958
 21
321.1348805147
  0
LINE
  5
240
100
AcDbEntity
  8
0
100
AcDbLine
 62
1
  6
CONTINUOUS
 10
386.6846769958
 20
321.1348805147
 11
386.6846769958
 21
293.1348805147
  0
LINE
  5
241
100
AcDbEntity
  8
0
100
AcDbLine
 62
1
  6
CONTINUOUS
 10
386.6846769958
 20
151.1348805147
 11
386.6846769958
 21
179.1348805147
  0
LINE
  5
242
100
AcDbEntity
  8
0
100
AcDbLine
 62
1
  6
CONTINUOUS
 10
400.1846769958
 20
293.1348805147
 11
400.1846769958
 21
253.1348805147
  0
LINE
  5
243
100
AcDbEntity
  8
0
100
AcDbLine
 62
1
  6
CONTINUOUS
 10
400.1846769958
 20
179.1348805147
 11
400.1846769958
 21
219.1348805147
  0
LINE
  5
244
100
AcDbEntity
  8
0
100
AcDbLine
 62
1
  6
CONTINUOUS
 10
425.1846769958
 20
219.1348805147
 11
425.1846769958
 21
179.1348805147
  0
LINE
  5
245
100
AcDbEntity
  8
0
100
AcDbLine
 62
1
  6
CONTINUOUS
 10
425.1846769958
 20
253.1348805147
 11
425.1846769958
 21
293.1348805147
  0
LINE
  5
246
100
AcDbEntity
  8
0
100
AcDbLine
 62
1
  6
CONTINUOUS
 10
438.6846769958
 20
321.1348805147
 11
438.6846769958
 21
293.1348805147
  0
LINE
  5
247
100
AcDbEntity
  8
0
100
AcDbLine
 62
1
  6
CONTINUOUS
 10
438.6846769958
 20
151.1348805147
 11
438.6846769958
 21
179.1348805147
  0
LINE
  5
248
100
AcDbEntity
  8
0
100
AcDbLine
 62
1
  6
CONTINUOUS
 10
486.6846769958
 20
251.6348805147
 11
486.6846769958
 21
220.6348805147
  0
LINE
  5
249
100
AcDbEntity
  8
0
100
AcDbLine
 62
1
  6
CONTINUOUS
 10
508.6846769958
 20
220.6348805147
 11
508.6846769958
 21
251.6348805147
  0
LINE
  5
24A
100
AcDbEntity
  8
0
100
AcDbLine
 62
1
  6
CONTINUOUS
 10
533.6846769958
 20
151.1348805147
 11
533.6846769958
 21
321.1348805147
  0
CIRCLE
  5
24B
100
AcDbEntity
  8
ACHSEN
100
AcDbCircle
 62
1
  6
CONTINUOUS
 10
99.6846769958
 20
158.9842405147
 40
3.55
  0
CIRCLE
  5
24C
100
AcDbEntity
  8
ACHSEN
100
AcDbCircle
 62
1
  6
CONTINUOUS
 10
204.6846769958
 20
158.9842405147
 40
3.55
  0
CIRCLE
  5
24D
100
AcDbEntity
  8
ACHSEN
100
AcDbCircle
 62
1
  6
CONTINUOUS
 10
271.6398769958
 20
158.9842405147
 40
3.55
  0
CIRCLE
  5
24E
100
AcDbEntity
  8
ACHSEN
100
AcDbCircle
 62
1
  6
CONTINUOUS
 10
290.6846769958
 20
176.1348805147
 40
1.75
  0
CIRCLE
  5
24F
100
AcDbEntity
  8
ACHSEN
100
AcDbCircle
 62
1
  6
CONTINUOUS
 10
175.6846769958
 20
176.1348805147
 40
1.75
  0
CIRCLE
  5
250
100
AcDbEntity
  8
0
100
AcDbCircle
 62
1
  6
CONTINUOUS
 10
126.6846769958
 20
185.0348805147
 40
1.5
  0
CIRCLE
  5
251
100
AcDbEntity
  8
0
100
AcDbCircle
 62
1
  6
CONTINUOUS
 10
126.6846769958
 20
212.1348805147
 40
1.5
  0
CIRCLE
  5
252
100
AcDbEntity
  8
0
100
AcDbCircle
 62
1
  6
CONTINUOUS
 10
162.6846769958
 20
185.0348805147
 40
1.5
  0
CIRCLE
  5
253
100
AcDbEntity
  8
0
100
AcDbCircle
 62
1
  6
CONTINUOUS
 10
162.6846769958
 20
212.1348805147
 40
1.5
  0
CIRCLE
  5
254
100
AcDbEntity
  8
ACHSEN
100
AcDbCircle
 62
1
  6
CONTINUOUS
 10
66.1846769958
 20
236.1348805147
 40
3.55
  0
CIRCLE
  5
255
100
AcDbEntity
  8
ACHSEN
100
AcDbCircle
 62
1
  6
CONTINUOUS
 10
99.6846769958
 20
313.2855205147
 40
3.55
  0
CIRCLE
  5
256
100
AcDbEntity
  8
ACHSEN
100
AcDbCircle
 62
1
  6
CONTINUOUS
 10
204.6846769958
 20
313.2855205147
 40
3.55
  0
CIRCLE
  5
257
100
AcDbEntity
  8
ACHSEN
100
AcDbCircle
 62
1
  6
CONTINUOUS
 10
271.6398769958
 20
313.2855205147
 40
3.55
  0
CIRCLE
  5
258
100
AcDbEntity
  8
ACHSEN
100
AcDbCircle
 62
1
  6
CONTINUOUS
 10
290.6846769958
 20
296.1348805147
 40
1.75
  0
CIRCLE
  5
259
100
AcDbEntity
  8
ACHSEN
100
AcDbCircle
 62
1
  6
CONTINUOUS
 10
175.6846769958
 20
296.1348805147
 40
1.75
  0
CIRCLE
  5
25A
100
AcDbEntity
  8
0
100
AcDbCircle
 62
1
  6
CONTINUOUS
 10
126.6846769958
 20
287.2348805147
 40
1.5
  0
CIRCLE
  5
25B
100
AcDbEntity
  8
0
100
AcDbCircle
 62
1
  6
CONTINUOUS
 10
126.6846769958
 20
260.1348805147
 40
1.5
  0
CIRCLE
  5
25C
100
AcDbEntity
  8
0
100
AcDbCircle
 62
1
  6
CONTINUOUS
 10
162.6846769958
 20
287.2348805147
 40
1.5
  0
CIRCLE
  5
25D
100
AcDbEntity
  8
0
100
AcDbCircle
 62
1
  6
CONTINUOUS
 10
162.6846769958
 20
260.1348805147
 40
1.5
  0
CIRCLE
  5
25E
100
AcDbEntity
  8
ACHSEN
100
AcDbCircle
 62
1
  6
CONTINUOUS
 10
469.1398769958
 20
158.9842405147
 40
3.55
  0
CIRCLE
  5
25F
100
AcDbEntity
  8
ACHSEN
100
AcDbCircle
 62
1
  6
CONTINUOUS
 10
314.6846769958
 20
165.6348805147
 40
2.5
  0
CIRCLE
  5
260
100
AcDbEntity
  8
ACHSEN
100
AcDbCircle
 62
1
  6
CONTINUOUS
 10
370.6846769958
 20
165.6348805147
 40
2.5
  0
CIRCLE
  5
261
100
AcDbEntity
  8
ACHSEN
100
AcDbCircle
 62
1
  6
CONTINUOUS
 10
519.1846769958
 20
208.1348805147
 40
2.5
  0
CIRCLE
  5
262
100
AcDbEntity
  8
ACHSEN
100
AcDbCircle
 62
1
  6
CONTINUOUS
 10
455.1846769958
 20
224.1348805147
 40
2.25
  0
CIRCLE
  5
263
100
AcDbEntity
  8
ACHSEN
100
AcDbCircle
 62
1
  6
CONTINUOUS
 10
380.1846769958
 20
224.1348805147
 40
2.25
  0
CIRCLE
  5
264
100
AcDbEntity
  8
0
100
AcDbCircle
 62
1
  6
CONTINUOUS
 10
394.6846769958
 20
185.0348805147
 40
1.5
  0
CIRCLE
  5
265
100
AcDbEntity
  8
0
100
AcDbCircle
 62
1
  6
CONTINUOUS
 10
394.6846769958
 20
212.1348805147
 40
1.5
  0
CIRCLE
  5
266
100
AcDbEntity
  8
0
100
AcDbCircle
 62
1
  6
CONTINUOUS
 10
430.6846769958
 20
185.0348805147
 40
1.5
  0
CIRCLE
  5
267
100
AcDbEntity
  8
0
100
AcDbCircle
 62
1
  6
CONTINUOUS
 10
430.6846769958
 20
212.1348805147
 40
1.5
  0
CIRCLE
  5
268
100
AcDbEntity
  8
0
100
AcDbCircle
 62
1
  6
CONTINUOUS
 10
419.6846769958
 20
236.1348805147
 40
4.2
  0
CIRCLE
  5
269
100
AcDbEntity
  8
ACHSEN
100
AcDbCircle
 62
1
  6
CONTINUOUS
 10
469.1398769958
 20
313.2855205147
 40
3.55
  0
CIRCLE
  5
26A
100
AcDbEntity
  8
ACHSEN
100
AcDbCircle
 62
1
  6
CONTINUOUS
 10
314.6846769958
 20
306.6348805147
 40
2.5
  0
CIRCLE
  5
26B
100
AcDbEntity
  8
ACHSEN
100
AcDbCircle
 62
1
  6
CONTINUOUS
 10
370.6846769958
 20
306.6348805147
 40
2.5
  0
CIRCLE
  5
26C
100
AcDbEntity
  8
ACHSEN
100
AcDbCircle
 62
1
  6
CONTINUOUS
 10
519.1846769958
 20
264.1348805147
 40
2.5
  0
CIRCLE
  5
26D
100
AcDbEntity
  8
ACHSEN
100
AcDbCircle
 62
1
  6
CONTINUOUS
 10
455.1846769958
 20
248.1348805147
 40
2.25
  0
CIRCLE
  5
26E
100
AcDbEntity
  8
ACHSEN
100
AcDbCircle
 62
1
  6
CONTINUOUS
 10
380.1846769958
 20
248.1348805147
 40
2.25
  0
CIRCLE
  5
26F
100
AcDbEntity
  8
0
100
AcDbCircle
 62
1
  6
CONTINUOUS
 10
394.6846769958
 20
287.2348805147
 40
1.5
  0
CIRCLE
  5
270
100
AcDbEntity
  8
0
100
AcDbCircle
 62
1
  6
CONTINUOUS
 10
394.6846769958
 20
260.1348805147
 40
1.5
  0
CIRCLE
  5
271
100
AcDbEntity
  8
0
100
AcDbCircle
 62
1
  6
CONTINUOUS
 10
430.6846769958
 20
287.2348805147
 40
1.5
  0
CIRCLE
  5
272
100
AcDbEntity
  8
0
100
AcDbCircle
 62
1
  6
CONTINUOUS
 10
430.6846769958
 20
260.1348805147
 40
1.5
  0
ENDSEC
  0
SECTION
  2
OBJECTS
  0
DICTIONARY
  5
C
100
AcDbDictionary
280
0
281
1
  3
ACAD_GROUP
350
D
  3
ACAD_MLINESTYLE
350
17
  3
ACAD_LAYOUT
350
1A
  3
ACAD_PLOTSETTINGS
350
19
  3
ACAD_PLOTSTYLENAME
350
E
  0
DICTIONARY
  5
D
102
{ACAD_REACTORS
330
C
102
}
100
AcDbDictionary
280
0
281
1
  0
ACDBDICTIONARYWDFLT
  5
E
102
{ACAD_REACTORS
330
C
102
}
100
AcDbDictionary
281
1
  3
Normal
350
F
100
AcDbDictionaryWithDefault
340
F
  0
DICTIONARY
  5
17
102
{ACAD_REACTORS
330
C
102
}
100
AcDbDictionary
280
0
281
1
  3
Standard
350
18
  0
DICTIONARY
  5
19
102
{ACAD_REACTORS
330
C
102
}
100
AcDbDictionary
281
1
  0
DICTIONARY
  5
1A
102
{ACAD_REACTORS
330
C
102
}
100
AcDbDictionary
281
1
  3
Model
350
273
  3
Layout1
350
274
  0
ACDBPLACEHOLDER
  5
F
102
{ACAD_REACTORS
330
E
102
}
  0
MLINESTYLE
  5
18
102
{ACAD_REACTORS
330
17
102
}
100
AcDbMlineStyle
  2
STANDARD
 70
0
  3

 62
256
 51
90.0
 52
90.0
 71
2
 49
0.5
 62
256
  6
BYLAYER
 49
-0.5
 62
256
  6
BYLAYER
  0
LAYOUT
  5
273
102
{ACAD_REACTORS
330
1A
102
}
100
AcDbPlotSettings
  1

  2
none_device
  4
ISO_A2_(594.00_x_420.00_MM)
  6

 40
0.0
 41
0.0
 42
0.0
 43
0.0
 44
594.0
 45
420.0
 46
0.0
 47
0.0
 48
0.0
 49
0.0
140
0.0
141
0.0
142
1.0
143
1.0
 70
1024
 72
1
 73
0
 74
0
  7

 75
0
147
1.0
148
0.0
149
0.0
100
AcDbLayout
  1
Model
 70
0
 71
0
 10
0.0
 20
0.0
 11
594.0
 21
420.0
 12
0.0
 22
0.0
 32
0.0
 14
0.0
 24
0.0
 34
0.0
 15
0.0
 25
0.0
 35
0.0
146
0.0
 13
0.0
 23
0.0
 33
0.0
 16
1.0
 26
0.0
 36
0.0
 17
0.0
 27
1.0
 37
0.0
 76
0
330
214
345
0
346
0
  0
LAYOUT
  5
274
102
{ACAD_REACTORS
330
1A
102
}
100
AcDbPlotSettings
  1

  2
none_device
  4
ISO_A2_(594.00_x_420.00_MM)
  6

 40
0.0
 41
0.0
 42
0.0
 43
0.0
 44
594.0
 45
420.0
 46
0.0
 47
0.0
 48
0.0
 49
0.0
140
0.0
141
0.0
142
1.0
143
1.0
 70
0
 72
1
 73
0
 74
0
  7

 75
0
147
1.0
148
0.0
149
0.0
100
AcDbLayout
  1
Layout1
 70
0
 71
1
 10
0.0
 20
0.0
 11
594.0
 21
420.0
 12
0.0
 22
0.0
 32
0.0
 14
0.0
 24
0.0
 34
0.0
 15
0.0
 25
0.0
 35
0.0
146
0.0
 13
0.0
 23
0.0
 33
0.0
 16
1.0
 26
0.0
 36
0.0
 17
0.0
 27
1.0
 37
0.0
 76
0
330
215
345
0
346
0
  0
ENDSEC
  0
EOF
