0
SECTION
2
HEADER
0
ENDSEC
0
SECTION
2
TABLES
0
TABLE
2
LTYPE
0
LTYPE
72
65
70
64
2
CONTINUOUS
3
______
73
0
40
0
0
ENDTAB
0
TABLE
2
LAYER
0
ENDTAB
0
ENDSEC
0
SECTION
2
ENTITIES
0
LINE
8
layer0
10
16.5123796
20
2.7799424
11
16.2685928
21
2.6124506
0
LINE
8
layer0
10
16.2685928
20
2.6124506
11
16.0402943
21
2.4693041
0
LINE
8
layer0
10
16.0402943
20
2.4693041
11
15.8305396
21
2.3496786
0
LINE
8
layer0
10
15.8305396
20
2.3496786
11
15.6383301
21
2.2504509
0
LINE
8
layer0
10
15.6383301
20
2.2504509
11
15.4656109
21
2.1702352
0
LINE
8
layer0
10
15.4656109
20
2.1702352
11
15.3144924
21
2.1076014
0
LINE
8
layer0
10
15.3144924
20
2.1076014
11
15.1841517
21
2.059886
0
LINE
8
layer0
10
15.1841517
20
2.059886
11
15.0801285
21
2.0266499
0
LINE
8
layer0
10
15.0801285
20
2.0266499
11
14.974402
21
1.9962204
0
LINE
8
layer0
10
14.974402
20
1.9962204
11
14.9130894
21
1.9746669
0
LINE
8
layer0
10
14.9130894
20
1.9746669
11
14.8592532
21
1.9515789
0
LINE
8
layer0
10
14.8592532
20
1.9515789
11
14.8129356
21
1.9272418
0
LINE
8
layer0
10
14.8129356
20
1.9272418
11
14.7741461
21
1.901968
0
LINE
8
layer0
10
14.7741461
20
1.901968
11
14.7429149
21
1.8760621
0
LINE
8
layer0
10
14.7429149
20
1.8760621
11
14.7192416
21
1.8498354
0
LINE
8
layer0
10
14.7192416
20
1.8498354
11
14.7031275
21
1.8235795
0
LINE
8
layer0
10
14.7031275
20
1.8235795
11
14.6945622
21
1.7976049
0
LINE
8
layer0
10
14.6945622
20
1.7976049
11
14.6935144
21
1.77223
0
LINE
8
layer0
10
14.6935144
20
1.77223
11
14.6998335
21
1.719395
0
LINE
8
layer0
10
14.6998335
20
1.719395
11
14.728734
21
1.4506537
0
LINE
8
layer0
10
14.728734
20
1.4506537
11
14.7528177
21
1.1814379
0
LINE
8
layer0
10
14.7528177
20
1.1814379
11
14.7569275
21
1.1283853
0
LINE
8
layer0
10
14.7569275
20
1.1283853
11
14.7629057
21
1.1037024
0
LINE
8
layer0
10
14.7629057
20
1.1037024
11
14.7763738
21
1.0798979
0
LINE
8
layer0
10
14.7763738
20
1.0798979
11
14.7973005
21
1.0572902
0
LINE
8
layer0
10
14.7973005
20
1.0572902
11
14.8256355
21
1.0361859
0
LINE
8
layer0
10
14.8256355
20
1.0361859
11
14.8613206
21
1.0168707
0
LINE
8
layer0
10
14.8613206
20
1.0168707
11
14.9042954
21
0.99965
0
LINE
8
layer0
10
14.9042954
20
0.99965
11
14.954471
21
0.9848166
0
LINE
8
layer0
10
14.954471
20
0.9848166
11
15.011777
21
0.9726751
0
LINE
8
layer0
10
15.011777
20
0.9726751
11
15.0761164
21
0.9634973
0
LINE
8
layer0
10
15.0761164
20
0.9634973
11
15.1857479
21
0.9542787
0
LINE
8
layer0
10
15.1857479
20
0.9542787
11
15.2942563
21
0.9419751
0
LINE
8
layer0
10
15.2942563
20
0.9419751
11
15.4314014
21
0.9206048
0
LINE
8
layer0
10
15.4314014
20
0.9206048
11
15.5918354
21
0.8886562
0
LINE
8
layer0
10
15.5918354
20
0.8886562
11
15.7768851
21
0.8436777
0
LINE
8
layer0
10
15.7768851
20
0.8436777
11
15.9847598
21
0.7838549
0
LINE
8
layer0
10
15.9847598
20
0.7838549
11
16.2138219
21
0.707449
0
LINE
8
layer0
10
16.2138219
20
0.707449
11
16.4656602
21
0.6115919
0
LINE
8
layer0
10
16.4656602
20
0.6115919
11
16.7374387
21
0.4948789
0
LINE
8
layer0
10
16.7374387
20
0.4948789
11
16.9959341
21
0.3714248
0
ARC
8
layer0
10
-0.0000079
20
0
40
17
50
358.7480729
51
361.2519275
0
LINE
8
layer0
10
16.9959341
20
-0.3714248
11
16.7374387
21
-0.4948789
0
LINE
8
layer0
10
16.7374387
20
-0.4948789
11
16.4656602
21
-0.6115919
0
LINE
8
layer0
10
16.4656602
20
-0.6115919
11
16.2138219
21
-0.707449
0
LINE
8
layer0
10
16.2138219
20
-0.707449
11
15.9847598
21
-0.7838549
0
LINE
8
layer0
10
15.9847598
20
-0.7838549
11
15.7768851
21
-0.8436777
0
LINE
8
layer0
10
15.7768851
20
-0.8436777
11
15.5918354
21
-0.8886562
0
LINE
8
layer0
10
15.5918354
20
-0.8886562
11
15.4314014
21
-0.9206048
0
LINE
8
layer0
10
15.4314014
20
-0.9206048
11
15.2942563
21
-0.9419751
0
LINE
8
layer0
10
15.2942563
20
-0.9419751
11
15.1857479
21
-0.9542787
0
LINE
8
layer0
10
15.1857479
20
-0.9542787
11
15.0761164
21
-0.9634973
0
LINE
8
layer0
10
15.0761164
20
-0.9634973
11
15.011777
21
-0.9726751
0
LINE
8
layer0
10
15.011777
20
-0.9726751
11
14.954471
21
-0.9848166
0
LINE
8
layer0
10
14.954471
20
-0.9848166
11
14.9042954
21
-0.99965
0
LINE
8
layer0
10
14.9042954
20
-0.99965
11
14.8613206
21
-1.0168707
0
LINE
8
layer0
10
14.8613206
20
-1.0168707
11
14.8256355
21
-1.0361859
0
LINE
8
layer0
10
14.8256355
20
-1.0361859
11
14.7973005
21
-1.0572902
0
LINE
8
layer0
10
14.7973005
20
-1.0572902
11
14.7763738
21
-1.0798979
0
LINE
8
layer0
10
14.7763738
20
-1.0798979
11
14.7629057
21
-1.1037024
0
LINE
8
layer0
10
14.7629057
20
-1.1037024
11
14.7569275
21
-1.1283853
0
LINE
8
layer0
10
14.7569275
20
-1.1283853
11
14.7528177
21
-1.1814379
0
LINE
8
layer0
10
14.7528177
20
-1.1814379
11
14.728734
21
-1.4506537
0
LINE
8
layer0
10
14.728734
20
-1.4506537
11
14.6998335
21
-1.719395
0
LINE
8
layer0
10
14.6998335
20
-1.719395
11
14.6935144
21
-1.77223
0
LINE
8
layer0
10
14.6935144
20
-1.77223
11
14.6945622
21
-1.7976049
0
LINE
8
layer0
10
14.6945622
20
-1.7976049
11
14.7031275
21
-1.8235795
0
LINE
8
layer0
10
14.7031275
20
-1.8235795
11
14.7192416
21
-1.8498354
0
LINE
8
layer0
10
14.7192416
20
-1.8498354
11
14.7429149
21
-1.8760621
0
LINE
8
layer0
10
14.7429149
20
-1.8760621
11
14.7741461
21
-1.901968
0
LINE
8
layer0
10
14.7741461
20
-1.901968
11
14.8129356
21
-1.9272418
0
LINE
8
layer0
10
14.8129356
20
-1.9272418
11
14.8592532
21
-1.9515789
0
LINE
8
layer0
10
14.8592532
20
-1.9515789
11
14.9130894
21
-1.9746669
0
LINE
8
layer0
10
14.9130894
20
-1.9746669
11
14.974402
21
-1.9962204
0
LINE
8
layer0
10
14.974402
20
-1.9962204
11
15.0801285
21
-2.0266499
0
LINE
8
layer0
10
15.0801285
20
-2.0266499
11
15.1841517
21
-2.059886
0
LINE
8
layer0
10
15.1841517
20
-2.059886
11
15.3144924
21
-2.1076014
0
LINE
8
layer0
10
15.3144924
20
-2.1076014
11
15.4656109
21
-2.1702352
0
LINE
8
layer0
10
15.4656109
20
-2.1702352
11
15.6383301
21
-2.2504509
0
LINE
8
layer0
10
15.6383301
20
-2.2504509
11
15.8305396
21
-2.3496786
0
LINE
8
layer0
10
15.8305396
20
-2.3496786
11
16.0402943
21
-2.4693041
0
LINE
8
layer0
10
16.0402943
20
-2.4693041
11
16.2685928
21
-2.6124506
0
LINE
8
layer0
10
16.2685928
20
-2.6124506
11
16.5123796
21
-2.7799424
0
LINE
8
layer0
10
16.5123796
20
-2.7799424
11
16.7418234
21
-2.9514543
0
ARC
8
layer0
10
-0.0000075
20
0.0000025
40
17
50
347.4980693
51
350.0019241
0
LINE
8
layer0
10
16.5969007
20
-3.6800302
11
16.3192875
21
-3.7506822
0
LINE
8
layer0
10
16.3192875
20
-3.7506822
11
16.0299615
21
-3.8121313
0
LINE
8
layer0
10
16.0299615
20
-3.8121313
11
15.7642614
21
-3.8570153
0
LINE
8
layer0
10
15.7642614
20
-3.8570153
11
15.5246946
21
-3.8872653
0
LINE
8
layer0
10
15.5246946
20
-3.8872653
11
15.3091434
21
-3.9053843
0
LINE
8
layer0
10
15.3091434
20
-3.9053843
11
15.1188744
21
-3.9133972
0
LINE
8
layer0
10
15.1188744
20
-3.9133972
11
14.9552902
21
-3.9134327
0
LINE
8
layer0
10
14.9552902
20
-3.9134327
11
14.8166112
21
-3.9076367
0
LINE
8
layer0
10
14.8166112
20
-3.9076367
11
14.7077874
21
-3.8985349
0
LINE
8
layer0
10
14.7077874
20
-3.8985349
11
14.598464
21
-3.8861884
0
LINE
8
layer0
10
14.598464
20
-3.8861884
11
14.5335704
21
-3.8826379
0
LINE
8
layer0
10
14.5335704
20
-3.8826379
11
14.4749968
21
-3.8833662
0
LINE
8
layer0
10
14.4749968
20
-3.8833662
11
14.4228915
21
-3.8881258
0
LINE
8
layer0
10
14.4228915
20
-3.8881258
11
14.3773828
21
-3.8966316
0
LINE
8
layer0
10
14.3773828
20
-3.8966316
11
14.3386152
21
-3.9086139
0
LINE
8
layer0
10
14.3386152
20
-3.9086139
11
14.3067074
21
-3.9237848
0
LINE
8
layer0
10
14.3067074
20
-3.9237848
11
14.2817723
21
-3.9418755
0
LINE
8
layer0
10
14.2817723
20
-3.9418755
11
14.2639189
21
-3.9625951
0
LINE
8
layer0
10
14.2639189
20
-3.9625951
11
14.2532403
21
-3.9856375
0
LINE
8
layer0
10
14.2532403
20
-3.9856375
11
14.2388593
21
-4.0368689
0
LINE
8
layer0
10
14.2388593
20
-4.0368689
11
14.162717
21
-4.2962132
0
LINE
8
layer0
10
14.162717
20
-4.2962132
11
14.081943
21
-4.5541526
0
LINE
8
layer0
10
14.081943
20
-4.5541526
11
14.0654377
21
-4.6047396
0
LINE
8
layer0
10
14.0654377
20
-4.6047396
11
14.061515
21
-4.6298313
0
LINE
8
layer0
10
14.061515
20
-4.6298313
11
14.0648483
21
-4.6569779
0
LINE
8
layer0
10
14.0648483
20
-4.6569779
11
14.0755305
21
-4.6858729
0
LINE
8
layer0
10
14.0755305
20
-4.6858729
11
14.0936324
21
-4.7162141
0
LINE
8
layer0
10
14.0936324
20
-4.7162141
11
14.1192094
21
-4.7477152
0
LINE
8
layer0
10
14.1192094
20
-4.7477152
11
14.152323
21
-4.7800708
0
LINE
8
layer0
10
14.152323
20
-4.7800708
11
14.1930026
21
-4.8129763
0
LINE
8
layer0
10
14.1930026
20
-4.8129763
11
14.2413002
21
-4.8461237
0
LINE
8
layer0
10
14.2413002
20
-4.8461237
11
14.2972298
21
-4.8792245
0
LINE
8
layer0
10
14.2972298
20
-4.8792245
11
14.3949883
21
-4.9296956
0
LINE
8
layer0
10
14.3949883
20
-4.9296956
11
14.4905287
21
-4.982587
0
LINE
8
layer0
10
14.4905287
20
-4.982587
11
14.6090561
21
-5.0548137
0
LINE
8
layer0
10
14.6090561
20
-5.0548137
11
14.7450516
21
-5.1457258
0
LINE
8
layer0
10
14.7450516
20
-5.1457258
11
14.8988027
21
-5.258096
0
LINE
8
layer0
10
14.8988027
20
-5.258096
11
15.0679607
21
-5.3929152
0
LINE
8
layer0
10
15.0679607
20
-5.3929152
11
15.2503472
21
-5.5511633
0
LINE
8
layer0
10
15.2503472
20
-5.5511633
11
15.4463325
21
-5.7360981
0
LINE
8
layer0
10
15.4463325
20
-5.7360981
11
15.652759
21
-5.9479321
0
LINE
8
layer0
10
15.652759
20
-5.9479321
11
15.8443338
21
-6.1609107
0
ARC
8
layer0
10
-0.0000074
20
0.0000026
40
17
50
336.248074
51
338.7519287
0
LINE
8
layer0
10
15.5600576
20
-6.8472141
11
15.2739951
21
-6.862349
0
LINE
8
layer0
10
15.2739951
20
-6.862349
11
14.9782403
21
-6.8661726
0
LINE
8
layer0
10
14.9782403
20
-6.8661726
11
14.7088891
21
-6.8583587
0
LINE
8
layer0
10
14.7088891
20
-6.8583587
11
14.4680241
21
-6.8412902
0
LINE
8
layer0
10
14.4680241
20
-6.8412902
11
14.2530798
21
-6.8170091
0
LINE
8
layer0
10
14.2530798
20
-6.8170091
11
14.0649036
21
-6.7877484
0
LINE
8
layer0
10
14.0649036
20
-6.7877484
11
13.9044557
21
-6.7558696
0
LINE
8
layer0
10
13.9044557
20
-6.7558696
11
13.7695721
21
-6.72313
0
LINE
8
layer0
10
13.7695721
20
-6.72313
11
13.664615
21
-6.6929727
0
LINE
8
layer0
10
13.664615
20
-6.6929727
11
13.5598009
21
-6.6595354
0
LINE
8
layer0
10
13.5598009
20
-6.6595354
11
13.4968468
21
-6.643393
0
LINE
8
layer0
10
13.4968468
20
-6.643393
11
13.4392566
21
-6.6326802
0
LINE
8
layer0
10
13.4392566
20
-6.6326802
11
13.387224
21
-6.6271831
0
LINE
8
layer0
10
13.387224
20
-6.6271831
11
13.3409303
21
-6.6266471
0
LINE
8
layer0
10
13.3409303
20
-6.6266471
11
13.30057
21
-6.630836
0
LINE
8
layer0
10
13.30057
20
-6.630836
11
13.2663156
21
-6.6394905
0
LINE
8
layer0
10
13.2663156
20
-6.6394905
11
13.2383303
21
-6.652369
0
LINE
8
layer0
10
13.2383303
20
-6.652369
11
13.2167778
21
-6.6692075
0
LINE
8
layer0
10
13.2167778
20
-6.6692075
11
13.2018089
21
-6.6897238
0
LINE
8
layer0
10
13.2018089
20
-6.6897238
11
13.1777096
21
-6.7371652
0
LINE
8
layer0
10
13.1777096
20
-6.7371652
11
13.0524347
21
-6.9766717
0
LINE
8
layer0
10
13.0524347
20
-6.9766717
11
12.9228914
21
-7.2138966
0
LINE
8
layer0
10
12.9228914
20
-7.2138966
11
12.8968341
21
-7.2602916
0
LINE
8
layer0
10
12.8968341
20
-7.2602916
11
12.8880917
21
-7.2841359
0
LINE
8
layer0
10
12.8880917
20
-7.2841359
11
12.8860649
21
-7.3114111
0
LINE
8
layer0
10
12.8860649
20
-7.3114111
11
12.8909047
21
-7.341835
0
LINE
8
layer0
10
12.8909047
20
-7.341835
11
12.9027395
21
-7.3751247
0
LINE
8
layer0
10
12.9027395
20
-7.3751247
11
12.9216795
21
-7.4110103
0
LINE
8
layer0
10
12.9216795
20
-7.4110103
11
12.9478445
21
-7.4492043
0
LINE
8
layer0
10
12.9478445
20
-7.4492043
11
12.981323
21
-7.4894138
0
LINE
8
layer0
10
12.981323
20
-7.4894138
11
13.0222257
21
-7.5313466
0
LINE
8
layer0
10
13.0222257
20
-7.5313466
11
13.0706231
21
-7.5747227
0
LINE
8
layer0
10
13.0706231
20
-7.5747227
11
13.1566567
21
-7.6432957
0
LINE
8
layer0
10
13.1566567
20
-7.6432957
11
13.2400427
21
-7.7138098
0
LINE
8
layer0
10
13.2400427
20
-7.7138098
11
13.3422019
21
-7.8077723
0
LINE
8
layer0
10
13.3422019
20
-7.8077723
11
13.4578483
21
-7.923469
0
LINE
8
layer0
10
13.4578483
20
-7.923469
11
13.5867228
21
-8.0636754
0
LINE
8
layer0
10
13.5867228
20
-8.0636754
11
13.7263285
21
-8.2289052
0
LINE
8
layer0
10
13.7263285
20
-8.2289052
11
13.8743378
21
-8.4196944
0
LINE
8
layer0
10
13.8743378
20
-8.4196944
11
14.0304783
21
-8.6393106
0
LINE
8
layer0
10
14.0304783
20
-8.6393106
11
14.1916117
21
-8.887346
0
LINE
8
layer0
10
14.1916117
20
-8.887346
11
14.3379553
21
-9.1336067
0
ARC
8
layer0
10
-0.0000063
20
0.0000047
40
17
50
324.9980712
51
327.5019259
0
LINE
8
layer0
10
13.9252502
20
-9.7512635
11
13.6417317
21
-9.7102995
0
LINE
8
layer0
10
13.6417317
20
-9.7102995
11
13.3509138
21
-9.6563507
0
LINE
8
layer0
10
13.3509138
20
-9.6563507
11
13.0882626
21
-9.5961391
0
LINE
8
layer0
10
13.0882626
20
-9.5961391
11
12.8553555
21
-9.5324083
0
LINE
8
layer0
10
12.8553555
20
-9.5324083
11
12.6492784
21
-9.4666601
0
LINE
8
layer0
10
12.6492784
20
-9.4666601
11
12.4704264
21
-9.4012503
0
LINE
8
layer0
10
12.4704264
20
-9.4012503
11
12.3192807
21
-9.3386822
0
LINE
8
layer0
10
12.3192807
20
-9.3386822
11
12.193376
21
-9.2802572
0
LINE
8
layer0
10
12.193376
20
-9.2802572
11
12.096319
21
-9.2302032
0
LINE
8
layer0
10
12.096319
20
-9.2302032
11
12.0000422
21
-9.1769602
0
LINE
8
layer0
10
12.0000422
20
-9.1769602
11
11.941447
21
-9.1488463
0
LINE
8
layer0
10
11.941447
20
-9.1488463
11
11.8870534
21
-9.127104
0
LINE
8
layer0
10
11.8870534
20
-9.127104
11
11.837093
21
-9.1115615
0
LINE
8
layer0
10
11.837093
20
-9.1115615
11
11.7917934
21
-9.1020044
0
LINE
8
layer0
10
11.7917934
20
-9.1020044
11
11.7513914
21
-9.0982389
0
LINE
8
layer0
10
11.7513914
20
-9.0982389
11
11.7161067
21
-9.1000444
0
LINE
8
layer0
10
11.7161067
20
-9.1000444
11
11.6861466
21
-9.1072157
0
LINE
8
layer0
10
11.6861466
20
-9.1072157
11
11.6617232
21
-9.119526
0
LINE
8
layer0
10
11.6617232
20
-9.119526
11
11.6430395
21
-9.1367278
0
LINE
8
layer0
10
11.6430395
20
-9.1367278
11
11.6101478
21
-9.1785561
0
LINE
8
layer0
10
11.6101478
20
-9.1785561
11
11.4405547
21
-9.3890206
0
LINE
8
layer0
10
11.4405547
20
-9.3890206
11
11.2672202
21
-9.5964146
0
LINE
8
layer0
10
11.2672202
20
-9.5964146
11
11.2326124
21
-9.6368346
0
LINE
8
layer0
10
11.2326124
20
-9.6368346
11
11.2193862
21
-9.6585152
0
LINE
8
layer0
10
11.2193862
20
-9.6585152
11
11.2120772
21
-9.684871
0
LINE
8
layer0
10
11.2120772
20
-9.684871
11
11.2108886
21
-9.7156544
0
LINE
8
layer0
10
11.2108886
20
-9.7156544
11
11.2160015
21
-9.7506133
0
LINE
8
layer0
10
11.2160015
20
-9.7506133
11
11.2275767
21
-9.7895044
0
LINE
8
layer0
10
11.2275767
20
-9.7895044
11
11.2457877
21
-9.8320691
0
LINE
8
layer0
10
11.2457877
20
-9.8320691
11
11.2707783
21
-9.8780373
0
LINE
8
layer0
10
11.2707783
20
-9.8780373
11
11.3027145
21
-9.9271441
0
LINE
8
layer0
10
11.3027145
20
-9.9271441
11
11.3417196
21
-9.9791286
0
LINE
8
layer0
10
11.3417196
20
-9.9791286
11
11.4127222
21
-10.0631684
0
LINE
8
layer0
10
11.4127222
20
-10.0631684
11
11.4807494
21
-10.1485953
0
LINE
8
layer0
10
11.4807494
20
-10.1485953
11
11.5626144
21
-10.2606827
0
LINE
8
layer0
10
11.5626144
20
-10.2606827
11
11.6534674
21
-10.3967177
0
LINE
8
layer0
10
11.6534674
20
-10.3967177
11
11.7525127
21
-10.5593722
0
LINE
8
layer0
10
11.7525127
20
-10.5593722
11
11.8572012
21
-10.7486629
0
LINE
8
layer0
10
11.8572012
20
-10.7486629
11
11.9651454
21
-10.9646614
0
LINE
8
layer0
10
11.9651454
20
-10.9646614
11
12.0754407
21
-11.2105192
0
LINE
8
layer0
10
12.0754407
20
-11.2105192
11
12.1850886
21
-11.4852242
0
LINE
8
layer0
10
12.1850886
20
-11.4852242
11
12.2805772
21
-11.7553033
0
ARC
8
layer0
10
-0.0000056
20
0.0000056
40
17
50
313.7480728
51
316.2519272
0
LINE
8
layer0
10
11.7553033
20
-12.2805772
11
11.4852242
21
-12.1850886
0
LINE
8
layer0
10
11.4852242
20
-12.1850886
11
11.2105192
21
-12.0754407
0
LINE
8
layer0
10
11.2105192
20
-12.0754407
11
10.9646614
21
-11.9651454
0
LINE
8
layer0
10
10.9646614
20
-11.9651454
11
10.7486629
21
-11.8572012
0
LINE
8
layer0
10
10.7486629
20
-11.8572012
11
10.5593722
21
-11.7525127
0
LINE
8
layer0
10
10.5593722
20
-11.7525127
11
10.3967177
21
-11.6534674
0
LINE
8
layer0
10
10.3967177
20
-11.6534674
11
10.2606827
21
-11.5626144
0
LINE
8
layer0
10
10.2606827
20
-11.5626144
11
10.1485953
21
-11.4807494
0
LINE
8
layer0
10
10.1485953
20
-11.4807494
11
10.0631684
21
-11.4127222
0
LINE
8
layer0
10
10.0631684
20
-11.4127222
11
9.9791286
21
-11.3417196
0
LINE
8
layer0
10
9.9791286
20
-11.3417196
11
9.9271441
21
-11.3027145
0
LINE
8
layer0
10
9.9271441
20
-11.3027145
11
9.8780373
21
-11.2707783
0
LINE
8
layer0
10
9.8780373
20
-11.2707783
11
9.8320691
21
-11.2457877
0
LINE
8
layer0
10
9.8320691
20
-11.2457877
11
9.7895044
21
-11.2275767
0
LINE
8
layer0
10
9.7895044
20
-11.2275767
11
9.7506133
21
-11.2160015
0
LINE
8
layer0
10
9.7506133
20
-11.2160015
11
9.7156544
21
-11.2108886
0
LINE
8
layer0
10
9.7156544
20
-11.2108886
11
9.684871
21
-11.2120772
0
LINE
8
layer0
10
9.684871
20
-11.2120772
11
9.6585152
21
-11.2193862
0
LINE
8
layer0
10
9.6585152
20
-11.2193862
11
9.6368346
21
-11.2326124
0
LINE
8
layer0
10
9.6368346
20
-11.2326124
11
9.5964146
21
-11.2672202
0
LINE
8
layer0
10
9.5964146
20
-11.2672202
11
9.3890206
21
-11.4405547
0
LINE
8
layer0
10
9.3890206
20
-11.4405547
11
9.1785561
21
-11.6101478
0
LINE
8
layer0
10
9.1785561
20
-11.6101478
11
9.1367278
21
-11.6430395
0
LINE
8
layer0
10
9.1367278
20
-11.6430395
11
9.119526
21
-11.6617232
0
LINE
8
layer0
10
9.119526
20
-11.6617232
11
9.1072157
21
-11.6861466
0
LINE
8
layer0
10
9.1072157
20
-11.6861466
11
9.1000444
21
-11.7161067
0
LINE
8
layer0
10
9.1000444
20
-11.7161067
11
9.0982389
21
-11.7513914
0
LINE
8
layer0
10
9.0982389
20
-11.7513914
11
9.1020044
21
-11.7917934
0
LINE
8
layer0
10
9.1020044
20
-11.7917934
11
9.1115615
21
-11.837093
0
LINE
8
layer0
10
9.1115615
20
-11.837093
11
9.127104
21
-11.8870534
0
LINE
8
layer0
10
9.127104
20
-11.8870534
11
9.1488463
21
-11.941447
0
LINE
8
layer0
10
9.1488463
20
-11.941447
11
9.1769602
21
-12.0000422
0
LINE
8
layer0
10
9.1769602
20
-12.0000422
11
9.2302032
21
-12.096319
0
LINE
8
layer0
10
9.2302032
20
-12.096319
11
9.2802572
21
-12.193376
0
LINE
8
layer0
10
9.2802572
20
-12.193376
11
9.3386822
21
-12.3192807
0
LINE
8
layer0
10
9.3386822
20
-12.3192807
11
9.4012503
21
-12.4704264
0
LINE
8
layer0
10
9.4012503
20
-12.4704264
11
9.4666601
21
-12.6492784
0
LINE
8
layer0
10
9.4666601
20
-12.6492784
11
9.5324083
21
-12.8553555
0
LINE
8
layer0
10
9.5324083
20
-12.8553555
11
9.5961391
21
-13.0882626
0
LINE
8
layer0
10
9.5961391
20
-13.0882626
11
9.6563507
21
-13.3509138
0
LINE
8
layer0
10
9.6563507
20
-13.3509138
11
9.7102995
21
-13.6417317
0
LINE
8
layer0
10
9.7102995
20
-13.6417317
11
9.7512635
21
-13.9252502
0
ARC
8
layer0
10
-0.0000047
20
0.0000063
40
17
50
302.4980741
51
305.0019288
0
LINE
8
layer0
10
9.1336067
20
-14.3379553
11
8.887346
21
-14.1916117
0
LINE
8
layer0
10
8.887346
20
-14.1916117
11
8.6393106
21
-14.0304783
0
LINE
8
layer0
10
8.6393106
20
-14.0304783
11
8.4196944
21
-13.8743378
0
LINE
8
layer0
10
8.4196944
20
-13.8743378
11
8.2289052
21
-13.7263285
0
LINE
8
layer0
10
8.2289052
20
-13.7263285
11
8.0636754
21
-13.5867228
0
LINE
8
layer0
10
8.0636754
20
-13.5867228
11
7.923469
21
-13.4578483
0
LINE
8
layer0
10
7.923469
20
-13.4578483
11
7.8077723
21
-13.3422019
0
LINE
8
layer0
10
7.8077723
20
-13.3422019
11
7.7138098
21
-13.2400427
0
LINE
8
layer0
10
7.7138098
20
-13.2400427
11
7.6432957
21
-13.1566567
0
LINE
8
layer0
10
7.6432957
20
-13.1566567
11
7.5747227
21
-13.0706231
0
LINE
8
layer0
10
7.5747227
20
-13.0706231
11
7.5313466
21
-13.0222257
0
LINE
8
layer0
10
7.5313466
20
-13.0222257
11
7.4894138
21
-12.981323
0
LINE
8
layer0
10
7.4894138
20
-12.981323
11
7.4492043
21
-12.9478445
0
LINE
8
layer0
10
7.4492043
20
-12.9478445
11
7.4110103
21
-12.9216795
0
LINE
8
layer0
10
7.4110103
20
-12.9216795
11
7.3751247
21
-12.9027395
0
LINE
8
layer0
10
7.3751247
20
-12.9027395
11
7.341835
21
-12.8909047
0
LINE
8
layer0
10
7.341835
20
-12.8909047
11
7.3114111
21
-12.8860649
0
LINE
8
layer0
10
7.3114111
20
-12.8860649
11
7.2841359
21
-12.8880917
0
LINE
8
layer0
10
7.2841359
20
-12.8880917
11
7.2602916
21
-12.8968341
0
LINE
8
layer0
10
7.2602916
20
-12.8968341
11
7.2138966
21
-12.9228914
0
LINE
8
layer0
10
7.2138966
20
-12.9228914
11
6.9766717
21
-13.0524347
0
LINE
8
layer0
10
6.9766717
20
-13.0524347
11
6.7371652
21
-13.1777096
0
LINE
8
layer0
10
6.7371652
20
-13.1777096
11
6.6897238
21
-13.2018089
0
LINE
8
layer0
10
6.6897238
20
-13.2018089
11
6.6692075
21
-13.2167778
0
LINE
8
layer0
10
6.6692075
20
-13.2167778
11
6.652369
21
-13.2383303
0
LINE
8
layer0
10
6.652369
20
-13.2383303
11
6.6394905
21
-13.2663156
0
LINE
8
layer0
10
6.6394905
20
-13.2663156
11
6.630836
21
-13.30057
0
LINE
8
layer0
10
6.630836
20
-13.30057
11
6.6266471
21
-13.3409303
0
LINE
8
layer0
10
6.6266471
20
-13.3409303
11
6.6271831
21
-13.387224
0
LINE
8
layer0
10
6.6271831
20
-13.387224
11
6.6326802
21
-13.4392566
0
LINE
8
layer0
10
6.6326802
20
-13.4392566
11
6.643393
21
-13.4968468
0
LINE
8
layer0
10
6.643393
20
-13.4968468
11
6.6595354
21
-13.5598009
0
LINE
8
layer0
10
6.6595354
20
-13.5598009
11
6.6929727
21
-13.664615
0
LINE
8
layer0
10
6.6929727
20
-13.664615
11
6.72313
21
-13.7695721
0
LINE
8
layer0
10
6.72313
20
-13.7695721
11
6.7558696
21
-13.9044557
0
LINE
8
layer0
10
6.7558696
20
-13.9044557
11
6.7877484
21
-14.0649036
0
LINE
8
layer0
10
6.7877484
20
-14.0649036
11
6.8170091
21
-14.2530798
0
LINE
8
layer0
10
6.8170091
20
-14.2530798
11
6.8412902
21
-14.4680241
0
LINE
8
layer0
10
6.8412902
20
-14.4680241
11
6.8583587
21
-14.7088891
0
LINE
8
layer0
10
6.8583587
20
-14.7088891
11
6.8661726
21
-14.9782403
0
LINE
8
layer0
10
6.8661726
20
-14.9782403
11
6.862349
21
-15.2739951
0
LINE
8
layer0
10
6.862349
20
-15.2739951
11
6.8472141
21
-15.5600576
0
ARC
8
layer0
10
-0.0000027
20
0.0000074
40
17
50
291.2480713
51
293.751926
0
LINE
8
layer0
10
6.1609107
20
-15.8443338
11
5.9479321
21
-15.652759
0
LINE
8
layer0
10
5.9479321
20
-15.652759
11
5.7360981
21
-15.4463325
0
LINE
8
layer0
10
5.7360981
20
-15.4463325
11
5.5511633
21
-15.2503472
0
LINE
8
layer0
10
5.5511633
20
-15.2503472
11
5.3929152
21
-15.0679607
0
LINE
8
layer0
10
5.3929152
20
-15.0679607
11
5.258096
21
-14.8988027
0
LINE
8
layer0
10
5.258096
20
-14.8988027
11
5.1457258
21
-14.7450516
0
LINE
8
layer0
10
5.1457258
20
-14.7450516
11
5.0548137
21
-14.6090561
0
LINE
8
layer0
10
5.0548137
20
-14.6090561
11
4.982587
21
-14.4905287
0
LINE
8
layer0
10
4.982587
20
-14.4905287
11
4.9296956
21
-14.3949883
0
LINE
8
layer0
10
4.9296956
20
-14.3949883
11
4.8792245
21
-14.2972298
0
LINE
8
layer0
10
4.8792245
20
-14.2972298
11
4.8461237
21
-14.2413002
0
LINE
8
layer0
10
4.8461237
20
-14.2413002
11
4.8129763
21
-14.1930026
0
LINE
8
layer0
10
4.8129763
20
-14.1930026
11
4.7800708
21
-14.152323
0
LINE
8
layer0
10
4.7800708
20
-14.152323
11
4.7477152
21
-14.1192094
0
LINE
8
layer0
10
4.7477152
20
-14.1192094
11
4.7162141
21
-14.0936324
0
LINE
8
layer0
10
4.7162141
20
-14.0936324
11
4.6858729
21
-14.0755305
0
LINE
8
layer0
10
4.6858729
20
-14.0755305
11
4.6569779
21
-14.0648483
0
LINE
8
layer0
10
4.6569779
20
-14.0648483
11
4.6298313
21
-14.061515
0
LINE
8
layer0
10
4.6298313
20
-14.061515
11
4.6047396
21
-14.0654377
0
LINE
8
layer0
10
4.6047396
20
-14.0654377
11
4.5541526
21
-14.081943
0
LINE
8
layer0
10
4.5541526
20
-14.081943
11
4.2962132
21
-14.162717
0
LINE
8
layer0
10
4.2962132
20
-14.162717
11
4.0368689
21
-14.2388593
0
LINE
8
layer0
10
4.0368689
20
-14.2388593
11
3.9856375
21
-14.2532403
0
LINE
8
layer0
10
3.9856375
20
-14.2532403
11
3.9625951
21
-14.2639189
0
LINE
8
layer0
10
3.9625951
20
-14.2639189
11
3.9418755
21
-14.2817723
0
LINE
8
layer0
10
3.9418755
20
-14.2817723
11
3.9237848
21
-14.3067074
0
LINE
8
layer0
10
3.9237848
20
-14.3067074
11
3.9086139
21
-14.3386152
0
LINE
8
layer0
10
3.9086139
20
-14.3386152
11
3.8966316
21
-14.3773828
0
LINE
8
layer0
10
3.8966316
20
-14.3773828
11
3.8881258
21
-14.4228915
0
LINE
8
layer0
10
3.8881258
20
-14.4228915
11
3.8833662
21
-14.4749968
0
LINE
8
layer0
10
3.8833662
20
-14.4749968
11
3.8826379
21
-14.5335704
0
LINE
8
layer0
10
3.8826379
20
-14.5335704
11
3.8861884
21
-14.598464
0
LINE
8
layer0
10
3.8861884
20
-14.598464
11
3.8985349
21
-14.7077874
0
LINE
8
layer0
10
3.8985349
20
-14.7077874
11
3.9076367
21
-14.8166112
0
LINE
8
layer0
10
3.9076367
20
-14.8166112
11
3.9134327
21
-14.9552902
0
LINE
8
layer0
10
3.9134327
20
-14.9552902
11
3.9133972
21
-15.1188744
0
LINE
8
layer0
10
3.9133972
20
-15.1188744
11
3.9053843
21
-15.3091434
0
LINE
8
layer0
10
3.9053843
20
-15.3091434
11
3.8872653
21
-15.5246946
0
LINE
8
layer0
10
3.8872653
20
-15.5246946
11
3.8570153
21
-15.7642614
0
LINE
8
layer0
10
3.8570153
20
-15.7642614
11
3.8121313
21
-16.0299615
0
LINE
8
layer0
10
3.8121313
20
-16.0299615
11
3.7506822
21
-16.3192875
0
LINE
8
layer0
10
3.7506822
20
-16.3192875
11
3.6800302
21
-16.5969007
0
ARC
8
layer0
10
-0.0000025
20
0.0000074
40
17
50
279.9980759
51
282.5019307
0
LINE
8
layer0
10
2.9514543
20
-16.7418234
11
2.7799424
21
-16.5123796
0
LINE
8
layer0
10
2.7799424
20
-16.5123796
11
2.6124506
21
-16.2685928
0
LINE
8
layer0
10
2.6124506
20
-16.2685928
11
2.4693041
21
-16.0402943
0
LINE
8
layer0
10
2.4693041
20
-16.0402943
11
2.3496786
21
-15.8305396
0
LINE
8
layer0
10
2.3496786
20
-15.8305396
11
2.2504509
21
-15.6383301
0
LINE
8
layer0
10
2.2504509
20
-15.6383301
11
2.1702352
21
-15.4656109
0
LINE
8
layer0
10
2.1702352
20
-15.4656109
11
2.1076014
21
-15.3144924
0
LINE
8
layer0
10
2.1076014
20
-15.3144924
11
2.059886
21
-15.1841517
0
LINE
8
layer0
10
2.059886
20
-15.1841517
11
2.0266499
21
-15.0801285
0
LINE
8
layer0
10
2.0266499
20
-15.0801285
11
1.9962204
21
-14.974402
0
LINE
8
layer0
10
1.9962204
20
-14.974402
11
1.9746669
21
-14.9130894
0
LINE
8
layer0
10
1.9746669
20
-14.9130894
11
1.9515789
21
-14.8592532
0
LINE
8
layer0
10
1.9515789
20
-14.8592532
11
1.9272418
21
-14.8129356
0
LINE
8
layer0
10
1.9272418
20
-14.8129356
11
1.901968
21
-14.7741461
0
LINE
8
layer0
10
1.901968
20
-14.7741461
11
1.8760621
21
-14.7429149
0
LINE
8
layer0
10
1.8760621
20
-14.7429149
11
1.8498354
21
-14.7192416
0
LINE
8
layer0
10
1.8498354
20
-14.7192416
11
1.8235795
21
-14.7031275
0
LINE
8
layer0
10
1.8235795
20
-14.7031275
11
1.7976049
21
-14.6945622
0
LINE
8
layer0
10
1.7976049
20
-14.6945622
11
1.77223
21
-14.6935144
0
LINE
8
layer0
10
1.77223
20
-14.6935144
11
1.719395
21
-14.6998335
0
LINE
8
layer0
10
1.719395
20
-14.6998335
11
1.4506537
21
-14.728734
0
LINE
8
layer0
10
1.4506537
20
-14.728734
11
1.1814379
21
-14.7528177
0
LINE
8
layer0
10
1.1814379
20
-14.7528177
11
1.1283853
21
-14.7569275
0
LINE
8
layer0
10
1.1283853
20
-14.7569275
11
1.1037024
21
-14.7629057
0
LINE
8
layer0
10
1.1037024
20
-14.7629057
11
1.0798979
21
-14.7763738
0
LINE
8
layer0
10
1.0798979
20
-14.7763738
11
1.0572902
21
-14.7973005
0
LINE
8
layer0
10
1.0572902
20
-14.7973005
11
1.0361859
21
-14.8256355
0
LINE
8
layer0
10
1.0361859
20
-14.8256355
11
1.0168707
21
-14.8613206
0
LINE
8
layer0
10
1.0168707
20
-14.8613206
11
0.99965
21
-14.9042954
0
LINE
8
layer0
10
0.99965
20
-14.9042954
11
0.9848166
21
-14.954471
0
LINE
8
layer0
10
0.9848166
20
-14.954471
11
0.9726751
21
-15.011777
0
LINE
8
layer0
10
0.9726751
20
-15.011777
11
0.9634973
21
-15.0761164
0
LINE
8
layer0
10
0.9634973
20
-15.0761164
11
0.9542787
21
-15.1857479
0
LINE
8
layer0
10
0.9542787
20
-15.1857479
11
0.9419751
21
-15.2942563
0
LINE
8
layer0
10
0.9419751
20
-15.2942563
11
0.9206048
21
-15.4314014
0
LINE
8
layer0
10
0.9206048
20
-15.4314014
11
0.8886562
21
-15.5918354
0
LINE
8
layer0
10
0.8886562
20
-15.5918354
11
0.8436777
21
-15.7768851
0
LINE
8
layer0
10
0.8436777
20
-15.7768851
11
0.7838549
21
-15.9847598
0
LINE
8
layer0
10
0.7838549
20
-15.9847598
11
0.707449
21
-16.2138219
0
LINE
8
layer0
10
0.707449
20
-16.2138219
11
0.6115919
21
-16.4656602
0
LINE
8
layer0
10
0.6115919
20
-16.4656602
11
0.4948789
21
-16.7374387
0
LINE
8
layer0
10
0.4948789
20
-16.7374387
11
0.3714248
21
-16.9959341
0
ARC
8
layer0
10
0
20
0.0000079
40
17
50
268.7480729
51
271.2519275
0
LINE
8
layer0
10
-0.3714248
20
-16.9959341
11
-0.4948789
21
-16.7374387
0
LINE
8
layer0
10
-0.4948789
20
-16.7374387
11
-0.6115919
21
-16.4656602
0
LINE
8
layer0
10
-0.6115919
20
-16.4656602
11
-0.707449
21
-16.2138219
0
LINE
8
layer0
10
-0.707449
20
-16.2138219
11
-0.7838549
21
-15.9847598
0
LINE
8
layer0
10
-0.7838549
20
-15.9847598
11
-0.8436777
21
-15.7768851
0
LINE
8
layer0
10
-0.8436777
20
-15.7768851
11
-0.8886562
21
-15.5918354
0
LINE
8
layer0
10
-0.8886562
20
-15.5918354
11
-0.9206048
21
-15.4314014
0
LINE
8
layer0
10
-0.9206048
20
-15.4314014
11
-0.9419751
21
-15.2942563
0
LINE
8
layer0
10
-0.9419751
20
-15.2942563
11
-0.9542787
21
-15.1857479
0
LINE
8
layer0
10
-0.9542787
20
-15.1857479
11
-0.9634973
21
-15.0761164
0
LINE
8
layer0
10
-0.9634973
20
-15.0761164
11
-0.9726751
21
-15.011777
0
LINE
8
layer0
10
-0.9726751
20
-15.011777
11
-0.9848166
21
-14.954471
0
LINE
8
layer0
10
-0.9848166
20
-14.954471
11
-0.99965
21
-14.9042954
0
LINE
8
layer0
10
-0.99965
20
-14.9042954
11
-1.0168707
21
-14.8613206
0
LINE
8
layer0
10
-1.0168707
20
-14.8613206
11
-1.0361859
21
-14.8256355
0
LINE
8
layer0
10
-1.0361859
20
-14.8256355
11
-1.0572902
21
-14.7973005
0
LINE
8
layer0
10
-1.0572902
20
-14.7973005
11
-1.0798979
21
-14.7763738
0
LINE
8
layer0
10
-1.0798979
20
-14.7763738
11
-1.1037024
21
-14.7629057
0
LINE
8
layer0
10
-1.1037024
20
-14.7629057
11
-1.1283853
21
-14.7569275
0
LINE
8
layer0
10
-1.1283853
20
-14.7569275
11
-1.1814379
21
-14.7528177
0
LINE
8
layer0
10
-1.1814379
20
-14.7528177
11
-1.4506537
21
-14.728734
0
LINE
8
layer0
10
-1.4506537
20
-14.728734
11
-1.719395
21
-14.6998335
0
LINE
8
layer0
10
-1.719395
20
-14.6998335
11
-1.77223
21
-14.6935144
0
LINE
8
layer0
10
-1.77223
20
-14.6935144
11
-1.7976049
21
-14.6945622
0
LINE
8
layer0
10
-1.7976049
20
-14.6945622
11
-1.8235795
21
-14.7031275
0
LINE
8
layer0
10
-1.8235795
20
-14.7031275
11
-1.8498354
21
-14.7192416
0
LINE
8
layer0
10
-1.8498354
20
-14.7192416
11
-1.8760621
21
-14.7429149
0
LINE
8
layer0
10
-1.8760621
20
-14.7429149
11
-1.901968
21
-14.7741461
0
LINE
8
layer0
10
-1.901968
20
-14.7741461
11
-1.9272418
21
-14.8129356
0
LINE
8
layer0
10
-1.9272418
20
-14.8129356
11
-1.9515789
21
-14.8592532
0
LINE
8
layer0
10
-1.9515789
20
-14.8592532
11
-1.9746669
21
-14.9130894
0
LINE
8
layer0
10
-1.9746669
20
-14.9130894
11
-1.9962204
21
-14.974402
0
LINE
8
layer0
10
-1.9962204
20
-14.974402
11
-2.0266499
21
-15.0801285
0
LINE
8
layer0
10
-2.0266499
20
-15.0801285
11
-2.059886
21
-15.1841517
0
LINE
8
layer0
10
-2.059886
20
-15.1841517
11
-2.1076014
21
-15.3144924
0
LINE
8
layer0
10
-2.1076014
20
-15.3144924
11
-2.1702352
21
-15.4656109
0
LINE
8
layer0
10
-2.1702352
20
-15.4656109
11
-2.2504509
21
-15.6383301
0
LINE
8
layer0
10
-2.2504509
20
-15.6383301
11
-2.3496786
21
-15.8305396
0
LINE
8
layer0
10
-2.3496786
20
-15.8305396
11
-2.4693041
21
-16.0402943
0
LINE
8
layer0
10
-2.4693041
20
-16.0402943
11
-2.6124506
21
-16.2685928
0
LINE
8
layer0
10
-2.6124506
20
-16.2685928
11
-2.7799424
21
-16.5123796
0
LINE
8
layer0
10
-2.7799424
20
-16.5123796
11
-2.9514543
21
-16.7418234
0
ARC
8
layer0
10
0.0000025
20
0.0000075
40
17
50
257.4980693
51
260.0019241
0
LINE
8
layer0
10
-3.6800302
20
-16.5969007
11
-3.7506822
21
-16.3192875
0
LINE
8
layer0
10
-3.7506822
20
-16.3192875
11
-3.8121313
21
-16.0299615
0
LINE
8
layer0
10
-3.8121313
20
-16.0299615
11
-3.8570153
21
-15.7642614
0
LINE
8
layer0
10
-3.8570153
20
-15.7642614
11
-3.8872653
21
-15.5246946
0
LINE
8
layer0
10
-3.8872653
20
-15.5246946
11
-3.9053843
21
-15.3091434
0
LINE
8
layer0
10
-3.9053843
20
-15.3091434
11
-3.9133972
21
-15.1188744
0
LINE
8
layer0
10
-3.9133972
20
-15.1188744
11
-3.9134327
21
-14.9552902
0
LINE
8
layer0
10
-3.9134327
20
-14.9552902
11
-3.9076367
21
-14.8166112
0
LINE
8
layer0
10
-3.9076367
20
-14.8166112
11
-3.8985349
21
-14.7077874
0
LINE
8
layer0
10
-3.8985349
20
-14.7077874
11
-3.8861884
21
-14.598464
0
LINE
8
layer0
10
-3.8861884
20
-14.598464
11
-3.8826379
21
-14.5335704
0
LINE
8
layer0
10
-3.8826379
20
-14.5335704
11
-3.8833662
21
-14.4749968
0
LINE
8
layer0
10
-3.8833662
20
-14.4749968
11
-3.8881258
21
-14.4228915
0
LINE
8
layer0
10
-3.8881258
20
-14.4228915
11
-3.8966316
21
-14.3773828
0
LINE
8
layer0
10
-3.8966316
20
-14.3773828
11
-3.9086139
21
-14.3386152
0
LINE
8
layer0
10
-3.9086139
20
-14.3386152
11
-3.9237848
21
-14.3067074
0
LINE
8
layer0
10
-3.9237848
20
-14.3067074
11
-3.9418755
21
-14.2817723
0
LINE
8
layer0
10
-3.9418755
20
-14.2817723
11
-3.9625951
21
-14.2639189
0
LINE
8
layer0
10
-3.9625951
20
-14.2639189
11
-3.9856375
21
-14.2532403
0
LINE
8
layer0
10
-3.9856375
20
-14.2532403
11
-4.0368689
21
-14.2388593
0
LINE
8
layer0
10
-4.0368689
20
-14.2388593
11
-4.2962132
21
-14.162717
0
LINE
8
layer0
10
-4.2962132
20
-14.162717
11
-4.5541526
21
-14.081943
0
LINE
8
layer0
10
-4.5541526
20
-14.081943
11
-4.6047396
21
-14.0654377
0
LINE
8
layer0
10
-4.6047396
20
-14.0654377
11
-4.6298313
21
-14.061515
0
LINE
8
layer0
10
-4.6298313
20
-14.061515
11
-4.6569779
21
-14.0648483
0
LINE
8
layer0
10
-4.6569779
20
-14.0648483
11
-4.6858729
21
-14.0755305
0
LINE
8
layer0
10
-4.6858729
20
-14.0755305
11
-4.7162141
21
-14.0936324
0
LINE
8
layer0
10
-4.7162141
20
-14.0936324
11
-4.7477152
21
-14.1192094
0
LINE
8
layer0
10
-4.7477152
20
-14.1192094
11
-4.7800708
21
-14.152323
0
LINE
8
layer0
10
-4.7800708
20
-14.152323
11
-4.8129763
21
-14.1930026
0
LINE
8
layer0
10
-4.8129763
20
-14.1930026
11
-4.8461237
21
-14.2413002
0
LINE
8
layer0
10
-4.8461237
20
-14.2413002
11
-4.8792245
21
-14.2972298
0
LINE
8
layer0
10
-4.8792245
20
-14.2972298
11
-4.9296956
21
-14.3949883
0
LINE
8
layer0
10
-4.9296956
20
-14.3949883
11
-4.982587
21
-14.4905287
0
LINE
8
layer0
10
-4.982587
20
-14.4905287
11
-5.0548137
21
-14.6090561
0
LINE
8
layer0
10
-5.0548137
20
-14.6090561
11
-5.1457258
21
-14.7450516
0
LINE
8
layer0
10
-5.1457258
20
-14.7450516
11
-5.258096
21
-14.8988027
0
LINE
8
layer0
10
-5.258096
20
-14.8988027
11
-5.3929152
21
-15.0679607
0
LINE
8
layer0
10
-5.3929152
20
-15.0679607
11
-5.5511633
21
-15.2503472
0
LINE
8
layer0
10
-5.5511633
20
-15.2503472
11
-5.7360981
21
-15.4463325
0
LINE
8
layer0
10
-5.7360981
20
-15.4463325
11
-5.9479321
21
-15.652759
0
LINE
8
layer0
10
-5.9479321
20
-15.652759
11
-6.1609107
21
-15.8443338
0
ARC
8
layer0
10
0.0000026
20
0.0000074
40
17
50
246.248074
51
248.7519287
0
LINE
8
layer0
10
-6.8472141
20
-15.5600576
11
-6.862349
21
-15.2739951
0
LINE
8
layer0
10
-6.862349
20
-15.2739951
11
-6.8661726
21
-14.9782403
0
LINE
8
layer0
10
-6.8661726
20
-14.9782403
11
-6.8583587
21
-14.7088891
0
LINE
8
layer0
10
-6.8583587
20
-14.7088891
11
-6.8412902
21
-14.4680241
0
LINE
8
layer0
10
-6.8412902
20
-14.4680241
11
-6.8170091
21
-14.2530798
0
LINE
8
layer0
10
-6.8170091
20
-14.2530798
11
-6.7877484
21
-14.0649036
0
LINE
8
layer0
10
-6.7877484
20
-14.0649036
11
-6.7558696
21
-13.9044557
0
LINE
8
layer0
10
-6.7558696
20
-13.9044557
11
-6.72313
21
-13.7695721
0
LINE
8
layer0
10
-6.72313
20
-13.7695721
11
-6.6929727
21
-13.664615
0
LINE
8
layer0
10
-6.6929727
20
-13.664615
11
-6.6595354
21
-13.5598009
0
LINE
8
layer0
10
-6.6595354
20
-13.5598009
11
-6.643393
21
-13.4968468
0
LINE
8
layer0
10
-6.643393
20
-13.4968468
11
-6.6326802
21
-13.4392566
0
LINE
8
layer0
10
-6.6326802
20
-13.4392566
11
-6.6271831
21
-13.387224
0
LINE
8
layer0
10
-6.6271831
20
-13.387224
11
-6.6266471
21
-13.3409303
0
LINE
8
layer0
10
-6.6266471
20
-13.3409303
11
-6.630836
21
-13.30057
0
LINE
8
layer0
10
-6.630836
20
-13.30057
11
-6.6394905
21
-13.2663156
0
LINE
8
layer0
10
-6.6394905
20
-13.2663156
11
-6.652369
21
-13.2383303
0
LINE
8
layer0
10
-6.652369
20
-13.2383303
11
-6.6692075
21
-13.2167778
0
LINE
8
layer0
10
-6.6692075
20
-13.2167778
11
-6.6897238
21
-13.2018089
0
LINE
8
layer0
10
-6.6897238
20
-13.2018089
11
-6.7371652
21
-13.1777096
0
LINE
8
layer0
10
-6.7371652
20
-13.1777096
11
-6.9766717
21
-13.0524347
0
LINE
8
layer0
10
-6.9766717
20
-13.0524347
11
-7.2138966
21
-12.9228914
0
LINE
8
layer0
10
-7.2138966
20
-12.9228914
11
-7.2602916
21
-12.8968341
0
LINE
8
layer0
10
-7.2602916
20
-12.8968341
11
-7.2841359
21
-12.8880917
0
LINE
8
layer0
10
-7.2841359
20
-12.8880917
11
-7.3114111
21
-12.8860649
0
LINE
8
layer0
10
-7.3114111
20
-12.8860649
11
-7.341835
21
-12.8909047
0
LINE
8
layer0
10
-7.341835
20
-12.8909047
11
-7.3751247
21
-12.9027395
0
LINE
8
layer0
10
-7.3751247
20
-12.9027395
11
-7.4110103
21
-12.9216795
0
LINE
8
layer0
10
-7.4110103
20
-12.9216795
11
-7.4492043
21
-12.9478445
0
LINE
8
layer0
10
-7.4492043
20
-12.9478445
11
-7.4894138
21
-12.981323
0
LINE
8
layer0
10
-7.4894138
20
-12.981323
11
-7.5313466
21
-13.0222257
0
LINE
8
layer0
10
-7.5313466
20
-13.0222257
11
-7.5747227
21
-13.0706231
0
LINE
8
layer0
10
-7.5747227
20
-13.0706231
11
-7.6432957
21
-13.1566567
0
LINE
8
layer0
10
-7.6432957
20
-13.1566567
11
-7.7138098
21
-13.2400427
0
LINE
8
layer0
10
-7.7138098
20
-13.2400427
11
-7.8077723
21
-13.3422019
0
LINE
8
layer0
10
-7.8077723
20
-13.3422019
11
-7.923469
21
-13.4578483
0
LINE
8
layer0
10
-7.923469
20
-13.4578483
11
-8.0636754
21
-13.5867228
0
LINE
8
layer0
10
-8.0636754
20
-13.5867228
11
-8.2289052
21
-13.7263285
0
LINE
8
layer0
10
-8.2289052
20
-13.7263285
11
-8.4196944
21
-13.8743378
0
LINE
8
layer0
10
-8.4196944
20
-13.8743378
11
-8.6393106
21
-14.0304783
0
LINE
8
layer0
10
-8.6393106
20
-14.0304783
11
-8.887346
21
-14.1916117
0
LINE
8
layer0
10
-8.887346
20
-14.1916117
11
-9.1336067
21
-14.3379553
0
ARC
8
layer0
10
0.0000047
20
0.0000063
40
17
50
234.9980712
51
237.5019259
0
LINE
8
layer0
10
-9.7512635
20
-13.9252502
11
-9.7102995
21
-13.6417317
0
LINE
8
layer0
10
-9.7102995
20
-13.6417317
11
-9.6563507
21
-13.3509138
0
LINE
8
layer0
10
-9.6563507
20
-13.3509138
11
-9.5961391
21
-13.0882626
0
LINE
8
layer0
10
-9.5961391
20
-13.0882626
11
-9.5324083
21
-12.8553555
0
LINE
8
layer0
10
-9.5324083
20
-12.8553555
11
-9.4666601
21
-12.6492784
0
LINE
8
layer0
10
-9.4666601
20
-12.6492784
11
-9.4012503
21
-12.4704264
0
LINE
8
layer0
10
-9.4012503
20
-12.4704264
11
-9.3386822
21
-12.3192807
0
LINE
8
layer0
10
-9.3386822
20
-12.3192807
11
-9.2802572
21
-12.193376
0
LINE
8
layer0
10
-9.2802572
20
-12.193376
11
-9.2302032
21
-12.096319
0
LINE
8
layer0
10
-9.2302032
20
-12.096319
11
-9.1769602
21
-12.0000422
0
LINE
8
layer0
10
-9.1769602
20
-12.0000422
11
-9.1488463
21
-11.941447
0
LINE
8
layer0
10
-9.1488463
20
-11.941447
11
-9.127104
21
-11.8870534
0
LINE
8
layer0
10
-9.127104
20
-11.8870534
11
-9.1115615
21
-11.837093
0
LINE
8
layer0
10
-9.1115615
20
-11.837093
11
-9.1020044
21
-11.7917934
0
LINE
8
layer0
10
-9.1020044
20
-11.7917934
11
-9.0982389
21
-11.7513914
0
LINE
8
layer0
10
-9.0982389
20
-11.7513914
11
-9.1000444
21
-11.7161067
0
LINE
8
layer0
10
-9.1000444
20
-11.7161067
11
-9.1072157
21
-11.6861466
0
LINE
8
layer0
10
-9.1072157
20
-11.6861466
11
-9.119526
21
-11.6617232
0
LINE
8
layer0
10
-9.119526
20
-11.6617232
11
-9.1367278
21
-11.6430395
0
LINE
8
layer0
10
-9.1367278
20
-11.6430395
11
-9.1785561
21
-11.6101478
0
LINE
8
layer0
10
-9.1785561
20
-11.6101478
11
-9.3890206
21
-11.4405547
0
LINE
8
layer0
10
-9.3890206
20
-11.4405547
11
-9.5964146
21
-11.2672202
0
LINE
8
layer0
10
-9.5964146
20
-11.2672202
11
-9.6368346
21
-11.2326124
0
LINE
8
layer0
10
-9.6368346
20
-11.2326124
11
-9.6585152
21
-11.2193862
0
LINE
8
layer0
10
-9.6585152
20
-11.2193862
11
-9.684871
21
-11.2120772
0
LINE
8
layer0
10
-9.684871
20
-11.2120772
11
-9.7156544
21
-11.2108886
0
LINE
8
layer0
10
-9.7156544
20
-11.2108886
11
-9.7506133
21
-11.2160015
0
LINE
8
layer0
10
-9.7506133
20
-11.2160015
11
-9.7895044
21
-11.2275767
0
LINE
8
layer0
10
-9.7895044
20
-11.2275767
11
-9.8320691
21
-11.2457877
0
LINE
8
layer0
10
-9.8320691
20
-11.2457877
11
-9.8780373
21
-11.2707783
0
LINE
8
layer0
10
-9.8780373
20
-11.2707783
11
-9.9271441
21
-11.3027145
0
LINE
8
layer0
10
-9.9271441
20
-11.3027145
11
-9.9791286
21
-11.3417196
0
LINE
8
layer0
10
-9.9791286
20
-11.3417196
11
-10.0631684
21
-11.4127222
0
LINE
8
layer0
10
-10.0631684
20
-11.4127222
11
-10.1485953
21
-11.4807494
0
LINE
8
layer0
10
-10.1485953
20
-11.4807494
11
-10.2606827
21
-11.5626144
0
LINE
8
layer0
10
-10.2606827
20
-11.5626144
11
-10.3967177
21
-11.6534674
0
LINE
8
layer0
10
-10.3967177
20
-11.6534674
11
-10.5593722
21
-11.7525127
0
LINE
8
layer0
10
-10.5593722
20
-11.7525127
11
-10.7486629
21
-11.8572012
0
LINE
8
layer0
10
-10.7486629
20
-11.8572012
11
-10.9646614
21
-11.9651454
0
LINE
8
layer0
10
-10.9646614
20
-11.9651454
11
-11.2105192
21
-12.0754407
0
LINE
8
layer0
10
-11.2105192
20
-12.0754407
11
-11.4852242
21
-12.1850886
0
LINE
8
layer0
10
-11.4852242
20
-12.1850886
11
-11.7553033
21
-12.2805772
0
ARC
8
layer0
10
0.0000056
20
0.0000056
40
17
50
223.7480728
51
226.2519272
0
LINE
8
layer0
10
-12.2805772
20
-11.7553033
11
-12.1850886
21
-11.4852242
0
LINE
8
layer0
10
-12.1850886
20
-11.4852242
11
-12.0754407
21
-11.2105192
0
LINE
8
layer0
10
-12.0754407
20
-11.2105192
11
-11.9651454
21
-10.9646614
0
LINE
8
layer0
10
-11.9651454
20
-10.9646614
11
-11.8572012
21
-10.7486629
0
LINE
8
layer0
10
-11.8572012
20
-10.7486629
11
-11.7525127
21
-10.5593722
0
LINE
8
layer0
10
-11.7525127
20
-10.5593722
11
-11.6534674
21
-10.3967177
0
LINE
8
layer0
10
-11.6534674
20
-10.3967177
11
-11.5626144
21
-10.2606827
0
LINE
8
layer0
10
-11.5626144
20
-10.2606827
11
-11.4807494
21
-10.1485953
0
LINE
8
layer0
10
-11.4807494
20
-10.1485953
11
-11.4127222
21
-10.0631684
0
LINE
8
layer0
10
-11.4127222
20
-10.0631684
11
-11.3417196
21
-9.9791286
0
LINE
8
layer0
10
-11.3417196
20
-9.9791286
11
-11.3027145
21
-9.9271441
0
LINE
8
layer0
10
-11.3027145
20
-9.9271441
11
-11.2707783
21
-9.8780373
0
LINE
8
layer0
10
-11.2707783
20
-9.8780373
11
-11.2457877
21
-9.8320691
0
LINE
8
layer0
10
-11.2457877
20
-9.8320691
11
-11.2275767
21
-9.7895044
0
LINE
8
layer0
10
-11.2275767
20
-9.7895044
11
-11.2160015
21
-9.7506133
0
LINE
8
layer0
10
-11.2160015
20
-9.7506133
11
-11.2108886
21
-9.7156544
0
LINE
8
layer0
10
-11.2108886
20
-9.7156544
11
-11.2120772
21
-9.684871
0
LINE
8
layer0
10
-11.2120772
20
-9.684871
11
-11.2193862
21
-9.6585152
0
LINE
8
layer0
10
-11.2193862
20
-9.6585152
11
-11.2326124
21
-9.6368346
0
LINE
8
layer0
10
-11.2326124
20
-9.6368346
11
-11.2672202
21
-9.5964146
0
LINE
8
layer0
10
-11.2672202
20
-9.5964146
11
-11.4405547
21
-9.3890206
0
LINE
8
layer0
10
-11.4405547
20
-9.3890206
11
-11.6101478
21
-9.1785561
0
LINE
8
layer0
10
-11.6101478
20
-9.1785561
11
-11.6430395
21
-9.1367278
0
LINE
8
layer0
10
-11.6430395
20
-9.1367278
11
-11.6617232
21
-9.119526
0
LINE
8
layer0
10
-11.6617232
20
-9.119526
11
-11.6861466
21
-9.1072157
0
LINE
8
layer0
10
-11.6861466
20
-9.1072157
11
-11.7161067
21
-9.1000444
0
LINE
8
layer0
10
-11.7161067
20
-9.1000444
11
-11.7513914
21
-9.0982389
0
LINE
8
layer0
10
-11.7513914
20
-9.0982389
11
-11.7917934
21
-9.1020044
0
LINE
8
layer0
10
-11.7917934
20
-9.1020044
11
-11.837093
21
-9.1115615
0
LINE
8
layer0
10
-11.837093
20
-9.1115615
11
-11.8870534
21
-9.127104
0
LINE
8
layer0
10
-11.8870534
20
-9.127104
11
-11.941447
21
-9.1488463
0
LINE
8
layer0
10
-11.941447
20
-9.1488463
11
-12.0000422
21
-9.1769602
0
LINE
8
layer0
10
-12.0000422
20
-9.1769602
11
-12.096319
21
-9.2302032
0
LINE
8
layer0
10
-12.096319
20
-9.2302032
11
-12.193376
21
-9.2802572
0
LINE
8
layer0
10
-12.193376
20
-9.2802572
11
-12.3192807
21
-9.3386822
0
LINE
8
layer0
10
-12.3192807
20
-9.3386822
11
-12.4704264
21
-9.4012503
0
LINE
8
layer0
10
-12.4704264
20
-9.4012503
11
-12.6492784
21
-9.4666601
0
LINE
8
layer0
10
-12.6492784
20
-9.4666601
11
-12.8553555
21
-9.5324083
0
LINE
8
layer0
10
-12.8553555
20
-9.5324083
11
-13.0882626
21
-9.5961391
0
LINE
8
layer0
10
-13.0882626
20
-9.5961391
11
-13.3509138
21
-9.6563507
0
LINE
8
layer0
10
-13.3509138
20
-9.6563507
11
-13.6417317
21
-9.7102995
0
LINE
8
layer0
10
-13.6417317
20
-9.7102995
11
-13.9252502
21
-9.7512635
0
ARC
8
layer0
10
0.0000063
20
0.0000047
40
17
50
212.4980741
51
215.0019288
0
LINE
8
layer0
10
-14.3379553
20
-9.1336067
11
-14.1916117
21
-8.887346
0
LINE
8
layer0
10
-14.1916117
20
-8.887346
11
-14.0304783
21
-8.6393106
0
LINE
8
layer0
10
-14.0304783
20
-8.6393106
11
-13.8743378
21
-8.4196944
0
LINE
8
layer0
10
-13.8743378
20
-8.4196944
11
-13.7263285
21
-8.2289052
0
LINE
8
layer0
10
-13.7263285
20
-8.2289052
11
-13.5867228
21
-8.0636754
0
LINE
8
layer0
10
-13.5867228
20
-8.0636754
11
-13.4578483
21
-7.923469
0
LINE
8
layer0
10
-13.4578483
20
-7.923469
11
-13.3422019
21
-7.8077723
0
LINE
8
layer0
10
-13.3422019
20
-7.8077723
11
-13.2400427
21
-7.7138098
0
LINE
8
layer0
10
-13.2400427
20
-7.7138098
11
-13.1566567
21
-7.6432957
0
LINE
8
layer0
10
-13.1566567
20
-7.6432957
11
-13.0706231
21
-7.5747227
0
LINE
8
layer0
10
-13.0706231
20
-7.5747227
11
-13.0222257
21
-7.5313466
0
LINE
8
layer0
10
-13.0222257
20
-7.5313466
11
-12.981323
21
-7.4894138
0
LINE
8
layer0
10
-12.981323
20
-7.4894138
11
-12.9478445
21
-7.4492043
0
LINE
8
layer0
10
-12.9478445
20
-7.4492043
11
-12.9216795
21
-7.4110103
0
LINE
8
layer0
10
-12.9216795
20
-7.4110103
11
-12.9027395
21
-7.3751247
0
LINE
8
layer0
10
-12.9027395
20
-7.3751247
11
-12.8909047
21
-7.341835
0
LINE
8
layer0
10
-12.8909047
20
-7.341835
11
-12.8860649
21
-7.3114111
0
LINE
8
layer0
10
-12.8860649
20
-7.3114111
11
-12.8880917
21
-7.2841359
0
LINE
8
layer0
10
-12.8880917
20
-7.2841359
11
-12.8968341
21
-7.2602916
0
LINE
8
layer0
10
-12.8968341
20
-7.2602916
11
-12.9228914
21
-7.2138966
0
LINE
8
layer0
10
-12.9228914
20
-7.2138966
11
-13.0524347
21
-6.9766717
0
LINE
8
layer0
10
-13.0524347
20
-6.9766717
11
-13.1777096
21
-6.7371652
0
LINE
8
layer0
10
-13.1777096
20
-6.7371652
11
-13.2018089
21
-6.6897238
0
LINE
8
layer0
10
-13.2018089
20
-6.6897238
11
-13.2167778
21
-6.6692075
0
LINE
8
layer0
10
-13.2167778
20
-6.6692075
11
-13.2383303
21
-6.652369
0
LINE
8
layer0
10
-13.2383303
20
-6.652369
11
-13.2663156
21
-6.6394905
0
LINE
8
layer0
10
-13.2663156
20
-6.6394905
11
-13.30057
21
-6.630836
0
LINE
8
layer0
10
-13.30057
20
-6.630836
11
-13.3409303
21
-6.6266471
0
LINE
8
layer0
10
-13.3409303
20
-6.6266471
11
-13.387224
21
-6.6271831
0
LINE
8
layer0
10
-13.387224
20
-6.6271831
11
-13.4392566
21
-6.6326802
0
LINE
8
layer0
10
-13.4392566
20
-6.6326802
11
-13.4968468
21
-6.643393
0
LINE
8
layer0
10
-13.4968468
20
-6.643393
11
-13.5598009
21
-6.6595354
0
LINE
8
layer0
10
-13.5598009
20
-6.6595354
11
-13.664615
21
-6.6929727
0
LINE
8
layer0
10
-13.664615
20
-6.6929727
11
-13.7695721
21
-6.72313
0
LINE
8
layer0
10
-13.7695721
20
-6.72313
11
-13.9044557
21
-6.7558696
0
LINE
8
layer0
10
-13.9044557
20
-6.7558696
11
-14.0649036
21
-6.7877484
0
LINE
8
layer0
10
-14.0649036
20
-6.7877484
11
-14.2530798
21
-6.8170091
0
LINE
8
layer0
10
-14.2530798
20
-6.8170091
11
-14.4680241
21
-6.8412902
0
LINE
8
layer0
10
-14.4680241
20
-6.8412902
11
-14.7088891
21
-6.8583587
0
LINE
8
layer0
10
-14.7088891
20
-6.8583587
11
-14.9782403
21
-6.8661726
0
LINE
8
layer0
10
-14.9782403
20
-6.8661726
11
-15.2739951
21
-6.862349
0
LINE
8
layer0
10
-15.2739951
20
-6.862349
11
-15.5600576
21
-6.8472141
0
ARC
8
layer0
10
0.0000074
20
0.0000027
40
17
50
201.2480713
51
203.751926
0
LINE
8
layer0
10
-15.8443338
20
-6.1609107
11
-15.652759
21
-5.9479321
0
LINE
8
layer0
10
-15.652759
20
-5.9479321
11
-15.4463325
21
-5.7360981
0
LINE
8
layer0
10
-15.4463325
20
-5.7360981
11
-15.2503472
21
-5.5511633
0
LINE
8
layer0
10
-15.2503472
20
-5.5511633
11
-15.0679607
21
-5.3929152
0
LINE
8
layer0
10
-15.0679607
20
-5.3929152
11
-14.8988027
21
-5.258096
0
LINE
8
layer0
10
-14.8988027
20
-5.258096
11
-14.7450516
21
-5.1457258
0
LINE
8
layer0
10
-14.7450516
20
-5.1457258
11
-14.6090561
21
-5.0548137
0
LINE
8
layer0
10
-14.6090561
20
-5.0548137
11
-14.4905287
21
-4.982587
0
LINE
8
layer0
10
-14.4905287
20
-4.982587
11
-14.3949883
21
-4.9296956
0
LINE
8
layer0
10
-14.3949883
20
-4.9296956
11
-14.2972298
21
-4.8792245
0
LINE
8
layer0
10
-14.2972298
20
-4.8792245
11
-14.2413002
21
-4.8461237
0
LINE
8
layer0
10
-14.2413002
20
-4.8461237
11
-14.1930026
21
-4.8129763
0
LINE
8
layer0
10
-14.1930026
20
-4.8129763
11
-14.152323
21
-4.7800708
0
LINE
8
layer0
10
-14.152323
20
-4.7800708
11
-14.1192094
21
-4.7477152
0
LINE
8
layer0
10
-14.1192094
20
-4.7477152
11
-14.0936324
21
-4.7162141
0
LINE
8
layer0
10
-14.0936324
20
-4.7162141
11
-14.0755305
21
-4.6858729
0
LINE
8
layer0
10
-14.0755305
20
-4.6858729
11
-14.0648483
21
-4.6569779
0
LINE
8
layer0
10
-14.0648483
20
-4.6569779
11
-14.061515
21
-4.6298313
0
LINE
8
layer0
10
-14.061515
20
-4.6298313
11
-14.0654377
21
-4.6047396
0
LINE
8
layer0
10
-14.0654377
20
-4.6047396
11
-14.081943
21
-4.5541526
0
LINE
8
layer0
10
-14.081943
20
-4.5541526
11
-14.162717
21
-4.2962132
0
LINE
8
layer0
10
-14.162717
20
-4.2962132
11
-14.2388593
21
-4.0368689
0
LINE
8
layer0
10
-14.2388593
20
-4.0368689
11
-14.2532403
21
-3.9856375
0
LINE
8
layer0
10
-14.2532403
20
-3.9856375
11
-14.2639189
21
-3.9625951
0
LINE
8
layer0
10
-14.2639189
20
-3.9625951
11
-14.2817723
21
-3.9418755
0
LINE
8
layer0
10
-14.2817723
20
-3.9418755
11
-14.3067074
21
-3.9237848
0
LINE
8
layer0
10
-14.3067074
20
-3.9237848
11
-14.3386152
21
-3.9086139
0
LINE
8
layer0
10
-14.3386152
20
-3.9086139
11
-14.3773828
21
-3.8966316
0
LINE
8
layer0
10
-14.3773828
20
-3.8966316
11
-14.4228915
21
-3.8881258
0
LINE
8
layer0
10
-14.4228915
20
-3.8881258
11
-14.4749968
21
-3.8833662
0
LINE
8
layer0
10
-14.4749968
20
-3.8833662
11
-14.5335704
21
-3.8826379
0
LINE
8
layer0
10
-14.5335704
20
-3.8826379
11
-14.598464
21
-3.8861884
0
LINE
8
layer0
10
-14.598464
20
-3.8861884
11
-14.7077874
21
-3.8985349
0
LINE
8
layer0
10
-14.7077874
20
-3.8985349
11
-14.8166112
21
-3.9076367
0
LINE
8
layer0
10
-14.8166112
20
-3.9076367
11
-14.9552902
21
-3.9134327
0
LINE
8
layer0
10
-14.9552902
20
-3.9134327
11
-15.1188744
21
-3.9133972
0
LINE
8
layer0
10
-15.1188744
20
-3.9133972
11
-15.3091434
21
-3.9053843
0
LINE
8
layer0
10
-15.3091434
20
-3.9053843
11
-15.5246946
21
-3.8872653
0
LINE
8
layer0
10
-15.5246946
20
-3.8872653
11
-15.7642614
21
-3.8570153
0
LINE
8
layer0
10
-15.7642614
20
-3.8570153
11
-16.0299615
21
-3.8121313
0
LINE
8
layer0
10
-16.0299615
20
-3.8121313
11
-16.3192875
21
-3.7506822
0
LINE
8
layer0
10
-16.3192875
20
-3.7506822
11
-16.5969007
21
-3.6800302
0
ARC
8
layer0
10
0.0000074
20
0.0000025
40
17
50
189.9980759
51
192.5019307
0
LINE
8
layer0
10
-16.7418234
20
-2.9514543
11
-16.5123796
21
-2.7799424
0
LINE
8
layer0
10
-16.5123796
20
-2.7799424
11
-16.2685928
21
-2.6124506
0
LINE
8
layer0
10
-16.2685928
20
-2.6124506
11
-16.0402943
21
-2.4693041
0
LINE
8
layer0
10
-16.0402943
20
-2.4693041
11
-15.8305396
21
-2.3496786
0
LINE
8
layer0
10
-15.8305396
20
-2.3496786
11
-15.6383301
21
-2.2504509
0
LINE
8
layer0
10
-15.6383301
20
-2.2504509
11
-15.4656109
21
-2.1702352
0
LINE
8
layer0
10
-15.4656109
20
-2.1702352
11
-15.3144924
21
-2.1076014
0
LINE
8
layer0
10
-15.3144924
20
-2.1076014
11
-15.1841517
21
-2.059886
0
LINE
8
layer0
10
-15.1841517
20
-2.059886
11
-15.0801285
21
-2.0266499
0
LINE
8
layer0
10
-15.0801285
20
-2.0266499
11
-14.974402
21
-1.9962204
0
LINE
8
layer0
10
-14.974402
20
-1.9962204
11
-14.9130894
21
-1.9746669
0
LINE
8
layer0
10
-14.9130894
20
-1.9746669
11
-14.8592532
21
-1.9515789
0
LINE
8
layer0
10
-14.8592532
20
-1.9515789
11
-14.8129356
21
-1.9272418
0
LINE
8
layer0
10
-14.8129356
20
-1.9272418
11
-14.7741461
21
-1.901968
0
LINE
8
layer0
10
-14.7741461
20
-1.901968
11
-14.7429149
21
-1.8760621
0
LINE
8
layer0
10
-14.7429149
20
-1.8760621
11
-14.7192416
21
-1.8498354
0
LINE
8
layer0
10
-14.7192416
20
-1.8498354
11
-14.7031275
21
-1.8235795
0
LINE
8
layer0
10
-14.7031275
20
-1.8235795
11
-14.6945622
21
-1.7976049
0
LINE
8
layer0
10
-14.6945622
20
-1.7976049
11
-14.6935144
21
-1.77223
0
LINE
8
layer0
10
-14.6935144
20
-1.77223
11
-14.6998335
21
-1.719395
0
LINE
8
layer0
10
-14.6998335
20
-1.719395
11
-14.728734
21
-1.4506537
0
LINE
8
layer0
10
-14.728734
20
-1.4506537
11
-14.7528177
21
-1.1814379
0
LINE
8
layer0
10
-14.7528177
20
-1.1814379
11
-14.7569275
21
-1.1283853
0
LINE
8
layer0
10
-14.7569275
20
-1.1283853
11
-14.7629057
21
-1.1037024
0
LINE
8
layer0
10
-14.7629057
20
-1.1037024
11
-14.7763738
21
-1.0798979
0
LINE
8
layer0
10
-14.7763738
20
-1.0798979
11
-14.7973005
21
-1.0572902
0
LINE
8
layer0
10
-14.7973005
20
-1.0572902
11
-14.8256355
21
-1.0361859
0
LINE
8
layer0
10
-14.8256355
20
-1.0361859
11
-14.8613206
21
-1.0168707
0
LINE
8
layer0
10
-14.8613206
20
-1.0168707
11
-14.9042954
21
-0.99965
0
LINE
8
layer0
10
-14.9042954
20
-0.99965
11
-14.954471
21
-0.9848166
0
LINE
8
layer0
10
-14.954471
20
-0.9848166
11
-15.011777
21
-0.9726751
0
LINE
8
layer0
10
-15.011777
20
-0.9726751
11
-15.0761164
21
-0.9634973
0
LINE
8
layer0
10
-15.0761164
20
-0.9634973
11
-15.1857479
21
-0.9542787
0
LINE
8
layer0
10
-15.1857479
20
-0.9542787
11
-15.2942563
21
-0.9419751
0
LINE
8
layer0
10
-15.2942563
20
-0.9419751
11
-15.4314014
21
-0.9206048
0
LINE
8
layer0
10
-15.4314014
20
-0.9206048
11
-15.5918354
21
-0.8886562
0
LINE
8
layer0
10
-15.5918354
20
-0.8886562
11
-15.7768851
21
-0.8436777
0
LINE
8
layer0
10
-15.7768851
20
-0.8436777
11
-15.9847598
21
-0.7838549
0
LINE
8
layer0
10
-15.9847598
20
-0.7838549
11
-16.2138219
21
-0.707449
0
LINE
8
layer0
10
-16.2138219
20
-0.707449
11
-16.4656602
21
-0.6115919
0
LINE
8
layer0
10
-16.4656602
20
-0.6115919
11
-16.7374387
21
-0.4948789
0
LINE
8
layer0
10
-16.7374387
20
-0.4948789
11
-16.9959341
21
-0.3714248
0
ARC
8
layer0
10
0.0000079
20
0
40
17
50
178.7480729
51
181.2519275
0
LINE
8
layer0
10
-16.9959341
20
0.3714248
11
-16.7374387
21
0.4948789
0
LINE
8
layer0
10
-16.7374387
20
0.4948789
11
-16.4656602
21
0.6115919
0
LINE
8
layer0
10
-16.4656602
20
0.6115919
11
-16.2138219
21
0.707449
0
LINE
8
layer0
10
-16.2138219
20
0.707449
11
-15.9847598
21
0.7838549
0
LINE
8
layer0
10
-15.9847598
20
0.7838549
11
-15.7768851
21
0.8436777
0
LINE
8
layer0
10
-15.7768851
20
0.8436777
11
-15.5918354
21
0.8886562
0
LINE
8
layer0
10
-15.5918354
20
0.8886562
11
-15.4314014
21
0.9206048
0
LINE
8
layer0
10
-15.4314014
20
0.9206048
11
-15.2942563
21
0.9419751
0
LINE
8
layer0
10
-15.2942563
20
0.9419751
11
-15.1857479
21
0.9542787
0
LINE
8
layer0
10
-15.1857479
20
0.9542787
11
-15.0761164
21
0.9634973
0
LINE
8
layer0
10
-15.0761164
20
0.9634973
11
-15.011777
21
0.9726751
0
LINE
8
layer0
10
-15.011777
20
0.9726751
11
-14.954471
21
0.9848166
0
LINE
8
layer0
10
-14.954471
20
0.9848166
11
-14.9042954
21
0.99965
0
LINE
8
layer0
10
-14.9042954
20
0.99965
11
-14.8613206
21
1.0168707
0
LINE
8
layer0
10
-14.8613206
20
1.0168707
11
-14.8256355
21
1.0361859
0
LINE
8
layer0
10
-14.8256355
20
1.0361859
11
-14.7973005
21
1.0572902
0
LINE
8
layer0
10
-14.7973005
20
1.0572902
11
-14.7763738
21
1.0798979
0
LINE
8
layer0
10
-14.7763738
20
1.0798979
11
-14.7629057
21
1.1037024
0
LINE
8
layer0
10
-14.7629057
20
1.1037024
11
-14.7569275
21
1.1283853
0
LINE
8
layer0
10
-14.7569275
20
1.1283853
11
-14.7528177
21
1.1814379
0
LINE
8
layer0
10
-14.7528177
20
1.1814379
11
-14.728734
21
1.4506537
0
LINE
8
layer0
10
-14.728734
20
1.4506537
11
-14.6998335
21
1.719395
0
LINE
8
layer0
10
-14.6998335
20
1.719395
11
-14.6935144
21
1.77223
0
LINE
8
layer0
10
-14.6935144
20
1.77223
11
-14.6945622
21
1.7976049
0
LINE
8
layer0
10
-14.6945622
20
1.7976049
11
-14.7031275
21
1.8235795
0
LINE
8
layer0
10
-14.7031275
20
1.8235795
11
-14.7192416
21
1.8498354
0
LINE
8
layer0
10
-14.7192416
20
1.8498354
11
-14.7429149
21
1.8760621
0
LINE
8
layer0
10
-14.7429149
20
1.8760621
11
-14.7741461
21
1.901968
0
LINE
8
layer0
10
-14.7741461
20
1.901968
11
-14.8129356
21
1.9272418
0
LINE
8
layer0
10
-14.8129356
20
1.9272418
11
-14.8592532
21
1.9515789
0
LINE
8
layer0
10
-14.8592532
20
1.9515789
11
-14.9130894
21
1.9746669
0
LINE
8
layer0
10
-14.9130894
20
1.9746669
11
-14.974402
21
1.9962204
0
LINE
8
layer0
10
-14.974402
20
1.9962204
11
-15.0801285
21
2.0266499
0
LINE
8
layer0
10
-15.0801285
20
2.0266499
11
-15.1841517
21
2.059886
0
LINE
8
layer0
10
-15.1841517
20
2.059886
11
-15.3144924
21
2.1076014
0
LINE
8
layer0
10
-15.3144924
20
2.1076014
11
-15.4656109
21
2.1702352
0
LINE
8
layer0
10
-15.4656109
20
2.1702352
11
-15.6383301
21
2.2504509
0
LINE
8
layer0
10
-15.6383301
20
2.2504509
11
-15.8305396
21
2.3496786
0
LINE
8
layer0
10
-15.8305396
20
2.3496786
11
-16.0402943
21
2.4693041
0
LINE
8
layer0
10
-16.0402943
20
2.4693041
11
-16.2685928
21
2.6124506
0
LINE
8
layer0
10
-16.2685928
20
2.6124506
11
-16.5123796
21
2.7799424
0
LINE
8
layer0
10
-16.5123796
20
2.7799424
11
-16.7418234
21
2.9514543
0
ARC
8
layer0
10
0.0000075
20
-0.0000025
40
17
50
167.4980693
51
170.0019241
0
LINE
8
layer0
10
-16.5969007
20
3.6800302
11
-16.3192875
21
3.7506822
0
LINE
8
layer0
10
-16.3192875
20
3.7506822
11
-16.0299615
21
3.8121313
0
LINE
8
layer0
10
-16.0299615
20
3.8121313
11
-15.7642614
21
3.8570153
0
LINE
8
layer0
10
-15.7642614
20
3.8570153
11
-15.5246946
21
3.8872653
0
LINE
8
layer0
10
-15.5246946
20
3.8872653
11
-15.3091434
21
3.9053843
0
LINE
8
layer0
10
-15.3091434
20
3.9053843
11
-15.1188744
21
3.9133972
0
LINE
8
layer0
10
-15.1188744
20
3.9133972
11
-14.9552902
21
3.9134327
0
LINE
8
layer0
10
-14.9552902
20
3.9134327
11
-14.8166112
21
3.9076367
0
LINE
8
layer0
10
-14.8166112
20
3.9076367
11
-14.7077874
21
3.8985349
0
LINE
8
layer0
10
-14.7077874
20
3.8985349
11
-14.598464
21
3.8861884
0
LINE
8
layer0
10
-14.598464
20
3.8861884
11
-14.5335704
21
3.8826379
0
LINE
8
layer0
10
-14.5335704
20
3.8826379
11
-14.4749968
21
3.8833662
0
LINE
8
layer0
10
-14.4749968
20
3.8833662
11
-14.4228915
21
3.8881258
0
LINE
8
layer0
10
-14.4228915
20
3.8881258
11
-14.3773828
21
3.8966316
0
LINE
8
layer0
10
-14.3773828
20
3.8966316
11
-14.3386152
21
3.9086139
0
LINE
8
layer0
10
-14.3386152
20
3.9086139
11
-14.3067074
21
3.9237848
0
LINE
8
layer0
10
-14.3067074
20
3.9237848
11
-14.2817723
21
3.9418755
0
LINE
8
layer0
10
-14.2817723
20
3.9418755
11
-14.2639189
21
3.9625951
0
LINE
8
layer0
10
-14.2639189
20
3.9625951
11
-14.2532403
21
3.9856375
0
LINE
8
layer0
10
-14.2532403
20
3.9856375
11
-14.2388593
21
4.0368689
0
LINE
8
layer0
10
-14.2388593
20
4.0368689
11
-14.162717
21
4.2962132
0
LINE
8
layer0
10
-14.162717
20
4.2962132
11
-14.081943
21
4.5541526
0
LINE
8
layer0
10
-14.081943
20
4.5541526
11
-14.0654377
21
4.6047396
0
LINE
8
layer0
10
-14.0654377
20
4.6047396
11
-14.061515
21
4.6298313
0
LINE
8
layer0
10
-14.061515
20
4.6298313
11
-14.0648483
21
4.6569779
0
LINE
8
layer0
10
-14.0648483
20
4.6569779
11
-14.0755305
21
4.6858729
0
LINE
8
layer0
10
-14.0755305
20
4.6858729
11
-14.0936324
21
4.7162141
0
LINE
8
layer0
10
-14.0936324
20
4.7162141
11
-14.1192094
21
4.7477152
0
LINE
8
layer0
10
-14.1192094
20
4.7477152
11
-14.152323
21
4.7800708
0
LINE
8
layer0
10
-14.152323
20
4.7800708
11
-14.1930026
21
4.8129763
0
LINE
8
layer0
10
-14.1930026
20
4.8129763
11
-14.2413002
21
4.8461237
0
LINE
8
layer0
10
-14.2413002
20
4.8461237
11
-14.2972298
21
4.8792245
0
LINE
8
layer0
10
-14.2972298
20
4.8792245
11
-14.3949883
21
4.9296956
0
LINE
8
layer0
10
-14.3949883
20
4.9296956
11
-14.4905287
21
4.982587
0
LINE
8
layer0
10
-14.4905287
20
4.982587
11
-14.6090561
21
5.0548137
0
LINE
8
layer0
10
-14.6090561
20
5.0548137
11
-14.7450516
21
5.1457258
0
LINE
8
layer0
10
-14.7450516
20
5.1457258
11
-14.8988027
21
5.258096
0
LINE
8
layer0
10
-14.8988027
20
5.258096
11
-15.0679607
21
5.3929152
0
LINE
8
layer0
10
-15.0679607
20
5.3929152
11
-15.2503472
21
5.5511633
0
LINE
8
layer0
10
-15.2503472
20
5.5511633
11
-15.4463325
21
5.7360981
0
LINE
8
layer0
10
-15.4463325
20
5.7360981
11
-15.652759
21
5.9479321
0
LINE
8
layer0
10
-15.652759
20
5.9479321
11
-15.8443338
21
6.1609107
0
ARC
8
layer0
10
0.0000074
20
-0.0000026
40
17
50
156.248074
51
158.7519287
0
LINE
8
layer0
10
-15.5600576
20
6.8472141
11
-15.2739951
21
6.862349
0
LINE
8
layer0
10
-15.2739951
20
6.862349
11
-14.9782403
21
6.8661726
0
LINE
8
layer0
10
-14.9782403
20
6.8661726
11
-14.7088891
21
6.8583587
0
LINE
8
layer0
10
-14.7088891
20
6.8583587
11
-14.4680241
21
6.8412902
0
LINE
8
layer0
10
-14.4680241
20
6.8412902
11
-14.2530798
21
6.8170091
0
LINE
8
layer0
10
-14.2530798
20
6.8170091
11
-14.0649036
21
6.7877484
0
LINE
8
layer0
10
-14.0649036
20
6.7877484
11
-13.9044557
21
6.7558696
0
LINE
8
layer0
10
-13.9044557
20
6.7558696
11
-13.7695721
21
6.72313
0
LINE
8
layer0
10
-13.7695721
20
6.72313
11
-13.664615
21
6.6929727
0
LINE
8
layer0
10
-13.664615
20
6.6929727
11
-13.5598009
21
6.6595354
0
LINE
8
layer0
10
-13.5598009
20
6.6595354
11
-13.4968468
21
6.643393
0
LINE
8
layer0
10
-13.4968468
20
6.643393
11
-13.4392566
21
6.6326802
0
LINE
8
layer0
10
-13.4392566
20
6.6326802
11
-13.387224
21
6.6271831
0
LINE
8
layer0
10
-13.387224
20
6.6271831
11
-13.3409303
21
6.6266471
0
LINE
8
layer0
10
-13.3409303
20
6.6266471
11
-13.30057
21
6.630836
0
LINE
8
layer0
10
-13.30057
20
6.630836
11
-13.2663156
21
6.6394905
0
LINE
8
layer0
10
-13.2663156
20
6.6394905
11
-13.2383303
21
6.652369
0
LINE
8
layer0
10
-13.2383303
20
6.652369
11
-13.2167778
21
6.6692075
0
LINE
8
layer0
10
-13.2167778
20
6.6692075
11
-13.2018089
21
6.6897238
0
LINE
8
layer0
10
-13.2018089
20
6.6897238
11
-13.1777096
21
6.7371652
0
LINE
8
layer0
10
-13.1777096
20
6.7371652
11
-13.0524347
21
6.9766717
0
LINE
8
layer0
10
-13.0524347
20
6.9766717
11
-12.9228914
21
7.2138966
0
LINE
8
layer0
10
-12.9228914
20
7.2138966
11
-12.8968341
21
7.2602916
0
LINE
8
layer0
10
-12.8968341
20
7.2602916
11
-12.8880917
21
7.2841359
0
LINE
8
layer0
10
-12.8880917
20
7.2841359
11
-12.8860649
21
7.3114111
0
LINE
8
layer0
10
-12.8860649
20
7.3114111
11
-12.8909047
21
7.341835
0
LINE
8
layer0
10
-12.8909047
20
7.341835
11
-12.9027395
21
7.3751247
0
LINE
8
layer0
10
-12.9027395
20
7.3751247
11
-12.9216795
21
7.4110103
0
LINE
8
layer0
10
-12.9216795
20
7.4110103
11
-12.9478445
21
7.4492043
0
LINE
8
layer0
10
-12.9478445
20
7.4492043
11
-12.981323
21
7.4894138
0
LINE
8
layer0
10
-12.981323
20
7.4894138
11
-13.0222257
21
7.5313466
0
LINE
8
layer0
10
-13.0222257
20
7.5313466
11
-13.0706231
21
7.5747227
0
LINE
8
layer0
10
-13.0706231
20
7.5747227
11
-13.1566567
21
7.6432957
0
LINE
8
layer0
10
-13.1566567
20
7.6432957
11
-13.2400427
21
7.7138098
0
LINE
8
layer0
10
-13.2400427
20
7.7138098
11
-13.3422019
21
7.8077723
0
LINE
8
layer0
10
-13.3422019
20
7.8077723
11
-13.4578483
21
7.923469
0
LINE
8
layer0
10
-13.4578483
20
7.923469
11
-13.5867228
21
8.0636754
0
LINE
8
layer0
10
-13.5867228
20
8.0636754
11
-13.7263285
21
8.2289052
0
LINE
8
layer0
10
-13.7263285
20
8.2289052
11
-13.8743378
21
8.4196944
0
LINE
8
layer0
10
-13.8743378
20
8.4196944
11
-14.0304783
21
8.6393106
0
LINE
8
layer0
10
-14.0304783
20
8.6393106
11
-14.1916117
21
8.887346
0
LINE
8
layer0
10
-14.1916117
20
8.887346
11
-14.3379553
21
9.1336067
0
ARC
8
layer0
10
0.0000063
20
-0.0000047
40
17
50
144.9980712
51
147.5019259
0
LINE
8
layer0
10
-13.9252502
20
9.7512635
11
-13.6417317
21
9.7102995
0
LINE
8
layer0
10
-13.6417317
20
9.7102995
11
-13.3509138
21
9.6563507
0
LINE
8
layer0
10
-13.3509138
20
9.6563507
11
-13.0882626
21
9.5961391
0
LINE
8
layer0
10
-13.0882626
20
9.5961391
11
-12.8553555
21
9.5324083
0
LINE
8
layer0
10
-12.8553555
20
9.5324083
11
-12.6492784
21
9.4666601
0
LINE
8
layer0
10
-12.6492784
20
9.4666601
11
-12.4704264
21
9.4012503
0
LINE
8
layer0
10
-12.4704264
20
9.4012503
11
-12.3192807
21
9.3386822
0
LINE
8
layer0
10
-12.3192807
20
9.3386822
11
-12.193376
21
9.2802572
0
LINE
8
layer0
10
-12.193376
20
9.2802572
11
-12.096319
21
9.2302032
0
LINE
8
layer0
10
-12.096319
20
9.2302032
11
-12.0000422
21
9.1769602
0
LINE
8
layer0
10
-12.0000422
20
9.1769602
11
-11.941447
21
9.1488463
0
LINE
8
layer0
10
-11.941447
20
9.1488463
11
-11.8870534
21
9.127104
0
LINE
8
layer0
10
-11.8870534
20
9.127104
11
-11.837093
21
9.1115615
0
LINE
8
layer0
10
-11.837093
20
9.1115615
11
-11.7917934
21
9.1020044
0
LINE
8
layer0
10
-11.7917934
20
9.1020044
11
-11.7513914
21
9.0982389
0
LINE
8
layer0
10
-11.7513914
20
9.0982389
11
-11.7161067
21
9.1000444
0
LINE
8
layer0
10
-11.7161067
20
9.1000444
11
-11.6861466
21
9.1072157
0
LINE
8
layer0
10
-11.6861466
20
9.1072157
11
-11.6617232
21
9.119526
0
LINE
8
layer0
10
-11.6617232
20
9.119526
11
-11.6430395
21
9.1367278
0
LINE
8
layer0
10
-11.6430395
20
9.1367278
11
-11.6101478
21
9.1785561
0
LINE
8
layer0
10
-11.6101478
20
9.1785561
11
-11.4405547
21
9.3890206
0
LINE
8
layer0
10
-11.4405547
20
9.3890206
11
-11.2672202
21
9.5964146
0
LINE
8
layer0
10
-11.2672202
20
9.5964146
11
-11.2326124
21
9.6368346
0
LINE
8
layer0
10
-11.2326124
20
9.6368346
11
-11.2193862
21
9.6585152
0
LINE
8
layer0
10
-11.2193862
20
9.6585152
11
-11.2120772
21
9.684871
0
LINE
8
layer0
10
-11.2120772
20
9.684871
11
-11.2108886
21
9.7156544
0
LINE
8
layer0
10
-11.2108886
20
9.7156544
11
-11.2160015
21
9.7506133
0
LINE
8
layer0
10
-11.2160015
20
9.7506133
11
-11.2275767
21
9.7895044
0
LINE
8
layer0
10
-11.2275767
20
9.7895044
11
-11.2457877
21
9.8320691
0
LINE
8
layer0
10
-11.2457877
20
9.8320691
11
-11.2707783
21
9.8780373
0
LINE
8
layer0
10
-11.2707783
20
9.8780373
11
-11.3027145
21
9.9271441
0
LINE
8
layer0
10
-11.3027145
20
9.9271441
11
-11.3417196
21
9.9791286
0
LINE
8
layer0
10
-11.3417196
20
9.9791286
11
-11.4127222
21
10.0631684
0
LINE
8
layer0
10
-11.4127222
20
10.0631684
11
-11.4807494
21
10.1485953
0
LINE
8
layer0
10
-11.4807494
20
10.1485953
11
-11.5626144
21
10.2606827
0
LINE
8
layer0
10
-11.5626144
20
10.2606827
11
-11.6534674
21
10.3967177
0
LINE
8
layer0
10
-11.6534674
20
10.3967177
11
-11.7525127
21
10.5593722
0
LINE
8
layer0
10
-11.7525127
20
10.5593722
11
-11.8572012
21
10.7486629
0
LINE
8
layer0
10
-11.8572012
20
10.7486629
11
-11.9651454
21
10.9646614
0
LINE
8
layer0
10
-11.9651454
20
10.9646614
11
-12.0754407
21
11.2105192
0
LINE
8
layer0
10
-12.0754407
20
11.2105192
11
-12.1850886
21
11.4852242
0
LINE
8
layer0
10
-12.1850886
20
11.4852242
11
-12.2805772
21
11.7553033
0
ARC
8
layer0
10
0.0000056
20
-0.0000056
40
17
50
133.7480728
51
136.2519272
0
LINE
8
layer0
10
-11.7553033
20
12.2805772
11
-11.4852242
21
12.1850886
0
LINE
8
layer0
10
-11.4852242
20
12.1850886
11
-11.2105192
21
12.0754407
0
LINE
8
layer0
10
-11.2105192
20
12.0754407
11
-10.9646614
21
11.9651454
0
LINE
8
layer0
10
-10.9646614
20
11.9651454
11
-10.7486629
21
11.8572012
0
LINE
8
layer0
10
-10.7486629
20
11.8572012
11
-10.5593722
21
11.7525127
0
LINE
8
layer0
10
-10.5593722
20
11.7525127
11
-10.3967177
21
11.6534674
0
LINE
8
layer0
10
-10.3967177
20
11.6534674
11
-10.2606827
21
11.5626144
0
LINE
8
layer0
10
-10.2606827
20
11.5626144
11
-10.1485953
21
11.4807494
0
LINE
8
layer0
10
-10.1485953
20
11.4807494
11
-10.0631684
21
11.4127222
0
LINE
8
layer0
10
-10.0631684
20
11.4127222
11
-9.9791286
21
11.3417196
0
LINE
8
layer0
10
-9.9791286
20
11.3417196
11
-9.9271441
21
11.3027145
0
LINE
8
layer0
10
-9.9271441
20
11.3027145
11
-9.8780373
21
11.2707783
0
LINE
8
layer0
10
-9.8780373
20
11.2707783
11
-9.8320691
21
11.2457877
0
LINE
8
layer0
10
-9.8320691
20
11.2457877
11
-9.7895044
21
11.2275767
0
LINE
8
layer0
10
-9.7895044
20
11.2275767
11
-9.7506133
21
11.2160015
0
LINE
8
layer0
10
-9.7506133
20
11.2160015
11
-9.7156544
21
11.2108886
0
LINE
8
layer0
10
-9.7156544
20
11.2108886
11
-9.684871
21
11.2120772
0
LINE
8
layer0
10
-9.684871
20
11.2120772
11
-9.6585152
21
11.2193862
0
LINE
8
layer0
10
-9.6585152
20
11.2193862
11
-9.6368346
21
11.2326124
0
LINE
8
layer0
10
-9.6368346
20
11.2326124
11
-9.5964146
21
11.2672202
0
LINE
8
layer0
10
-9.5964146
20
11.2672202
11
-9.3890206
21
11.4405547
0
LINE
8
layer0
10
-9.3890206
20
11.4405547
11
-9.1785561
21
11.6101478
0
LINE
8
layer0
10
-9.1785561
20
11.6101478
11
-9.1367278
21
11.6430395
0
LINE
8
layer0
10
-9.1367278
20
11.6430395
11
-9.119526
21
11.6617232
0
LINE
8
layer0
10
-9.119526
20
11.6617232
11
-9.1072157
21
11.6861466
0
LINE
8
layer0
10
-9.1072157
20
11.6861466
11
-9.1000444
21
11.7161067
0
LINE
8
layer0
10
-9.1000444
20
11.7161067
11
-9.0982389
21
11.7513914
0
LINE
8
layer0
10
-9.0982389
20
11.7513914
11
-9.1020044
21
11.7917934
0
LINE
8
layer0
10
-9.1020044
20
11.7917934
11
-9.1115615
21
11.837093
0
LINE
8
layer0
10
-9.1115615
20
11.837093
11
-9.127104
21
11.8870534
0
LINE
8
layer0
10
-9.127104
20
11.8870534
11
-9.1488463
21
11.941447
0
LINE
8
layer0
10
-9.1488463
20
11.941447
11
-9.1769602
21
12.0000422
0
LINE
8
layer0
10
-9.1769602
20
12.0000422
11
-9.2302032
21
12.096319
0
LINE
8
layer0
10
-9.2302032
20
12.096319
11
-9.2802572
21
12.193376
0
LINE
8
layer0
10
-9.2802572
20
12.193376
11
-9.3386822
21
12.3192807
0
LINE
8
layer0
10
-9.3386822
20
12.3192807
11
-9.4012503
21
12.4704264
0
LINE
8
layer0
10
-9.4012503
20
12.4704264
11
-9.4666601
21
12.6492784
0
LINE
8
layer0
10
-9.4666601
20
12.6492784
11
-9.5324083
21
12.8553555
0
LINE
8
layer0
10
-9.5324083
20
12.8553555
11
-9.5961391
21
13.0882626
0
LINE
8
layer0
10
-9.5961391
20
13.0882626
11
-9.6563507
21
13.3509138
0
LINE
8
layer0
10
-9.6563507
20
13.3509138
11
-9.7102995
21
13.6417317
0
LINE
8
layer0
10
-9.7102995
20
13.6417317
11
-9.7512635
21
13.9252502
0
ARC
8
layer0
10
0.0000047
20
-0.0000063
40
17
50
122.4980741
51
125.0019288
0
LINE
8
layer0
10
-9.1336067
20
14.3379553
11
-8.887346
21
14.1916117
0
LINE
8
layer0
10
-8.887346
20
14.1916117
11
-8.6393106
21
14.0304783
0
LINE
8
layer0
10
-8.6393106
20
14.0304783
11
-8.4196944
21
13.8743378
0
LINE
8
layer0
10
-8.4196944
20
13.8743378
11
-8.2289052
21
13.7263285
0
LINE
8
layer0
10
-8.2289052
20
13.7263285
11
-8.0636754
21
13.5867228
0
LINE
8
layer0
10
-8.0636754
20
13.5867228
11
-7.923469
21
13.4578483
0
LINE
8
layer0
10
-7.923469
20
13.4578483
11
-7.8077723
21
13.3422019
0
LINE
8
layer0
10
-7.8077723
20
13.3422019
11
-7.7138098
21
13.2400427
0
LINE
8
layer0
10
-7.7138098
20
13.2400427
11
-7.6432957
21
13.1566567
0
LINE
8
layer0
10
-7.6432957
20
13.1566567
11
-7.5747227
21
13.0706231
0
LINE
8
layer0
10
-7.5747227
20
13.0706231
11
-7.5313466
21
13.0222257
0
LINE
8
layer0
10
-7.5313466
20
13.0222257
11
-7.4894138
21
12.981323
0
LINE
8
layer0
10
-7.4894138
20
12.981323
11
-7.4492043
21
12.9478445
0
LINE
8
layer0
10
-7.4492043
20
12.9478445
11
-7.4110103
21
12.9216795
0
LINE
8
layer0
10
-7.4110103
20
12.9216795
11
-7.3751247
21
12.9027395
0
LINE
8
layer0
10
-7.3751247
20
12.9027395
11
-7.341835
21
12.8909047
0
LINE
8
layer0
10
-7.341835
20
12.8909047
11
-7.3114111
21
12.8860649
0
LINE
8
layer0
10
-7.3114111
20
12.8860649
11
-7.2841359
21
12.8880917
0
LINE
8
layer0
10
-7.2841359
20
12.8880917
11
-7.2602916
21
12.8968341
0
LINE
8
layer0
10
-7.2602916
20
12.8968341
11
-7.2138966
21
12.9228914
0
LINE
8
layer0
10
-7.2138966
20
12.9228914
11
-6.9766717
21
13.0524347
0
LINE
8
layer0
10
-6.9766717
20
13.0524347
11
-6.7371652
21
13.1777096
0
LINE
8
layer0
10
-6.7371652
20
13.1777096
11
-6.6897238
21
13.2018089
0
LINE
8
layer0
10
-6.6897238
20
13.2018089
11
-6.6692075
21
13.2167778
0
LINE
8
layer0
10
-6.6692075
20
13.2167778
11
-6.652369
21
13.2383303
0
LINE
8
layer0
10
-6.652369
20
13.2383303
11
-6.6394905
21
13.2663156
0
LINE
8
layer0
10
-6.6394905
20
13.2663156
11
-6.630836
21
13.30057
0
LINE
8
layer0
10
-6.630836
20
13.30057
11
-6.6266471
21
13.3409303
0
LINE
8
layer0
10
-6.6266471
20
13.3409303
11
-6.6271831
21
13.387224
0
LINE
8
layer0
10
-6.6271831
20
13.387224
11
-6.6326802
21
13.4392566
0
LINE
8
layer0
10
-6.6326802
20
13.4392566
11
-6.643393
21
13.4968468
0
LINE
8
layer0
10
-6.643393
20
13.4968468
11
-6.6595354
21
13.5598009
0
LINE
8
layer0
10
-6.6595354
20
13.5598009
11
-6.6929727
21
13.664615
0
LINE
8
layer0
10
-6.6929727
20
13.664615
11
-6.72313
21
13.7695721
0
LINE
8
layer0
10
-6.72313
20
13.7695721
11
-6.7558696
21
13.9044557
0
LINE
8
layer0
10
-6.7558696
20
13.9044557
11
-6.7877484
21
14.0649036
0
LINE
8
layer0
10
-6.7877484
20
14.0649036
11
-6.8170091
21
14.2530798
0
LINE
8
layer0
10
-6.8170091
20
14.2530798
11
-6.8412902
21
14.4680241
0
LINE
8
layer0
10
-6.8412902
20
14.4680241
11
-6.8583587
21
14.7088891
0
LINE
8
layer0
10
-6.8583587
20
14.7088891
11
-6.8661726
21
14.9782403
0
LINE
8
layer0
10
-6.8661726
20
14.9782403
11
-6.862349
21
15.2739951
0
LINE
8
layer0
10
-6.862349
20
15.2739951
11
-6.8472141
21
15.5600576
0
ARC
8
layer0
10
0.0000027
20
-0.0000074
40
17
50
111.2480713
51
113.751926
0
LINE
8
layer0
10
-6.1609107
20
15.8443338
11
-5.9479321
21
15.652759
0
LINE
8
layer0
10
-5.9479321
20
15.652759
11
-5.7360981
21
15.4463325
0
LINE
8
layer0
10
-5.7360981
20
15.4463325
11
-5.5511633
21
15.2503472
0
LINE
8
layer0
10
-5.5511633
20
15.2503472
11
-5.3929152
21
15.0679607
0
LINE
8
layer0
10
-5.3929152
20
15.0679607
11
-5.258096
21
14.8988027
0
LINE
8
layer0
10
-5.258096
20
14.8988027
11
-5.1457258
21
14.7450516
0
LINE
8
layer0
10
-5.1457258
20
14.7450516
11
-5.0548137
21
14.6090561
0
LINE
8
layer0
10
-5.0548137
20
14.6090561
11
-4.982587
21
14.4905287
0
LINE
8
layer0
10
-4.982587
20
14.4905287
11
-4.9296956
21
14.3949883
0
LINE
8
layer0
10
-4.9296956
20
14.3949883
11
-4.8792245
21
14.2972298
0
LINE
8
layer0
10
-4.8792245
20
14.2972298
11
-4.8461237
21
14.2413002
0
LINE
8
layer0
10
-4.8461237
20
14.2413002
11
-4.8129763
21
14.1930026
0
LINE
8
layer0
10
-4.8129763
20
14.1930026
11
-4.7800708
21
14.152323
0
LINE
8
layer0
10
-4.7800708
20
14.152323
11
-4.7477152
21
14.1192094
0
LINE
8
layer0
10
-4.7477152
20
14.1192094
11
-4.7162141
21
14.0936324
0
LINE
8
layer0
10
-4.7162141
20
14.0936324
11
-4.6858729
21
14.0755305
0
LINE
8
layer0
10
-4.6858729
20
14.0755305
11
-4.6569779
21
14.0648483
0
LINE
8
layer0
10
-4.6569779
20
14.0648483
11
-4.6298313
21
14.061515
0
LINE
8
layer0
10
-4.6298313
20
14.061515
11
-4.6047396
21
14.0654377
0
LINE
8
layer0
10
-4.6047396
20
14.0654377
11
-4.5541526
21
14.081943
0
LINE
8
layer0
10
-4.5541526
20
14.081943
11
-4.2962132
21
14.162717
0
LINE
8
layer0
10
-4.2962132
20
14.162717
11
-4.0368689
21
14.2388593
0
LINE
8
layer0
10
-4.0368689
20
14.2388593
11
-3.9856375
21
14.2532403
0
LINE
8
layer0
10
-3.9856375
20
14.2532403
11
-3.9625951
21
14.2639189
0
LINE
8
layer0
10
-3.9625951
20
14.2639189
11
-3.9418755
21
14.2817723
0
LINE
8
layer0
10
-3.9418755
20
14.2817723
11
-3.9237848
21
14.3067074
0
LINE
8
layer0
10
-3.9237848
20
14.3067074
11
-3.9086139
21
14.3386152
0
LINE
8
layer0
10
-3.9086139
20
14.3386152
11
-3.8966316
21
14.3773828
0
LINE
8
layer0
10
-3.8966316
20
14.3773828
11
-3.8881258
21
14.4228915
0
LINE
8
layer0
10
-3.8881258
20
14.4228915
11
-3.8833662
21
14.4749968
0
LINE
8
layer0
10
-3.8833662
20
14.4749968
11
-3.8826379
21
14.5335704
0
LINE
8
layer0
10
-3.8826379
20
14.5335704
11
-3.8861884
21
14.598464
0
LINE
8
layer0
10
-3.8861884
20
14.598464
11
-3.8985349
21
14.7077874
0
LINE
8
layer0
10
-3.8985349
20
14.7077874
11
-3.9076367
21
14.8166112
0
LINE
8
layer0
10
-3.9076367
20
14.8166112
11
-3.9134327
21
14.9552902
0
LINE
8
layer0
10
-3.9134327
20
14.9552902
11
-3.9133972
21
15.1188744
0
LINE
8
layer0
10
-3.9133972
20
15.1188744
11
-3.9053843
21
15.3091434
0
LINE
8
layer0
10
-3.9053843
20
15.3091434
11
-3.8872653
21
15.5246946
0
LINE
8
layer0
10
-3.8872653
20
15.5246946
11
-3.8570153
21
15.7642614
0
LINE
8
layer0
10
-3.8570153
20
15.7642614
11
-3.8121313
21
16.0299615
0
LINE
8
layer0
10
-3.8121313
20
16.0299615
11
-3.7506822
21
16.3192875
0
LINE
8
layer0
10
-3.7506822
20
16.3192875
11
-3.6800302
21
16.5969007
0
ARC
8
layer0
10
0.0000025
20
-0.0000074
40
17
50
99.9980759
51
102.5019307
0
LINE
8
layer0
10
-2.9514543
20
16.7418234
11
-2.7799424
21
16.5123796
0
LINE
8
layer0
10
-2.7799424
20
16.5123796
11
-2.6124506
21
16.2685928
0
LINE
8
layer0
10
-2.6124506
20
16.2685928
11
-2.4693041
21
16.0402943
0
LINE
8
layer0
10
-2.4693041
20
16.0402943
11
-2.3496786
21
15.8305396
0
LINE
8
layer0
10
-2.3496786
20
15.8305396
11
-2.2504509
21
15.6383301
0
LINE
8
layer0
10
-2.2504509
20
15.6383301
11
-2.1702352
21
15.4656109
0
LINE
8
layer0
10
-2.1702352
20
15.4656109
11
-2.1076014
21
15.3144924
0
LINE
8
layer0
10
-2.1076014
20
15.3144924
11
-2.059886
21
15.1841517
0
LINE
8
layer0
10
-2.059886
20
15.1841517
11
-2.0266499
21
15.0801285
0
LINE
8
layer0
10
-2.0266499
20
15.0801285
11
-1.9962204
21
14.974402
0
LINE
8
layer0
10
-1.9962204
20
14.974402
11
-1.9746669
21
14.9130894
0
LINE
8
layer0
10
-1.9746669
20
14.9130894
11
-1.9515789
21
14.8592532
0
LINE
8
layer0
10
-1.9515789
20
14.8592532
11
-1.9272418
21
14.8129356
0
LINE
8
layer0
10
-1.9272418
20
14.8129356
11
-1.901968
21
14.7741461
0
LINE
8
layer0
10
-1.901968
20
14.7741461
11
-1.8760621
21
14.7429149
0
LINE
8
layer0
10
-1.8760621
20
14.7429149
11
-1.8498354
21
14.7192416
0
LINE
8
layer0
10
-1.8498354
20
14.7192416
11
-1.8235795
21
14.7031275
0
LINE
8
layer0
10
-1.8235795
20
14.7031275
11
-1.7976049
21
14.6945622
0
LINE
8
layer0
10
-1.7976049
20
14.6945622
11
-1.77223
21
14.6935144
0
LINE
8
layer0
10
-1.77223
20
14.6935144
11
-1.719395
21
14.6998335
0
LINE
8
layer0
10
-1.719395
20
14.6998335
11
-1.4506537
21
14.728734
0
LINE
8
layer0
10
-1.4506537
20
14.728734
11
-1.1814379
21
14.7528177
0
LINE
8
layer0
10
-1.1814379
20
14.7528177
11
-1.1283853
21
14.7569275
0
LINE
8
layer0
10
-1.1283853
20
14.7569275
11
-1.1037024
21
14.7629057
0
LINE
8
layer0
10
-1.1037024
20
14.7629057
11
-1.0798979
21
14.7763738
0
LINE
8
layer0
10
-1.0798979
20
14.7763738
11
-1.0572902
21
14.7973005
0
LINE
8
layer0
10
-1.0572902
20
14.7973005
11
-1.0361859
21
14.8256355
0
LINE
8
layer0
10
-1.0361859
20
14.8256355
11
-1.0168707
21
14.8613206
0
LINE
8
layer0
10
-1.0168707
20
14.8613206
11
-0.99965
21
14.9042954
0
LINE
8
layer0
10
-0.99965
20
14.9042954
11
-0.9848166
21
14.954471
0
LINE
8
layer0
10
-0.9848166
20
14.954471
11
-0.9726751
21
15.011777
0
LINE
8
layer0
10
-0.9726751
20
15.011777
11
-0.9634973
21
15.0761164
0
LINE
8
layer0
10
-0.9634973
20
15.0761164
11
-0.9542787
21
15.1857479
0
LINE
8
layer0
10
-0.9542787
20
15.1857479
11
-0.9419751
21
15.2942563
0
LINE
8
layer0
10
-0.9419751
20
15.2942563
11
-0.9206048
21
15.4314014
0
LINE
8
layer0
10
-0.9206048
20
15.4314014
11
-0.8886562
21
15.5918354
0
LINE
8
layer0
10
-0.8886562
20
15.5918354
11
-0.8436777
21
15.7768851
0
LINE
8
layer0
10
-0.8436777
20
15.7768851
11
-0.7838549
21
15.9847598
0
LINE
8
layer0
10
-0.7838549
20
15.9847598
11
-0.707449
21
16.2138219
0
LINE
8
layer0
10
-0.707449
20
16.2138219
11
-0.6115919
21
16.4656602
0
LINE
8
layer0
10
-0.6115919
20
16.4656602
11
-0.4948789
21
16.7374387
0
LINE
8
layer0
10
-0.4948789
20
16.7374387
11
-0.3714248
21
16.9959341
0
ARC
8
layer0
10
0
20
-0.0000079
40
17
50
88.7480729
51
91.2519275
0
LINE
8
layer0
10
0.3714248
20
16.9959341
11
0.4948789
21
16.7374387
0
LINE
8
layer0
10
0.4948789
20
16.7374387
11
0.6115919
21
16.4656602
0
LINE
8
layer0
10
0.6115919
20
16.4656602
11
0.707449
21
16.2138219
0
LINE
8
layer0
10
0.707449
20
16.2138219
11
0.7838549
21
15.9847598
0
LINE
8
layer0
10
0.7838549
20
15.9847598
11
0.8436777
21
15.7768851
0
LINE
8
layer0
10
0.8436777
20
15.7768851
11
0.8886562
21
15.5918354
0
LINE
8
layer0
10
0.8886562
20
15.5918354
11
0.9206048
21
15.4314014
0
LINE
8
layer0
10
0.9206048
20
15.4314014
11
0.9419751
21
15.2942563
0
LINE
8
layer0
10
0.9419751
20
15.2942563
11
0.9542787
21
15.1857479
0
LINE
8
layer0
10
0.9542787
20
15.1857479
11
0.9634973
21
15.0761164
0
LINE
8
layer0
10
0.9634973
20
15.0761164
11
0.9726751
21
15.011777
0
LINE
8
layer0
10
0.9726751
20
15.011777
11
0.9848166
21
14.954471
0
LINE
8
layer0
10
0.9848166
20
14.954471
11
0.99965
21
14.9042954
0
LINE
8
layer0
10
0.99965
20
14.9042954
11
1.0168707
21
14.8613206
0
LINE
8
layer0
10
1.0168707
20
14.8613206
11
1.0361859
21
14.8256355
0
LINE
8
layer0
10
1.0361859
20
14.8256355
11
1.0572902
21
14.7973005
0
LINE
8
layer0
10
1.0572902
20
14.7973005
11
1.0798979
21
14.7763738
0
LINE
8
layer0
10
1.0798979
20
14.7763738
11
1.1037024
21
14.7629057
0
LINE
8
layer0
10
1.1037024
20
14.7629057
11
1.1283853
21
14.7569275
0
LINE
8
layer0
10
1.1283853
20
14.7569275
11
1.1814379
21
14.7528177
0
LINE
8
layer0
10
1.1814379
20
14.7528177
11
1.4506537
21
14.728734
0
LINE
8
layer0
10
1.4506537
20
14.728734
11
1.719395
21
14.6998335
0
LINE
8
layer0
10
1.719395
20
14.6998335
11
1.77223
21
14.6935144
0
LINE
8
layer0
10
1.77223
20
14.6935144
11
1.7976049
21
14.6945622
0
LINE
8
layer0
10
1.7976049
20
14.6945622
11
1.8235795
21
14.7031275
0
LINE
8
layer0
10
1.8235795
20
14.7031275
11
1.8498354
21
14.7192416
0
LINE
8
layer0
10
1.8498354
20
14.7192416
11
1.8760621
21
14.7429149
0
LINE
8
layer0
10
1.8760621
20
14.7429149
11
1.901968
21
14.7741461
0
LINE
8
layer0
10
1.901968
20
14.7741461
11
1.9272418
21
14.8129356
0
LINE
8
layer0
10
1.9272418
20
14.8129356
11
1.9515789
21
14.8592532
0
LINE
8
layer0
10
1.9515789
20
14.8592532
11
1.9746669
21
14.9130894
0
LINE
8
layer0
10
1.9746669
20
14.9130894
11
1.9962204
21
14.974402
0
LINE
8
layer0
10
1.9962204
20
14.974402
11
2.0266499
21
15.0801285
0
LINE
8
layer0
10
2.0266499
20
15.0801285
11
2.059886
21
15.1841517
0
LINE
8
layer0
10
2.059886
20
15.1841517
11
2.1076014
21
15.3144924
0
LINE
8
layer0
10
2.1076014
20
15.3144924
11
2.1702352
21
15.4656109
0
LINE
8
layer0
10
2.1702352
20
15.4656109
11
2.2504509
21
15.6383301
0
LINE
8
layer0
10
2.2504509
20
15.6383301
11
2.3496786
21
15.8305396
0
LINE
8
layer0
10
2.3496786
20
15.8305396
11
2.4693041
21
16.0402943
0
LINE
8
layer0
10
2.4693041
20
16.0402943
11
2.6124506
21
16.2685928
0
LINE
8
layer0
10
2.6124506
20
16.2685928
11
2.7799424
21
16.5123796
0
LINE
8
layer0
10
2.7799424
20
16.5123796
11
2.9514543
21
16.7418234
0
ARC
8
layer0
10
-0.0000025
20
-0.0000075
40
17
50
77.4980693
51
80.0019241
0
LINE
8
layer0
10
3.6800302
20
16.5969007
11
3.7506822
21
16.3192875
0
LINE
8
layer0
10
3.7506822
20
16.3192875
11
3.8121313
21
16.0299615
0
LINE
8
layer0
10
3.8121313
20
16.0299615
11
3.8570153
21
15.7642614
0
LINE
8
layer0
10
3.8570153
20
15.7642614
11
3.8872653
21
15.5246946
0
LINE
8
layer0
10
3.8872653
20
15.5246946
11
3.9053843
21
15.3091434
0
LINE
8
layer0
10
3.9053843
20
15.3091434
11
3.9133972
21
15.1188744
0
LINE
8
layer0
10
3.9133972
20
15.1188744
11
3.9134327
21
14.9552902
0
LINE
8
layer0
10
3.9134327
20
14.9552902
11
3.9076367
21
14.8166112
0
LINE
8
layer0
10
3.9076367
20
14.8166112
11
3.8985349
21
14.7077874
0
LINE
8
layer0
10
3.8985349
20
14.7077874
11
3.8861884
21
14.598464
0
LINE
8
layer0
10
3.8861884
20
14.598464
11
3.8826379
21
14.5335704
0
LINE
8
layer0
10
3.8826379
20
14.5335704
11
3.8833662
21
14.4749968
0
LINE
8
layer0
10
3.8833662
20
14.4749968
11
3.8881258
21
14.4228915
0
LINE
8
layer0
10
3.8881258
20
14.4228915
11
3.8966316
21
14.3773828
0
LINE
8
layer0
10
3.8966316
20
14.3773828
11
3.9086139
21
14.3386152
0
LINE
8
layer0
10
3.9086139
20
14.3386152
11
3.9237848
21
14.3067074
0
LINE
8
layer0
10
3.9237848
20
14.3067074
11
3.9418755
21
14.2817723
0
LINE
8
layer0
10
3.9418755
20
14.2817723
11
3.9625951
21
14.2639189
0
LINE
8
layer0
10
3.9625951
20
14.2639189
11
3.9856375
21
14.2532403
0
LINE
8
layer0
10
3.9856375
20
14.2532403
11
4.0368689
21
14.2388593
0
LINE
8
layer0
10
4.0368689
20
14.2388593
11
4.2962132
21
14.162717
0
LINE
8
layer0
10
4.2962132
20
14.162717
11
4.5541526
21
14.081943
0
LINE
8
layer0
10
4.5541526
20
14.081943
11
4.6047396
21
14.0654377
0
LINE
8
layer0
10
4.6047396
20
14.0654377
11
4.6298313
21
14.061515
0
LINE
8
layer0
10
4.6298313
20
14.061515
11
4.6569779
21
14.0648483
0
LINE
8
layer0
10
4.6569779
20
14.0648483
11
4.6858729
21
14.0755305
0
LINE
8
layer0
10
4.6858729
20
14.0755305
11
4.7162141
21
14.0936324
0
LINE
8
layer0
10
4.7162141
20
14.0936324
11
4.7477152
21
14.1192094
0
LINE
8
layer0
10
4.7477152
20
14.1192094
11
4.7800708
21
14.152323
0
LINE
8
layer0
10
4.7800708
20
14.152323
11
4.8129763
21
14.1930026
0
LINE
8
layer0
10
4.8129763
20
14.1930026
11
4.8461237
21
14.2413002
0
LINE
8
layer0
10
4.8461237
20
14.2413002
11
4.8792245
21
14.2972298
0
LINE
8
layer0
10
4.8792245
20
14.2972298
11
4.9296956
21
14.3949883
0
LINE
8
layer0
10
4.9296956
20
14.3949883
11
4.982587
21
14.4905287
0
LINE
8
layer0
10
4.982587
20
14.4905287
11
5.0548137
21
14.6090561
0
LINE
8
layer0
10
5.0548137
20
14.6090561
11
5.1457258
21
14.7450516
0
LINE
8
layer0
10
5.1457258
20
14.7450516
11
5.258096
21
14.8988027
0
LINE
8
layer0
10
5.258096
20
14.8988027
11
5.3929152
21
15.0679607
0
LINE
8
layer0
10
5.3929152
20
15.0679607
11
5.5511633
21
15.2503472
0
LINE
8
layer0
10
5.5511633
20
15.2503472
11
5.7360981
21
15.4463325
0
LINE
8
layer0
10
5.7360981
20
15.4463325
11
5.9479321
21
15.652759
0
LINE
8
layer0
10
5.9479321
20
15.652759
11
6.1609107
21
15.8443338
0
ARC
8
layer0
10
-0.0000026
20
-0.0000074
40
17
50
66.248074
51
68.7519287
0
LINE
8
layer0
10
6.8472141
20
15.5600576
11
6.862349
21
15.2739951
0
LINE
8
layer0
10
6.862349
20
15.2739951
11
6.8661726
21
14.9782403
0
LINE
8
layer0
10
6.8661726
20
14.9782403
11
6.8583587
21
14.7088891
0
LINE
8
layer0
10
6.8583587
20
14.7088891
11
6.8412902
21
14.4680241
0
LINE
8
layer0
10
6.8412902
20
14.4680241
11
6.8170091
21
14.2530798
0
LINE
8
layer0
10
6.8170091
20
14.2530798
11
6.7877484
21
14.0649036
0
LINE
8
layer0
10
6.7877484
20
14.0649036
11
6.7558696
21
13.9044557
0
LINE
8
layer0
10
6.7558696
20
13.9044557
11
6.72313
21
13.7695721
0
LINE
8
layer0
10
6.72313
20
13.7695721
11
6.6929727
21
13.664615
0
LINE
8
layer0
10
6.6929727
20
13.664615
11
6.6595354
21
13.5598009
0
LINE
8
layer0
10
6.6595354
20
13.5598009
11
6.643393
21
13.4968468
0
LINE
8
layer0
10
6.643393
20
13.4968468
11
6.6326802
21
13.4392566
0
LINE
8
layer0
10
6.6326802
20
13.4392566
11
6.6271831
21
13.387224
0
LINE
8
layer0
10
6.6271831
20
13.387224
11
6.6266471
21
13.3409303
0
LINE
8
layer0
10
6.6266471
20
13.3409303
11
6.630836
21
13.30057
0
LINE
8
layer0
10
6.630836
20
13.30057
11
6.6394905
21
13.2663156
0
LINE
8
layer0
10
6.6394905
20
13.2663156
11
6.652369
21
13.2383303
0
LINE
8
layer0
10
6.652369
20
13.2383303
11
6.6692075
21
13.2167778
0
LINE
8
layer0
10
6.6692075
20
13.2167778
11
6.6897238
21
13.2018089
0
LINE
8
layer0
10
6.6897238
20
13.2018089
11
6.7371652
21
13.1777096
0
LINE
8
layer0
10
6.7371652
20
13.1777096
11
6.9766717
21
13.0524347
0
LINE
8
layer0
10
6.9766717
20
13.0524347
11
7.2138966
21
12.9228914
0
LINE
8
layer0
10
7.2138966
20
12.9228914
11
7.2602916
21
12.8968341
0
LINE
8
layer0
10
7.2602916
20
12.8968341
11
7.2841359
21
12.8880917
0
LINE
8
layer0
10
7.2841359
20
12.8880917
11
7.3114111
21
12.8860649
0
LINE
8
layer0
10
7.3114111
20
12.8860649
11
7.341835
21
12.8909047
0
LINE
8
layer0
10
7.341835
20
12.8909047
11
7.3751247
21
12.9027395
0
LINE
8
layer0
10
7.3751247
20
12.9027395
11
7.4110103
21
12.9216795
0
LINE
8
layer0
10
7.4110103
20
12.9216795
11
7.4492043
21
12.9478445
0
LINE
8
layer0
10
7.4492043
20
12.9478445
11
7.4894138
21
12.981323
0
LINE
8
layer0
10
7.4894138
20
12.981323
11
7.5313466
21
13.0222257
0
LINE
8
layer0
10
7.5313466
20
13.0222257
11
7.5747227
21
13.0706231
0
LINE
8
layer0
10
7.5747227
20
13.0706231
11
7.6432957
21
13.1566567
0
LINE
8
layer0
10
7.6432957
20
13.1566567
11
7.7138098
21
13.2400427
0
LINE
8
layer0
10
7.7138098
20
13.2400427
11
7.8077723
21
13.3422019
0
LINE
8
layer0
10
7.8077723
20
13.3422019
11
7.923469
21
13.4578483
0
LINE
8
layer0
10
7.923469
20
13.4578483
11
8.0636754
21
13.5867228
0
LINE
8
layer0
10
8.0636754
20
13.5867228
11
8.2289052
21
13.7263285
0
LINE
8
layer0
10
8.2289052
20
13.7263285
11
8.4196944
21
13.8743378
0
LINE
8
layer0
10
8.4196944
20
13.8743378
11
8.6393106
21
14.0304783
0
LINE
8
layer0
10
8.6393106
20
14.0304783
11
8.887346
21
14.1916117
0
LINE
8
layer0
10
8.887346
20
14.1916117
11
9.1336067
21
14.3379553
0
ARC
8
layer0
10
-0.0000047
20
-0.0000063
40
17
50
54.9980712
51
57.5019259
0
LINE
8
layer0
10
9.7512635
20
13.9252502
11
9.7102995
21
13.6417317
0
LINE
8
layer0
10
9.7102995
20
13.6417317
11
9.6563507
21
13.3509138
0
LINE
8
layer0
10
9.6563507
20
13.3509138
11
9.5961391
21
13.0882626
0
LINE
8
layer0
10
9.5961391
20
13.0882626
11
9.5324083
21
12.8553555
0
LINE
8
layer0
10
9.5324083
20
12.8553555
11
9.4666601
21
12.6492784
0
LINE
8
layer0
10
9.4666601
20
12.6492784
11
9.4012503
21
12.4704264
0
LINE
8
layer0
10
9.4012503
20
12.4704264
11
9.3386822
21
12.3192807
0
LINE
8
layer0
10
9.3386822
20
12.3192807
11
9.2802572
21
12.193376
0
LINE
8
layer0
10
9.2802572
20
12.193376
11
9.2302032
21
12.096319
0
LINE
8
layer0
10
9.2302032
20
12.096319
11
9.1769602
21
12.0000422
0
LINE
8
layer0
10
9.1769602
20
12.0000422
11
9.1488463
21
11.941447
0
LINE
8
layer0
10
9.1488463
20
11.941447
11
9.127104
21
11.8870534
0
LINE
8
layer0
10
9.127104
20
11.8870534
11
9.1115615
21
11.837093
0
LINE
8
layer0
10
9.1115615
20
11.837093
11
9.1020044
21
11.7917934
0
LINE
8
layer0
10
9.1020044
20
11.7917934
11
9.0982389
21
11.7513914
0
LINE
8
layer0
10
9.0982389
20
11.7513914
11
9.1000444
21
11.7161067
0
LINE
8
layer0
10
9.1000444
20
11.7161067
11
9.1072157
21
11.6861466
0
LINE
8
layer0
10
9.1072157
20
11.6861466
11
9.119526
21
11.6617232
0
LINE
8
layer0
10
9.119526
20
11.6617232
11
9.1367278
21
11.6430395
0
LINE
8
layer0
10
9.1367278
20
11.6430395
11
9.1785561
21
11.6101478
0
LINE
8
layer0
10
9.1785561
20
11.6101478
11
9.3890206
21
11.4405547
0
LINE
8
layer0
10
9.3890206
20
11.4405547
11
9.5964146
21
11.2672202
0
LINE
8
layer0
10
9.5964146
20
11.2672202
11
9.6368346
21
11.2326124
0
LINE
8
layer0
10
9.6368346
20
11.2326124
11
9.6585152
21
11.2193862
0
LINE
8
layer0
10
9.6585152
20
11.2193862
11
9.684871
21
11.2120772
0
LINE
8
layer0
10
9.684871
20
11.2120772
11
9.7156544
21
11.2108886
0
LINE
8
layer0
10
9.7156544
20
11.2108886
11
9.7506133
21
11.2160015
0
LINE
8
layer0
10
9.7506133
20
11.2160015
11
9.7895044
21
11.2275767
0
LINE
8
layer0
10
9.7895044
20
11.2275767
11
9.8320691
21
11.2457877
0
LINE
8
layer0
10
9.8320691
20
11.2457877
11
9.8780373
21
11.2707783
0
LINE
8
layer0
10
9.8780373
20
11.2707783
11
9.9271441
21
11.3027145
0
LINE
8
layer0
10
9.9271441
20
11.3027145
11
9.9791286
21
11.3417196
0
LINE
8
layer0
10
9.9791286
20
11.3417196
11
10.0631684
21
11.4127222
0
LINE
8
layer0
10
10.0631684
20
11.4127222
11
10.1485953
21
11.4807494
0
LINE
8
layer0
10
10.1485953
20
11.4807494
11
10.2606827
21
11.5626144
0
LINE
8
layer0
10
10.2606827
20
11.5626144
11
10.3967177
21
11.6534674
0
LINE
8
layer0
10
10.3967177
20
11.6534674
11
10.5593722
21
11.7525127
0
LINE
8
layer0
10
10.5593722
20
11.7525127
11
10.7486629
21
11.8572012
0
LINE
8
layer0
10
10.7486629
20
11.8572012
11
10.9646614
21
11.9651454
0
LINE
8
layer0
10
10.9646614
20
11.9651454
11
11.2105192
21
12.0754407
0
LINE
8
layer0
10
11.2105192
20
12.0754407
11
11.4852242
21
12.1850886
0
LINE
8
layer0
10
11.4852242
20
12.1850886
11
11.7553033
21
12.2805772
0
ARC
8
layer0
10
-0.0000056
20
-0.0000056
40
17
50
43.7480728
51
46.2519272
0
LINE
8
layer0
10
12.2805772
20
11.7553033
11
12.1850886
21
11.4852242
0
LINE
8
layer0
10
12.1850886
20
11.4852242
11
12.0754407
21
11.2105192
0
LINE
8
layer0
10
12.0754407
20
11.2105192
11
11.9651454
21
10.9646614
0
LINE
8
layer0
10
11.9651454
20
10.9646614
11
11.8572012
21
10.7486629
0
LINE
8
layer0
10
11.8572012
20
10.7486629
11
11.7525127
21
10.5593722
0
LINE
8
layer0
10
11.7525127
20
10.5593722
11
11.6534674
21
10.3967177
0
LINE
8
layer0
10
11.6534674
20
10.3967177
11
11.5626144
21
10.2606827
0
LINE
8
layer0
10
11.5626144
20
10.2606827
11
11.4807494
21
10.1485953
0
LINE
8
layer0
10
11.4807494
20
10.1485953
11
11.4127222
21
10.0631684
0
LINE
8
layer0
10
11.4127222
20
10.0631684
11
11.3417196
21
9.9791286
0
LINE
8
layer0
10
11.3417196
20
9.9791286
11
11.3027145
21
9.9271441
0
LINE
8
layer0
10
11.3027145
20
9.9271441
11
11.2707783
21
9.8780373
0
LINE
8
layer0
10
11.2707783
20
9.8780373
11
11.2457877
21
9.8320691
0
LINE
8
layer0
10
11.2457877
20
9.8320691
11
11.2275767
21
9.7895044
0
LINE
8
layer0
10
11.2275767
20
9.7895044
11
11.2160015
21
9.7506133
0
LINE
8
layer0
10
11.2160015
20
9.7506133
11
11.2108886
21
9.7156544
0
LINE
8
layer0
10
11.2108886
20
9.7156544
11
11.2120772
21
9.684871
0
LINE
8
layer0
10
11.2120772
20
9.684871
11
11.2193862
21
9.6585152
0
LINE
8
layer0
10
11.2193862
20
9.6585152
11
11.2326124
21
9.6368346
0
LINE
8
layer0
10
11.2326124
20
9.6368346
11
11.2672202
21
9.5964146
0
LINE
8
layer0
10
11.2672202
20
9.5964146
11
11.4405547
21
9.3890206
0
LINE
8
layer0
10
11.4405547
20
9.3890206
11
11.6101478
21
9.1785561
0
LINE
8
layer0
10
11.6101478
20
9.1785561
11
11.6430395
21
9.1367278
0
LINE
8
layer0
10
11.6430395
20
9.1367278
11
11.6617232
21
9.119526
0
LINE
8
layer0
10
11.6617232
20
9.119526
11
11.6861466
21
9.1072157
0
LINE
8
layer0
10
11.6861466
20
9.1072157
11
11.7161067
21
9.1000444
0
LINE
8
layer0
10
11.7161067
20
9.1000444
11
11.7513914
21
9.0982389
0
LINE
8
layer0
10
11.7513914
20
9.0982389
11
11.7917934
21
9.1020044
0
LINE
8
layer0
10
11.7917934
20
9.1020044
11
11.837093
21
9.1115615
0
LINE
8
layer0
10
11.837093
20
9.1115615
11
11.8870534
21
9.127104
0
LINE
8
layer0
10
11.8870534
20
9.127104
11
11.941447
21
9.1488463
0
LINE
8
layer0
10
11.941447
20
9.1488463
11
12.0000422
21
9.1769602
0
LINE
8
layer0
10
12.0000422
20
9.1769602
11
12.096319
21
9.2302032
0
LINE
8
layer0
10
12.096319
20
9.2302032
11
12.193376
21
9.2802572
0
LINE
8
layer0
10
12.193376
20
9.2802572
11
12.3192807
21
9.3386822
0
LINE
8
layer0
10
12.3192807
20
9.3386822
11
12.4704264
21
9.4012503
0
LINE
8
layer0
10
12.4704264
20
9.4012503
11
12.6492784
21
9.4666601
0
LINE
8
layer0
10
12.6492784
20
9.4666601
11
12.8553555
21
9.5324083
0
LINE
8
layer0
10
12.8553555
20
9.5324083
11
13.0882626
21
9.5961391
0
LINE
8
layer0
10
13.0882626
20
9.5961391
11
13.3509138
21
9.6563507
0
LINE
8
layer0
10
13.3509138
20
9.6563507
11
13.6417317
21
9.7102995
0
LINE
8
layer0
10
13.6417317
20
9.7102995
11
13.9252502
21
9.7512635
0
ARC
8
layer0
10
-0.0000063
20
-0.0000047
40
17
50
32.4980741
51
35.0019288
0
LINE
8
layer0
10
14.3379553
20
9.1336067
11
14.1916117
21
8.887346
0
LINE
8
layer0
10
14.1916117
20
8.887346
11
14.0304783
21
8.6393106
0
LINE
8
layer0
10
14.0304783
20
8.6393106
11
13.8743378
21
8.4196944
0
LINE
8
layer0
10
13.8743378
20
8.4196944
11
13.7263285
21
8.2289052
0
LINE
8
layer0
10
13.7263285
20
8.2289052
11
13.5867228
21
8.0636754
0
LINE
8
layer0
10
13.5867228
20
8.0636754
11
13.4578483
21
7.923469
0
LINE
8
layer0
10
13.4578483
20
7.923469
11
13.3422019
21
7.8077723
0
LINE
8
layer0
10
13.3422019
20
7.8077723
11
13.2400427
21
7.7138098
0
LINE
8
layer0
10
13.2400427
20
7.7138098
11
13.1566567
21
7.6432957
0
LINE
8
layer0
10
13.1566567
20
7.6432957
11
13.0706231
21
7.5747227
0
LINE
8
layer0
10
13.0706231
20
7.5747227
11
13.0222257
21
7.5313466
0
LINE
8
layer0
10
13.0222257
20
7.5313466
11
12.981323
21
7.4894138
0
LINE
8
layer0
10
12.981323
20
7.4894138
11
12.9478445
21
7.4492043
0
LINE
8
layer0
10
12.9478445
20
7.4492043
11
12.9216795
21
7.4110103
0
LINE
8
layer0
10
12.9216795
20
7.4110103
11
12.9027395
21
7.3751247
0
LINE
8
layer0
10
12.9027395
20
7.3751247
11
12.8909047
21
7.341835
0
LINE
8
layer0
10
12.8909047
20
7.341835
11
12.8860649
21
7.3114111
0
LINE
8
layer0
10
12.8860649
20
7.3114111
11
12.8880917
21
7.2841359
0
LINE
8
layer0
10
12.8880917
20
7.2841359
11
12.8968341
21
7.2602916
0
LINE
8
layer0
10
12.8968341
20
7.2602916
11
12.9228914
21
7.2138966
0
LINE
8
layer0
10
12.9228914
20
7.2138966
11
13.0524347
21
6.9766717
0
LINE
8
layer0
10
13.0524347
20
6.9766717
11
13.1777096
21
6.7371652
0
LINE
8
layer0
10
13.1777096
20
6.7371652
11
13.2018089
21
6.6897238
0
LINE
8
layer0
10
13.2018089
20
6.6897238
11
13.2167778
21
6.6692075
0
LINE
8
layer0
10
13.2167778
20
6.6692075
11
13.2383303
21
6.652369
0
LINE
8
layer0
10
13.2383303
20
6.652369
11
13.2663156
21
6.6394905
0
LINE
8
layer0
10
13.2663156
20
6.6394905
11
13.30057
21
6.630836
0
LINE
8
layer0
10
13.30057
20
6.630836
11
13.3409303
21
6.6266471
0
LINE
8
layer0
10
13.3409303
20
6.6266471
11
13.387224
21
6.6271831
0
LINE
8
layer0
10
13.387224
20
6.6271831
11
13.4392566
21
6.6326802
0
LINE
8
layer0
10
13.4392566
20
6.6326802
11
13.4968468
21
6.643393
0
LINE
8
layer0
10
13.4968468
20
6.643393
11
13.5598009
21
6.6595354
0
LINE
8
layer0
10
13.5598009
20
6.6595354
11
13.664615
21
6.6929727
0
LINE
8
layer0
10
13.664615
20
6.6929727
11
13.7695721
21
6.72313
0
LINE
8
layer0
10
13.7695721
20
6.72313
11
13.9044557
21
6.7558696
0
LINE
8
layer0
10
13.9044557
20
6.7558696
11
14.0649036
21
6.7877484
0
LINE
8
layer0
10
14.0649036
20
6.7877484
11
14.2530798
21
6.8170091
0
LINE
8
layer0
10
14.2530798
20
6.8170091
11
14.4680241
21
6.8412902
0
LINE
8
layer0
10
14.4680241
20
6.8412902
11
14.7088891
21
6.8583587
0
LINE
8
layer0
10
14.7088891
20
6.8583587
11
14.9782403
21
6.8661726
0
LINE
8
layer0
10
14.9782403
20
6.8661726
11
15.2739951
21
6.862349
0
LINE
8
layer0
10
15.2739951
20
6.862349
11
15.5600576
21
6.8472141
0
ARC
8
layer0
10
-0.0000074
20
-0.0000027
40
17
50
21.2480713
51
23.751926
0
LINE
8
layer0
10
15.8443338
20
6.1609107
11
15.652759
21
5.9479321
0
LINE
8
layer0
10
15.652759
20
5.9479321
11
15.4463325
21
5.7360981
0
LINE
8
layer0
10
15.4463325
20
5.7360981
11
15.2503472
21
5.5511633
0
LINE
8
layer0
10
15.2503472
20
5.5511633
11
15.0679607
21
5.3929152
0
LINE
8
layer0
10
15.0679607
20
5.3929152
11
14.8988027
21
5.258096
0
LINE
8
layer0
10
14.8988027
20
5.258096
11
14.7450516
21
5.1457258
0
LINE
8
layer0
10
14.7450516
20
5.1457258
11
14.6090561
21
5.0548137
0
LINE
8
layer0
10
14.6090561
20
5.0548137
11
14.4905287
21
4.982587
0
LINE
8
layer0
10
14.4905287
20
4.982587
11
14.3949883
21
4.9296956
0
LINE
8
layer0
10
14.3949883
20
4.9296956
11
14.2972298
21
4.8792245
0
LINE
8
layer0
10
14.2972298
20
4.8792245
11
14.2413002
21
4.8461237
0
LINE
8
layer0
10
14.2413002
20
4.8461237
11
14.1930026
21
4.8129763
0
LINE
8
layer0
10
14.1930026
20
4.8129763
11
14.152323
21
4.7800708
0
LINE
8
layer0
10
14.152323
20
4.7800708
11
14.1192094
21
4.7477152
0
LINE
8
layer0
10
14.1192094
20
4.7477152
11
14.0936324
21
4.7162141
0
LINE
8
layer0
10
14.0936324
20
4.7162141
11
14.0755305
21
4.6858729
0
LINE
8
layer0
10
14.0755305
20
4.6858729
11
14.0648483
21
4.6569779
0
LINE
8
layer0
10
14.0648483
20
4.6569779
11
14.061515
21
4.6298313
0
LINE
8
layer0
10
14.061515
20
4.6298313
11
14.0654377
21
4.6047396
0
LINE
8
layer0
10
14.0654377
20
4.6047396
11
14.081943
21
4.5541526
0
LINE
8
layer0
10
14.081943
20
4.5541526
11
14.162717
21
4.2962132
0
LINE
8
layer0
10
14.162717
20
4.2962132
11
14.2388593
21
4.0368689
0
LINE
8
layer0
10
14.2388593
20
4.0368689
11
14.2532403
21
3.9856375
0
LINE
8
layer0
10
14.2532403
20
3.9856375
11
14.2639189
21
3.9625951
0
LINE
8
layer0
10
14.2639189
20
3.9625951
11
14.2817723
21
3.9418755
0
LINE
8
layer0
10
14.2817723
20
3.9418755
11
14.3067074
21
3.9237848
0
LINE
8
layer0
10
14.3067074
20
3.9237848
11
14.3386152
21
3.9086139
0
LINE
8
layer0
10
14.3386152
20
3.9086139
11
14.3773828
21
3.8966316
0
LINE
8
layer0
10
14.3773828
20
3.8966316
11
14.4228915
21
3.8881258
0
LINE
8
layer0
10
14.4228915
20
3.8881258
11
14.4749968
21
3.8833662
0
LINE
8
layer0
10
14.4749968
20
3.8833662
11
14.5335704
21
3.8826379
0
LINE
8
layer0
10
14.5335704
20
3.8826379
11
14.598464
21
3.8861884
0
LINE
8
layer0
10
14.598464
20
3.8861884
11
14.7077874
21
3.8985349
0
LINE
8
layer0
10
14.7077874
20
3.8985349
11
14.8166112
21
3.9076367
0
LINE
8
layer0
10
14.8166112
20
3.9076367
11
14.9552902
21
3.9134327
0
LINE
8
layer0
10
14.9552902
20
3.9134327
11
15.1188744
21
3.9133972
0
LINE
8
layer0
10
15.1188744
20
3.9133972
11
15.3091434
21
3.9053843
0
LINE
8
layer0
10
15.3091434
20
3.9053843
11
15.5246946
21
3.8872653
0
LINE
8
layer0
10
15.5246946
20
3.8872653
11
15.7642614
21
3.8570153
0
LINE
8
layer0
10
15.7642614
20
3.8570153
11
16.0299615
21
3.8121313
0
LINE
8
layer0
10
16.0299615
20
3.8121313
11
16.3192875
21
3.7506822
0
LINE
8
layer0
10
16.3192875
20
3.7506822
11
16.5969007
21
3.6800302
0
ARC
8
layer0
10
-0.0000074
20
-0.0000025
40
17
50
9.9980759
51
12.5019307
0
LINE
8
layer0
10
16.7418234
20
2.9514543
11
16.5123796
21
2.7799424
0
LINE
8
layer1
10
16.5123796
20
2.7799424
11
16.2685928
21
2.6124506
0
LINE
8
layer1
10
16.2685928
20
2.6124506
11
16.0402943
21
2.4693041
0
LINE
8
layer1
10
16.0402943
20
2.4693041
11
15.8305396
21
2.3496786
0
LINE
8
layer1
10
15.8305396
20
2.3496786
11
15.6383301
21
2.2504509
0
LINE
8
layer1
10
15.6383301
20
2.2504509
11
15.4656109
21
2.1702352
0
LINE
8
layer1
10
15.4656109
20
2.1702352
11
15.3144924
21
2.1076014
0
LINE
8
layer1
10
15.3144924
20
2.1076014
11
15.1841517
21
2.059886
0
LINE
8
layer1
10
15.1841517
20
2.059886
11
15.0801285
21
2.0266499
0
LINE
8
layer1
10
15.0801285
20
2.0266499
11
14.974402
21
1.9962204
0
LINE
8
layer1
10
14.974402
20
1.9962204
11
14.9130894
21
1.9746669
0
LINE
8
layer1
10
14.9130894
20
1.9746669
11
14.8592532
21
1.9515789
0
LINE
8
layer1
10
14.8592532
20
1.9515789
11
14.8129356
21
1.9272418
0
LINE
8
layer1
10
14.8129356
20
1.9272418
11
14.7741461
21
1.901968
0
LINE
8
layer1
10
14.7741461
20
1.901968
11
14.7429149
21
1.8760621
0
LINE
8
layer1
10
14.7429149
20
1.8760621
11
14.7192416
21
1.8498354
0
LINE
8
layer1
10
14.7192416
20
1.8498354
11
14.7031275
21
1.8235795
0
LINE
8
layer1
10
14.7031275
20
1.8235795
11
14.6945622
21
1.7976049
0
LINE
8
layer1
10
14.6945622
20
1.7976049
11
14.6935144
21
1.77223
0
LINE
8
layer1
10
14.6935144
20
1.77223
11
14.6998335
21
1.719395
0
LINE
8
layer1
10
14.6998335
20
1.719395
11
14.728734
21
1.4506537
0
LINE
8
layer1
10
14.728734
20
1.4506537
11
14.7528177
21
1.1814379
0
LINE
8
layer1
10
14.7528177
20
1.1814379
11
14.7569275
21
1.1283853
0
LINE
8
layer1
10
14.7569275
20
1.1283853
11
14.7629057
21
1.1037024
0
LINE
8
layer1
10
14.7629057
20
1.1037024
11
14.7763738
21
1.0798979
0
LINE
8
layer1
10
14.7763738
20
1.0798979
11
14.7973005
21
1.0572902
0
LINE
8
layer1
10
14.7973005
20
1.0572902
11
14.8256355
21
1.0361859
0
LINE
8
layer1
10
14.8256355
20
1.0361859
11
14.8613206
21
1.0168707
0
LINE
8
layer1
10
14.8613206
20
1.0168707
11
14.9042954
21
0.99965
0
LINE
8
layer1
10
14.9042954
20
0.99965
11
14.954471
21
0.9848166
0
LINE
8
layer1
10
14.954471
20
0.9848166
11
15.011777
21
0.9726751
0
LINE
8
layer1
10
15.011777
20
0.9726751
11
15.0761164
21
0.9634973
0
LINE
8
layer1
10
15.0761164
20
0.9634973
11
15.1857479
21
0.9542787
0
LINE
8
layer1
10
15.1857479
20
0.9542787
11
15.2942563
21
0.9419751
0
LINE
8
layer1
10
15.2942563
20
0.9419751
11
15.4314014
21
0.9206048
0
LINE
8
layer1
10
15.4314014
20
0.9206048
11
15.5918354
21
0.8886562
0
LINE
8
layer1
10
15.5918354
20
0.8886562
11
15.7768851
21
0.8436777
0
LINE
8
layer1
10
15.7768851
20
0.8436777
11
15.9847598
21
0.7838549
0
LINE
8
layer1
10
15.9847598
20
0.7838549
11
16.2138219
21
0.707449
0
LINE
8
layer1
10
16.2138219
20
0.707449
11
16.4656602
21
0.6115919
0
LINE
8
layer1
10
16.4656602
20
0.6115919
11
16.7374387
21
0.4948789
0
LINE
8
layer1
10
16.7374387
20
0.4948789
11
16.9959341
21
0.3714248
0
ARC
8
layer1
10
-0.0000079
20
0
40
17
50
358.7480729
51
361.2519275
0
LINE
8
layer1
10
16.9959341
20
-0.3714248
11
16.7374387
21
-0.4948789
0
LINE
8
layer1
10
16.7374387
20
-0.4948789
11
16.4656602
21
-0.6115919
0
LINE
8
layer1
10
16.4656602
20
-0.6115919
11
16.2138219
21
-0.707449
0
LINE
8
layer1
10
16.2138219
20
-0.707449
11
15.9847598
21
-0.7838549
0
LINE
8
layer1
10
15.9847598
20
-0.7838549
11
15.7768851
21
-0.8436777
0
LINE
8
layer1
10
15.7768851
20
-0.8436777
11
15.5918354
21
-0.8886562
0
LINE
8
layer1
10
15.5918354
20
-0.8886562
11
15.4314014
21
-0.9206048
0
LINE
8
layer1
10
15.4314014
20
-0.9206048
11
15.2942563
21
-0.9419751
0
LINE
8
layer1
10
15.2942563
20
-0.9419751
11
15.1857479
21
-0.9542787
0
LINE
8
layer1
10
15.1857479
20
-0.9542787
11
15.0761164
21
-0.9634973
0
LINE
8
layer1
10
15.0761164
20
-0.9634973
11
15.011777
21
-0.9726751
0
LINE
8
layer1
10
15.011777
20
-0.9726751
11
14.954471
21
-0.9848166
0
LINE
8
layer1
10
14.954471
20
-0.9848166
11
14.9042954
21
-0.99965
0
LINE
8
layer1
10
14.9042954
20
-0.99965
11
14.8613206
21
-1.0168707
0
LINE
8
layer1
10
14.8613206
20
-1.0168707
11
14.8256355
21
-1.0361859
0
LINE
8
layer1
10
14.8256355
20
-1.0361859
11
14.7973005
21
-1.0572902
0
LINE
8
layer1
10
14.7973005
20
-1.0572902
11
14.7763738
21
-1.0798979
0
LINE
8
layer1
10
14.7763738
20
-1.0798979
11
14.7629057
21
-1.1037024
0
LINE
8
layer1
10
14.7629057
20
-1.1037024
11
14.7569275
21
-1.1283853
0
LINE
8
layer1
10
14.7569275
20
-1.1283853
11
14.7528177
21
-1.1814379
0
LINE
8
layer1
10
14.7528177
20
-1.1814379
11
14.728734
21
-1.4506537
0
LINE
8
layer1
10
14.728734
20
-1.4506537
11
14.6998335
21
-1.719395
0
LINE
8
layer1
10
14.6998335
20
-1.719395
11
14.6935144
21
-1.77223
0
LINE
8
layer1
10
14.6935144
20
-1.77223
11
14.6945622
21
-1.7976049
0
LINE
8
layer1
10
14.6945622
20
-1.7976049
11
14.7031275
21
-1.8235795
0
LINE
8
layer1
10
14.7031275
20
-1.8235795
11
14.7192416
21
-1.8498354
0
LINE
8
layer1
10
14.7192416
20
-1.8498354
11
14.7429149
21
-1.8760621
0
LINE
8
layer1
10
14.7429149
20
-1.8760621
11
14.7741461
21
-1.901968
0
LINE
8
layer1
10
14.7741461
20
-1.901968
11
14.8129356
21
-1.9272418
0
LINE
8
layer1
10
14.8129356
20
-1.9272418
11
14.8592532
21
-1.9515789
0
LINE
8
layer1
10
14.8592532
20
-1.9515789
11
14.9130894
21
-1.9746669
0
LINE
8
layer1
10
14.9130894
20
-1.9746669
11
14.974402
21
-1.9962204
0
LINE
8
layer1
10
14.974402
20
-1.9962204
11
15.0801285
21
-2.0266499
0
LINE
8
layer1
10
15.0801285
20
-2.0266499
11
15.1841517
21
-2.059886
0
LINE
8
layer1
10
15.1841517
20
-2.059886
11
15.3144924
21
-2.1076014
0
LINE
8
layer1
10
15.3144924
20
-2.1076014
11
15.4656109
21
-2.1702352
0
LINE
8
layer1
10
15.4656109
20
-2.1702352
11
15.6383301
21
-2.2504509
0
LINE
8
layer1
10
15.6383301
20
-2.2504509
11
15.8305396
21
-2.3496786
0
LINE
8
layer1
10
15.8305396
20
-2.3496786
11
16.0402943
21
-2.4693041
0
LINE
8
layer1
10
16.0402943
20
-2.4693041
11
16.2685928
21
-2.6124506
0
LINE
8
layer1
10
16.2685928
20
-2.6124506
11
16.5123796
21
-2.7799424
0
LINE
8
layer1
10
16.5123796
20
-2.7799424
11
16.7418234
21
-2.9514543
0
ARC
8
layer1
10
-0.0000075
20
0.0000025
40
17
50
347.4980693
51
350.0019241
0
LINE
8
layer1
10
16.5969007
20
-3.6800302
11
16.3192875
21
-3.7506822
0
LINE
8
layer1
10
16.3192875
20
-3.7506822
11
16.0299615
21
-3.8121313
0
LINE
8
layer1
10
16.0299615
20
-3.8121313
11
15.7642614
21
-3.8570153
0
LINE
8
layer1
10
15.7642614
20
-3.8570153
11
15.5246946
21
-3.8872653
0
LINE
8
layer1
10
15.5246946
20
-3.8872653
11
15.3091434
21
-3.9053843
0
LINE
8
layer1
10
15.3091434
20
-3.9053843
11
15.1188744
21
-3.9133972
0
LINE
8
layer1
10
15.1188744
20
-3.9133972
11
14.9552902
21
-3.9134327
0
LINE
8
layer1
10
14.9552902
20
-3.9134327
11
14.8166112
21
-3.9076367
0
LINE
8
layer1
10
14.8166112
20
-3.9076367
11
14.7077874
21
-3.8985349
0
LINE
8
layer1
10
14.7077874
20
-3.8985349
11
14.598464
21
-3.8861884
0
LINE
8
layer1
10
14.598464
20
-3.8861884
11
14.5335704
21
-3.8826379
0
LINE
8
layer1
10
14.5335704
20
-3.8826379
11
14.4749968
21
-3.8833662
0
LINE
8
layer1
10
14.4749968
20
-3.8833662
11
14.4228915
21
-3.8881258
0
LINE
8
layer1
10
14.4228915
20
-3.8881258
11
14.3773828
21
-3.8966316
0
LINE
8
layer1
10
14.3773828
20
-3.8966316
11
14.3386152
21
-3.9086139
0
LINE
8
layer1
10
14.3386152
20
-3.9086139
11
14.3067074
21
-3.9237848
0
LINE
8
layer1
10
14.3067074
20
-3.9237848
11
14.2817723
21
-3.9418755
0
LINE
8
layer1
10
14.2817723
20
-3.9418755
11
14.2639189
21
-3.9625951
0
LINE
8
layer1
10
14.2639189
20
-3.9625951
11
14.2532403
21
-3.9856375
0
LINE
8
layer1
10
14.2532403
20
-3.9856375
11
14.2388593
21
-4.0368689
0
LINE
8
layer1
10
14.2388593
20
-4.0368689
11
14.162717
21
-4.2962132
0
LINE
8
layer1
10
14.162717
20
-4.2962132
11
14.081943
21
-4.5541526
0
LINE
8
layer1
10
14.081943
20
-4.5541526
11
14.0654377
21
-4.6047396
0
LINE
8
layer1
10
14.0654377
20
-4.6047396
11
14.061515
21
-4.6298313
0
LINE
8
layer1
10
14.061515
20
-4.6298313
11
14.0648483
21
-4.6569779
0
LINE
8
layer1
10
14.0648483
20
-4.6569779
11
14.0755305
21
-4.6858729
0
LINE
8
layer1
10
14.0755305
20
-4.6858729
11
14.0936324
21
-4.7162141
0
LINE
8
layer1
10
14.0936324
20
-4.7162141
11
14.1192094
21
-4.7477152
0
LINE
8
layer1
10
14.1192094
20
-4.7477152
11
14.152323
21
-4.7800708
0
LINE
8
layer1
10
14.152323
20
-4.7800708
11
14.1930026
21
-4.8129763
0
LINE
8
layer1
10
14.1930026
20
-4.8129763
11
14.2413002
21
-4.8461237
0
LINE
8
layer1
10
14.2413002
20
-4.8461237
11
14.2972298
21
-4.8792245
0
LINE
8
layer1
10
14.2972298
20
-4.8792245
11
14.3949883
21
-4.9296956
0
LINE
8
layer1
10
14.3949883
20
-4.9296956
11
14.4905287
21
-4.982587
0
LINE
8
layer1
10
14.4905287
20
-4.982587
11
14.6090561
21
-5.0548137
0
LINE
8
layer1
10
14.6090561
20
-5.0548137
11
14.7450516
21
-5.1457258
0
LINE
8
layer1
10
14.7450516
20
-5.1457258
11
14.8988027
21
-5.258096
0
LINE
8
layer1
10
14.8988027
20
-5.258096
11
15.0679607
21
-5.3929152
0
LINE
8
layer1
10
15.0679607
20
-5.3929152
11
15.2503472
21
-5.5511633
0
LINE
8
layer1
10
15.2503472
20
-5.5511633
11
15.4463325
21
-5.7360981
0
LINE
8
layer1
10
15.4463325
20
-5.7360981
11
15.652759
21
-5.9479321
0
LINE
8
layer1
10
15.652759
20
-5.9479321
11
15.8443338
21
-6.1609107
0
ARC
8
layer1
10
-0.0000074
20
0.0000026
40
17
50
336.248074
51
338.7519287
0
LINE
8
layer1
10
15.5600576
20
-6.8472141
11
15.2739951
21
-6.862349
0
LINE
8
layer1
10
15.2739951
20
-6.862349
11
14.9782403
21
-6.8661726
0
LINE
8
layer1
10
14.9782403
20
-6.8661726
11
14.7088891
21
-6.8583587
0
LINE
8
layer1
10
14.7088891
20
-6.8583587
11
14.4680241
21
-6.8412902
0
LINE
8
layer1
10
14.4680241
20
-6.8412902
11
14.2530798
21
-6.8170091
0
LINE
8
layer1
10
14.2530798
20
-6.8170091
11
14.0649036
21
-6.7877484
0
LINE
8
layer1
10
14.0649036
20
-6.7877484
11
13.9044557
21
-6.7558696
0
LINE
8
layer1
10
13.9044557
20
-6.7558696
11
13.7695721
21
-6.72313
0
LINE
8
layer1
10
13.7695721
20
-6.72313
11
13.664615
21
-6.6929727
0
LINE
8
layer1
10
13.664615
20
-6.6929727
11
13.5598009
21
-6.6595354
0
LINE
8
layer1
10
13.5598009
20
-6.6595354
11
13.4968468
21
-6.643393
0
LINE
8
layer1
10
13.4968468
20
-6.643393
11
13.4392566
21
-6.6326802
0
LINE
8
layer1
10
13.4392566
20
-6.6326802
11
13.387224
21
-6.6271831
0
LINE
8
layer1
10
13.387224
20
-6.6271831
11
13.3409303
21
-6.6266471
0
LINE
8
layer1
10
13.3409303
20
-6.6266471
11
13.30057
21
-6.630836
0
LINE
8
layer1
10
13.30057
20
-6.630836
11
13.2663156
21
-6.6394905
0
LINE
8
layer1
10
13.2663156
20
-6.6394905
11
13.2383303
21
-6.652369
0
LINE
8
layer1
10
13.2383303
20
-6.652369
11
13.2167778
21
-6.6692075
0
LINE
8
layer1
10
13.2167778
20
-6.6692075
11
13.2018089
21
-6.6897238
0
LINE
8
layer1
10
13.2018089
20
-6.6897238
11
13.1777096
21
-6.7371652
0
LINE
8
layer1
10
13.1777096
20
-6.7371652
11
13.0524347
21
-6.9766717
0
LINE
8
layer1
10
13.0524347
20
-6.9766717
11
12.9228914
21
-7.2138966
0
LINE
8
layer1
10
12.9228914
20
-7.2138966
11
12.8968341
21
-7.2602916
0
LINE
8
layer1
10
12.8968341
20
-7.2602916
11
12.8880917
21
-7.2841359
0
LINE
8
layer1
10
12.8880917
20
-7.2841359
11
12.8860649
21
-7.3114111
0
LINE
8
layer1
10
12.8860649
20
-7.3114111
11
12.8909047
21
-7.341835
0
LINE
8
layer1
10
12.8909047
20
-7.341835
11
12.9027395
21
-7.3751247
0
LINE
8
layer1
10
12.9027395
20
-7.3751247
11
12.9216795
21
-7.4110103
0
LINE
8
layer1
10
12.9216795
20
-7.4110103
11
12.9478445
21
-7.4492043
0
LINE
8
layer1
10
12.9478445
20
-7.4492043
11
12.981323
21
-7.4894138
0
LINE
8
layer1
10
12.981323
20
-7.4894138
11
13.0222257
21
-7.5313466
0
LINE
8
layer1
10
13.0222257
20
-7.5313466
11
13.0706231
21
-7.5747227
0
LINE
8
layer1
10
13.0706231
20
-7.5747227
11
13.1566567
21
-7.6432957
0
LINE
8
layer1
10
13.1566567
20
-7.6432957
11
13.2400427
21
-7.7138098
0
LINE
8
layer1
10
13.2400427
20
-7.7138098
11
13.3422019
21
-7.8077723
0
LINE
8
layer1
10
13.3422019
20
-7.8077723
11
13.4578483
21
-7.923469
0
LINE
8
layer1
10
13.4578483
20
-7.923469
11
13.5867228
21
-8.0636754
0
LINE
8
layer1
10
13.5867228
20
-8.0636754
11
13.7263285
21
-8.2289052
0
LINE
8
layer1
10
13.7263285
20
-8.2289052
11
13.8743378
21
-8.4196944
0
LINE
8
layer1
10
13.8743378
20
-8.4196944
11
14.0304783
21
-8.6393106
0
LINE
8
layer1
10
14.0304783
20
-8.6393106
11
14.1916117
21
-8.887346
0
LINE
8
layer1
10
14.1916117
20
-8.887346
11
14.3379553
21
-9.1336067
0
ARC
8
layer1
10
-0.0000063
20
0.0000047
40
17
50
324.9980712
51
327.5019259
0
LINE
8
layer1
10
13.9252502
20
-9.7512635
11
13.6417317
21
-9.7102995
0
LINE
8
layer1
10
13.6417317
20
-9.7102995
11
13.3509138
21
-9.6563507
0
LINE
8
layer1
10
13.3509138
20
-9.6563507
11
13.0882626
21
-9.5961391
0
LINE
8
layer1
10
13.0882626
20
-9.5961391
11
12.8553555
21
-9.5324083
0
LINE
8
layer1
10
12.8553555
20
-9.5324083
11
12.6492784
21
-9.4666601
0
LINE
8
layer1
10
12.6492784
20
-9.4666601
11
12.4704264
21
-9.4012503
0
LINE
8
layer1
10
12.4704264
20
-9.4012503
11
12.3192807
21
-9.3386822
0
LINE
8
layer1
10
12.3192807
20
-9.3386822
11
12.193376
21
-9.2802572
0
LINE
8
layer1
10
12.193376
20
-9.2802572
11
12.096319
21
-9.2302032
0
LINE
8
layer1
10
12.096319
20
-9.2302032
11
12.0000422
21
-9.1769602
0
LINE
8
layer1
10
12.0000422
20
-9.1769602
11
11.941447
21
-9.1488463
0
LINE
8
layer1
10
11.941447
20
-9.1488463
11
11.8870534
21
-9.127104
0
LINE
8
layer1
10
11.8870534
20
-9.127104
11
11.837093
21
-9.1115615
0
LINE
8
layer1
10
11.837093
20
-9.1115615
11
11.7917934
21
-9.1020044
0
LINE
8
layer1
10
11.7917934
20
-9.1020044
11
11.7513914
21
-9.0982389
0
LINE
8
layer1
10
11.7513914
20
-9.0982389
11
11.7161067
21
-9.1000444
0
LINE
8
layer1
10
11.7161067
20
-9.1000444
11
11.6861466
21
-9.1072157
0
LINE
8
layer1
10
11.6861466
20
-9.1072157
11
11.6617232
21
-9.119526
0
LINE
8
layer1
10
11.6617232
20
-9.119526
11
11.6430395
21
-9.1367278
0
LINE
8
layer1
10
11.6430395
20
-9.1367278
11
11.6101478
21
-9.1785561
0
LINE
8
layer1
10
11.6101478
20
-9.1785561
11
11.4405547
21
-9.3890206
0
LINE
8
layer1
10
11.4405547
20
-9.3890206
11
11.2672202
21
-9.5964146
0
LINE
8
layer1
10
11.2672202
20
-9.5964146
11
11.2326124
21
-9.6368346
0
LINE
8
layer1
10
11.2326124
20
-9.6368346
11
11.2193862
21
-9.6585152
0
LINE
8
layer1
10
11.2193862
20
-9.6585152
11
11.2120772
21
-9.684871
0
LINE
8
layer1
10
11.2120772
20
-9.684871
11
11.2108886
21
-9.7156544
0
LINE
8
layer1
10
11.2108886
20
-9.7156544
11
11.2160015
21
-9.7506133
0
LINE
8
layer1
10
11.2160015
20
-9.7506133
11
11.2275767
21
-9.7895044
0
LINE
8
layer1
10
11.2275767
20
-9.7895044
11
11.2457877
21
-9.8320691
0
LINE
8
layer1
10
11.2457877
20
-9.8320691
11
11.2707783
21
-9.8780373
0
LINE
8
layer1
10
11.2707783
20
-9.8780373
11
11.3027145
21
-9.9271441
0
LINE
8
layer1
10
11.3027145
20
-9.9271441
11
11.3417196
21
-9.9791286
0
LINE
8
layer1
10
11.3417196
20
-9.9791286
11
11.4127222
21
-10.0631684
0
LINE
8
layer1
10
11.4127222
20
-10.0631684
11
11.4807494
21
-10.1485953
0
LINE
8
layer1
10
11.4807494
20
-10.1485953
11
11.5626144
21
-10.2606827
0
LINE
8
layer1
10
11.5626144
20
-10.2606827
11
11.6534674
21
-10.3967177
0
LINE
8
layer1
10
11.6534674
20
-10.3967177
11
11.7525127
21
-10.5593722
0
LINE
8
layer1
10
11.7525127
20
-10.5593722
11
11.8572012
21
-10.7486629
0
LINE
8
layer1
10
11.8572012
20
-10.7486629
11
11.9651454
21
-10.9646614
0
LINE
8
layer1
10
11.9651454
20
-10.9646614
11
12.0754407
21
-11.2105192
0
LINE
8
layer1
10
12.0754407
20
-11.2105192
11
12.1850886
21
-11.4852242
0
LINE
8
layer1
10
12.1850886
20
-11.4852242
11
12.2805772
21
-11.7553033
0
ARC
8
layer1
10
-0.0000056
20
0.0000056
40
17
50
313.7480728
51
316.2519272
0
LINE
8
layer1
10
11.7553033
20
-12.2805772
11
11.4852242
21
-12.1850886
0
LINE
8
layer1
10
11.4852242
20
-12.1850886
11
11.2105192
21
-12.0754407
0
LINE
8
layer1
10
11.2105192
20
-12.0754407
11
10.9646614
21
-11.9651454
0
LINE
8
layer1
10
10.9646614
20
-11.9651454
11
10.7486629
21
-11.8572012
0
LINE
8
layer1
10
10.7486629
20
-11.8572012
11
10.5593722
21
-11.7525127
0
LINE
8
layer1
10
10.5593722
20
-11.7525127
11
10.3967177
21
-11.6534674
0
LINE
8
layer1
10
10.3967177
20
-11.6534674
11
10.2606827
21
-11.5626144
0
LINE
8
layer1
10
10.2606827
20
-11.5626144
11
10.1485953
21
-11.4807494
0
LINE
8
layer1
10
10.1485953
20
-11.4807494
11
10.0631684
21
-11.4127222
0
LINE
8
layer1
10
10.0631684
20
-11.4127222
11
9.9791286
21
-11.3417196
0
LINE
8
layer1
10
9.9791286
20
-11.3417196
11
9.9271441
21
-11.3027145
0
LINE
8
layer1
10
9.9271441
20
-11.3027145
11
9.8780373
21
-11.2707783
0
LINE
8
layer1
10
9.8780373
20
-11.2707783
11
9.8320691
21
-11.2457877
0
LINE
8
layer1
10
9.8320691
20
-11.2457877
11
9.7895044
21
-11.2275767
0
LINE
8
layer1
10
9.7895044
20
-11.2275767
11
9.7506133
21
-11.2160015
0
LINE
8
layer1
10
9.7506133
20
-11.2160015
11
9.7156544
21
-11.2108886
0
LINE
8
layer1
10
9.7156544
20
-11.2108886
11
9.684871
21
-11.2120772
0
LINE
8
layer1
10
9.684871
20
-11.2120772
11
9.6585152
21
-11.2193862
0
LINE
8
layer1
10
9.6585152
20
-11.2193862
11
9.6368346
21
-11.2326124
0
LINE
8
layer1
10
9.6368346
20
-11.2326124
11
9.5964146
21
-11.2672202
0
LINE
8
layer1
10
9.5964146
20
-11.2672202
11
9.3890206
21
-11.4405547
0
LINE
8
layer1
10
9.3890206
20
-11.4405547
11
9.1785561
21
-11.6101478
0
LINE
8
layer1
10
9.1785561
20
-11.6101478
11
9.1367278
21
-11.6430395
0
LINE
8
layer1
10
9.1367278
20
-11.6430395
11
9.119526
21
-11.6617232
0
LINE
8
layer1
10
9.119526
20
-11.6617232
11
9.1072157
21
-11.6861466
0
LINE
8
layer1
10
9.1072157
20
-11.6861466
11
9.1000444
21
-11.7161067
0
LINE
8
layer1
10
9.1000444
20
-11.7161067
11
9.0982389
21
-11.7513914
0
LINE
8
layer1
10
9.0982389
20
-11.7513914
11
9.1020044
21
-11.7917934
0
LINE
8
layer1
10
9.1020044
20
-11.7917934
11
9.1115615
21
-11.837093
0
LINE
8
layer1
10
9.1115615
20
-11.837093
11
9.127104
21
-11.8870534
0
LINE
8
layer1
10
9.127104
20
-11.8870534
11
9.1488463
21
-11.941447
0
LINE
8
layer1
10
9.1488463
20
-11.941447
11
9.1769602
21
-12.0000422
0
LINE
8
layer1
10
9.1769602
20
-12.0000422
11
9.2302032
21
-12.096319
0
LINE
8
layer1
10
9.2302032
20
-12.096319
11
9.2802572
21
-12.193376
0
LINE
8
layer1
10
9.2802572
20
-12.193376
11
9.3386822
21
-12.3192807
0
LINE
8
layer1
10
9.3386822
20
-12.3192807
11
9.4012503
21
-12.4704264
0
LINE
8
layer1
10
9.4012503
20
-12.4704264
11
9.4666601
21
-12.6492784
0
LINE
8
layer1
10
9.4666601
20
-12.6492784
11
9.5324083
21
-12.8553555
0
LINE
8
layer1
10
9.5324083
20
-12.8553555
11
9.5961391
21
-13.0882626
0
LINE
8
layer1
10
9.5961391
20
-13.0882626
11
9.6563507
21
-13.3509138
0
LINE
8
layer1
10
9.6563507
20
-13.3509138
11
9.7102995
21
-13.6417317
0
LINE
8
layer1
10
9.7102995
20
-13.6417317
11
9.7512635
21
-13.9252502
0
ARC
8
layer1
10
-0.0000047
20
0.0000063
40
17
50
302.4980741
51
305.0019288
0
LINE
8
layer1
10
9.1336067
20
-14.3379553
11
8.887346
21
-14.1916117
0
LINE
8
layer1
10
8.887346
20
-14.1916117
11
8.6393106
21
-14.0304783
0
LINE
8
layer1
10
8.6393106
20
-14.0304783
11
8.4196944
21
-13.8743378
0
LINE
8
layer1
10
8.4196944
20
-13.8743378
11
8.2289052
21
-13.7263285
0
LINE
8
layer1
10
8.2289052
20
-13.7263285
11
8.0636754
21
-13.5867228
0
LINE
8
layer1
10
8.0636754
20
-13.5867228
11
7.923469
21
-13.4578483
0
LINE
8
layer1
10
7.923469
20
-13.4578483
11
7.8077723
21
-13.3422019
0
LINE
8
layer1
10
7.8077723
20
-13.3422019
11
7.7138098
21
-13.2400427
0
LINE
8
layer1
10
7.7138098
20
-13.2400427
11
7.6432957
21
-13.1566567
0
LINE
8
layer1
10
7.6432957
20
-13.1566567
11
7.5747227
21
-13.0706231
0
LINE
8
layer1
10
7.5747227
20
-13.0706231
11
7.5313466
21
-13.0222257
0
LINE
8
layer1
10
7.5313466
20
-13.0222257
11
7.4894138
21
-12.981323
0
LINE
8
layer1
10
7.4894138
20
-12.981323
11
7.4492043
21
-12.9478445
0
LINE
8
layer1
10
7.4492043
20
-12.9478445
11
7.4110103
21
-12.9216795
0
LINE
8
layer1
10
7.4110103
20
-12.9216795
11
7.3751247
21
-12.9027395
0
LINE
8
layer1
10
7.3751247
20
-12.9027395
11
7.341835
21
-12.8909047
0
LINE
8
layer1
10
7.341835
20
-12.8909047
11
7.3114111
21
-12.8860649
0
LINE
8
layer1
10
7.3114111
20
-12.8860649
11
7.2841359
21
-12.8880917
0
LINE
8
layer1
10
7.2841359
20
-12.8880917
11
7.2602916
21
-12.8968341
0
LINE
8
layer1
10
7.2602916
20
-12.8968341
11
7.2138966
21
-12.9228914
0
LINE
8
layer1
10
7.2138966
20
-12.9228914
11
6.9766717
21
-13.0524347
0
LINE
8
layer1
10
6.9766717
20
-13.0524347
11
6.7371652
21
-13.1777096
0
LINE
8
layer1
10
6.7371652
20
-13.1777096
11
6.6897238
21
-13.2018089
0
LINE
8
layer1
10
6.6897238
20
-13.2018089
11
6.6692075
21
-13.2167778
0
LINE
8
layer1
10
6.6692075
20
-13.2167778
11
6.652369
21
-13.2383303
0
LINE
8
layer1
10
6.652369
20
-13.2383303
11
6.6394905
21
-13.2663156
0
LINE
8
layer1
10
6.6394905
20
-13.2663156
11
6.630836
21
-13.30057
0
LINE
8
layer1
10
6.630836
20
-13.30057
11
6.6266471
21
-13.3409303
0
LINE
8
layer1
10
6.6266471
20
-13.3409303
11
6.6271831
21
-13.387224
0
LINE
8
layer1
10
6.6271831
20
-13.387224
11
6.6326802
21
-13.4392566
0
LINE
8
layer1
10
6.6326802
20
-13.4392566
11
6.643393
21
-13.4968468
0
LINE
8
layer1
10
6.643393
20
-13.4968468
11
6.6595354
21
-13.5598009
0
LINE
8
layer1
10
6.6595354
20
-13.5598009
11
6.6929727
21
-13.664615
0
LINE
8
layer1
10
6.6929727
20
-13.664615
11
6.72313
21
-13.7695721
0
LINE
8
layer1
10
6.72313
20
-13.7695721
11
6.7558696
21
-13.9044557
0
LINE
8
layer1
10
6.7558696
20
-13.9044557
11
6.7877484
21
-14.0649036
0
LINE
8
layer1
10
6.7877484
20
-14.0649036
11
6.8170091
21
-14.2530798
0
LINE
8
layer1
10
6.8170091
20
-14.2530798
11
6.8412902
21
-14.4680241
0
LINE
8
layer1
10
6.8412902
20
-14.4680241
11
6.8583587
21
-14.7088891
0
LINE
8
layer1
10
6.8583587
20
-14.7088891
11
6.8661726
21
-14.9782403
0
LINE
8
layer1
10
6.8661726
20
-14.9782403
11
6.862349
21
-15.2739951
0
LINE
8
layer1
10
6.862349
20
-15.2739951
11
6.8472141
21
-15.5600576
0
ARC
8
layer1
10
-0.0000027
20
0.0000074
40
17
50
291.2480713
51
293.751926
0
LINE
8
layer1
10
6.1609107
20
-15.8443338
11
5.9479321
21
-15.652759
0
LINE
8
layer1
10
5.9479321
20
-15.652759
11
5.7360981
21
-15.4463325
0
LINE
8
layer1
10
5.7360981
20
-15.4463325
11
5.5511633
21
-15.2503472
0
LINE
8
layer1
10
5.5511633
20
-15.2503472
11
5.3929152
21
-15.0679607
0
LINE
8
layer1
10
5.3929152
20
-15.0679607
11
5.258096
21
-14.8988027
0
LINE
8
layer1
10
5.258096
20
-14.8988027
11
5.1457258
21
-14.7450516
0
LINE
8
layer1
10
5.1457258
20
-14.7450516
11
5.0548137
21
-14.6090561
0
LINE
8
layer1
10
5.0548137
20
-14.6090561
11
4.982587
21
-14.4905287
0
LINE
8
layer1
10
4.982587
20
-14.4905287
11
4.9296956
21
-14.3949883
0
LINE
8
layer1
10
4.9296956
20
-14.3949883
11
4.8792245
21
-14.2972298
0
LINE
8
layer1
10
4.8792245
20
-14.2972298
11
4.8461237
21
-14.2413002
0
LINE
8
layer1
10
4.8461237
20
-14.2413002
11
4.8129763
21
-14.1930026
0
LINE
8
layer1
10
4.8129763
20
-14.1930026
11
4.7800708
21
-14.152323
0
LINE
8
layer1
10
4.7800708
20
-14.152323
11
4.7477152
21
-14.1192094
0
LINE
8
layer1
10
4.7477152
20
-14.1192094
11
4.7162141
21
-14.0936324
0
LINE
8
layer1
10
4.7162141
20
-14.0936324
11
4.6858729
21
-14.0755305
0
LINE
8
layer1
10
4.6858729
20
-14.0755305
11
4.6569779
21
-14.0648483
0
LINE
8
layer1
10
4.6569779
20
-14.0648483
11
4.6298313
21
-14.061515
0
LINE
8
layer1
10
4.6298313
20
-14.061515
11
4.6047396
21
-14.0654377
0
LINE
8
layer1
10
4.6047396
20
-14.0654377
11
4.5541526
21
-14.081943
0
LINE
8
layer1
10
4.5541526
20
-14.081943
11
4.2962132
21
-14.162717
0
LINE
8
layer1
10
4.2962132
20
-14.162717
11
4.0368689
21
-14.2388593
0
LINE
8
layer1
10
4.0368689
20
-14.2388593
11
3.9856375
21
-14.2532403
0
LINE
8
layer1
10
3.9856375
20
-14.2532403
11
3.9625951
21
-14.2639189
0
LINE
8
layer1
10
3.9625951
20
-14.2639189
11
3.9418755
21
-14.2817723
0
LINE
8
layer1
10
3.9418755
20
-14.2817723
11
3.9237848
21
-14.3067074
0
LINE
8
layer1
10
3.9237848
20
-14.3067074
11
3.9086139
21
-14.3386152
0
LINE
8
layer1
10
3.9086139
20
-14.3386152
11
3.8966316
21
-14.3773828
0
LINE
8
layer1
10
3.8966316
20
-14.3773828
11
3.8881258
21
-14.4228915
0
LINE
8
layer1
10
3.8881258
20
-14.4228915
11
3.8833662
21
-14.4749968
0
LINE
8
layer1
10
3.8833662
20
-14.4749968
11
3.8826379
21
-14.5335704
0
LINE
8
layer1
10
3.8826379
20
-14.5335704
11
3.8861884
21
-14.598464
0
LINE
8
layer1
10
3.8861884
20
-14.598464
11
3.8985349
21
-14.7077874
0
LINE
8
layer1
10
3.8985349
20
-14.7077874
11
3.9076367
21
-14.8166112
0
LINE
8
layer1
10
3.9076367
20
-14.8166112
11
3.9134327
21
-14.9552902
0
LINE
8
layer1
10
3.9134327
20
-14.9552902
11
3.9133972
21
-15.1188744
0
LINE
8
layer1
10
3.9133972
20
-15.1188744
11
3.9053843
21
-15.3091434
0
LINE
8
layer1
10
3.9053843
20
-15.3091434
11
3.8872653
21
-15.5246946
0
LINE
8
layer1
10
3.8872653
20
-15.5246946
11
3.8570153
21
-15.7642614
0
LINE
8
layer1
10
3.8570153
20
-15.7642614
11
3.8121313
21
-16.0299615
0
LINE
8
layer1
10
3.8121313
20
-16.0299615
11
3.7506822
21
-16.3192875
0
LINE
8
layer1
10
3.7506822
20
-16.3192875
11
3.6800302
21
-16.5969007
0
ARC
8
layer1
10
-0.0000025
20
0.0000074
40
17
50
279.9980759
51
282.5019307
0
LINE
8
layer1
10
2.9514543
20
-16.7418234
11
2.7799424
21
-16.5123796
0
LINE
8
layer1
10
2.7799424
20
-16.5123796
11
2.6124506
21
-16.2685928
0
LINE
8
layer1
10
2.6124506
20
-16.2685928
11
2.4693041
21
-16.0402943
0
LINE
8
layer1
10
2.4693041
20
-16.0402943
11
2.3496786
21
-15.8305396
0
LINE
8
layer1
10
2.3496786
20
-15.8305396
11
2.2504509
21
-15.6383301
0
LINE
8
layer1
10
2.2504509
20
-15.6383301
11
2.1702352
21
-15.4656109
0
LINE
8
layer1
10
2.1702352
20
-15.4656109
11
2.1076014
21
-15.3144924
0
LINE
8
layer1
10
2.1076014
20
-15.3144924
11
2.059886
21
-15.1841517
0
LINE
8
layer1
10
2.059886
20
-15.1841517
11
2.0266499
21
-15.0801285
0
LINE
8
layer1
10
2.0266499
20
-15.0801285
11
1.9962204
21
-14.974402
0
LINE
8
layer1
10
1.9962204
20
-14.974402
11
1.9746669
21
-14.9130894
0
LINE
8
layer1
10
1.9746669
20
-14.9130894
11
1.9515789
21
-14.8592532
0
LINE
8
layer1
10
1.9515789
20
-14.8592532
11
1.9272418
21
-14.8129356
0
LINE
8
layer1
10
1.9272418
20
-14.8129356
11
1.901968
21
-14.7741461
0
LINE
8
layer1
10
1.901968
20
-14.7741461
11
1.8760621
21
-14.7429149
0
LINE
8
layer1
10
1.8760621
20
-14.7429149
11
1.8498354
21
-14.7192416
0
LINE
8
layer1
10
1.8498354
20
-14.7192416
11
1.8235795
21
-14.7031275
0
LINE
8
layer1
10
1.8235795
20
-14.7031275
11
1.7976049
21
-14.6945622
0
LINE
8
layer1
10
1.7976049
20
-14.6945622
11
1.77223
21
-14.6935144
0
LINE
8
layer1
10
1.77223
20
-14.6935144
11
1.719395
21
-14.6998335
0
LINE
8
layer1
10
1.719395
20
-14.6998335
11
1.4506537
21
-14.728734
0
LINE
8
layer1
10
1.4506537
20
-14.728734
11
1.1814379
21
-14.7528177
0
LINE
8
layer1
10
1.1814379
20
-14.7528177
11
1.1283853
21
-14.7569275
0
LINE
8
layer1
10
1.1283853
20
-14.7569275
11
1.1037024
21
-14.7629057
0
LINE
8
layer1
10
1.1037024
20
-14.7629057
11
1.0798979
21
-14.7763738
0
LINE
8
layer1
10
1.0798979
20
-14.7763738
11
1.0572902
21
-14.7973005
0
LINE
8
layer1
10
1.0572902
20
-14.7973005
11
1.0361859
21
-14.8256355
0
LINE
8
layer1
10
1.0361859
20
-14.8256355
11
1.0168707
21
-14.8613206
0
LINE
8
layer1
10
1.0168707
20
-14.8613206
11
0.99965
21
-14.9042954
0
LINE
8
layer1
10
0.99965
20
-14.9042954
11
0.9848166
21
-14.954471
0
LINE
8
layer1
10
0.9848166
20
-14.954471
11
0.9726751
21
-15.011777
0
LINE
8
layer1
10
0.9726751
20
-15.011777
11
0.9634973
21
-15.0761164
0
LINE
8
layer1
10
0.9634973
20
-15.0761164
11
0.9542787
21
-15.1857479
0
LINE
8
layer1
10
0.9542787
20
-15.1857479
11
0.9419751
21
-15.2942563
0
LINE
8
layer1
10
0.9419751
20
-15.2942563
11
0.9206048
21
-15.4314014
0
LINE
8
layer1
10
0.9206048
20
-15.4314014
11
0.8886562
21
-15.5918354
0
LINE
8
layer1
10
0.8886562
20
-15.5918354
11
0.8436777
21
-15.7768851
0
LINE
8
layer1
10
0.8436777
20
-15.7768851
11
0.7838549
21
-15.9847598
0
LINE
8
layer1
10
0.7838549
20
-15.9847598
11
0.707449
21
-16.2138219
0
LINE
8
layer1
10
0.707449
20
-16.2138219
11
0.6115919
21
-16.4656602
0
LINE
8
layer1
10
0.6115919
20
-16.4656602
11
0.4948789
21
-16.7374387
0
LINE
8
layer1
10
0.4948789
20
-16.7374387
11
0.3714248
21
-16.9959341
0
ARC
8
layer1
10
0
20
0.0000079
40
17
50
268.7480729
51
271.2519275
0
LINE
8
layer1
10
-0.3714248
20
-16.9959341
11
-0.4948789
21
-16.7374387
0
LINE
8
layer1
10
-0.4948789
20
-16.7374387
11
-0.6115919
21
-16.4656602
0
LINE
8
layer1
10
-0.6115919
20
-16.4656602
11
-0.707449
21
-16.2138219
0
LINE
8
layer1
10
-0.707449
20
-16.2138219
11
-0.7838549
21
-15.9847598
0
LINE
8
layer1
10
-0.7838549
20
-15.9847598
11
-0.8436777
21
-15.7768851
0
LINE
8
layer1
10
-0.8436777
20
-15.7768851
11
-0.8886562
21
-15.5918354
0
LINE
8
layer1
10
-0.8886562
20
-15.5918354
11
-0.9206048
21
-15.4314014
0
LINE
8
layer1
10
-0.9206048
20
-15.4314014
11
-0.9419751
21
-15.2942563
0
LINE
8
layer1
10
-0.9419751
20
-15.2942563
11
-0.9542787
21
-15.1857479
0
LINE
8
layer1
10
-0.9542787
20
-15.1857479
11
-0.9634973
21
-15.0761164
0
LINE
8
layer1
10
-0.9634973
20
-15.0761164
11
-0.9726751
21
-15.011777
0
LINE
8
layer1
10
-0.9726751
20
-15.011777
11
-0.9848166
21
-14.954471
0
LINE
8
layer1
10
-0.9848166
20
-14.954471
11
-0.99965
21
-14.9042954
0
LINE
8
layer1
10
-0.99965
20
-14.9042954
11
-1.0168707
21
-14.8613206
0
LINE
8
layer1
10
-1.0168707
20
-14.8613206
11
-1.0361859
21
-14.8256355
0
LINE
8
layer1
10
-1.0361859
20
-14.8256355
11
-1.0572902
21
-14.7973005
0
LINE
8
layer1
10
-1.0572902
20
-14.7973005
11
-1.0798979
21
-14.7763738
0
LINE
8
layer1
10
-1.0798979
20
-14.7763738
11
-1.1037024
21
-14.7629057
0
LINE
8
layer1
10
-1.1037024
20
-14.7629057
11
-1.1283853
21
-14.7569275
0
LINE
8
layer1
10
-1.1283853
20
-14.7569275
11
-1.1814379
21
-14.7528177
0
LINE
8
layer1
10
-1.1814379
20
-14.7528177
11
-1.4506537
21
-14.728734
0
LINE
8
layer1
10
-1.4506537
20
-14.728734
11
-1.719395
21
-14.6998335
0
LINE
8
layer1
10
-1.719395
20
-14.6998335
11
-1.77223
21
-14.6935144
0
LINE
8
layer1
10
-1.77223
20
-14.6935144
11
-1.7976049
21
-14.6945622
0
LINE
8
layer1
10
-1.7976049
20
-14.6945622
11
-1.8235795
21
-14.7031275
0
LINE
8
layer1
10
-1.8235795
20
-14.7031275
11
-1.8498354
21
-14.7192416
0
LINE
8
layer1
10
-1.8498354
20
-14.7192416
11
-1.8760621
21
-14.7429149
0
LINE
8
layer1
10
-1.8760621
20
-14.7429149
11
-1.901968
21
-14.7741461
0
LINE
8
layer1
10
-1.901968
20
-14.7741461
11
-1.9272418
21
-14.8129356
0
LINE
8
layer1
10
-1.9272418
20
-14.8129356
11
-1.9515789
21
-14.8592532
0
LINE
8
layer1
10
-1.9515789
20
-14.8592532
11
-1.9746669
21
-14.9130894
0
LINE
8
layer1
10
-1.9746669
20
-14.9130894
11
-1.9962204
21
-14.974402
0
LINE
8
layer1
10
-1.9962204
20
-14.974402
11
-2.0266499
21
-15.0801285
0
LINE
8
layer1
10
-2.0266499
20
-15.0801285
11
-2.059886
21
-15.1841517
0
LINE
8
layer1
10
-2.059886
20
-15.1841517
11
-2.1076014
21
-15.3144924
0
LINE
8
layer1
10
-2.1076014
20
-15.3144924
11
-2.1702352
21
-15.4656109
0
LINE
8
layer1
10
-2.1702352
20
-15.4656109
11
-2.2504509
21
-15.6383301
0
LINE
8
layer1
10
-2.2504509
20
-15.6383301
11
-2.3496786
21
-15.8305396
0
LINE
8
layer1
10
-2.3496786
20
-15.8305396
11
-2.4693041
21
-16.0402943
0
LINE
8
layer1
10
-2.4693041
20
-16.0402943
11
-2.6124506
21
-16.2685928
0
LINE
8
layer1
10
-2.6124506
20
-16.2685928
11
-2.7799424
21
-16.5123796
0
LINE
8
layer1
10
-2.7799424
20
-16.5123796
11
-2.9514543
21
-16.7418234
0
ARC
8
layer1
10
0.0000025
20
0.0000075
40
17
50
257.4980693
51
260.0019241
0
LINE
8
layer1
10
-3.6800302
20
-16.5969007
11
-3.7506822
21
-16.3192875
0
LINE
8
layer1
10
-3.7506822
20
-16.3192875
11
-3.8121313
21
-16.0299615
0
LINE
8
layer1
10
-3.8121313
20
-16.0299615
11
-3.8570153
21
-15.7642614
0
LINE
8
layer1
10
-3.8570153
20
-15.7642614
11
-3.8872653
21
-15.5246946
0
LINE
8
layer1
10
-3.8872653
20
-15.5246946
11
-3.9053843
21
-15.3091434
0
LINE
8
layer1
10
-3.9053843
20
-15.3091434
11
-3.9133972
21
-15.1188744
0
LINE
8
layer1
10
-3.9133972
20
-15.1188744
11
-3.9134327
21
-14.9552902
0
LINE
8
layer1
10
-3.9134327
20
-14.9552902
11
-3.9076367
21
-14.8166112
0
LINE
8
layer1
10
-3.9076367
20
-14.8166112
11
-3.8985349
21
-14.7077874
0
LINE
8
layer1
10
-3.8985349
20
-14.7077874
11
-3.8861884
21
-14.598464
0
LINE
8
layer1
10
-3.8861884
20
-14.598464
11
-3.8826379
21
-14.5335704
0
LINE
8
layer1
10
-3.8826379
20
-14.5335704
11
-3.8833662
21
-14.4749968
0
LINE
8
layer1
10
-3.8833662
20
-14.4749968
11
-3.8881258
21
-14.4228915
0
LINE
8
layer1
10
-3.8881258
20
-14.4228915
11
-3.8966316
21
-14.3773828
0
LINE
8
layer1
10
-3.8966316
20
-14.3773828
11
-3.9086139
21
-14.3386152
0
LINE
8
layer1
10
-3.9086139
20
-14.3386152
11
-3.9237848
21
-14.3067074
0
LINE
8
layer1
10
-3.9237848
20
-14.3067074
11
-3.9418755
21
-14.2817723
0
LINE
8
layer1
10
-3.9418755
20
-14.2817723
11
-3.9625951
21
-14.2639189
0
LINE
8
layer1
10
-3.9625951
20
-14.2639189
11
-3.9856375
21
-14.2532403
0
LINE
8
layer1
10
-3.9856375
20
-14.2532403
11
-4.0368689
21
-14.2388593
0
LINE
8
layer1
10
-4.0368689
20
-14.2388593
11
-4.2962132
21
-14.162717
0
LINE
8
layer1
10
-4.2962132
20
-14.162717
11
-4.5541526
21
-14.081943
0
LINE
8
layer1
10
-4.5541526
20
-14.081943
11
-4.6047396
21
-14.0654377
0
LINE
8
layer1
10
-4.6047396
20
-14.0654377
11
-4.6298313
21
-14.061515
0
LINE
8
layer1
10
-4.6298313
20
-14.061515
11
-4.6569779
21
-14.0648483
0
LINE
8
layer1
10
-4.6569779
20
-14.0648483
11
-4.6858729
21
-14.0755305
0
LINE
8
layer1
10
-4.6858729
20
-14.0755305
11
-4.7162141
21
-14.0936324
0
LINE
8
layer1
10
-4.7162141
20
-14.0936324
11
-4.7477152
21
-14.1192094
0
LINE
8
layer1
10
-4.7477152
20
-14.1192094
11
-4.7800708
21
-14.152323
0
LINE
8
layer1
10
-4.7800708
20
-14.152323
11
-4.8129763
21
-14.1930026
0
LINE
8
layer1
10
-4.8129763
20
-14.1930026
11
-4.8461237
21
-14.2413002
0
LINE
8
layer1
10
-4.8461237
20
-14.2413002
11
-4.8792245
21
-14.2972298
0
LINE
8
layer1
10
-4.8792245
20
-14.2972298
11
-4.9296956
21
-14.3949883
0
LINE
8
layer1
10
-4.9296956
20
-14.3949883
11
-4.982587
21
-14.4905287
0
LINE
8
layer1
10
-4.982587
20
-14.4905287
11
-5.0548137
21
-14.6090561
0
LINE
8
layer1
10
-5.0548137
20
-14.6090561
11
-5.1457258
21
-14.7450516
0
LINE
8
layer1
10
-5.1457258
20
-14.7450516
11
-5.258096
21
-14.8988027
0
LINE
8
layer1
10
-5.258096
20
-14.8988027
11
-5.3929152
21
-15.0679607
0
LINE
8
layer1
10
-5.3929152
20
-15.0679607
11
-5.5511633
21
-15.2503472
0
LINE
8
layer1
10
-5.5511633
20
-15.2503472
11
-5.7360981
21
-15.4463325
0
LINE
8
layer1
10
-5.7360981
20
-15.4463325
11
-5.9479321
21
-15.652759
0
LINE
8
layer1
10
-5.9479321
20
-15.652759
11
-6.1609107
21
-15.8443338
0
ARC
8
layer1
10
0.0000026
20
0.0000074
40
17
50
246.248074
51
248.7519287
0
LINE
8
layer1
10
-6.8472141
20
-15.5600576
11
-6.862349
21
-15.2739951
0
LINE
8
layer1
10
-6.862349
20
-15.2739951
11
-6.8661726
21
-14.9782403
0
LINE
8
layer1
10
-6.8661726
20
-14.9782403
11
-6.8583587
21
-14.7088891
0
LINE
8
layer1
10
-6.8583587
20
-14.7088891
11
-6.8412902
21
-14.4680241
0
LINE
8
layer1
10
-6.8412902
20
-14.4680241
11
-6.8170091
21
-14.2530798
0
LINE
8
layer1
10
-6.8170091
20
-14.2530798
11
-6.7877484
21
-14.0649036
0
LINE
8
layer1
10
-6.7877484
20
-14.0649036
11
-6.7558696
21
-13.9044557
0
LINE
8
layer1
10
-6.7558696
20
-13.9044557
11
-6.72313
21
-13.7695721
0
LINE
8
layer1
10
-6.72313
20
-13.7695721
11
-6.6929727
21
-13.664615
0
LINE
8
layer1
10
-6.6929727
20
-13.664615
11
-6.6595354
21
-13.5598009
0
LINE
8
layer1
10
-6.6595354
20
-13.5598009
11
-6.643393
21
-13.4968468
0
LINE
8
layer1
10
-6.643393
20
-13.4968468
11
-6.6326802
21
-13.4392566
0
LINE
8
layer1
10
-6.6326802
20
-13.4392566
11
-6.6271831
21
-13.387224
0
LINE
8
layer1
10
-6.6271831
20
-13.387224
11
-6.6266471
21
-13.3409303
0
LINE
8
layer1
10
-6.6266471
20
-13.3409303
11
-6.630836
21
-13.30057
0
LINE
8
layer1
10
-6.630836
20
-13.30057
11
-6.6394905
21
-13.2663156
0
LINE
8
layer1
10
-6.6394905
20
-13.2663156
11
-6.652369
21
-13.2383303
0
LINE
8
layer1
10
-6.652369
20
-13.2383303
11
-6.6692075
21
-13.2167778
0
LINE
8
layer1
10
-6.6692075
20
-13.2167778
11
-6.6897238
21
-13.2018089
0
LINE
8
layer1
10
-6.6897238
20
-13.2018089
11
-6.7371652
21
-13.1777096
0
LINE
8
layer1
10
-6.7371652
20
-13.1777096
11
-6.9766717
21
-13.0524347
0
LINE
8
layer1
10
-6.9766717
20
-13.0524347
11
-7.2138966
21
-12.9228914
0
LINE
8
layer1
10
-7.2138966
20
-12.9228914
11
-7.2602916
21
-12.8968341
0
LINE
8
layer1
10
-7.2602916
20
-12.8968341
11
-7.2841359
21
-12.8880917
0
LINE
8
layer1
10
-7.2841359
20
-12.8880917
11
-7.3114111
21
-12.8860649
0
LINE
8
layer1
10
-7.3114111
20
-12.8860649
11
-7.341835
21
-12.8909047
0
LINE
8
layer1
10
-7.341835
20
-12.8909047
11
-7.3751247
21
-12.9027395
0
LINE
8
layer1
10
-7.3751247
20
-12.9027395
11
-7.4110103
21
-12.9216795
0
LINE
8
layer1
10
-7.4110103
20
-12.9216795
11
-7.4492043
21
-12.9478445
0
LINE
8
layer1
10
-7.4492043
20
-12.9478445
11
-7.4894138
21
-12.981323
0
LINE
8
layer1
10
-7.4894138
20
-12.981323
11
-7.5313466
21
-13.0222257
0
LINE
8
layer1
10
-7.5313466
20
-13.0222257
11
-7.5747227
21
-13.0706231
0
LINE
8
layer1
10
-7.5747227
20
-13.0706231
11
-7.6432957
21
-13.1566567
0
LINE
8
layer1
10
-7.6432957
20
-13.1566567
11
-7.7138098
21
-13.2400427
0
LINE
8
layer1
10
-7.7138098
20
-13.2400427
11
-7.8077723
21
-13.3422019
0
LINE
8
layer1
10
-7.8077723
20
-13.3422019
11
-7.923469
21
-13.4578483
0
LINE
8
layer1
10
-7.923469
20
-13.4578483
11
-8.0636754
21
-13.5867228
0
LINE
8
layer1
10
-8.0636754
20
-13.5867228
11
-8.2289052
21
-13.7263285
0
LINE
8
layer1
10
-8.2289052
20
-13.7263285
11
-8.4196944
21
-13.8743378
0
LINE
8
layer1
10
-8.4196944
20
-13.8743378
11
-8.6393106
21
-14.0304783
0
LINE
8
layer1
10
-8.6393106
20
-14.0304783
11
-8.887346
21
-14.1916117
0
LINE
8
layer1
10
-8.887346
20
-14.1916117
11
-9.1336067
21
-14.3379553
0
ARC
8
layer1
10
0.0000047
20
0.0000063
40
17
50
234.9980712
51
237.5019259
0
LINE
8
layer1
10
-9.7512635
20
-13.9252502
11
-9.7102995
21
-13.6417317
0
LINE
8
layer1
10
-9.7102995
20
-13.6417317
11
-9.6563507
21
-13.3509138
0
LINE
8
layer1
10
-9.6563507
20
-13.3509138
11
-9.5961391
21
-13.0882626
0
LINE
8
layer1
10
-9.5961391
20
-13.0882626
11
-9.5324083
21
-12.8553555
0
LINE
8
layer1
10
-9.5324083
20
-12.8553555
11
-9.4666601
21
-12.6492784
0
LINE
8
layer1
10
-9.4666601
20
-12.6492784
11
-9.4012503
21
-12.4704264
0
LINE
8
layer1
10
-9.4012503
20
-12.4704264
11
-9.3386822
21
-12.3192807
0
LINE
8
layer1
10
-9.3386822
20
-12.3192807
11
-9.2802572
21
-12.193376
0
LINE
8
layer1
10
-9.2802572
20
-12.193376
11
-9.2302032
21
-12.096319
0
LINE
8
layer1
10
-9.2302032
20
-12.096319
11
-9.1769602
21
-12.0000422
0
LINE
8
layer1
10
-9.1769602
20
-12.0000422
11
-9.1488463
21
-11.941447
0
LINE
8
layer1
10
-9.1488463
20
-11.941447
11
-9.127104
21
-11.8870534
0
LINE
8
layer1
10
-9.127104
20
-11.8870534
11
-9.1115615
21
-11.837093
0
LINE
8
layer1
10
-9.1115615
20
-11.837093
11
-9.1020044
21
-11.7917934
0
LINE
8
layer1
10
-9.1020044
20
-11.7917934
11
-9.0982389
21
-11.7513914
0
LINE
8
layer1
10
-9.0982389
20
-11.7513914
11
-9.1000444
21
-11.7161067
0
LINE
8
layer1
10
-9.1000444
20
-11.7161067
11
-9.1072157
21
-11.6861466
0
LINE
8
layer1
10
-9.1072157
20
-11.6861466
11
-9.119526
21
-11.6617232
0
LINE
8
layer1
10
-9.119526
20
-11.6617232
11
-9.1367278
21
-11.6430395
0
LINE
8
layer1
10
-9.1367278
20
-11.6430395
11
-9.1785561
21
-11.6101478
0
LINE
8
layer1
10
-9.1785561
20
-11.6101478
11
-9.3890206
21
-11.4405547
0
LINE
8
layer1
10
-9.3890206
20
-11.4405547
11
-9.5964146
21
-11.2672202
0
LINE
8
layer1
10
-9.5964146
20
-11.2672202
11
-9.6368346
21
-11.2326124
0
LINE
8
layer1
10
-9.6368346
20
-11.2326124
11
-9.6585152
21
-11.2193862
0
LINE
8
layer1
10
-9.6585152
20
-11.2193862
11
-9.684871
21
-11.2120772
0
LINE
8
layer1
10
-9.684871
20
-11.2120772
11
-9.7156544
21
-11.2108886
0
LINE
8
layer1
10
-9.7156544
20
-11.2108886
11
-9.7506133
21
-11.2160015
0
LINE
8
layer1
10
-9.7506133
20
-11.2160015
11
-9.7895044
21
-11.2275767
0
LINE
8
layer1
10
-9.7895044
20
-11.2275767
11
-9.8320691
21
-11.2457877
0
LINE
8
layer1
10
-9.8320691
20
-11.2457877
11
-9.8780373
21
-11.2707783
0
LINE
8
layer1
10
-9.8780373
20
-11.2707783
11
-9.9271441
21
-11.3027145
0
LINE
8
layer1
10
-9.9271441
20
-11.3027145
11
-9.9791286
21
-11.3417196
0
LINE
8
layer1
10
-9.9791286
20
-11.3417196
11
-10.0631684
21
-11.4127222
0
LINE
8
layer1
10
-10.0631684
20
-11.4127222
11
-10.1485953
21
-11.4807494
0
LINE
8
layer1
10
-10.1485953
20
-11.4807494
11
-10.2606827
21
-11.5626144
0
LINE
8
layer1
10
-10.2606827
20
-11.5626144
11
-10.3967177
21
-11.6534674
0
LINE
8
layer1
10
-10.3967177
20
-11.6534674
11
-10.5593722
21
-11.7525127
0
LINE
8
layer1
10
-10.5593722
20
-11.7525127
11
-10.7486629
21
-11.8572012
0
LINE
8
layer1
10
-10.7486629
20
-11.8572012
11
-10.9646614
21
-11.9651454
0
LINE
8
layer1
10
-10.9646614
20
-11.9651454
11
-11.2105192
21
-12.0754407
0
LINE
8
layer1
10
-11.2105192
20
-12.0754407
11
-11.4852242
21
-12.1850886
0
LINE
8
layer1
10
-11.4852242
20
-12.1850886
11
-11.7553033
21
-12.2805772
0
ARC
8
layer1
10
0.0000056
20
0.0000056
40
17
50
223.7480728
51
226.2519272
0
LINE
8
layer1
10
-12.2805772
20
-11.7553033
11
-12.1850886
21
-11.4852242
0
LINE
8
layer1
10
-12.1850886
20
-11.4852242
11
-12.0754407
21
-11.2105192
0
LINE
8
layer1
10
-12.0754407
20
-11.2105192
11
-11.9651454
21
-10.9646614
0
LINE
8
layer1
10
-11.9651454
20
-10.9646614
11
-11.8572012
21
-10.7486629
0
LINE
8
layer1
10
-11.8572012
20
-10.7486629
11
-11.7525127
21
-10.5593722
0
LINE
8
layer1
10
-11.7525127
20
-10.5593722
11
-11.6534674
21
-10.3967177
0
LINE
8
layer1
10
-11.6534674
20
-10.3967177
11
-11.5626144
21
-10.2606827
0
LINE
8
layer1
10
-11.5626144
20
-10.2606827
11
-11.4807494
21
-10.1485953
0
LINE
8
layer1
10
-11.4807494
20
-10.1485953
11
-11.4127222
21
-10.0631684
0
LINE
8
layer1
10
-11.4127222
20
-10.0631684
11
-11.3417196
21
-9.9791286
0
LINE
8
layer1
10
-11.3417196
20
-9.9791286
11
-11.3027145
21
-9.9271441
0
LINE
8
layer1
10
-11.3027145
20
-9.9271441
11
-11.2707783
21
-9.8780373
0
LINE
8
layer1
10
-11.2707783
20
-9.8780373
11
-11.2457877
21
-9.8320691
0
LINE
8
layer1
10
-11.2457877
20
-9.8320691
11
-11.2275767
21
-9.7895044
0
LINE
8
layer1
10
-11.2275767
20
-9.7895044
11
-11.2160015
21
-9.7506133
0
LINE
8
layer1
10
-11.2160015
20
-9.7506133
11
-11.2108886
21
-9.7156544
0
LINE
8
layer1
10
-11.2108886
20
-9.7156544
11
-11.2120772
21
-9.684871
0
LINE
8
layer1
10
-11.2120772
20
-9.684871
11
-11.2193862
21
-9.6585152
0
LINE
8
layer1
10
-11.2193862
20
-9.6585152
11
-11.2326124
21
-9.6368346
0
LINE
8
layer1
10
-11.2326124
20
-9.6368346
11
-11.2672202
21
-9.5964146
0
LINE
8
layer1
10
-11.2672202
20
-9.5964146
11
-11.4405547
21
-9.3890206
0
LINE
8
layer1
10
-11.4405547
20
-9.3890206
11
-11.6101478
21
-9.1785561
0
LINE
8
layer1
10
-11.6101478
20
-9.1785561
11
-11.6430395
21
-9.1367278
0
LINE
8
layer1
10
-11.6430395
20
-9.1367278
11
-11.6617232
21
-9.119526
0
LINE
8
layer1
10
-11.6617232
20
-9.119526
11
-11.6861466
21
-9.1072157
0
LINE
8
layer1
10
-11.6861466
20
-9.1072157
11
-11.7161067
21
-9.1000444
0
LINE
8
layer1
10
-11.7161067
20
-9.1000444
11
-11.7513914
21
-9.0982389
0
LINE
8
layer1
10
-11.7513914
20
-9.0982389
11
-11.7917934
21
-9.1020044
0
LINE
8
layer1
10
-11.7917934
20
-9.1020044
11
-11.837093
21
-9.1115615
0
LINE
8
layer1
10
-11.837093
20
-9.1115615
11
-11.8870534
21
-9.127104
0
LINE
8
layer1
10
-11.8870534
20
-9.127104
11
-11.941447
21
-9.1488463
0
LINE
8
layer1
10
-11.941447
20
-9.1488463
11
-12.0000422
21
-9.1769602
0
LINE
8
layer1
10
-12.0000422
20
-9.1769602
11
-12.096319
21
-9.2302032
0
LINE
8
layer1
10
-12.096319
20
-9.2302032
11
-12.193376
21
-9.2802572
0
LINE
8
layer1
10
-12.193376
20
-9.2802572
11
-12.3192807
21
-9.3386822
0
LINE
8
layer1
10
-12.3192807
20
-9.3386822
11
-12.4704264
21
-9.4012503
0
LINE
8
layer1
10
-12.4704264
20
-9.4012503
11
-12.6492784
21
-9.4666601
0
LINE
8
layer1
10
-12.6492784
20
-9.4666601
11
-12.8553555
21
-9.5324083
0
LINE
8
layer1
10
-12.8553555
20
-9.5324083
11
-13.0882626
21
-9.5961391
0
LINE
8
layer1
10
-13.0882626
20
-9.5961391
11
-13.3509138
21
-9.6563507
0
LINE
8
layer1
10
-13.3509138
20
-9.6563507
11
-13.6417317
21
-9.7102995
0
LINE
8
layer1
10
-13.6417317
20
-9.7102995
11
-13.9252502
21
-9.7512635
0
ARC
8
layer1
10
0.0000063
20
0.0000047
40
17
50
212.4980741
51
215.0019288
0
LINE
8
layer1
10
-14.3379553
20
-9.1336067
11
-14.1916117
21
-8.887346
0
LINE
8
layer1
10
-14.1916117
20
-8.887346
11
-14.0304783
21
-8.6393106
0
LINE
8
layer1
10
-14.0304783
20
-8.6393106
11
-13.8743378
21
-8.4196944
0
LINE
8
layer1
10
-13.8743378
20
-8.4196944
11
-13.7263285
21
-8.2289052
0
LINE
8
layer1
10
-13.7263285
20
-8.2289052
11
-13.5867228
21
-8.0636754
0
LINE
8
layer1
10
-13.5867228
20
-8.0636754
11
-13.4578483
21
-7.923469
0
LINE
8
layer1
10
-13.4578483
20
-7.923469
11
-13.3422019
21
-7.8077723
0
LINE
8
layer1
10
-13.3422019
20
-7.8077723
11
-13.2400427
21
-7.7138098
0
LINE
8
layer1
10
-13.2400427
20
-7.7138098
11
-13.1566567
21
-7.6432957
0
LINE
8
layer1
10
-13.1566567
20
-7.6432957
11
-13.0706231
21
-7.5747227
0
LINE
8
layer1
10
-13.0706231
20
-7.5747227
11
-13.0222257
21
-7.5313466
0
LINE
8
layer1
10
-13.0222257
20
-7.5313466
11
-12.981323
21
-7.4894138
0
LINE
8
layer1
10
-12.981323
20
-7.4894138
11
-12.9478445
21
-7.4492043
0
LINE
8
layer1
10
-12.9478445
20
-7.4492043
11
-12.9216795
21
-7.4110103
0
LINE
8
layer1
10
-12.9216795
20
-7.4110103
11
-12.9027395
21
-7.3751247
0
LINE
8
layer1
10
-12.9027395
20
-7.3751247
11
-12.8909047
21
-7.341835
0
LINE
8
layer1
10
-12.8909047
20
-7.341835
11
-12.8860649
21
-7.3114111
0
LINE
8
layer1
10
-12.8860649
20
-7.3114111
11
-12.8880917
21
-7.2841359
0
LINE
8
layer1
10
-12.8880917
20
-7.2841359
11
-12.8968341
21
-7.2602916
0
LINE
8
layer1
10
-12.8968341
20
-7.2602916
11
-12.9228914
21
-7.2138966
0
LINE
8
layer1
10
-12.9228914
20
-7.2138966
11
-13.0524347
21
-6.9766717
0
LINE
8
layer1
10
-13.0524347
20
-6.9766717
11
-13.1777096
21
-6.7371652
0
LINE
8
layer1
10
-13.1777096
20
-6.7371652
11
-13.2018089
21
-6.6897238
0
LINE
8
layer1
10
-13.2018089
20
-6.6897238
11
-13.2167778
21
-6.6692075
0
LINE
8
layer1
10
-13.2167778
20
-6.6692075
11
-13.2383303
21
-6.652369
0
LINE
8
layer1
10
-13.2383303
20
-6.652369
11
-13.2663156
21
-6.6394905
0
LINE
8
layer1
10
-13.2663156
20
-6.6394905
11
-13.30057
21
-6.630836
0
LINE
8
layer1
10
-13.30057
20
-6.630836
11
-13.3409303
21
-6.6266471
0
LINE
8
layer1
10
-13.3409303
20
-6.6266471
11
-13.387224
21
-6.6271831
0
LINE
8
layer1
10
-13.387224
20
-6.6271831
11
-13.4392566
21
-6.6326802
0
LINE
8
layer1
10
-13.4392566
20
-6.6326802
11
-13.4968468
21
-6.643393
0
LINE
8
layer1
10
-13.4968468
20
-6.643393
11
-13.5598009
21
-6.6595354
0
LINE
8
layer1
10
-13.5598009
20
-6.6595354
11
-13.664615
21
-6.6929727
0
LINE
8
layer1
10
-13.664615
20
-6.6929727
11
-13.7695721
21
-6.72313
0
LINE
8
layer1
10
-13.7695721
20
-6.72313
11
-13.9044557
21
-6.7558696
0
LINE
8
layer1
10
-13.9044557
20
-6.7558696
11
-14.0649036
21
-6.7877484
0
LINE
8
layer1
10
-14.0649036
20
-6.7877484
11
-14.2530798
21
-6.8170091
0
LINE
8
layer1
10
-14.2530798
20
-6.8170091
11
-14.4680241
21
-6.8412902
0
LINE
8
layer1
10
-14.4680241
20
-6.8412902
11
-14.7088891
21
-6.8583587
0
LINE
8
layer1
10
-14.7088891
20
-6.8583587
11
-14.9782403
21
-6.8661726
0
LINE
8
layer1
10
-14.9782403
20
-6.8661726
11
-15.2739951
21
-6.862349
0
LINE
8
layer1
10
-15.2739951
20
-6.862349
11
-15.5600576
21
-6.8472141
0
ARC
8
layer1
10
0.0000074
20
0.0000027
40
17
50
201.2480713
51
203.751926
0
LINE
8
layer1
10
-15.8443338
20
-6.1609107
11
-15.652759
21
-5.9479321
0
LINE
8
layer1
10
-15.652759
20
-5.9479321
11
-15.4463325
21
-5.7360981
0
LINE
8
layer1
10
-15.4463325
20
-5.7360981
11
-15.2503472
21
-5.5511633
0
LINE
8
layer1
10
-15.2503472
20
-5.5511633
11
-15.0679607
21
-5.3929152
0
LINE
8
layer1
10
-15.0679607
20
-5.3929152
11
-14.8988027
21
-5.258096
0
LINE
8
layer1
10
-14.8988027
20
-5.258096
11
-14.7450516
21
-5.1457258
0
LINE
8
layer1
10
-14.7450516
20
-5.1457258
11
-14.6090561
21
-5.0548137
0
LINE
8
layer1
10
-14.6090561
20
-5.0548137
11
-14.4905287
21
-4.982587
0
LINE
8
layer1
10
-14.4905287
20
-4.982587
11
-14.3949883
21
-4.9296956
0
LINE
8
layer1
10
-14.3949883
20
-4.9296956
11
-14.2972298
21
-4.8792245
0
LINE
8
layer1
10
-14.2972298
20
-4.8792245
11
-14.2413002
21
-4.8461237
0
LINE
8
layer1
10
-14.2413002
20
-4.8461237
11
-14.1930026
21
-4.8129763
0
LINE
8
layer1
10
-14.1930026
20
-4.8129763
11
-14.152323
21
-4.7800708
0
LINE
8
layer1
10
-14.152323
20
-4.7800708
11
-14.1192094
21
-4.7477152
0
LINE
8
layer1
10
-14.1192094
20
-4.7477152
11
-14.0936324
21
-4.7162141
0
LINE
8
layer1
10
-14.0936324
20
-4.7162141
11
-14.0755305
21
-4.6858729
0
LINE
8
layer1
10
-14.0755305
20
-4.6858729
11
-14.0648483
21
-4.6569779
0
LINE
8
layer1
10
-14.0648483
20
-4.6569779
11
-14.061515
21
-4.6298313
0
LINE
8
layer1
10
-14.061515
20
-4.6298313
11
-14.0654377
21
-4.6047396
0
LINE
8
layer1
10
-14.0654377
20
-4.6047396
11
-14.081943
21
-4.5541526
0
LINE
8
layer1
10
-14.081943
20
-4.5541526
11
-14.162717
21
-4.2962132
0
LINE
8
layer1
10
-14.162717
20
-4.2962132
11
-14.2388593
21
-4.0368689
0
LINE
8
layer1
10
-14.2388593
20
-4.0368689
11
-14.2532403
21
-3.9856375
0
LINE
8
layer1
10
-14.2532403
20
-3.9856375
11
-14.2639189
21
-3.9625951
0
LINE
8
layer1
10
-14.2639189
20
-3.9625951
11
-14.2817723
21
-3.9418755
0
LINE
8
layer1
10
-14.2817723
20
-3.9418755
11
-14.3067074
21
-3.9237848
0
LINE
8
layer1
10
-14.3067074
20
-3.9237848
11
-14.3386152
21
-3.9086139
0
LINE
8
layer1
10
-14.3386152
20
-3.9086139
11
-14.3773828
21
-3.8966316
0
LINE
8
layer1
10
-14.3773828
20
-3.8966316
11
-14.4228915
21
-3.8881258
0
LINE
8
layer1
10
-14.4228915
20
-3.8881258
11
-14.4749968
21
-3.8833662
0
LINE
8
layer1
10
-14.4749968
20
-3.8833662
11
-14.5335704
21
-3.8826379
0
LINE
8
layer1
10
-14.5335704
20
-3.8826379
11
-14.598464
21
-3.8861884
0
LINE
8
layer1
10
-14.598464
20
-3.8861884
11
-14.7077874
21
-3.8985349
0
LINE
8
layer1
10
-14.7077874
20
-3.8985349
11
-14.8166112
21
-3.9076367
0
LINE
8
layer1
10
-14.8166112
20
-3.9076367
11
-14.9552902
21
-3.9134327
0
LINE
8
layer1
10
-14.9552902
20
-3.9134327
11
-15.1188744
21
-3.9133972
0
LINE
8
layer1
10
-15.1188744
20
-3.9133972
11
-15.3091434
21
-3.9053843
0
LINE
8
layer1
10
-15.3091434
20
-3.9053843
11
-15.5246946
21
-3.8872653
0
LINE
8
layer1
10
-15.5246946
20
-3.8872653
11
-15.7642614
21
-3.8570153
0
LINE
8
layer1
10
-15.7642614
20
-3.8570153
11
-16.0299615
21
-3.8121313
0
LINE
8
layer1
10
-16.0299615
20
-3.8121313
11
-16.3192875
21
-3.7506822
0
LINE
8
layer1
10
-16.3192875
20
-3.7506822
11
-16.5969007
21
-3.6800302
0
ARC
8
layer1
10
0.0000074
20
0.0000025
40
17
50
189.9980759
51
192.5019307
0
LINE
8
layer1
10
-16.7418234
20
-2.9514543
11
-16.5123796
21
-2.7799424
0
LINE
8
layer1
10
-16.5123796
20
-2.7799424
11
-16.2685928
21
-2.6124506
0
LINE
8
layer1
10
-16.2685928
20
-2.6124506
11
-16.0402943
21
-2.4693041
0
LINE
8
layer1
10
-16.0402943
20
-2.4693041
11
-15.8305396
21
-2.3496786
0
LINE
8
layer1
10
-15.8305396
20
-2.3496786
11
-15.6383301
21
-2.2504509
0
LINE
8
layer1
10
-15.6383301
20
-2.2504509
11
-15.4656109
21
-2.1702352
0
LINE
8
layer1
10
-15.4656109
20
-2.1702352
11
-15.3144924
21
-2.1076014
0
LINE
8
layer1
10
-15.3144924
20
-2.1076014
11
-15.1841517
21
-2.059886
0
LINE
8
layer1
10
-15.1841517
20
-2.059886
11
-15.0801285
21
-2.0266499
0
LINE
8
layer1
10
-15.0801285
20
-2.0266499
11
-14.974402
21
-1.9962204
0
LINE
8
layer1
10
-14.974402
20
-1.9962204
11
-14.9130894
21
-1.9746669
0
LINE
8
layer1
10
-14.9130894
20
-1.9746669
11
-14.8592532
21
-1.9515789
0
LINE
8
layer1
10
-14.8592532
20
-1.9515789
11
-14.8129356
21
-1.9272418
0
LINE
8
layer1
10
-14.8129356
20
-1.9272418
11
-14.7741461
21
-1.901968
0
LINE
8
layer1
10
-14.7741461
20
-1.901968
11
-14.7429149
21
-1.8760621
0
LINE
8
layer1
10
-14.7429149
20
-1.8760621
11
-14.7192416
21
-1.8498354
0
LINE
8
layer1
10
-14.7192416
20
-1.8498354
11
-14.7031275
21
-1.8235795
0
LINE
8
layer1
10
-14.7031275
20
-1.8235795
11
-14.6945622
21
-1.7976049
0
LINE
8
layer1
10
-14.6945622
20
-1.7976049
11
-14.6935144
21
-1.77223
0
LINE
8
layer1
10
-14.6935144
20
-1.77223
11
-14.6998335
21
-1.719395
0
LINE
8
layer1
10
-14.6998335
20
-1.719395
11
-14.728734
21
-1.4506537
0
LINE
8
layer1
10
-14.728734
20
-1.4506537
11
-14.7528177
21
-1.1814379
0
LINE
8
layer1
10
-14.7528177
20
-1.1814379
11
-14.7569275
21
-1.1283853
0
LINE
8
layer1
10
-14.7569275
20
-1.1283853
11
-14.7629057
21
-1.1037024
0
LINE
8
layer1
10
-14.7629057
20
-1.1037024
11
-14.7763738
21
-1.0798979
0
LINE
8
layer1
10
-14.7763738
20
-1.0798979
11
-14.7973005
21
-1.0572902
0
LINE
8
layer1
10
-14.7973005
20
-1.0572902
11
-14.8256355
21
-1.0361859
0
LINE
8
layer1
10
-14.8256355
20
-1.0361859
11
-14.8613206
21
-1.0168707
0
LINE
8
layer1
10
-14.8613206
20
-1.0168707
11
-14.9042954
21
-0.99965
0
LINE
8
layer1
10
-14.9042954
20
-0.99965
11
-14.954471
21
-0.9848166
0
LINE
8
layer1
10
-14.954471
20
-0.9848166
11
-15.011777
21
-0.9726751
0
LINE
8
layer1
10
-15.011777
20
-0.9726751
11
-15.0761164
21
-0.9634973
0
LINE
8
layer1
10
-15.0761164
20
-0.9634973
11
-15.1857479
21
-0.9542787
0
LINE
8
layer1
10
-15.1857479
20
-0.9542787
11
-15.2942563
21
-0.9419751
0
LINE
8
layer1
10
-15.2942563
20
-0.9419751
11
-15.4314014
21
-0.9206048
0
LINE
8
layer1
10
-15.4314014
20
-0.9206048
11
-15.5918354
21
-0.8886562
0
LINE
8
layer1
10
-15.5918354
20
-0.8886562
11
-15.7768851
21
-0.8436777
0
LINE
8
layer1
10
-15.7768851
20
-0.8436777
11
-15.9847598
21
-0.7838549
0
LINE
8
layer1
10
-15.9847598
20
-0.7838549
11
-16.2138219
21
-0.707449
0
LINE
8
layer1
10
-16.2138219
20
-0.707449
11
-16.4656602
21
-0.6115919
0
LINE
8
layer1
10
-16.4656602
20
-0.6115919
11
-16.7374387
21
-0.4948789
0
LINE
8
layer1
10
-16.7374387
20
-0.4948789
11
-16.9959341
21
-0.3714248
0
ARC
8
layer1
10
0.0000079
20
0
40
17
50
178.7480729
51
181.2519275
0
LINE
8
layer1
10
-16.9959341
20
0.3714248
11
-16.7374387
21
0.4948789
0
LINE
8
layer1
10
-16.7374387
20
0.4948789
11
-16.4656602
21
0.6115919
0
LINE
8
layer1
10
-16.4656602
20
0.6115919
11
-16.2138219
21
0.707449
0
LINE
8
layer1
10
-16.2138219
20
0.707449
11
-15.9847598
21
0.7838549
0
LINE
8
layer1
10
-15.9847598
20
0.7838549
11
-15.7768851
21
0.8436777
0
LINE
8
layer1
10
-15.7768851
20
0.8436777
11
-15.5918354
21
0.8886562
0
LINE
8
layer1
10
-15.5918354
20
0.8886562
11
-15.4314014
21
0.9206048
0
LINE
8
layer1
10
-15.4314014
20
0.9206048
11
-15.2942563
21
0.9419751
0
LINE
8
layer1
10
-15.2942563
20
0.9419751
11
-15.1857479
21
0.9542787
0
LINE
8
layer1
10
-15.1857479
20
0.9542787
11
-15.0761164
21
0.9634973
0
LINE
8
layer1
10
-15.0761164
20
0.9634973
11
-15.011777
21
0.9726751
0
LINE
8
layer1
10
-15.011777
20
0.9726751
11
-14.954471
21
0.9848166
0
LINE
8
layer1
10
-14.954471
20
0.9848166
11
-14.9042954
21
0.99965
0
LINE
8
layer1
10
-14.9042954
20
0.99965
11
-14.8613206
21
1.0168707
0
LINE
8
layer1
10
-14.8613206
20
1.0168707
11
-14.8256355
21
1.0361859
0
LINE
8
layer1
10
-14.8256355
20
1.0361859
11
-14.7973005
21
1.0572902
0
LINE
8
layer1
10
-14.7973005
20
1.0572902
11
-14.7763738
21
1.0798979
0
LINE
8
layer1
10
-14.7763738
20
1.0798979
11
-14.7629057
21
1.1037024
0
LINE
8
layer1
10
-14.7629057
20
1.1037024
11
-14.7569275
21
1.1283853
0
LINE
8
layer1
10
-14.7569275
20
1.1283853
11
-14.7528177
21
1.1814379
0
LINE
8
layer1
10
-14.7528177
20
1.1814379
11
-14.728734
21
1.4506537
0
LINE
8
layer1
10
-14.728734
20
1.4506537
11
-14.6998335
21
1.719395
0
LINE
8
layer1
10
-14.6998335
20
1.719395
11
-14.6935144
21
1.77223
0
LINE
8
layer1
10
-14.6935144
20
1.77223
11
-14.6945622
21
1.7976049
0
LINE
8
layer1
10
-14.6945622
20
1.7976049
11
-14.7031275
21
1.8235795
0
LINE
8
layer1
10
-14.7031275
20
1.8235795
11
-14.7192416
21
1.8498354
0
LINE
8
layer1
10
-14.7192416
20
1.8498354
11
-14.7429149
21
1.8760621
0
LINE
8
layer1
10
-14.7429149
20
1.8760621
11
-14.7741461
21
1.901968
0
LINE
8
layer1
10
-14.7741461
20
1.901968
11
-14.8129356
21
1.9272418
0
LINE
8
layer1
10
-14.8129356
20
1.9272418
11
-14.8592532
21
1.9515789
0
LINE
8
layer1
10
-14.8592532
20
1.9515789
11
-14.9130894
21
1.9746669
0
LINE
8
layer1
10
-14.9130894
20
1.9746669
11
-14.974402
21
1.9962204
0
LINE
8
layer1
10
-14.974402
20
1.9962204
11
-15.0801285
21
2.0266499
0
LINE
8
layer1
10
-15.0801285
20
2.0266499
11
-15.1841517
21
2.059886
0
LINE
8
layer1
10
-15.1841517
20
2.059886
11
-15.3144924
21
2.1076014
0
LINE
8
layer1
10
-15.3144924
20
2.1076014
11
-15.4656109
21
2.1702352
0
LINE
8
layer1
10
-15.4656109
20
2.1702352
11
-15.6383301
21
2.2504509
0
LINE
8
layer1
10
-15.6383301
20
2.2504509
11
-15.8305396
21
2.3496786
0
LINE
8
layer1
10
-15.8305396
20
2.3496786
11
-16.0402943
21
2.4693041
0
LINE
8
layer1
10
-16.0402943
20
2.4693041
11
-16.2685928
21
2.6124506
0
LINE
8
layer1
10
-16.2685928
20
2.6124506
11
-16.5123796
21
2.7799424
0
LINE
8
layer1
10
-16.5123796
20
2.7799424
11
-16.7418234
21
2.9514543
0
ARC
8
layer1
10
0.0000075
20
-0.0000025
40
17
50
167.4980693
51
170.0019241
0
LINE
8
layer1
10
-16.5969007
20
3.6800302
11
-16.3192875
21
3.7506822
0
LINE
8
layer1
10
-16.3192875
20
3.7506822
11
-16.0299615
21
3.8121313
0
LINE
8
layer1
10
-16.0299615
20
3.8121313
11
-15.7642614
21
3.8570153
0
LINE
8
layer1
10
-15.7642614
20
3.8570153
11
-15.5246946
21
3.8872653
0
LINE
8
layer1
10
-15.5246946
20
3.8872653
11
-15.3091434
21
3.9053843
0
LINE
8
layer1
10
-15.3091434
20
3.9053843
11
-15.1188744
21
3.9133972
0
LINE
8
layer1
10
-15.1188744
20
3.9133972
11
-14.9552902
21
3.9134327
0
LINE
8
layer1
10
-14.9552902
20
3.9134327
11
-14.8166112
21
3.9076367
0
LINE
8
layer1
10
-14.8166112
20
3.9076367
11
-14.7077874
21
3.8985349
0
LINE
8
layer1
10
-14.7077874
20
3.8985349
11
-14.598464
21
3.8861884
0
LINE
8
layer1
10
-14.598464
20
3.8861884
11
-14.5335704
21
3.8826379
0
LINE
8
layer1
10
-14.5335704
20
3.8826379
11
-14.4749968
21
3.8833662
0
LINE
8
layer1
10
-14.4749968
20
3.8833662
11
-14.4228915
21
3.8881258
0
LINE
8
layer1
10
-14.4228915
20
3.8881258
11
-14.3773828
21
3.8966316
0
LINE
8
layer1
10
-14.3773828
20
3.8966316
11
-14.3386152
21
3.9086139
0
LINE
8
layer1
10
-14.3386152
20
3.9086139
11
-14.3067074
21
3.9237848
0
LINE
8
layer1
10
-14.3067074
20
3.9237848
11
-14.2817723
21
3.9418755
0
LINE
8
layer1
10
-14.2817723
20
3.9418755
11
-14.2639189
21
3.9625951
0
LINE
8
layer1
10
-14.2639189
20
3.9625951
11
-14.2532403
21
3.9856375
0
LINE
8
layer1
10
-14.2532403
20
3.9856375
11
-14.2388593
21
4.0368689
0
LINE
8
layer1
10
-14.2388593
20
4.0368689
11
-14.162717
21
4.2962132
0
LINE
8
layer1
10
-14.162717
20
4.2962132
11
-14.081943
21
4.5541526
0
LINE
8
layer1
10
-14.081943
20
4.5541526
11
-14.0654377
21
4.6047396
0
LINE
8
layer1
10
-14.0654377
20
4.6047396
11
-14.061515
21
4.6298313
0
LINE
8
layer1
10
-14.061515
20
4.6298313
11
-14.0648483
21
4.6569779
0
LINE
8
layer1
10
-14.0648483
20
4.6569779
11
-14.0755305
21
4.6858729
0
LINE
8
layer1
10
-14.0755305
20
4.6858729
11
-14.0936324
21
4.7162141
0
LINE
8
layer1
10
-14.0936324
20
4.7162141
11
-14.1192094
21
4.7477152
0
LINE
8
layer1
10
-14.1192094
20
4.7477152
11
-14.152323
21
4.7800708
0
LINE
8
layer1
10
-14.152323
20
4.7800708
11
-14.1930026
21
4.8129763
0
LINE
8
layer1
10
-14.1930026
20
4.8129763
11
-14.2413002
21
4.8461237
0
LINE
8
layer1
10
-14.2413002
20
4.8461237
11
-14.2972298
21
4.8792245
0
LINE
8
layer1
10
-14.2972298
20
4.8792245
11
-14.3949883
21
4.9296956
0
LINE
8
layer1
10
-14.3949883
20
4.9296956
11
-14.4905287
21
4.982587
0
LINE
8
layer1
10
-14.4905287
20
4.982587
11
-14.6090561
21
5.0548137
0
LINE
8
layer1
10
-14.6090561
20
5.0548137
11
-14.7450516
21
5.1457258
0
LINE
8
layer1
10
-14.7450516
20
5.1457258
11
-14.8988027
21
5.258096
0
LINE
8
layer1
10
-14.8988027
20
5.258096
11
-15.0679607
21
5.3929152
0
LINE
8
layer1
10
-15.0679607
20
5.3929152
11
-15.2503472
21
5.5511633
0
LINE
8
layer1
10
-15.2503472
20
5.5511633
11
-15.4463325
21
5.7360981
0
LINE
8
layer1
10
-15.4463325
20
5.7360981
11
-15.652759
21
5.9479321
0
LINE
8
layer1
10
-15.652759
20
5.9479321
11
-15.8443338
21
6.1609107
0
ARC
8
layer1
10
0.0000074
20
-0.0000026
40
17
50
156.248074
51
158.7519287
0
LINE
8
layer1
10
-15.5600576
20
6.8472141
11
-15.2739951
21
6.862349
0
LINE
8
layer1
10
-15.2739951
20
6.862349
11
-14.9782403
21
6.8661726
0
LINE
8
layer1
10
-14.9782403
20
6.8661726
11
-14.7088891
21
6.8583587
0
LINE
8
layer1
10
-14.7088891
20
6.8583587
11
-14.4680241
21
6.8412902
0
LINE
8
layer1
10
-14.4680241
20
6.8412902
11
-14.2530798
21
6.8170091
0
LINE
8
layer1
10
-14.2530798
20
6.8170091
11
-14.0649036
21
6.7877484
0
LINE
8
layer1
10
-14.0649036
20
6.7877484
11
-13.9044557
21
6.7558696
0
LINE
8
layer1
10
-13.9044557
20
6.7558696
11
-13.7695721
21
6.72313
0
LINE
8
layer1
10
-13.7695721
20
6.72313
11
-13.664615
21
6.6929727
0
LINE
8
layer1
10
-13.664615
20
6.6929727
11
-13.5598009
21
6.6595354
0
LINE
8
layer1
10
-13.5598009
20
6.6595354
11
-13.4968468
21
6.643393
0
LINE
8
layer1
10
-13.4968468
20
6.643393
11
-13.4392566
21
6.6326802
0
LINE
8
layer1
10
-13.4392566
20
6.6326802
11
-13.387224
21
6.6271831
0
LINE
8
layer1
10
-13.387224
20
6.6271831
11
-13.3409303
21
6.6266471
0
LINE
8
layer1
10
-13.3409303
20
6.6266471
11
-13.30057
21
6.630836
0
LINE
8
layer1
10
-13.30057
20
6.630836
11
-13.2663156
21
6.6394905
0
LINE
8
layer1
10
-13.2663156
20
6.6394905
11
-13.2383303
21
6.652369
0
LINE
8
layer1
10
-13.2383303
20
6.652369
11
-13.2167778
21
6.6692075
0
LINE
8
layer1
10
-13.2167778
20
6.6692075
11
-13.2018089
21
6.6897238
0
LINE
8
layer1
10
-13.2018089
20
6.6897238
11
-13.1777096
21
6.7371652
0
LINE
8
layer1
10
-13.1777096
20
6.7371652
11
-13.0524347
21
6.9766717
0
LINE
8
layer1
10
-13.0524347
20
6.9766717
11
-12.9228914
21
7.2138966
0
LINE
8
layer1
10
-12.9228914
20
7.2138966
11
-12.8968341
21
7.2602916
0
LINE
8
layer1
10
-12.8968341
20
7.2602916
11
-12.8880917
21
7.2841359
0
LINE
8
layer1
10
-12.8880917
20
7.2841359
11
-12.8860649
21
7.3114111
0
LINE
8
layer1
10
-12.8860649
20
7.3114111
11
-12.8909047
21
7.341835
0
LINE
8
layer1
10
-12.8909047
20
7.341835
11
-12.9027395
21
7.3751247
0
LINE
8
layer1
10
-12.9027395
20
7.3751247
11
-12.9216795
21
7.4110103
0
LINE
8
layer1
10
-12.9216795
20
7.4110103
11
-12.9478445
21
7.4492043
0
LINE
8
layer1
10
-12.9478445
20
7.4492043
11
-12.981323
21
7.4894138
0
LINE
8
layer1
10
-12.981323
20
7.4894138
11
-13.0222257
21
7.5313466
0
LINE
8
layer1
10
-13.0222257
20
7.5313466
11
-13.0706231
21
7.5747227
0
LINE
8
layer1
10
-13.0706231
20
7.5747227
11
-13.1566567
21
7.6432957
0
LINE
8
layer1
10
-13.1566567
20
7.6432957
11
-13.2400427
21
7.7138098
0
LINE
8
layer1
10
-13.2400427
20
7.7138098
11
-13.3422019
21
7.8077723
0
LINE
8
layer1
10
-13.3422019
20
7.8077723
11
-13.4578483
21
7.923469
0
LINE
8
layer1
10
-13.4578483
20
7.923469
11
-13.5867228
21
8.0636754
0
LINE
8
layer1
10
-13.5867228
20
8.0636754
11
-13.7263285
21
8.2289052
0
LINE
8
layer1
10
-13.7263285
20
8.2289052
11
-13.8743378
21
8.4196944
0
LINE
8
layer1
10
-13.8743378
20
8.4196944
11
-14.0304783
21
8.6393106
0
LINE
8
layer1
10
-14.0304783
20
8.6393106
11
-14.1916117
21
8.887346
0
LINE
8
layer1
10
-14.1916117
20
8.887346
11
-14.3379553
21
9.1336067
0
ARC
8
layer1
10
0.0000063
20
-0.0000047
40
17
50
144.9980712
51
147.5019259
0
LINE
8
layer1
10
-13.9252502
20
9.7512635
11
-13.6417317
21
9.7102995
0
LINE
8
layer1
10
-13.6417317
20
9.7102995
11
-13.3509138
21
9.6563507
0
LINE
8
layer1
10
-13.3509138
20
9.6563507
11
-13.0882626
21
9.5961391
0
LINE
8
layer1
10
-13.0882626
20
9.5961391
11
-12.8553555
21
9.5324083
0
LINE
8
layer1
10
-12.8553555
20
9.5324083
11
-12.6492784
21
9.4666601
0
LINE
8
layer1
10
-12.6492784
20
9.4666601
11
-12.4704264
21
9.4012503
0
LINE
8
layer1
10
-12.4704264
20
9.4012503
11
-12.3192807
21
9.3386822
0
LINE
8
layer1
10
-12.3192807
20
9.3386822
11
-12.193376
21
9.2802572
0
LINE
8
layer1
10
-12.193376
20
9.2802572
11
-12.096319
21
9.2302032
0
LINE
8
layer1
10
-12.096319
20
9.2302032
11
-12.0000422
21
9.1769602
0
LINE
8
layer1
10
-12.0000422
20
9.1769602
11
-11.941447
21
9.1488463
0
LINE
8
layer1
10
-11.941447
20
9.1488463
11
-11.8870534
21
9.127104
0
LINE
8
layer1
10
-11.8870534
20
9.127104
11
-11.837093
21
9.1115615
0
LINE
8
layer1
10
-11.837093
20
9.1115615
11
-11.7917934
21
9.1020044
0
LINE
8
layer1
10
-11.7917934
20
9.1020044
11
-11.7513914
21
9.0982389
0
LINE
8
layer1
10
-11.7513914
20
9.0982389
11
-11.7161067
21
9.1000444
0
LINE
8
layer1
10
-11.7161067
20
9.1000444
11
-11.6861466
21
9.1072157
0
LINE
8
layer1
10
-11.6861466
20
9.1072157
11
-11.6617232
21
9.119526
0
LINE
8
layer1
10
-11.6617232
20
9.119526
11
-11.6430395
21
9.1367278
0
LINE
8
layer1
10
-11.6430395
20
9.1367278
11
-11.6101478
21
9.1785561
0
LINE
8
layer1
10
-11.6101478
20
9.1785561
11
-11.4405547
21
9.3890206
0
LINE
8
layer1
10
-11.4405547
20
9.3890206
11
-11.2672202
21
9.5964146
0
LINE
8
layer1
10
-11.2672202
20
9.5964146
11
-11.2326124
21
9.6368346
0
LINE
8
layer1
10
-11.2326124
20
9.6368346
11
-11.2193862
21
9.6585152
0
LINE
8
layer1
10
-11.2193862
20
9.6585152
11
-11.2120772
21
9.684871
0
LINE
8
layer1
10
-11.2120772
20
9.684871
11
-11.2108886
21
9.7156544
0
LINE
8
layer1
10
-11.2108886
20
9.7156544
11
-11.2160015
21
9.7506133
0
LINE
8
layer1
10
-11.2160015
20
9.7506133
11
-11.2275767
21
9.7895044
0
LINE
8
layer1
10
-11.2275767
20
9.7895044
11
-11.2457877
21
9.8320691
0
LINE
8
layer1
10
-11.2457877
20
9.8320691
11
-11.2707783
21
9.8780373
0
LINE
8
layer1
10
-11.2707783
20
9.8780373
11
-11.3027145
21
9.9271441
0
LINE
8
layer1
10
-11.3027145
20
9.9271441
11
-11.3417196
21
9.9791286
0
LINE
8
layer1
10
-11.3417196
20
9.9791286
11
-11.4127222
21
10.0631684
0
LINE
8
layer1
10
-11.4127222
20
10.0631684
11
-11.4807494
21
10.1485953
0
LINE
8
layer1
10
-11.4807494
20
10.1485953
11
-11.5626144
21
10.2606827
0
LINE
8
layer1
10
-11.5626144
20
10.2606827
11
-11.6534674
21
10.3967177
0
LINE
8
layer1
10
-11.6534674
20
10.3967177
11
-11.7525127
21
10.5593722
0
LINE
8
layer1
10
-11.7525127
20
10.5593722
11
-11.8572012
21
10.7486629
0
LINE
8
layer1
10
-11.8572012
20
10.7486629
11
-11.9651454
21
10.9646614
0
LINE
8
layer1
10
-11.9651454
20
10.9646614
11
-12.0754407
21
11.2105192
0
LINE
8
layer1
10
-12.0754407
20
11.2105192
11
-12.1850886
21
11.4852242
0
LINE
8
layer1
10
-12.1850886
20
11.4852242
11
-12.2805772
21
11.7553033
0
ARC
8
layer1
10
0.0000056
20
-0.0000056
40
17
50
133.7480728
51
136.2519272
0
LINE
8
layer1
10
-11.7553033
20
12.2805772
11
-11.4852242
21
12.1850886
0
LINE
8
layer1
10
-11.4852242
20
12.1850886
11
-11.2105192
21
12.0754407
0
LINE
8
layer1
10
-11.2105192
20
12.0754407
11
-10.9646614
21
11.9651454
0
LINE
8
layer1
10
-10.9646614
20
11.9651454
11
-10.7486629
21
11.8572012
0
LINE
8
layer1
10
-10.7486629
20
11.8572012
11
-10.5593722
21
11.7525127
0
LINE
8
layer1
10
-10.5593722
20
11.7525127
11
-10.3967177
21
11.6534674
0
LINE
8
layer1
10
-10.3967177
20
11.6534674
11
-10.2606827
21
11.5626144
0
LINE
8
layer1
10
-10.2606827
20
11.5626144
11
-10.1485953
21
11.4807494
0
LINE
8
layer1
10
-10.1485953
20
11.4807494
11
-10.0631684
21
11.4127222
0
LINE
8
layer1
10
-10.0631684
20
11.4127222
11
-9.9791286
21
11.3417196
0
LINE
8
layer1
10
-9.9791286
20
11.3417196
11
-9.9271441
21
11.3027145
0
LINE
8
layer1
10
-9.9271441
20
11.3027145
11
-9.8780373
21
11.2707783
0
LINE
8
layer1
10
-9.8780373
20
11.2707783
11
-9.8320691
21
11.2457877
0
LINE
8
layer1
10
-9.8320691
20
11.2457877
11
-9.7895044
21
11.2275767
0
LINE
8
layer1
10
-9.7895044
20
11.2275767
11
-9.7506133
21
11.2160015
0
LINE
8
layer1
10
-9.7506133
20
11.2160015
11
-9.7156544
21
11.2108886
0
LINE
8
layer1
10
-9.7156544
20
11.2108886
11
-9.684871
21
11.2120772
0
LINE
8
layer1
10
-9.684871
20
11.2120772
11
-9.6585152
21
11.2193862
0
LINE
8
layer1
10
-9.6585152
20
11.2193862
11
-9.6368346
21
11.2326124
0
LINE
8
layer1
10
-9.6368346
20
11.2326124
11
-9.5964146
21
11.2672202
0
LINE
8
layer1
10
-9.5964146
20
11.2672202
11
-9.3890206
21
11.4405547
0
LINE
8
layer1
10
-9.3890206
20
11.4405547
11
-9.1785561
21
11.6101478
0
LINE
8
layer1
10
-9.1785561
20
11.6101478
11
-9.1367278
21
11.6430395
0
LINE
8
layer1
10
-9.1367278
20
11.6430395
11
-9.119526
21
11.6617232
0
LINE
8
layer1
10
-9.119526
20
11.6617232
11
-9.1072157
21
11.6861466
0
LINE
8
layer1
10
-9.1072157
20
11.6861466
11
-9.1000444
21
11.7161067
0
LINE
8
layer1
10
-9.1000444
20
11.7161067
11
-9.0982389
21
11.7513914
0
LINE
8
layer1
10
-9.0982389
20
11.7513914
11
-9.1020044
21
11.7917934
0
LINE
8
layer1
10
-9.1020044
20
11.7917934
11
-9.1115615
21
11.837093
0
LINE
8
layer1
10
-9.1115615
20
11.837093
11
-9.127104
21
11.8870534
0
LINE
8
layer1
10
-9.127104
20
11.8870534
11
-9.1488463
21
11.941447
0
LINE
8
layer1
10
-9.1488463
20
11.941447
11
-9.1769602
21
12.0000422
0
LINE
8
layer1
10
-9.1769602
20
12.0000422
11
-9.2302032
21
12.096319
0
LINE
8
layer1
10
-9.2302032
20
12.096319
11
-9.2802572
21
12.193376
0
LINE
8
layer1
10
-9.2802572
20
12.193376
11
-9.3386822
21
12.3192807
0
LINE
8
layer1
10
-9.3386822
20
12.3192807
11
-9.4012503
21
12.4704264
0
LINE
8
layer1
10
-9.4012503
20
12.4704264
11
-9.4666601
21
12.6492784
0
LINE
8
layer1
10
-9.4666601
20
12.6492784
11
-9.5324083
21
12.8553555
0
LINE
8
layer1
10
-9.5324083
20
12.8553555
11
-9.5961391
21
13.0882626
0
LINE
8
layer1
10
-9.5961391
20
13.0882626
11
-9.6563507
21
13.3509138
0
LINE
8
layer1
10
-9.6563507
20
13.3509138
11
-9.7102995
21
13.6417317
0
LINE
8
layer1
10
-9.7102995
20
13.6417317
11
-9.7512635
21
13.9252502
0
ARC
8
layer1
10
0.0000047
20
-0.0000063
40
17
50
122.4980741
51
125.0019288
0
LINE
8
layer1
10
-9.1336067
20
14.3379553
11
-8.887346
21
14.1916117
0
LINE
8
layer1
10
-8.887346
20
14.1916117
11
-8.6393106
21
14.0304783
0
LINE
8
layer1
10
-8.6393106
20
14.0304783
11
-8.4196944
21
13.8743378
0
LINE
8
layer1
10
-8.4196944
20
13.8743378
11
-8.2289052
21
13.7263285
0
LINE
8
layer1
10
-8.2289052
20
13.7263285
11
-8.0636754
21
13.5867228
0
LINE
8
layer1
10
-8.0636754
20
13.5867228
11
-7.923469
21
13.4578483
0
LINE
8
layer1
10
-7.923469
20
13.4578483
11
-7.8077723
21
13.3422019
0
LINE
8
layer1
10
-7.8077723
20
13.3422019
11
-7.7138098
21
13.2400427
0
LINE
8
layer1
10
-7.7138098
20
13.2400427
11
-7.6432957
21
13.1566567
0
LINE
8
layer1
10
-7.6432957
20
13.1566567
11
-7.5747227
21
13.0706231
0
LINE
8
layer1
10
-7.5747227
20
13.0706231
11
-7.5313466
21
13.0222257
0
LINE
8
layer1
10
-7.5313466
20
13.0222257
11
-7.4894138
21
12.981323
0
LINE
8
layer1
10
-7.4894138
20
12.981323
11
-7.4492043
21
12.9478445
0
LINE
8
layer1
10
-7.4492043
20
12.9478445
11
-7.4110103
21
12.9216795
0
LINE
8
layer1
10
-7.4110103
20
12.9216795
11
-7.3751247
21
12.9027395
0
LINE
8
layer1
10
-7.3751247
20
12.9027395
11
-7.341835
21
12.8909047
0
LINE
8
layer1
10
-7.341835
20
12.8909047
11
-7.3114111
21
12.8860649
0
LINE
8
layer1
10
-7.3114111
20
12.8860649
11
-7.2841359
21
12.8880917
0
LINE
8
layer1
10
-7.2841359
20
12.8880917
11
-7.2602916
21
12.8968341
0
LINE
8
layer1
10
-7.2602916
20
12.8968341
11
-7.2138966
21
12.9228914
0
LINE
8
layer1
10
-7.2138966
20
12.9228914
11
-6.9766717
21
13.0524347
0
LINE
8
layer1
10
-6.9766717
20
13.0524347
11
-6.7371652
21
13.1777096
0
LINE
8
layer1
10
-6.7371652
20
13.1777096
11
-6.6897238
21
13.2018089
0
LINE
8
layer1
10
-6.6897238
20
13.2018089
11
-6.6692075
21
13.2167778
0
LINE
8
layer1
10
-6.6692075
20
13.2167778
11
-6.652369
21
13.2383303
0
LINE
8
layer1
10
-6.652369
20
13.2383303
11
-6.6394905
21
13.2663156
0
LINE
8
layer1
10
-6.6394905
20
13.2663156
11
-6.630836
21
13.30057
0
LINE
8
layer1
10
-6.630836
20
13.30057
11
-6.6266471
21
13.3409303
0
LINE
8
layer1
10
-6.6266471
20
13.3409303
11
-6.6271831
21
13.387224
0
LINE
8
layer1
10
-6.6271831
20
13.387224
11
-6.6326802
21
13.4392566
0
LINE
8
layer1
10
-6.6326802
20
13.4392566
11
-6.643393
21
13.4968468
0
LINE
8
layer1
10
-6.643393
20
13.4968468
11
-6.6595354
21
13.5598009
0
LINE
8
layer1
10
-6.6595354
20
13.5598009
11
-6.6929727
21
13.664615
0
LINE
8
layer1
10
-6.6929727
20
13.664615
11
-6.72313
21
13.7695721
0
LINE
8
layer1
10
-6.72313
20
13.7695721
11
-6.7558696
21
13.9044557
0
LINE
8
layer1
10
-6.7558696
20
13.9044557
11
-6.7877484
21
14.0649036
0
LINE
8
layer1
10
-6.7877484
20
14.0649036
11
-6.8170091
21
14.2530798
0
LINE
8
layer1
10
-6.8170091
20
14.2530798
11
-6.8412902
21
14.4680241
0
LINE
8
layer1
10
-6.8412902
20
14.4680241
11
-6.8583587
21
14.7088891
0
LINE
8
layer1
10
-6.8583587
20
14.7088891
11
-6.8661726
21
14.9782403
0
LINE
8
layer1
10
-6.8661726
20
14.9782403
11
-6.862349
21
15.2739951
0
LINE
8
layer1
10
-6.862349
20
15.2739951
11
-6.8472141
21
15.5600576
0
ARC
8
layer1
10
0.0000027
20
-0.0000074
40
17
50
111.2480713
51
113.751926
0
LINE
8
layer1
10
-6.1609107
20
15.8443338
11
-5.9479321
21
15.652759
0
LINE
8
layer1
10
-5.9479321
20
15.652759
11
-5.7360981
21
15.4463325
0
LINE
8
layer1
10
-5.7360981
20
15.4463325
11
-5.5511633
21
15.2503472
0
LINE
8
layer1
10
-5.5511633
20
15.2503472
11
-5.3929152
21
15.0679607
0
LINE
8
layer1
10
-5.3929152
20
15.0679607
11
-5.258096
21
14.8988027
0
LINE
8
layer1
10
-5.258096
20
14.8988027
11
-5.1457258
21
14.7450516
0
LINE
8
layer1
10
-5.1457258
20
14.7450516
11
-5.0548137
21
14.6090561
0
LINE
8
layer1
10
-5.0548137
20
14.6090561
11
-4.982587
21
14.4905287
0
LINE
8
layer1
10
-4.982587
20
14.4905287
11
-4.9296956
21
14.3949883
0
LINE
8
layer1
10
-4.9296956
20
14.3949883
11
-4.8792245
21
14.2972298
0
LINE
8
layer1
10
-4.8792245
20
14.2972298
11
-4.8461237
21
14.2413002
0
LINE
8
layer1
10
-4.8461237
20
14.2413002
11
-4.8129763
21
14.1930026
0
LINE
8
layer1
10
-4.8129763
20
14.1930026
11
-4.7800708
21
14.152323
0
LINE
8
layer1
10
-4.7800708
20
14.152323
11
-4.7477152
21
14.1192094
0
LINE
8
layer1
10
-4.7477152
20
14.1192094
11
-4.7162141
21
14.0936324
0
LINE
8
layer1
10
-4.7162141
20
14.0936324
11
-4.6858729
21
14.0755305
0
LINE
8
layer1
10
-4.6858729
20
14.0755305
11
-4.6569779
21
14.0648483
0
LINE
8
layer1
10
-4.6569779
20
14.0648483
11
-4.6298313
21
14.061515
0
LINE
8
layer1
10
-4.6298313
20
14.061515
11
-4.6047396
21
14.0654377
0
LINE
8
layer1
10
-4.6047396
20
14.0654377
11
-4.5541526
21
14.081943
0
LINE
8
layer1
10
-4.5541526
20
14.081943
11
-4.2962132
21
14.162717
0
LINE
8
layer1
10
-4.2962132
20
14.162717
11
-4.0368689
21
14.2388593
0
LINE
8
layer1
10
-4.0368689
20
14.2388593
11
-3.9856375
21
14.2532403
0
LINE
8
layer1
10
-3.9856375
20
14.2532403
11
-3.9625951
21
14.2639189
0
LINE
8
layer1
10
-3.9625951
20
14.2639189
11
-3.9418755
21
14.2817723
0
LINE
8
layer1
10
-3.9418755
20
14.2817723
11
-3.9237848
21
14.3067074
0
LINE
8
layer1
10
-3.9237848
20
14.3067074
11
-3.9086139
21
14.3386152
0
LINE
8
layer1
10
-3.9086139
20
14.3386152
11
-3.8966316
21
14.3773828
0
LINE
8
layer1
10
-3.8966316
20
14.3773828
11
-3.8881258
21
14.4228915
0
LINE
8
layer1
10
-3.8881258
20
14.4228915
11
-3.8833662
21
14.4749968
0
LINE
8
layer1
10
-3.8833662
20
14.4749968
11
-3.8826379
21
14.5335704
0
LINE
8
layer1
10
-3.8826379
20
14.5335704
11
-3.8861884
21
14.598464
0
LINE
8
layer1
10
-3.8861884
20
14.598464
11
-3.8985349
21
14.7077874
0
LINE
8
layer1
10
-3.8985349
20
14.7077874
11
-3.9076367
21
14.8166112
0
LINE
8
layer1
10
-3.9076367
20
14.8166112
11
-3.9134327
21
14.9552902
0
LINE
8
layer1
10
-3.9134327
20
14.9552902
11
-3.9133972
21
15.1188744
0
LINE
8
layer1
10
-3.9133972
20
15.1188744
11
-3.9053843
21
15.3091434
0
LINE
8
layer1
10
-3.9053843
20
15.3091434
11
-3.8872653
21
15.5246946
0
LINE
8
layer1
10
-3.8872653
20
15.5246946
11
-3.8570153
21
15.7642614
0
LINE
8
layer1
10
-3.8570153
20
15.7642614
11
-3.8121313
21
16.0299615
0
LINE
8
layer1
10
-3.8121313
20
16.0299615
11
-3.7506822
21
16.3192875
0
LINE
8
layer1
10
-3.7506822
20
16.3192875
11
-3.6800302
21
16.5969007
0
ARC
8
layer1
10
0.0000025
20
-0.0000074
40
17
50
99.9980759
51
102.5019307
0
LINE
8
layer1
10
-2.9514543
20
16.7418234
11
-2.7799424
21
16.5123796
0
LINE
8
layer1
10
-2.7799424
20
16.5123796
11
-2.6124506
21
16.2685928
0
LINE
8
layer1
10
-2.6124506
20
16.2685928
11
-2.4693041
21
16.0402943
0
LINE
8
layer1
10
-2.4693041
20
16.0402943
11
-2.3496786
21
15.8305396
0
LINE
8
layer1
10
-2.3496786
20
15.8305396
11
-2.2504509
21
15.6383301
0
LINE
8
layer1
10
-2.2504509
20
15.6383301
11
-2.1702352
21
15.4656109
0
LINE
8
layer1
10
-2.1702352
20
15.4656109
11
-2.1076014
21
15.3144924
0
LINE
8
layer1
10
-2.1076014
20
15.3144924
11
-2.059886
21
15.1841517
0
LINE
8
layer1
10
-2.059886
20
15.1841517
11
-2.0266499
21
15.0801285
0
LINE
8
layer1
10
-2.0266499
20
15.0801285
11
-1.9962204
21
14.974402
0
LINE
8
layer1
10
-1.9962204
20
14.974402
11
-1.9746669
21
14.9130894
0
LINE
8
layer1
10
-1.9746669
20
14.9130894
11
-1.9515789
21
14.8592532
0
LINE
8
layer1
10
-1.9515789
20
14.8592532
11
-1.9272418
21
14.8129356
0
LINE
8
layer1
10
-1.9272418
20
14.8129356
11
-1.901968
21
14.7741461
0
LINE
8
layer1
10
-1.901968
20
14.7741461
11
-1.8760621
21
14.7429149
0
LINE
8
layer1
10
-1.8760621
20
14.7429149
11
-1.8498354
21
14.7192416
0
LINE
8
layer1
10
-1.8498354
20
14.7192416
11
-1.8235795
21
14.7031275
0
LINE
8
layer1
10
-1.8235795
20
14.7031275
11
-1.7976049
21
14.6945622
0
LINE
8
layer1
10
-1.7976049
20
14.6945622
11
-1.77223
21
14.6935144
0
LINE
8
layer1
10
-1.77223
20
14.6935144
11
-1.719395
21
14.6998335
0
LINE
8
layer1
10
-1.719395
20
14.6998335
11
-1.4506537
21
14.728734
0
LINE
8
layer1
10
-1.4506537
20
14.728734
11
-1.1814379
21
14.7528177
0
LINE
8
layer1
10
-1.1814379
20
14.7528177
11
-1.1283853
21
14.7569275
0
LINE
8
layer1
10
-1.1283853
20
14.7569275
11
-1.1037024
21
14.7629057
0
LINE
8
layer1
10
-1.1037024
20
14.7629057
11
-1.0798979
21
14.7763738
0
LINE
8
layer1
10
-1.0798979
20
14.7763738
11
-1.0572902
21
14.7973005
0
LINE
8
layer1
10
-1.0572902
20
14.7973005
11
-1.0361859
21
14.8256355
0
LINE
8
layer1
10
-1.0361859
20
14.8256355
11
-1.0168707
21
14.8613206
0
LINE
8
layer1
10
-1.0168707
20
14.8613206
11
-0.99965
21
14.9042954
0
LINE
8
layer1
10
-0.99965
20
14.9042954
11
-0.9848166
21
14.954471
0
LINE
8
layer1
10
-0.9848166
20
14.954471
11
-0.9726751
21
15.011777
0
LINE
8
layer1
10
-0.9726751
20
15.011777
11
-0.9634973
21
15.0761164
0
LINE
8
layer1
10
-0.9634973
20
15.0761164
11
-0.9542787
21
15.1857479
0
LINE
8
layer1
10
-0.9542787
20
15.1857479
11
-0.9419751
21
15.2942563
0
LINE
8
layer1
10
-0.9419751
20
15.2942563
11
-0.9206048
21
15.4314014
0
LINE
8
layer1
10
-0.9206048
20
15.4314014
11
-0.8886562
21
15.5918354
0
LINE
8
layer1
10
-0.8886562
20
15.5918354
11
-0.8436777
21
15.7768851
0
LINE
8
layer1
10
-0.8436777
20
15.7768851
11
-0.7838549
21
15.9847598
0
LINE
8
layer1
10
-0.7838549
20
15.9847598
11
-0.707449
21
16.2138219
0
LINE
8
layer1
10
-0.707449
20
16.2138219
11
-0.6115919
21
16.4656602
0
LINE
8
layer1
10
-0.6115919
20
16.4656602
11
-0.4948789
21
16.7374387
0
LINE
8
layer1
10
-0.4948789
20
16.7374387
11
-0.3714248
21
16.9959341
0
ARC
8
layer1
10
0
20
-0.0000079
40
17
50
88.7480729
51
91.2519275
0
LINE
8
layer1
10
0.3714248
20
16.9959341
11
0.4948789
21
16.7374387
0
LINE
8
layer1
10
0.4948789
20
16.7374387
11
0.6115919
21
16.4656602
0
LINE
8
layer1
10
0.6115919
20
16.4656602
11
0.707449
21
16.2138219
0
LINE
8
layer1
10
0.707449
20
16.2138219
11
0.7838549
21
15.9847598
0
LINE
8
layer1
10
0.7838549
20
15.9847598
11
0.8436777
21
15.7768851
0
LINE
8
layer1
10
0.8436777
20
15.7768851
11
0.8886562
21
15.5918354
0
LINE
8
layer1
10
0.8886562
20
15.5918354
11
0.9206048
21
15.4314014
0
LINE
8
layer1
10
0.9206048
20
15.4314014
11
0.9419751
21
15.2942563
0
LINE
8
layer1
10
0.9419751
20
15.2942563
11
0.9542787
21
15.1857479
0
LINE
8
layer1
10
0.9542787
20
15.1857479
11
0.9634973
21
15.0761164
0
LINE
8
layer1
10
0.9634973
20
15.0761164
11
0.9726751
21
15.011777
0
LINE
8
layer1
10
0.9726751
20
15.011777
11
0.9848166
21
14.954471
0
LINE
8
layer1
10
0.9848166
20
14.954471
11
0.99965
21
14.9042954
0
LINE
8
layer1
10
0.99965
20
14.9042954
11
1.0168707
21
14.8613206
0
LINE
8
layer1
10
1.0168707
20
14.8613206
11
1.0361859
21
14.8256355
0
LINE
8
layer1
10
1.0361859
20
14.8256355
11
1.0572902
21
14.7973005
0
LINE
8
layer1
10
1.0572902
20
14.7973005
11
1.0798979
21
14.7763738
0
LINE
8
layer1
10
1.0798979
20
14.7763738
11
1.1037024
21
14.7629057
0
LINE
8
layer1
10
1.1037024
20
14.7629057
11
1.1283853
21
14.7569275
0
LINE
8
layer1
10
1.1283853
20
14.7569275
11
1.1814379
21
14.7528177
0
LINE
8
layer1
10
1.1814379
20
14.7528177
11
1.4506537
21
14.728734
0
LINE
8
layer1
10
1.4506537
20
14.728734
11
1.719395
21
14.6998335
0
LINE
8
layer1
10
1.719395
20
14.6998335
11
1.77223
21
14.6935144
0
LINE
8
layer1
10
1.77223
20
14.6935144
11
1.7976049
21
14.6945622
0
LINE
8
layer1
10
1.7976049
20
14.6945622
11
1.8235795
21
14.7031275
0
LINE
8
layer1
10
1.8235795
20
14.7031275
11
1.8498354
21
14.7192416
0
LINE
8
layer1
10
1.8498354
20
14.7192416
11
1.8760621
21
14.7429149
0
LINE
8
layer1
10
1.8760621
20
14.7429149
11
1.901968
21
14.7741461
0
LINE
8
layer1
10
1.901968
20
14.7741461
11
1.9272418
21
14.8129356
0
LINE
8
layer1
10
1.9272418
20
14.8129356
11
1.9515789
21
14.8592532
0
LINE
8
layer1
10
1.9515789
20
14.8592532
11
1.9746669
21
14.9130894
0
LINE
8
layer1
10
1.9746669
20
14.9130894
11
1.9962204
21
14.974402
0
LINE
8
layer1
10
1.9962204
20
14.974402
11
2.0266499
21
15.0801285
0
LINE
8
layer1
10
2.0266499
20
15.0801285
11
2.059886
21
15.1841517
0
LINE
8
layer1
10
2.059886
20
15.1841517
11
2.1076014
21
15.3144924
0
LINE
8
layer1
10
2.1076014
20
15.3144924
11
2.1702352
21
15.4656109
0
LINE
8
layer1
10
2.1702352
20
15.4656109
11
2.2504509
21
15.6383301
0
LINE
8
layer1
10
2.2504509
20
15.6383301
11
2.3496786
21
15.8305396
0
LINE
8
layer1
10
2.3496786
20
15.8305396
11
2.4693041
21
16.0402943
0
LINE
8
layer1
10
2.4693041
20
16.0402943
11
2.6124506
21
16.2685928
0
LINE
8
layer1
10
2.6124506
20
16.2685928
11
2.7799424
21
16.5123796
0
LINE
8
layer1
10
2.7799424
20
16.5123796
11
2.9514543
21
16.7418234
0
ARC
8
layer1
10
-0.0000025
20
-0.0000075
40
17
50
77.4980693
51
80.0019241
0
LINE
8
layer1
10
3.6800302
20
16.5969007
11
3.7506822
21
16.3192875
0
LINE
8
layer1
10
3.7506822
20
16.3192875
11
3.8121313
21
16.0299615
0
LINE
8
layer1
10
3.8121313
20
16.0299615
11
3.8570153
21
15.7642614
0
LINE
8
layer1
10
3.8570153
20
15.7642614
11
3.8872653
21
15.5246946
0
LINE
8
layer1
10
3.8872653
20
15.5246946
11
3.9053843
21
15.3091434
0
LINE
8
layer1
10
3.9053843
20
15.3091434
11
3.9133972
21
15.1188744
0
LINE
8
layer1
10
3.9133972
20
15.1188744
11
3.9134327
21
14.9552902
0
LINE
8
layer1
10
3.9134327
20
14.9552902
11
3.9076367
21
14.8166112
0
LINE
8
layer1
10
3.9076367
20
14.8166112
11
3.8985349
21
14.7077874
0
LINE
8
layer1
10
3.8985349
20
14.7077874
11
3.8861884
21
14.598464
0
LINE
8
layer1
10
3.8861884
20
14.598464
11
3.8826379
21
14.5335704
0
LINE
8
layer1
10
3.8826379
20
14.5335704
11
3.8833662
21
14.4749968
0
LINE
8
layer1
10
3.8833662
20
14.4749968
11
3.8881258
21
14.4228915
0
LINE
8
layer1
10
3.8881258
20
14.4228915
11
3.8966316
21
14.3773828
0
LINE
8
layer1
10
3.8966316
20
14.3773828
11
3.9086139
21
14.3386152
0
LINE
8
layer1
10
3.9086139
20
14.3386152
11
3.9237848
21
14.3067074
0
LINE
8
layer1
10
3.9237848
20
14.3067074
11
3.9418755
21
14.2817723
0
LINE
8
layer1
10
3.9418755
20
14.2817723
11
3.9625951
21
14.2639189
0
LINE
8
layer1
10
3.9625951
20
14.2639189
11
3.9856375
21
14.2532403
0
LINE
8
layer1
10
3.9856375
20
14.2532403
11
4.0368689
21
14.2388593
0
LINE
8
layer1
10
4.0368689
20
14.2388593
11
4.2962132
21
14.162717
0
LINE
8
layer1
10
4.2962132
20
14.162717
11
4.5541526
21
14.081943
0
LINE
8
layer1
10
4.5541526
20
14.081943
11
4.6047396
21
14.0654377
0
LINE
8
layer1
10
4.6047396
20
14.0654377
11
4.6298313
21
14.061515
0
LINE
8
layer1
10
4.6298313
20
14.061515
11
4.6569779
21
14.0648483
0
LINE
8
layer1
10
4.6569779
20
14.0648483
11
4.6858729
21
14.0755305
0
LINE
8
layer1
10
4.6858729
20
14.0755305
11
4.7162141
21
14.0936324
0
LINE
8
layer1
10
4.7162141
20
14.0936324
11
4.7477152
21
14.1192094
0
LINE
8
layer1
10
4.7477152
20
14.1192094
11
4.7800708
21
14.152323
0
LINE
8
layer1
10
4.7800708
20
14.152323
11
4.8129763
21
14.1930026
0
LINE
8
layer1
10
4.8129763
20
14.1930026
11
4.8461237
21
14.2413002
0
LINE
8
layer1
10
4.8461237
20
14.2413002
11
4.8792245
21
14.2972298
0
LINE
8
layer1
10
4.8792245
20
14.2972298
11
4.9296956
21
14.3949883
0
LINE
8
layer1
10
4.9296956
20
14.3949883
11
4.982587
21
14.4905287
0
LINE
8
layer1
10
4.982587
20
14.4905287
11
5.0548137
21
14.6090561
0
LINE
8
layer1
10
5.0548137
20
14.6090561
11
5.1457258
21
14.7450516
0
LINE
8
layer1
10
5.1457258
20
14.7450516
11
5.258096
21
14.8988027
0
LINE
8
layer1
10
5.258096
20
14.8988027
11
5.3929152
21
15.0679607
0
LINE
8
layer1
10
5.3929152
20
15.0679607
11
5.5511633
21
15.2503472
0
LINE
8
layer1
10
5.5511633
20
15.2503472
11
5.7360981
21
15.4463325
0
LINE
8
layer1
10
5.7360981
20
15.4463325
11
5.9479321
21
15.652759
0
LINE
8
layer1
10
5.9479321
20
15.652759
11
6.1609107
21
15.8443338
0
ARC
8
layer1
10
-0.0000026
20
-0.0000074
40
17
50
66.248074
51
68.7519287
0
LINE
8
layer1
10
6.8472141
20
15.5600576
11
6.862349
21
15.2739951
0
LINE
8
layer1
10
6.862349
20
15.2739951
11
6.8661726
21
14.9782403
0
LINE
8
layer1
10
6.8661726
20
14.9782403
11
6.8583587
21
14.7088891
0
LINE
8
layer1
10
6.8583587
20
14.7088891
11
6.8412902
21
14.4680241
0
LINE
8
layer1
10
6.8412902
20
14.4680241
11
6.8170091
21
14.2530798
0
LINE
8
layer1
10
6.8170091
20
14.2530798
11
6.7877484
21
14.0649036
0
LINE
8
layer1
10
6.7877484
20
14.0649036
11
6.7558696
21
13.9044557
0
LINE
8
layer1
10
6.7558696
20
13.9044557
11
6.72313
21
13.7695721
0
LINE
8
layer1
10
6.72313
20
13.7695721
11
6.6929727
21
13.664615
0
LINE
8
layer1
10
6.6929727
20
13.664615
11
6.6595354
21
13.5598009
0
LINE
8
layer1
10
6.6595354
20
13.5598009
11
6.643393
21
13.4968468
0
LINE
8
layer1
10
6.643393
20
13.4968468
11
6.6326802
21
13.4392566
0
LINE
8
layer1
10
6.6326802
20
13.4392566
11
6.6271831
21
13.387224
0
LINE
8
layer1
10
6.6271831
20
13.387224
11
6.6266471
21
13.3409303
0
LINE
8
layer1
10
6.6266471
20
13.3409303
11
6.630836
21
13.30057
0
LINE
8
layer1
10
6.630836
20
13.30057
11
6.6394905
21
13.2663156
0
LINE
8
layer1
10
6.6394905
20
13.2663156
11
6.652369
21
13.2383303
0
LINE
8
layer1
10
6.652369
20
13.2383303
11
6.6692075
21
13.2167778
0
LINE
8
layer1
10
6.6692075
20
13.2167778
11
6.6897238
21
13.2018089
0
LINE
8
layer1
10
6.6897238
20
13.2018089
11
6.7371652
21
13.1777096
0
LINE
8
layer1
10
6.7371652
20
13.1777096
11
6.9766717
21
13.0524347
0
LINE
8
layer1
10
6.9766717
20
13.0524347
11
7.2138966
21
12.9228914
0
LINE
8
layer1
10
7.2138966
20
12.9228914
11
7.2602916
21
12.8968341
0
LINE
8
layer1
10
7.2602916
20
12.8968341
11
7.2841359
21
12.8880917
0
LINE
8
layer1
10
7.2841359
20
12.8880917
11
7.3114111
21
12.8860649
0
LINE
8
layer1
10
7.3114111
20
12.8860649
11
7.341835
21
12.8909047
0
LINE
8
layer1
10
7.341835
20
12.8909047
11
7.3751247
21
12.9027395
0
LINE
8
layer1
10
7.3751247
20
12.9027395
11
7.4110103
21
12.9216795
0
LINE
8
layer1
10
7.4110103
20
12.9216795
11
7.4492043
21
12.9478445
0
LINE
8
layer1
10
7.4492043
20
12.9478445
11
7.4894138
21
12.981323
0
LINE
8
layer1
10
7.4894138
20
12.981323
11
7.5313466
21
13.0222257
0
LINE
8
layer1
10
7.5313466
20
13.0222257
11
7.5747227
21
13.0706231
0
LINE
8
layer1
10
7.5747227
20
13.0706231
11
7.6432957
21
13.1566567
0
LINE
8
layer1
10
7.6432957
20
13.1566567
11
7.7138098
21
13.2400427
0
LINE
8
layer1
10
7.7138098
20
13.2400427
11
7.8077723
21
13.3422019
0
LINE
8
layer1
10
7.8077723
20
13.3422019
11
7.923469
21
13.4578483
0
LINE
8
layer1
10
7.923469
20
13.4578483
11
8.0636754
21
13.5867228
0
LINE
8
layer1
10
8.0636754
20
13.5867228
11
8.2289052
21
13.7263285
0
LINE
8
layer1
10
8.2289052
20
13.7263285
11
8.4196944
21
13.8743378
0
LINE
8
layer1
10
8.4196944
20
13.8743378
11
8.6393106
21
14.0304783
0
LINE
8
layer1
10
8.6393106
20
14.0304783
11
8.887346
21
14.1916117
0
LINE
8
layer1
10
8.887346
20
14.1916117
11
9.1336067
21
14.3379553
0
ARC
8
layer1
10
-0.0000047
20
-0.0000063
40
17
50
54.9980712
51
57.5019259
0
LINE
8
layer1
10
9.7512635
20
13.9252502
11
9.7102995
21
13.6417317
0
LINE
8
layer1
10
9.7102995
20
13.6417317
11
9.6563507
21
13.3509138
0
LINE
8
layer1
10
9.6563507
20
13.3509138
11
9.5961391
21
13.0882626
0
LINE
8
layer1
10
9.5961391
20
13.0882626
11
9.5324083
21
12.8553555
0
LINE
8
layer1
10
9.5324083
20
12.8553555
11
9.4666601
21
12.6492784
0
LINE
8
layer1
10
9.4666601
20
12.6492784
11
9.4012503
21
12.4704264
0
LINE
8
layer1
10
9.4012503
20
12.4704264
11
9.3386822
21
12.3192807
0
LINE
8
layer1
10
9.3386822
20
12.3192807
11
9.2802572
21
12.193376
0
LINE
8
layer1
10
9.2802572
20
12.193376
11
9.2302032
21
12.096319
0
LINE
8
layer1
10
9.2302032
20
12.096319
11
9.1769602
21
12.0000422
0
LINE
8
layer1
10
9.1769602
20
12.0000422
11
9.1488463
21
11.941447
0
LINE
8
layer1
10
9.1488463
20
11.941447
11
9.127104
21
11.8870534
0
LINE
8
layer1
10
9.127104
20
11.8870534
11
9.1115615
21
11.837093
0
LINE
8
layer1
10
9.1115615
20
11.837093
11
9.1020044
21
11.7917934
0
LINE
8
layer1
10
9.1020044
20
11.7917934
11
9.0982389
21
11.7513914
0
LINE
8
layer1
10
9.0982389
20
11.7513914
11
9.1000444
21
11.7161067
0
LINE
8
layer1
10
9.1000444
20
11.7161067
11
9.1072157
21
11.6861466
0
LINE
8
layer1
10
9.1072157
20
11.6861466
11
9.119526
21
11.6617232
0
LINE
8
layer1
10
9.119526
20
11.6617232
11
9.1367278
21
11.6430395
0
LINE
8
layer1
10
9.1367278
20
11.6430395
11
9.1785561
21
11.6101478
0
LINE
8
layer1
10
9.1785561
20
11.6101478
11
9.3890206
21
11.4405547
0
LINE
8
layer1
10
9.3890206
20
11.4405547
11
9.5964146
21
11.2672202
0
LINE
8
layer1
10
9.5964146
20
11.2672202
11
9.6368346
21
11.2326124
0
LINE
8
layer1
10
9.6368346
20
11.2326124
11
9.6585152
21
11.2193862
0
LINE
8
layer1
10
9.6585152
20
11.2193862
11
9.684871
21
11.2120772
0
LINE
8
layer1
10
9.684871
20
11.2120772
11
9.7156544
21
11.2108886
0
LINE
8
layer1
10
9.7156544
20
11.2108886
11
9.7506133
21
11.2160015
0
LINE
8
layer1
10
9.7506133
20
11.2160015
11
9.7895044
21
11.2275767
0
LINE
8
layer1
10
9.7895044
20
11.2275767
11
9.8320691
21
11.2457877
0
LINE
8
layer1
10
9.8320691
20
11.2457877
11
9.8780373
21
11.2707783
0
LINE
8
layer1
10
9.8780373
20
11.2707783
11
9.9271441
21
11.3027145
0
LINE
8
layer1
10
9.9271441
20
11.3027145
11
9.9791286
21
11.3417196
0
LINE
8
layer1
10
9.9791286
20
11.3417196
11
10.0631684
21
11.4127222
0
LINE
8
layer1
10
10.0631684
20
11.4127222
11
10.1485953
21
11.4807494
0
LINE
8
layer1
10
10.1485953
20
11.4807494
11
10.2606827
21
11.5626144
0
LINE
8
layer1
10
10.2606827
20
11.5626144
11
10.3967177
21
11.6534674
0
LINE
8
layer1
10
10.3967177
20
11.6534674
11
10.5593722
21
11.7525127
0
LINE
8
layer1
10
10.5593722
20
11.7525127
11
10.7486629
21
11.8572012
0
LINE
8
layer1
10
10.7486629
20
11.8572012
11
10.9646614
21
11.9651454
0
LINE
8
layer1
10
10.9646614
20
11.9651454
11
11.2105192
21
12.0754407
0
LINE
8
layer1
10
11.2105192
20
12.0754407
11
11.4852242
21
12.1850886
0
LINE
8
layer1
10
11.4852242
20
12.1850886
11
11.7553033
21
12.2805772
0
ARC
8
layer1
10
-0.0000056
20
-0.0000056
40
17
50
43.7480728
51
46.2519272
0
LINE
8
layer1
10
12.2805772
20
11.7553033
11
12.1850886
21
11.4852242
0
LINE
8
layer1
10
12.1850886
20
11.4852242
11
12.0754407
21
11.2105192
0
LINE
8
layer1
10
12.0754407
20
11.2105192
11
11.9651454
21
10.9646614
0
LINE
8
layer1
10
11.9651454
20
10.9646614
11
11.8572012
21
10.7486629
0
LINE
8
layer1
10
11.8572012
20
10.7486629
11
11.7525127
21
10.5593722
0
LINE
8
layer1
10
11.7525127
20
10.5593722
11
11.6534674
21
10.3967177
0
LINE
8
layer1
10
11.6534674
20
10.3967177
11
11.5626144
21
10.2606827
0
LINE
8
layer1
10
11.5626144
20
10.2606827
11
11.4807494
21
10.1485953
0
LINE
8
layer1
10
11.4807494
20
10.1485953
11
11.4127222
21
10.0631684
0
LINE
8
layer1
10
11.4127222
20
10.0631684
11
11.3417196
21
9.9791286
0
LINE
8
layer1
10
11.3417196
20
9.9791286
11
11.3027145
21
9.9271441
0
LINE
8
layer1
10
11.3027145
20
9.9271441
11
11.2707783
21
9.8780373
0
LINE
8
layer1
10
11.2707783
20
9.8780373
11
11.2457877
21
9.8320691
0
LINE
8
layer1
10
11.2457877
20
9.8320691
11
11.2275767
21
9.7895044
0
LINE
8
layer1
10
11.2275767
20
9.7895044
11
11.2160015
21
9.7506133
0
LINE
8
layer1
10
11.2160015
20
9.7506133
11
11.2108886
21
9.7156544
0
LINE
8
layer1
10
11.2108886
20
9.7156544
11
11.2120772
21
9.684871
0
LINE
8
layer1
10
11.2120772
20
9.684871
11
11.2193862
21
9.6585152
0
LINE
8
layer1
10
11.2193862
20
9.6585152
11
11.2326124
21
9.6368346
0
LINE
8
layer1
10
11.2326124
20
9.6368346
11
11.2672202
21
9.5964146
0
LINE
8
layer1
10
11.2672202
20
9.5964146
11
11.4405547
21
9.3890206
0
LINE
8
layer1
10
11.4405547
20
9.3890206
11
11.6101478
21
9.1785561
0
LINE
8
layer1
10
11.6101478
20
9.1785561
11
11.6430395
21
9.1367278
0
LINE
8
layer1
10
11.6430395
20
9.1367278
11
11.6617232
21
9.119526
0
LINE
8
layer1
10
11.6617232
20
9.119526
11
11.6861466
21
9.1072157
0
LINE
8
layer1
10
11.6861466
20
9.1072157
11
11.7161067
21
9.1000444
0
LINE
8
layer1
10
11.7161067
20
9.1000444
11
11.7513914
21
9.0982389
0
LINE
8
layer1
10
11.7513914
20
9.0982389
11
11.7917934
21
9.1020044
0
LINE
8
layer1
10
11.7917934
20
9.1020044
11
11.837093
21
9.1115615
0
LINE
8
layer1
10
11.837093
20
9.1115615
11
11.8870534
21
9.127104
0
LINE
8
layer1
10
11.8870534
20
9.127104
11
11.941447
21
9.1488463
0
LINE
8
layer1
10
11.941447
20
9.1488463
11
12.0000422
21
9.1769602
0
LINE
8
layer1
10
12.0000422
20
9.1769602
11
12.096319
21
9.2302032
0
LINE
8
layer1
10
12.096319
20
9.2302032
11
12.193376
21
9.2802572
0
LINE
8
layer1
10
12.193376
20
9.2802572
11
12.3192807
21
9.3386822
0
LINE
8
layer1
10
12.3192807
20
9.3386822
11
12.4704264
21
9.4012503
0
LINE
8
layer1
10
12.4704264
20
9.4012503
11
12.6492784
21
9.4666601
0
LINE
8
layer1
10
12.6492784
20
9.4666601
11
12.8553555
21
9.5324083
0
LINE
8
layer1
10
12.8553555
20
9.5324083
11
13.0882626
21
9.5961391
0
LINE
8
layer1
10
13.0882626
20
9.5961391
11
13.3509138
21
9.6563507
0
LINE
8
layer1
10
13.3509138
20
9.6563507
11
13.6417317
21
9.7102995
0
LINE
8
layer1
10
13.6417317
20
9.7102995
11
13.9252502
21
9.7512635
0
ARC
8
layer1
10
-0.0000063
20
-0.0000047
40
17
50
32.4980741
51
35.0019288
0
LINE
8
layer1
10
14.3379553
20
9.1336067
11
14.1916117
21
8.887346
0
LINE
8
layer1
10
14.1916117
20
8.887346
11
14.0304783
21
8.6393106
0
LINE
8
layer1
10
14.0304783
20
8.6393106
11
13.8743378
21
8.4196944
0
LINE
8
layer1
10
13.8743378
20
8.4196944
11
13.7263285
21
8.2289052
0
LINE
8
layer1
10
13.7263285
20
8.2289052
11
13.5867228
21
8.0636754
0
LINE
8
layer1
10
13.5867228
20
8.0636754
11
13.4578483
21
7.923469
0
LINE
8
layer1
10
13.4578483
20
7.923469
11
13.3422019
21
7.8077723
0
LINE
8
layer1
10
13.3422019
20
7.8077723
11
13.2400427
21
7.7138098
0
LINE
8
layer1
10
13.2400427
20
7.7138098
11
13.1566567
21
7.6432957
0
LINE
8
layer1
10
13.1566567
20
7.6432957
11
13.0706231
21
7.5747227
0
LINE
8
layer1
10
13.0706231
20
7.5747227
11
13.0222257
21
7.5313466
0
LINE
8
layer1
10
13.0222257
20
7.5313466
11
12.981323
21
7.4894138
0
LINE
8
layer1
10
12.981323
20
7.4894138
11
12.9478445
21
7.4492043
0
LINE
8
layer1
10
12.9478445
20
7.4492043
11
12.9216795
21
7.4110103
0
LINE
8
layer1
10
12.9216795
20
7.4110103
11
12.9027395
21
7.3751247
0
LINE
8
layer1
10
12.9027395
20
7.3751247
11
12.8909047
21
7.341835
0
LINE
8
layer1
10
12.8909047
20
7.341835
11
12.8860649
21
7.3114111
0
LINE
8
layer1
10
12.8860649
20
7.3114111
11
12.8880917
21
7.2841359
0
LINE
8
layer1
10
12.8880917
20
7.2841359
11
12.8968341
21
7.2602916
0
LINE
8
layer1
10
12.8968341
20
7.2602916
11
12.9228914
21
7.2138966
0
LINE
8
layer1
10
12.9228914
20
7.2138966
11
13.0524347
21
6.9766717
0
LINE
8
layer1
10
13.0524347
20
6.9766717
11
13.1777096
21
6.7371652
0
LINE
8
layer1
10
13.1777096
20
6.7371652
11
13.2018089
21
6.6897238
0
LINE
8
layer1
10
13.2018089
20
6.6897238
11
13.2167778
21
6.6692075
0
LINE
8
layer1
10
13.2167778
20
6.6692075
11
13.2383303
21
6.652369
0
LINE
8
layer1
10
13.2383303
20
6.652369
11
13.2663156
21
6.6394905
0
LINE
8
layer1
10
13.2663156
20
6.6394905
11
13.30057
21
6.630836
0
LINE
8
layer1
10
13.30057
20
6.630836
11
13.3409303
21
6.6266471
0
LINE
8
layer1
10
13.3409303
20
6.6266471
11
13.387224
21
6.6271831
0
LINE
8
layer1
10
13.387224
20
6.6271831
11
13.4392566
21
6.6326802
0
LINE
8
layer1
10
13.4392566
20
6.6326802
11
13.4968468
21
6.643393
0
LINE
8
layer1
10
13.4968468
20
6.643393
11
13.5598009
21
6.6595354
0
LINE
8
layer1
10
13.5598009
20
6.6595354
11
13.664615
21
6.6929727
0
LINE
8
layer1
10
13.664615
20
6.6929727
11
13.7695721
21
6.72313
0
LINE
8
layer1
10
13.7695721
20
6.72313
11
13.9044557
21
6.7558696
0
LINE
8
layer1
10
13.9044557
20
6.7558696
11
14.0649036
21
6.7877484
0
LINE
8
layer1
10
14.0649036
20
6.7877484
11
14.2530798
21
6.8170091
0
LINE
8
layer1
10
14.2530798
20
6.8170091
11
14.4680241
21
6.8412902
0
LINE
8
layer1
10
14.4680241
20
6.8412902
11
14.7088891
21
6.8583587
0
LINE
8
layer1
10
14.7088891
20
6.8583587
11
14.9782403
21
6.8661726
0
LINE
8
layer1
10
14.9782403
20
6.8661726
11
15.2739951
21
6.862349
0
LINE
8
layer1
10
15.2739951
20
6.862349
11
15.5600576
21
6.8472141
0
ARC
8
layer1
10
-0.0000074
20
-0.0000027
40
17
50
21.2480713
51
23.751926
0
LINE
8
layer1
10
15.8443338
20
6.1609107
11
15.652759
21
5.9479321
0
LINE
8
layer1
10
15.652759
20
5.9479321
11
15.4463325
21
5.7360981
0
LINE
8
layer1
10
15.4463325
20
5.7360981
11
15.2503472
21
5.5511633
0
LINE
8
layer1
10
15.2503472
20
5.5511633
11
15.0679607
21
5.3929152
0
LINE
8
layer1
10
15.0679607
20
5.3929152
11
14.8988027
21
5.258096
0
LINE
8
layer1
10
14.8988027
20
5.258096
11
14.7450516
21
5.1457258
0
LINE
8
layer1
10
14.7450516
20
5.1457258
11
14.6090561
21
5.0548137
0
LINE
8
layer1
10
14.6090561
20
5.0548137
11
14.4905287
21
4.982587
0
LINE
8
layer1
10
14.4905287
20
4.982587
11
14.3949883
21
4.9296956
0
LINE
8
layer1
10
14.3949883
20
4.9296956
11
14.2972298
21
4.8792245
0
LINE
8
layer1
10
14.2972298
20
4.8792245
11
14.2413002
21
4.8461237
0
LINE
8
layer1
10
14.2413002
20
4.8461237
11
14.1930026
21
4.8129763
0
LINE
8
layer1
10
14.1930026
20
4.8129763
11
14.152323
21
4.7800708
0
LINE
8
layer1
10
14.152323
20
4.7800708
11
14.1192094
21
4.7477152
0
LINE
8
layer1
10
14.1192094
20
4.7477152
11
14.0936324
21
4.7162141
0
LINE
8
layer1
10
14.0936324
20
4.7162141
11
14.0755305
21
4.6858729
0
LINE
8
layer1
10
14.0755305
20
4.6858729
11
14.0648483
21
4.6569779
0
LINE
8
layer1
10
14.0648483
20
4.6569779
11
14.061515
21
4.6298313
0
LINE
8
layer1
10
14.061515
20
4.6298313
11
14.0654377
21
4.6047396
0
LINE
8
layer1
10
14.0654377
20
4.6047396
11
14.081943
21
4.5541526
0
LINE
8
layer1
10
14.081943
20
4.5541526
11
14.162717
21
4.2962132
0
LINE
8
layer1
10
14.162717
20
4.2962132
11
14.2388593
21
4.0368689
0
LINE
8
layer1
10
14.2388593
20
4.0368689
11
14.2532403
21
3.9856375
0
LINE
8
layer1
10
14.2532403
20
3.9856375
11
14.2639189
21
3.9625951
0
LINE
8
layer1
10
14.2639189
20
3.9625951
11
14.2817723
21
3.9418755
0
LINE
8
layer1
10
14.2817723
20
3.9418755
11
14.3067074
21
3.9237848
0
LINE
8
layer1
10
14.3067074
20
3.9237848
11
14.3386152
21
3.9086139
0
LINE
8
layer1
10
14.3386152
20
3.9086139
11
14.3773828
21
3.8966316
0
LINE
8
layer1
10
14.3773828
20
3.8966316
11
14.4228915
21
3.8881258
0
LINE
8
layer1
10
14.4228915
20
3.8881258
11
14.4749968
21
3.8833662
0
LINE
8
layer1
10
14.4749968
20
3.8833662
11
14.5335704
21
3.8826379
0
LINE
8
layer1
10
14.5335704
20
3.8826379
11
14.598464
21
3.8861884
0
LINE
8
layer1
10
14.598464
20
3.8861884
11
14.7077874
21
3.8985349
0
LINE
8
layer1
10
14.7077874
20
3.8985349
11
14.8166112
21
3.9076367
0
LINE
8
layer1
10
14.8166112
20
3.9076367
11
14.9552902
21
3.9134327
0
LINE
8
layer1
10
14.9552902
20
3.9134327
11
15.1188744
21
3.9133972
0
LINE
8
layer1
10
15.1188744
20
3.9133972
11
15.3091434
21
3.9053843
0
LINE
8
layer1
10
15.3091434
20
3.9053843
11
15.5246946
21
3.8872653
0
LINE
8
layer1
10
15.5246946
20
3.8872653
11
15.7642614
21
3.8570153
0
LINE
8
layer1
10
15.7642614
20
3.8570153
11
16.0299615
21
3.8121313
0
LINE
8
layer1
10
16.0299615
20
3.8121313
11
16.3192875
21
3.7506822
0
LINE
8
layer1
10
16.3192875
20
3.7506822
11
16.5969007
21
3.6800302
0
ARC
8
layer1
10
-0.0000074
20
-0.0000025
40
17
50
9.9980759
51
12.5019307
0
LINE
8
layer1
10
16.7418234
20
2.9514543
11
16.5123796
21
2.7799424
0
ENDSEC
0
EOF