M48
; DRILL file {KiCad 7.0.6} date Tue Nov 21 10:43:53 2023
; FORMAT={-:-/ absolute / metric / decimal}
; #@! TF.CreationDate,2023-11-21T10:43:53+01:00
; #@! TF.GenerationSoftware,Kicad,Pcbnew,7.0.6
; #@! TF.FileFunction,MixedPlating,1,2
FMAT,2
METRIC
; #@! TA.AperFunction,Plated,PTH,ViaDrill
T1C0.400
; #@! TA.AperFunction,Plated,PTH,ComponentDrill
T2C0.750
; #@! TA.AperFunction,Plated,PTH,ComponentDrill
T3C0.762
; #@! TA.AperFunction,Plated,PTH,ComponentDrill
T4C0.800
; #@! TA.AperFunction,Plated,PTH,ComponentDrill
T5C1.000
; #@! TA.AperFunction,Plated,PTH,ComponentDrill
T6C1.100
; #@! TA.AperFunction,Plated,PTH,ComponentDrill
T7C1.700
; #@! TA.AperFunction,Plated,PTH,ComponentDrill
T8C3.000
; #@! TA.AperFunction,NonPlated,NPTH,ComponentDrill
T9C2.400
; #@! TA.AperFunction,NonPlated,NPTH,ComponentDrill
T10C3.500
%
G90
G05
T1
X28.194Y-111.125
X29.464Y-118.11
X30.734Y-126.365
X35.814Y-99.695
X38.989Y-85.09
X38.989Y-97.79
X38.989Y-111.125
X38.989Y-118.11
X38.989Y-126.365
X40.259Y-89.535
X40.259Y-94.615
X45.974Y-89.535
X45.974Y-94.615
X45.974Y-99.695
X55.499Y-102.235
X55.499Y-120.015
X58.674Y-46.99
X63.119Y-39.37
X63.119Y-116.205
X63.754Y-43.18
X63.754Y-52.07
X63.754Y-125.095
X66.929Y-99.06
X81.534Y-99.06
T2
X98.044Y-93.98
X98.044Y-102.235
X98.044Y-110.49
X99.314Y-93.98
X99.314Y-102.235
X99.314Y-110.49
X100.584Y-93.98
X100.584Y-102.235
X100.584Y-110.49
T3
X58.674Y-62.4
X58.674Y-64.94
X58.674Y-67.48
X58.674Y-70.02
X58.674Y-72.56
X58.674Y-75.1
X58.674Y-77.64
X58.674Y-80.18
X58.674Y-82.72
X58.674Y-85.26
X58.674Y-87.8
X58.674Y-90.34
X58.674Y-92.88
X58.674Y-95.42
X58.674Y-97.96
X84.074Y-62.4
X84.074Y-64.94
X84.074Y-67.48
X84.074Y-70.02
X84.074Y-72.56
X84.074Y-75.1
X84.074Y-77.64
X84.074Y-80.18
X84.074Y-82.72
X84.074Y-85.26
X84.074Y-87.8
X84.074Y-90.34
X84.074Y-92.88
X84.074Y-95.42
X84.074Y-97.96
T4
X47.919Y-104.775
X47.919Y-108.585
X47.919Y-112.395
X47.919Y-116.205
X47.919Y-122.555
X47.919Y-125.73
X47.919Y-128.905
X47.959Y-132.08
X52.919Y-104.775
X52.919Y-108.585
X52.919Y-112.395
X52.919Y-116.205
X52.919Y-122.555
X52.919Y-125.73
X52.919Y-128.905
X52.959Y-132.08
X58.294Y-121.92
X60.294Y-121.92
X62.294Y-121.92
X64.294Y-121.92
X66.294Y-116.84
X66.294Y-121.92
X68.294Y-121.92
X69.469Y-100.965
X69.469Y-103.465
X69.469Y-116.84
X70.294Y-121.92
X72.294Y-121.92
X74.294Y-121.92
X79.629Y-100.965
X79.629Y-103.465
X79.629Y-111.76
X79.629Y-116.84
X82.169Y-111.76
X84.709Y-111.76
X89.789Y-90.17
X89.789Y-98.425
X89.789Y-106.68
X99.949Y-90.17
X99.949Y-98.425
X99.949Y-106.68
T5
X33.909Y-107.315
X33.909Y-114.935
X33.909Y-122.555
X33.909Y-130.175
X36.449Y-107.315
X36.449Y-114.935
X36.449Y-122.555
X36.449Y-130.175
X38.989Y-107.315
X38.989Y-114.935
X38.989Y-122.555
X38.989Y-130.175
X43.434Y-59.578
X43.434Y-64.178
X43.434Y-68.778
X43.434Y-73.378
X43.434Y-77.978
X43.434Y-82.578
X43.434Y-87.02
X43.434Y-92.075
X43.434Y-97.105
X45.974Y-59.578
X45.974Y-64.178
X45.974Y-68.778
X45.974Y-73.378
X45.974Y-77.978
X45.974Y-82.578
X45.974Y-87.02
X45.974Y-92.075
X45.974Y-97.105
X48.514Y-59.578
X48.514Y-64.178
X48.514Y-68.778
X48.514Y-73.378
X48.514Y-77.978
X48.514Y-82.578
X48.514Y-87.02
X48.514Y-92.075
X48.514Y-97.105
X51.054Y-59.578
X51.054Y-64.178
X51.054Y-68.778
X51.054Y-73.378
X51.054Y-77.978
X51.054Y-82.578
X58.134Y-127.635
X60.674Y-127.635
X81.534Y-127.0
X86.614Y-127.0
X94.234Y-69.85
X94.234Y-80.01
X94.234Y-85.09
X94.244Y-64.745
X96.774Y-69.85
X96.774Y-80.01
X96.774Y-85.09
X96.784Y-64.745
X99.314Y-69.85
X99.314Y-80.01
X99.314Y-85.09
X99.324Y-64.745
X101.854Y-69.85
X101.854Y-80.01
X101.854Y-85.09
X101.864Y-64.745
X106.934Y-93.98
X106.934Y-101.6
X106.934Y-109.22
X109.364Y-36.65
X109.364Y-78.15
X109.474Y-85.09
X112.014Y-93.98
X112.014Y-101.6
X112.014Y-109.22
X126.619Y-85.09
X126.864Y-36.65
X126.864Y-78.15
T6
X56.384Y-37.01
X56.384Y-39.55
X56.384Y-42.09
X56.384Y-44.63
X56.384Y-47.17
X56.384Y-49.71
T7
X136.144Y-27.53
X136.144Y-34.29
X136.144Y-41.57
X136.144Y-48.33
T8
X109.474Y-27.94
X122.174Y-27.94
T9
X54.914Y-33.38
X54.914Y-53.18
X92.714Y-33.38
X92.714Y-53.18
T10
X25.0Y-25.0
X25.0Y-140.0
X145.0Y-25.0
X145.0Y-140.0
T0
M30
