G04 #@! TF.GenerationSoftware,KiCad,Pcbnew,7.0.6*
G04 #@! TF.CreationDate,2023-11-21T10:42:39+01:00*
G04 #@! TF.ProjectId,Mechatron_01,4d656368-6174-4726-9f6e-5f30312e6b69,rev?*
G04 #@! TF.SameCoordinates,Original*
G04 #@! TF.FileFunction,Copper,L1,Top*
G04 #@! TF.FilePolarity,Positive*
%FSLAX46Y46*%
G04 Gerber Fmt 4.6, Leading zero omitted, Abs format (unit mm)*
G04 Created by KiCad (PCBNEW 7.0.6) date 2023-11-21 10:42:39*
%MOMM*%
%LPD*%
G01*
G04 APERTURE LIST*
G04 Aperture macros list*
%AMRoundRect*
0 Rectangle with rounded corners*
0 $1 Rounding radius*
0 $2 $3 $4 $5 $6 $7 $8 $9 X,Y pos of 4 corners*
0 Add a 4 corners polygon primitive as box body*
4,1,4,$2,$3,$4,$5,$6,$7,$8,$9,$2,$3,0*
0 Add four circle primitives for the rounded corners*
1,1,$1+$1,$2,$3*
1,1,$1+$1,$4,$5*
1,1,$1+$1,$6,$7*
1,1,$1+$1,$8,$9*
0 Add four rect primitives between the rounded corners*
20,1,$1+$1,$2,$3,$4,$5,0*
20,1,$1+$1,$4,$5,$6,$7,0*
20,1,$1+$1,$6,$7,$8,$9,0*
20,1,$1+$1,$8,$9,$2,$3,0*%
G04 Aperture macros list end*
G04 #@! TA.AperFunction,ComponentPad*
%ADD10O,1.600000X1.600000*%
G04 #@! TD*
G04 #@! TA.AperFunction,ComponentPad*
%ADD11C,1.600000*%
G04 #@! TD*
G04 #@! TA.AperFunction,ComponentPad*
%ADD12R,1.050000X1.500000*%
G04 #@! TD*
G04 #@! TA.AperFunction,ComponentPad*
%ADD13O,1.050000X1.500000*%
G04 #@! TD*
G04 #@! TA.AperFunction,ComponentPad*
%ADD14R,1.700000X1.700000*%
G04 #@! TD*
G04 #@! TA.AperFunction,ComponentPad*
%ADD15O,1.700000X1.700000*%
G04 #@! TD*
G04 #@! TA.AperFunction,ComponentPad*
%ADD16R,1.800000X1.800000*%
G04 #@! TD*
G04 #@! TA.AperFunction,ComponentPad*
%ADD17O,1.800000X1.800000*%
G04 #@! TD*
G04 #@! TA.AperFunction,ComponentPad*
%ADD18R,4.500000X4.500000*%
G04 #@! TD*
G04 #@! TA.AperFunction,ComponentPad*
%ADD19C,1.524000*%
G04 #@! TD*
G04 #@! TA.AperFunction,ComponentPad*
%ADD20C,1.800000*%
G04 #@! TD*
G04 #@! TA.AperFunction,ComponentPad*
%ADD21RoundRect,0.675000X-0.675000X0.675000X-0.675000X-0.675000X0.675000X-0.675000X0.675000X0.675000X0*%
G04 #@! TD*
G04 #@! TA.AperFunction,ComponentPad*
%ADD22C,2.700000*%
G04 #@! TD*
G04 #@! TA.AperFunction,ComponentPad*
%ADD23R,1.350000X1.350000*%
G04 #@! TD*
G04 #@! TA.AperFunction,ComponentPad*
%ADD24O,1.350000X1.350000*%
G04 #@! TD*
G04 #@! TA.AperFunction,ComponentPad*
%ADD25C,1.440000*%
G04 #@! TD*
G04 #@! TA.AperFunction,ComponentPad*
%ADD26C,1.900000*%
G04 #@! TD*
G04 #@! TA.AperFunction,ViaPad*
%ADD27C,0.800000*%
G04 #@! TD*
G04 #@! TA.AperFunction,Conductor*
%ADD28C,0.800000*%
G04 #@! TD*
G04 APERTURE END LIST*
D10*
X89789000Y-106680000D03*
D11*
X99949000Y-106680000D03*
D10*
X89789000Y-90170000D03*
D11*
X99949000Y-90170000D03*
D10*
X99949000Y-98425000D03*
D11*
X89789000Y-98425000D03*
D12*
X100584000Y-102235000D03*
D13*
X99314000Y-102235000D03*
X98044000Y-102235000D03*
D12*
X100584000Y-93980000D03*
D13*
X99314000Y-93980000D03*
X98044000Y-93980000D03*
D12*
X100584000Y-110490000D03*
D13*
X99314000Y-110490000D03*
X98044000Y-110490000D03*
D14*
X112014000Y-109220000D03*
X112014000Y-101600000D03*
X112014000Y-93980000D03*
X94234000Y-69850000D03*
D15*
X96774000Y-69850000D03*
X99314000Y-69850000D03*
X101854000Y-69850000D03*
D14*
X106934000Y-93980000D03*
X58134000Y-127635000D03*
D15*
X60674000Y-127635000D03*
D14*
X94234000Y-85090000D03*
D15*
X96774000Y-85090000D03*
X99314000Y-85090000D03*
X101854000Y-85090000D03*
D14*
X51054000Y-64178000D03*
D15*
X48514000Y-64178000D03*
X45974000Y-64178000D03*
X43434000Y-64178000D03*
D14*
X94234000Y-80010000D03*
D15*
X96774000Y-80010000D03*
X99314000Y-80010000D03*
X101854000Y-80010000D03*
D16*
X33909000Y-114935000D03*
D17*
X36449000Y-114935000D03*
X38989000Y-114935000D03*
D11*
X47919000Y-125730000D03*
X52919000Y-125730000D03*
D16*
X33909000Y-130175000D03*
D17*
X36449000Y-130175000D03*
X38989000Y-130175000D03*
D11*
X47919000Y-128905000D03*
X52919000Y-128905000D03*
D14*
X48514000Y-87020000D03*
D15*
X45974000Y-87020000D03*
X43434000Y-87020000D03*
D14*
X48514000Y-97105000D03*
D15*
X45974000Y-97105000D03*
X43434000Y-97105000D03*
D11*
X47919000Y-116205000D03*
X52919000Y-116205000D03*
X47959000Y-132080000D03*
X52959000Y-132080000D03*
D14*
X51054000Y-68778000D03*
D15*
X48514000Y-68778000D03*
X45974000Y-68778000D03*
X43434000Y-68778000D03*
D18*
X122174000Y-27940000D03*
D14*
X81534000Y-127000000D03*
X51054000Y-73378000D03*
D15*
X48514000Y-73378000D03*
X45974000Y-73378000D03*
X43434000Y-73378000D03*
D11*
X69469000Y-116840000D03*
D10*
X79629000Y-116840000D03*
D14*
X126619000Y-85090000D03*
D19*
X84074000Y-97960000D03*
X58674000Y-64940000D03*
X58674000Y-67480000D03*
X58674000Y-62400000D03*
X58674000Y-70020000D03*
X58674000Y-72560000D03*
X58674000Y-75100000D03*
X58674000Y-77640000D03*
X58674000Y-80180000D03*
X58674000Y-82720000D03*
X58674000Y-85260000D03*
X58674000Y-87800000D03*
X58674000Y-90340000D03*
X58674000Y-92880000D03*
X84074000Y-92880000D03*
X84074000Y-90340000D03*
X84074000Y-87800000D03*
X84074000Y-85260000D03*
X84074000Y-82720000D03*
X84074000Y-80180000D03*
X84074000Y-77640000D03*
X84074000Y-62400000D03*
X84074000Y-75100000D03*
X84074000Y-64940000D03*
X84074000Y-70020000D03*
X84074000Y-67480000D03*
X84074000Y-72560000D03*
X58674000Y-95420000D03*
X84074000Y-95420000D03*
X58674000Y-97960000D03*
D20*
X126864000Y-36650000D03*
X109364000Y-36650000D03*
X126864000Y-78150000D03*
X109364000Y-78150000D03*
D14*
X106934000Y-109220000D03*
D11*
X47919000Y-122555000D03*
X52919000Y-122555000D03*
X79629000Y-100965000D03*
X79629000Y-103465000D03*
D16*
X33909000Y-122555000D03*
D17*
X36449000Y-122555000D03*
X38989000Y-122555000D03*
D11*
X47919000Y-108585000D03*
X52919000Y-108585000D03*
X47919000Y-104775000D03*
X52919000Y-104775000D03*
D21*
X136144000Y-27530000D03*
X136144000Y-34290000D03*
D22*
X136144000Y-41570000D03*
X136144000Y-48330000D03*
D14*
X51054000Y-59578000D03*
D15*
X48514000Y-59578000D03*
X45974000Y-59578000D03*
X43434000Y-59578000D03*
D14*
X48514000Y-92075000D03*
D15*
X45974000Y-92075000D03*
X43434000Y-92075000D03*
D11*
X47919000Y-112395000D03*
X52919000Y-112395000D03*
X69469000Y-100965000D03*
X69469000Y-103465000D03*
D23*
X66294000Y-116840000D03*
D18*
X109474000Y-27940000D03*
D14*
X51054000Y-82578000D03*
D15*
X48514000Y-82578000D03*
X45974000Y-82578000D03*
X43434000Y-82578000D03*
D14*
X106934000Y-101600000D03*
X86614000Y-127000000D03*
X51054000Y-77978000D03*
D15*
X48514000Y-77978000D03*
X45974000Y-77978000D03*
X43434000Y-77978000D03*
D14*
X109474000Y-85090000D03*
D23*
X58294000Y-121920000D03*
D24*
X60294000Y-121920000D03*
X62294000Y-121920000D03*
X64294000Y-121920000D03*
X66294000Y-121920000D03*
X68294000Y-121920000D03*
X70294000Y-121920000D03*
X72294000Y-121920000D03*
X74294000Y-121920000D03*
D25*
X79629000Y-111760000D03*
X82169000Y-111760000D03*
X84709000Y-111760000D03*
D16*
X33909000Y-107315000D03*
D17*
X36449000Y-107315000D03*
X38989000Y-107315000D03*
D14*
X94244000Y-64745000D03*
D15*
X96784000Y-64745000D03*
X99324000Y-64745000D03*
X101864000Y-64745000D03*
D26*
X56384000Y-49710000D03*
X56384000Y-47170000D03*
X56384000Y-44630000D03*
X56384000Y-42090000D03*
X56384000Y-39550000D03*
X56384000Y-37010000D03*
D27*
X45974000Y-99695000D03*
X35814000Y-99695000D03*
X30734000Y-126365000D03*
X40259000Y-94615000D03*
X45974000Y-94615000D03*
X29464000Y-118110000D03*
X40259000Y-89535000D03*
X45974000Y-89535000D03*
X28194000Y-111125000D03*
X38989000Y-111125000D03*
X38989000Y-118110000D03*
X38989000Y-126365000D03*
X58674000Y-46990000D03*
X63119000Y-39370000D03*
X55499000Y-120015000D03*
X38989000Y-85090000D03*
X38989000Y-97790000D03*
X55499000Y-102235000D03*
X66929000Y-99060000D03*
X81534000Y-99060000D03*
X63754000Y-52070000D03*
X63754000Y-43180000D03*
X63754000Y-125095000D03*
X63119000Y-116205000D03*
D28*
X35814000Y-99695000D02*
X45974000Y-99695000D01*
X29464000Y-118110000D02*
X38989000Y-118110000D01*
X30734000Y-126365000D02*
X38989000Y-126365000D01*
X40259000Y-94615000D02*
X45974000Y-94615000D01*
X40259000Y-89535000D02*
X45974000Y-89535000D01*
X28194000Y-111125000D02*
X38989000Y-111125000D01*
X63119000Y-39370000D02*
X58674000Y-43815000D01*
X58674000Y-43815000D02*
X58674000Y-46990000D01*
X55499000Y-102235000D02*
X55499000Y-120015000D01*
X38989000Y-85090000D02*
X38989000Y-97790000D01*
X66929000Y-99060000D02*
X81534000Y-99060000D01*
X63754000Y-43180000D02*
X63754000Y-52070000D01*
X63754000Y-125095000D02*
X63754000Y-116840000D01*
X63754000Y-116840000D02*
X63119000Y-116205000D01*
M02*
