G04 #@! TF.GenerationSoftware,KiCad,Pcbnew,7.0.6*
G04 #@! TF.CreationDate,2023-11-21T10:42:39+01:00*
G04 #@! TF.ProjectId,Mechatron_01,4d656368-6174-4726-9f6e-5f30312e6b69,rev?*
G04 #@! TF.SameCoordinates,Original*
G04 #@! TF.FileFunction,Copper,L2,Bot*
G04 #@! TF.FilePolarity,Positive*
%FSLAX46Y46*%
G04 Gerber Fmt 4.6, Leading zero omitted, Abs format (unit mm)*
G04 Created by KiCad (PCBNEW 7.0.6) date 2023-11-21 10:42:39*
%MOMM*%
%LPD*%
G01*
G04 APERTURE LIST*
G04 Aperture macros list*
%AMRoundRect*
0 Rectangle with rounded corners*
0 $1 Rounding radius*
0 $2 $3 $4 $5 $6 $7 $8 $9 X,Y pos of 4 corners*
0 Add a 4 corners polygon primitive as box body*
4,1,4,$2,$3,$4,$5,$6,$7,$8,$9,$2,$3,0*
0 Add four circle primitives for the rounded corners*
1,1,$1+$1,$2,$3*
1,1,$1+$1,$4,$5*
1,1,$1+$1,$6,$7*
1,1,$1+$1,$8,$9*
0 Add four rect primitives between the rounded corners*
20,1,$1+$1,$2,$3,$4,$5,0*
20,1,$1+$1,$4,$5,$6,$7,0*
20,1,$1+$1,$6,$7,$8,$9,0*
20,1,$1+$1,$8,$9,$2,$3,0*%
G04 Aperture macros list end*
G04 #@! TA.AperFunction,NonConductor*
%ADD10C,0.200000*%
G04 #@! TD*
%ADD11C,0.300000*%
G04 #@! TA.AperFunction,NonConductor*
%ADD12C,0.300000*%
G04 #@! TD*
G04 #@! TA.AperFunction,ComponentPad*
%ADD13O,1.600000X1.600000*%
G04 #@! TD*
G04 #@! TA.AperFunction,ComponentPad*
%ADD14C,1.600000*%
G04 #@! TD*
G04 #@! TA.AperFunction,ComponentPad*
%ADD15R,1.050000X1.500000*%
G04 #@! TD*
G04 #@! TA.AperFunction,ComponentPad*
%ADD16O,1.050000X1.500000*%
G04 #@! TD*
G04 #@! TA.AperFunction,ComponentPad*
%ADD17R,1.700000X1.700000*%
G04 #@! TD*
G04 #@! TA.AperFunction,ComponentPad*
%ADD18O,1.700000X1.700000*%
G04 #@! TD*
G04 #@! TA.AperFunction,ComponentPad*
%ADD19R,1.800000X1.800000*%
G04 #@! TD*
G04 #@! TA.AperFunction,ComponentPad*
%ADD20O,1.800000X1.800000*%
G04 #@! TD*
G04 #@! TA.AperFunction,ComponentPad*
%ADD21R,4.500000X4.500000*%
G04 #@! TD*
G04 #@! TA.AperFunction,ComponentPad*
%ADD22C,1.524000*%
G04 #@! TD*
G04 #@! TA.AperFunction,ComponentPad*
%ADD23C,1.800000*%
G04 #@! TD*
G04 #@! TA.AperFunction,ComponentPad*
%ADD24RoundRect,0.675000X-0.675000X0.675000X-0.675000X-0.675000X0.675000X-0.675000X0.675000X0.675000X0*%
G04 #@! TD*
G04 #@! TA.AperFunction,ComponentPad*
%ADD25C,2.700000*%
G04 #@! TD*
G04 #@! TA.AperFunction,ComponentPad*
%ADD26R,1.350000X1.350000*%
G04 #@! TD*
G04 #@! TA.AperFunction,ComponentPad*
%ADD27O,1.350000X1.350000*%
G04 #@! TD*
G04 #@! TA.AperFunction,ComponentPad*
%ADD28C,1.440000*%
G04 #@! TD*
G04 #@! TA.AperFunction,ComponentPad*
%ADD29C,1.900000*%
G04 #@! TD*
G04 #@! TA.AperFunction,ViaPad*
%ADD30C,0.800000*%
G04 #@! TD*
G04 #@! TA.AperFunction,Conductor*
%ADD31C,0.800000*%
G04 #@! TD*
G04 #@! TA.AperFunction,Conductor*
%ADD32C,1.200000*%
G04 #@! TD*
G04 #@! TA.AperFunction,Conductor*
%ADD33C,2.000000*%
G04 #@! TD*
G04 APERTURE END LIST*
D10*
X119000000Y-121000000D02*
X120500000Y-117500000D01*
X121000000Y-123500000D01*
X113900000Y-126150000D01*
X113500000Y-118000000D01*
X115500000Y-121500000D01*
X117000000Y-115500000D01*
X119000000Y-121000000D01*
G04 #@! TA.AperFunction,NonConductor*
G36*
X119000000Y-121000000D02*
G01*
X120500000Y-117500000D01*
X121000000Y-123500000D01*
X113900000Y-126150000D01*
X113500000Y-118000000D01*
X115500000Y-121500000D01*
X117000000Y-115500000D01*
X119000000Y-121000000D01*
G37*
G04 #@! TD.AperFunction*
X112947428Y-133664136D02*
X115897428Y-133664136D01*
X119047429Y-121586319D02*
G75*
G03*
X119047429Y-121586319I-1J0D01*
G01*
X117175245Y-128564136D02*
G75*
G03*
X117175245Y-128564136I-777817J0D01*
G01*
X132850000Y-125550000D02*
X137600000Y-128450000D01*
X141500000Y-124750000D01*
X141150000Y-134150000D01*
X137600000Y-131250000D01*
X133200000Y-134900000D01*
X128300000Y-137200000D01*
X121600000Y-137400000D01*
X113900000Y-135000000D01*
X110250000Y-130000000D01*
X113900000Y-126150000D01*
X119600000Y-123600000D01*
X127400000Y-123500000D01*
X132850000Y-125550000D01*
D11*
D12*
X29139638Y-37306189D02*
X27139638Y-37306189D01*
X27139638Y-37306189D02*
X28568209Y-37972856D01*
X28568209Y-37972856D02*
X27139638Y-38639522D01*
X27139638Y-38639522D02*
X29139638Y-38639522D01*
X29044400Y-40353808D02*
X29139638Y-40163332D01*
X29139638Y-40163332D02*
X29139638Y-39782379D01*
X29139638Y-39782379D02*
X29044400Y-39591903D01*
X29044400Y-39591903D02*
X28853923Y-39496665D01*
X28853923Y-39496665D02*
X28092019Y-39496665D01*
X28092019Y-39496665D02*
X27901542Y-39591903D01*
X27901542Y-39591903D02*
X27806304Y-39782379D01*
X27806304Y-39782379D02*
X27806304Y-40163332D01*
X27806304Y-40163332D02*
X27901542Y-40353808D01*
X27901542Y-40353808D02*
X28092019Y-40449046D01*
X28092019Y-40449046D02*
X28282495Y-40449046D01*
X28282495Y-40449046D02*
X28472971Y-39496665D01*
X29044400Y-42163332D02*
X29139638Y-41972856D01*
X29139638Y-41972856D02*
X29139638Y-41591903D01*
X29139638Y-41591903D02*
X29044400Y-41401427D01*
X29044400Y-41401427D02*
X28949161Y-41306189D01*
X28949161Y-41306189D02*
X28758685Y-41210951D01*
X28758685Y-41210951D02*
X28187257Y-41210951D01*
X28187257Y-41210951D02*
X27996780Y-41306189D01*
X27996780Y-41306189D02*
X27901542Y-41401427D01*
X27901542Y-41401427D02*
X27806304Y-41591903D01*
X27806304Y-41591903D02*
X27806304Y-41972856D01*
X27806304Y-41972856D02*
X27901542Y-42163332D01*
X29139638Y-43020475D02*
X27139638Y-43020475D01*
X29139638Y-43877618D02*
X28092019Y-43877618D01*
X28092019Y-43877618D02*
X27901542Y-43782380D01*
X27901542Y-43782380D02*
X27806304Y-43591904D01*
X27806304Y-43591904D02*
X27806304Y-43306189D01*
X27806304Y-43306189D02*
X27901542Y-43115713D01*
X27901542Y-43115713D02*
X27996780Y-43020475D01*
X29139638Y-45687142D02*
X28092019Y-45687142D01*
X28092019Y-45687142D02*
X27901542Y-45591904D01*
X27901542Y-45591904D02*
X27806304Y-45401428D01*
X27806304Y-45401428D02*
X27806304Y-45020475D01*
X27806304Y-45020475D02*
X27901542Y-44829999D01*
X29044400Y-45687142D02*
X29139638Y-45496666D01*
X29139638Y-45496666D02*
X29139638Y-45020475D01*
X29139638Y-45020475D02*
X29044400Y-44829999D01*
X29044400Y-44829999D02*
X28853923Y-44734761D01*
X28853923Y-44734761D02*
X28663447Y-44734761D01*
X28663447Y-44734761D02*
X28472971Y-44829999D01*
X28472971Y-44829999D02*
X28377733Y-45020475D01*
X28377733Y-45020475D02*
X28377733Y-45496666D01*
X28377733Y-45496666D02*
X28282495Y-45687142D01*
X27806304Y-46353809D02*
X27806304Y-47115713D01*
X27139638Y-46639523D02*
X28853923Y-46639523D01*
X28853923Y-46639523D02*
X29044400Y-46734761D01*
X29044400Y-46734761D02*
X29139638Y-46925237D01*
X29139638Y-46925237D02*
X29139638Y-47115713D01*
X29139638Y-47782380D02*
X27806304Y-47782380D01*
X28187257Y-47782380D02*
X27996780Y-47877618D01*
X27996780Y-47877618D02*
X27901542Y-47972856D01*
X27901542Y-47972856D02*
X27806304Y-48163332D01*
X27806304Y-48163332D02*
X27806304Y-48353809D01*
X29139638Y-49306189D02*
X29044400Y-49115713D01*
X29044400Y-49115713D02*
X28949161Y-49020475D01*
X28949161Y-49020475D02*
X28758685Y-48925237D01*
X28758685Y-48925237D02*
X28187257Y-48925237D01*
X28187257Y-48925237D02*
X27996780Y-49020475D01*
X27996780Y-49020475D02*
X27901542Y-49115713D01*
X27901542Y-49115713D02*
X27806304Y-49306189D01*
X27806304Y-49306189D02*
X27806304Y-49591904D01*
X27806304Y-49591904D02*
X27901542Y-49782380D01*
X27901542Y-49782380D02*
X27996780Y-49877618D01*
X27996780Y-49877618D02*
X28187257Y-49972856D01*
X28187257Y-49972856D02*
X28758685Y-49972856D01*
X28758685Y-49972856D02*
X28949161Y-49877618D01*
X28949161Y-49877618D02*
X29044400Y-49782380D01*
X29044400Y-49782380D02*
X29139638Y-49591904D01*
X29139638Y-49591904D02*
X29139638Y-49306189D01*
X27806304Y-50829999D02*
X29139638Y-50829999D01*
X27996780Y-50829999D02*
X27901542Y-50925237D01*
X27901542Y-50925237D02*
X27806304Y-51115713D01*
X27806304Y-51115713D02*
X27806304Y-51401428D01*
X27806304Y-51401428D02*
X27901542Y-51591904D01*
X27901542Y-51591904D02*
X28092019Y-51687142D01*
X28092019Y-51687142D02*
X29139638Y-51687142D01*
X29330114Y-52163333D02*
X29330114Y-53687142D01*
X27139638Y-55115714D02*
X27139638Y-54163333D01*
X27139638Y-54163333D02*
X28092019Y-54068095D01*
X28092019Y-54068095D02*
X27996780Y-54163333D01*
X27996780Y-54163333D02*
X27901542Y-54353809D01*
X27901542Y-54353809D02*
X27901542Y-54830000D01*
X27901542Y-54830000D02*
X27996780Y-55020476D01*
X27996780Y-55020476D02*
X28092019Y-55115714D01*
X28092019Y-55115714D02*
X28282495Y-55210952D01*
X28282495Y-55210952D02*
X28758685Y-55210952D01*
X28758685Y-55210952D02*
X28949161Y-55115714D01*
X28949161Y-55115714D02*
X29044400Y-55020476D01*
X29044400Y-55020476D02*
X29139638Y-54830000D01*
X29139638Y-54830000D02*
X29139638Y-54353809D01*
X29139638Y-54353809D02*
X29044400Y-54163333D01*
X29044400Y-54163333D02*
X28949161Y-54068095D01*
X28568209Y-55972857D02*
X28568209Y-56925238D01*
X29139638Y-55782381D02*
X27139638Y-56449047D01*
X27139638Y-56449047D02*
X29139638Y-57115714D01*
X29139638Y-57782381D02*
X27139638Y-57782381D01*
X28092019Y-57782381D02*
X28092019Y-58925238D01*
X29139638Y-58925238D02*
X27139638Y-58925238D01*
X29139638Y-59877619D02*
X27139638Y-59877619D01*
X27139638Y-59877619D02*
X28568209Y-60544286D01*
X28568209Y-60544286D02*
X27139638Y-61210952D01*
X27139638Y-61210952D02*
X29139638Y-61210952D01*
X28092019Y-62163333D02*
X28092019Y-62830000D01*
X29139638Y-63115714D02*
X29139638Y-62163333D01*
X29139638Y-62163333D02*
X27139638Y-62163333D01*
X27139638Y-62163333D02*
X27139638Y-63115714D01*
X29330114Y-63496667D02*
X29330114Y-65020476D01*
X27330114Y-65401429D02*
X27234876Y-65496667D01*
X27234876Y-65496667D02*
X27139638Y-65687143D01*
X27139638Y-65687143D02*
X27139638Y-66163334D01*
X27139638Y-66163334D02*
X27234876Y-66353810D01*
X27234876Y-66353810D02*
X27330114Y-66449048D01*
X27330114Y-66449048D02*
X27520590Y-66544286D01*
X27520590Y-66544286D02*
X27711066Y-66544286D01*
X27711066Y-66544286D02*
X27996780Y-66449048D01*
X27996780Y-66449048D02*
X29139638Y-65306191D01*
X29139638Y-65306191D02*
X29139638Y-66544286D01*
X27139638Y-67210953D02*
X27139638Y-68449048D01*
X27139638Y-68449048D02*
X27901542Y-67782381D01*
X27901542Y-67782381D02*
X27901542Y-68068096D01*
X27901542Y-68068096D02*
X27996780Y-68258572D01*
X27996780Y-68258572D02*
X28092019Y-68353810D01*
X28092019Y-68353810D02*
X28282495Y-68449048D01*
X28282495Y-68449048D02*
X28758685Y-68449048D01*
X28758685Y-68449048D02*
X28949161Y-68353810D01*
X28949161Y-68353810D02*
X29044400Y-68258572D01*
X29044400Y-68258572D02*
X29139638Y-68068096D01*
X29139638Y-68068096D02*
X29139638Y-67496667D01*
X29139638Y-67496667D02*
X29044400Y-67306191D01*
X29044400Y-67306191D02*
X28949161Y-67210953D01*
X27044400Y-70734762D02*
X29615828Y-69020477D01*
X27330114Y-71306191D02*
X27234876Y-71401429D01*
X27234876Y-71401429D02*
X27139638Y-71591905D01*
X27139638Y-71591905D02*
X27139638Y-72068096D01*
X27139638Y-72068096D02*
X27234876Y-72258572D01*
X27234876Y-72258572D02*
X27330114Y-72353810D01*
X27330114Y-72353810D02*
X27520590Y-72449048D01*
X27520590Y-72449048D02*
X27711066Y-72449048D01*
X27711066Y-72449048D02*
X27996780Y-72353810D01*
X27996780Y-72353810D02*
X29139638Y-71210953D01*
X29139638Y-71210953D02*
X29139638Y-72449048D01*
X27806304Y-74163334D02*
X29139638Y-74163334D01*
X27044400Y-73687143D02*
X28472971Y-73210953D01*
X28472971Y-73210953D02*
X28472971Y-74449048D01*
X29330114Y-74734763D02*
X29330114Y-76258572D01*
X27234876Y-77782382D02*
X27139638Y-77591906D01*
X27139638Y-77591906D02*
X27139638Y-77306192D01*
X27139638Y-77306192D02*
X27234876Y-77020477D01*
X27234876Y-77020477D02*
X27425352Y-76830001D01*
X27425352Y-76830001D02*
X27615828Y-76734763D01*
X27615828Y-76734763D02*
X27996780Y-76639525D01*
X27996780Y-76639525D02*
X28282495Y-76639525D01*
X28282495Y-76639525D02*
X28663447Y-76734763D01*
X28663447Y-76734763D02*
X28853923Y-76830001D01*
X28853923Y-76830001D02*
X29044400Y-77020477D01*
X29044400Y-77020477D02*
X29139638Y-77306192D01*
X29139638Y-77306192D02*
X29139638Y-77496668D01*
X29139638Y-77496668D02*
X29044400Y-77782382D01*
X29044400Y-77782382D02*
X28949161Y-77877620D01*
X28949161Y-77877620D02*
X28282495Y-77877620D01*
X28282495Y-77877620D02*
X28282495Y-77496668D01*
X29139638Y-78734763D02*
X27806304Y-78734763D01*
X28187257Y-78734763D02*
X27996780Y-78830001D01*
X27996780Y-78830001D02*
X27901542Y-78925239D01*
X27901542Y-78925239D02*
X27806304Y-79115715D01*
X27806304Y-79115715D02*
X27806304Y-79306192D01*
X29139638Y-80258572D02*
X29044400Y-80068096D01*
X29044400Y-80068096D02*
X28949161Y-79972858D01*
X28949161Y-79972858D02*
X28758685Y-79877620D01*
X28758685Y-79877620D02*
X28187257Y-79877620D01*
X28187257Y-79877620D02*
X27996780Y-79972858D01*
X27996780Y-79972858D02*
X27901542Y-80068096D01*
X27901542Y-80068096D02*
X27806304Y-80258572D01*
X27806304Y-80258572D02*
X27806304Y-80544287D01*
X27806304Y-80544287D02*
X27901542Y-80734763D01*
X27901542Y-80734763D02*
X27996780Y-80830001D01*
X27996780Y-80830001D02*
X28187257Y-80925239D01*
X28187257Y-80925239D02*
X28758685Y-80925239D01*
X28758685Y-80925239D02*
X28949161Y-80830001D01*
X28949161Y-80830001D02*
X29044400Y-80734763D01*
X29044400Y-80734763D02*
X29139638Y-80544287D01*
X29139638Y-80544287D02*
X29139638Y-80258572D01*
X27806304Y-82639525D02*
X29139638Y-82639525D01*
X27806304Y-81782382D02*
X28853923Y-81782382D01*
X28853923Y-81782382D02*
X29044400Y-81877620D01*
X29044400Y-81877620D02*
X29139638Y-82068096D01*
X29139638Y-82068096D02*
X29139638Y-82353811D01*
X29139638Y-82353811D02*
X29044400Y-82544287D01*
X29044400Y-82544287D02*
X28949161Y-82639525D01*
X27806304Y-83591906D02*
X29806304Y-83591906D01*
X27901542Y-83591906D02*
X27806304Y-83782382D01*
X27806304Y-83782382D02*
X27806304Y-84163335D01*
X27806304Y-84163335D02*
X27901542Y-84353811D01*
X27901542Y-84353811D02*
X27996780Y-84449049D01*
X27996780Y-84449049D02*
X28187257Y-84544287D01*
X28187257Y-84544287D02*
X28758685Y-84544287D01*
X28758685Y-84544287D02*
X28949161Y-84449049D01*
X28949161Y-84449049D02*
X29044400Y-84353811D01*
X29044400Y-84353811D02*
X29139638Y-84163335D01*
X29139638Y-84163335D02*
X29139638Y-83782382D01*
X29139638Y-83782382D02*
X29044400Y-83591906D01*
X27330114Y-85306192D02*
X27234876Y-85401430D01*
X27234876Y-85401430D02*
X27139638Y-85591906D01*
X27139638Y-85591906D02*
X27139638Y-86068097D01*
X27139638Y-86068097D02*
X27234876Y-86258573D01*
X27234876Y-86258573D02*
X27330114Y-86353811D01*
X27330114Y-86353811D02*
X27520590Y-86449049D01*
X27520590Y-86449049D02*
X27711066Y-86449049D01*
X27711066Y-86449049D02*
X27996780Y-86353811D01*
X27996780Y-86353811D02*
X29139638Y-85210954D01*
X29139638Y-85210954D02*
X29139638Y-86449049D01*
X30359638Y-45925237D02*
X30359638Y-47068094D01*
X32359638Y-46496665D02*
X30359638Y-46496665D01*
X32264400Y-48496666D02*
X32359638Y-48306190D01*
X32359638Y-48306190D02*
X32359638Y-47925237D01*
X32359638Y-47925237D02*
X32264400Y-47734761D01*
X32264400Y-47734761D02*
X32073923Y-47639523D01*
X32073923Y-47639523D02*
X31312019Y-47639523D01*
X31312019Y-47639523D02*
X31121542Y-47734761D01*
X31121542Y-47734761D02*
X31026304Y-47925237D01*
X31026304Y-47925237D02*
X31026304Y-48306190D01*
X31026304Y-48306190D02*
X31121542Y-48496666D01*
X31121542Y-48496666D02*
X31312019Y-48591904D01*
X31312019Y-48591904D02*
X31502495Y-48591904D01*
X31502495Y-48591904D02*
X31692971Y-47639523D01*
X32359638Y-49449047D02*
X31026304Y-49449047D01*
X31216780Y-49449047D02*
X31121542Y-49544285D01*
X31121542Y-49544285D02*
X31026304Y-49734761D01*
X31026304Y-49734761D02*
X31026304Y-50020476D01*
X31026304Y-50020476D02*
X31121542Y-50210952D01*
X31121542Y-50210952D02*
X31312019Y-50306190D01*
X31312019Y-50306190D02*
X32359638Y-50306190D01*
X31312019Y-50306190D02*
X31121542Y-50401428D01*
X31121542Y-50401428D02*
X31026304Y-50591904D01*
X31026304Y-50591904D02*
X31026304Y-50877618D01*
X31026304Y-50877618D02*
X31121542Y-51068095D01*
X31121542Y-51068095D02*
X31312019Y-51163333D01*
X31312019Y-51163333D02*
X32359638Y-51163333D01*
X31026304Y-52115714D02*
X33026304Y-52115714D01*
X31121542Y-52115714D02*
X31026304Y-52306190D01*
X31026304Y-52306190D02*
X31026304Y-52687143D01*
X31026304Y-52687143D02*
X31121542Y-52877619D01*
X31121542Y-52877619D02*
X31216780Y-52972857D01*
X31216780Y-52972857D02*
X31407257Y-53068095D01*
X31407257Y-53068095D02*
X31978685Y-53068095D01*
X31978685Y-53068095D02*
X32169161Y-52972857D01*
X32169161Y-52972857D02*
X32264400Y-52877619D01*
X32264400Y-52877619D02*
X32359638Y-52687143D01*
X32359638Y-52687143D02*
X32359638Y-52306190D01*
X32359638Y-52306190D02*
X32264400Y-52115714D01*
X32359638Y-54210952D02*
X32264400Y-54020476D01*
X32264400Y-54020476D02*
X32073923Y-53925238D01*
X32073923Y-53925238D02*
X30359638Y-53925238D01*
X32359638Y-58115715D02*
X32359638Y-58020477D01*
X32359638Y-58020477D02*
X32264400Y-57830000D01*
X32264400Y-57830000D02*
X31978685Y-57544286D01*
X31978685Y-57544286D02*
X31407257Y-57068096D01*
X31407257Y-57068096D02*
X31121542Y-56877619D01*
X31121542Y-56877619D02*
X30835828Y-56782381D01*
X30835828Y-56782381D02*
X30645352Y-56782381D01*
X30645352Y-56782381D02*
X30454876Y-56877619D01*
X30454876Y-56877619D02*
X30359638Y-57068096D01*
X30359638Y-57068096D02*
X30359638Y-57163334D01*
X30359638Y-57163334D02*
X30454876Y-57353810D01*
X30454876Y-57353810D02*
X30645352Y-57449048D01*
X30645352Y-57449048D02*
X30740590Y-57449048D01*
X30740590Y-57449048D02*
X30931066Y-57353810D01*
X30931066Y-57353810D02*
X31026304Y-57258572D01*
X31026304Y-57258572D02*
X31407257Y-56687143D01*
X31407257Y-56687143D02*
X31502495Y-56591905D01*
X31502495Y-56591905D02*
X31692971Y-56496667D01*
X31692971Y-56496667D02*
X31978685Y-56496667D01*
X31978685Y-56496667D02*
X32169161Y-56591905D01*
X32169161Y-56591905D02*
X32264400Y-56687143D01*
X32264400Y-56687143D02*
X32359638Y-56877619D01*
X32359638Y-56877619D02*
X32359638Y-57163334D01*
X32359638Y-57163334D02*
X32264400Y-57353810D01*
X32264400Y-57353810D02*
X32169161Y-57449048D01*
X32169161Y-57449048D02*
X31788209Y-57734762D01*
X31788209Y-57734762D02*
X31502495Y-57830000D01*
X31502495Y-57830000D02*
X31312019Y-57830000D01*
X32359638Y-60496667D02*
X30359638Y-60496667D01*
X32359638Y-61639524D02*
X31216780Y-60782381D01*
X30359638Y-61639524D02*
X31502495Y-60496667D01*
X32359638Y-62782381D02*
X32264400Y-62591905D01*
X32264400Y-62591905D02*
X32169161Y-62496667D01*
X32169161Y-62496667D02*
X31978685Y-62401429D01*
X31978685Y-62401429D02*
X31407257Y-62401429D01*
X31407257Y-62401429D02*
X31216780Y-62496667D01*
X31216780Y-62496667D02*
X31121542Y-62591905D01*
X31121542Y-62591905D02*
X31026304Y-62782381D01*
X31026304Y-62782381D02*
X31026304Y-63068096D01*
X31026304Y-63068096D02*
X31121542Y-63258572D01*
X31121542Y-63258572D02*
X31216780Y-63353810D01*
X31216780Y-63353810D02*
X31407257Y-63449048D01*
X31407257Y-63449048D02*
X31978685Y-63449048D01*
X31978685Y-63449048D02*
X32169161Y-63353810D01*
X32169161Y-63353810D02*
X32264400Y-63258572D01*
X32264400Y-63258572D02*
X32359638Y-63068096D01*
X32359638Y-63068096D02*
X32359638Y-62782381D01*
X30359638Y-62591905D02*
X30454876Y-62687143D01*
X30454876Y-62687143D02*
X30550114Y-62591905D01*
X30550114Y-62591905D02*
X30454876Y-62496667D01*
X30454876Y-62496667D02*
X30359638Y-62591905D01*
X30359638Y-62591905D02*
X30550114Y-62591905D01*
X30359638Y-63353810D02*
X30454876Y-63449048D01*
X30454876Y-63449048D02*
X30550114Y-63353810D01*
X30550114Y-63353810D02*
X30454876Y-63258572D01*
X30454876Y-63258572D02*
X30359638Y-63353810D01*
X30359638Y-63353810D02*
X30550114Y-63353810D01*
X31026304Y-65163334D02*
X32645352Y-65163334D01*
X32645352Y-65163334D02*
X32835828Y-65068096D01*
X32835828Y-65068096D02*
X32931066Y-64972858D01*
X32931066Y-64972858D02*
X33026304Y-64782381D01*
X33026304Y-64782381D02*
X33026304Y-64496667D01*
X33026304Y-64496667D02*
X32931066Y-64306191D01*
X32264400Y-65163334D02*
X32359638Y-64972858D01*
X32359638Y-64972858D02*
X32359638Y-64591905D01*
X32359638Y-64591905D02*
X32264400Y-64401429D01*
X32264400Y-64401429D02*
X32169161Y-64306191D01*
X32169161Y-64306191D02*
X31978685Y-64210953D01*
X31978685Y-64210953D02*
X31407257Y-64210953D01*
X31407257Y-64210953D02*
X31216780Y-64306191D01*
X31216780Y-64306191D02*
X31121542Y-64401429D01*
X31121542Y-64401429D02*
X31026304Y-64591905D01*
X31026304Y-64591905D02*
X31026304Y-64972858D01*
X31026304Y-64972858D02*
X31121542Y-65163334D01*
X32264400Y-66877620D02*
X32359638Y-66687144D01*
X32359638Y-66687144D02*
X32359638Y-66306191D01*
X32359638Y-66306191D02*
X32264400Y-66115715D01*
X32264400Y-66115715D02*
X32073923Y-66020477D01*
X32073923Y-66020477D02*
X31312019Y-66020477D01*
X31312019Y-66020477D02*
X31121542Y-66115715D01*
X31121542Y-66115715D02*
X31026304Y-66306191D01*
X31026304Y-66306191D02*
X31026304Y-66687144D01*
X31026304Y-66687144D02*
X31121542Y-66877620D01*
X31121542Y-66877620D02*
X31312019Y-66972858D01*
X31312019Y-66972858D02*
X31502495Y-66972858D01*
X31502495Y-66972858D02*
X31692971Y-66020477D01*
X32359638Y-68115715D02*
X32264400Y-67925239D01*
X32264400Y-67925239D02*
X32073923Y-67830001D01*
X32073923Y-67830001D02*
X30359638Y-67830001D01*
X32359638Y-68877620D02*
X30359638Y-68877620D01*
X31121542Y-68877620D02*
X31026304Y-69068096D01*
X31026304Y-69068096D02*
X31026304Y-69449049D01*
X31026304Y-69449049D02*
X31121542Y-69639525D01*
X31121542Y-69639525D02*
X31216780Y-69734763D01*
X31216780Y-69734763D02*
X31407257Y-69830001D01*
X31407257Y-69830001D02*
X31978685Y-69830001D01*
X31978685Y-69830001D02*
X32169161Y-69734763D01*
X32169161Y-69734763D02*
X32264400Y-69639525D01*
X32264400Y-69639525D02*
X32359638Y-69449049D01*
X32359638Y-69449049D02*
X32359638Y-69068096D01*
X32359638Y-69068096D02*
X32264400Y-68877620D01*
X32264400Y-71449049D02*
X32359638Y-71258573D01*
X32359638Y-71258573D02*
X32359638Y-70877620D01*
X32359638Y-70877620D02*
X32264400Y-70687144D01*
X32264400Y-70687144D02*
X32073923Y-70591906D01*
X32073923Y-70591906D02*
X31312019Y-70591906D01*
X31312019Y-70591906D02*
X31121542Y-70687144D01*
X31121542Y-70687144D02*
X31026304Y-70877620D01*
X31026304Y-70877620D02*
X31026304Y-71258573D01*
X31026304Y-71258573D02*
X31121542Y-71449049D01*
X31121542Y-71449049D02*
X31312019Y-71544287D01*
X31312019Y-71544287D02*
X31502495Y-71544287D01*
X31502495Y-71544287D02*
X31692971Y-70591906D01*
X32359638Y-72401430D02*
X31026304Y-72401430D01*
X31407257Y-72401430D02*
X31216780Y-72496668D01*
X31216780Y-72496668D02*
X31121542Y-72591906D01*
X31121542Y-72591906D02*
X31026304Y-72782382D01*
X31026304Y-72782382D02*
X31026304Y-72972859D01*
X31026304Y-74496668D02*
X32645352Y-74496668D01*
X32645352Y-74496668D02*
X32835828Y-74401430D01*
X32835828Y-74401430D02*
X32931066Y-74306192D01*
X32931066Y-74306192D02*
X33026304Y-74115715D01*
X33026304Y-74115715D02*
X33026304Y-73830001D01*
X33026304Y-73830001D02*
X32931066Y-73639525D01*
X32264400Y-74496668D02*
X32359638Y-74306192D01*
X32359638Y-74306192D02*
X32359638Y-73925239D01*
X32359638Y-73925239D02*
X32264400Y-73734763D01*
X32264400Y-73734763D02*
X32169161Y-73639525D01*
X32169161Y-73639525D02*
X31978685Y-73544287D01*
X31978685Y-73544287D02*
X31407257Y-73544287D01*
X31407257Y-73544287D02*
X31216780Y-73639525D01*
X31216780Y-73639525D02*
X31121542Y-73734763D01*
X31121542Y-73734763D02*
X31026304Y-73925239D01*
X31026304Y-73925239D02*
X31026304Y-74306192D01*
X31026304Y-74306192D02*
X31121542Y-74496668D01*
X32264400Y-76210954D02*
X32359638Y-76020478D01*
X32359638Y-76020478D02*
X32359638Y-75639525D01*
X32359638Y-75639525D02*
X32264400Y-75449049D01*
X32264400Y-75449049D02*
X32073923Y-75353811D01*
X32073923Y-75353811D02*
X31312019Y-75353811D01*
X31312019Y-75353811D02*
X31121542Y-75449049D01*
X31121542Y-75449049D02*
X31026304Y-75639525D01*
X31026304Y-75639525D02*
X31026304Y-76020478D01*
X31026304Y-76020478D02*
X31121542Y-76210954D01*
X31121542Y-76210954D02*
X31312019Y-76306192D01*
X31312019Y-76306192D02*
X31502495Y-76306192D01*
X31502495Y-76306192D02*
X31692971Y-75353811D01*
X32359638Y-77163335D02*
X31026304Y-77163335D01*
X31407257Y-77163335D02*
X31216780Y-77258573D01*
X31216780Y-77258573D02*
X31121542Y-77353811D01*
X31121542Y-77353811D02*
X31026304Y-77544287D01*
X31026304Y-77544287D02*
X31026304Y-77734764D01*
D13*
X89789000Y-106680000D03*
D14*
X99949000Y-106680000D03*
D13*
X89789000Y-90170000D03*
D14*
X99949000Y-90170000D03*
D13*
X99949000Y-98425000D03*
D14*
X89789000Y-98425000D03*
D15*
X100584000Y-102235000D03*
D16*
X99314000Y-102235000D03*
X98044000Y-102235000D03*
D15*
X100584000Y-93980000D03*
D16*
X99314000Y-93980000D03*
X98044000Y-93980000D03*
D15*
X100584000Y-110490000D03*
D16*
X99314000Y-110490000D03*
X98044000Y-110490000D03*
D17*
X112014000Y-109220000D03*
X112014000Y-101600000D03*
X112014000Y-93980000D03*
X94234000Y-69850000D03*
D18*
X96774000Y-69850000D03*
X99314000Y-69850000D03*
X101854000Y-69850000D03*
D17*
X106934000Y-93980000D03*
X58134000Y-127635000D03*
D18*
X60674000Y-127635000D03*
D17*
X94234000Y-85090000D03*
D18*
X96774000Y-85090000D03*
X99314000Y-85090000D03*
X101854000Y-85090000D03*
D17*
X51054000Y-64178000D03*
D18*
X48514000Y-64178000D03*
X45974000Y-64178000D03*
X43434000Y-64178000D03*
D17*
X94234000Y-80010000D03*
D18*
X96774000Y-80010000D03*
X99314000Y-80010000D03*
X101854000Y-80010000D03*
D19*
X33909000Y-114935000D03*
D20*
X36449000Y-114935000D03*
X38989000Y-114935000D03*
D14*
X47919000Y-125730000D03*
X52919000Y-125730000D03*
D19*
X33909000Y-130175000D03*
D20*
X36449000Y-130175000D03*
X38989000Y-130175000D03*
D14*
X47919000Y-128905000D03*
X52919000Y-128905000D03*
D17*
X48514000Y-87020000D03*
D18*
X45974000Y-87020000D03*
X43434000Y-87020000D03*
D17*
X48514000Y-97105000D03*
D18*
X45974000Y-97105000D03*
X43434000Y-97105000D03*
D14*
X47919000Y-116205000D03*
X52919000Y-116205000D03*
X47959000Y-132080000D03*
X52959000Y-132080000D03*
D17*
X51054000Y-68778000D03*
D18*
X48514000Y-68778000D03*
X45974000Y-68778000D03*
X43434000Y-68778000D03*
D21*
X122174000Y-27940000D03*
D17*
X81534000Y-127000000D03*
X51054000Y-73378000D03*
D18*
X48514000Y-73378000D03*
X45974000Y-73378000D03*
X43434000Y-73378000D03*
D14*
X69469000Y-116840000D03*
D13*
X79629000Y-116840000D03*
D17*
X126619000Y-85090000D03*
D22*
X84074000Y-97960000D03*
X58674000Y-64940000D03*
X58674000Y-67480000D03*
X58674000Y-62400000D03*
X58674000Y-70020000D03*
X58674000Y-72560000D03*
X58674000Y-75100000D03*
X58674000Y-77640000D03*
X58674000Y-80180000D03*
X58674000Y-82720000D03*
X58674000Y-85260000D03*
X58674000Y-87800000D03*
X58674000Y-90340000D03*
X58674000Y-92880000D03*
X84074000Y-92880000D03*
X84074000Y-90340000D03*
X84074000Y-87800000D03*
X84074000Y-85260000D03*
X84074000Y-82720000D03*
X84074000Y-80180000D03*
X84074000Y-77640000D03*
X84074000Y-62400000D03*
X84074000Y-75100000D03*
X84074000Y-64940000D03*
X84074000Y-70020000D03*
X84074000Y-67480000D03*
X84074000Y-72560000D03*
X58674000Y-95420000D03*
X84074000Y-95420000D03*
X58674000Y-97960000D03*
D23*
X126864000Y-36650000D03*
X109364000Y-36650000D03*
X126864000Y-78150000D03*
X109364000Y-78150000D03*
D17*
X106934000Y-109220000D03*
D14*
X47919000Y-122555000D03*
X52919000Y-122555000D03*
X79629000Y-100965000D03*
X79629000Y-103465000D03*
D19*
X33909000Y-122555000D03*
D20*
X36449000Y-122555000D03*
X38989000Y-122555000D03*
D14*
X47919000Y-108585000D03*
X52919000Y-108585000D03*
X47919000Y-104775000D03*
X52919000Y-104775000D03*
D24*
X136144000Y-27530000D03*
X136144000Y-34290000D03*
D25*
X136144000Y-41570000D03*
X136144000Y-48330000D03*
D17*
X51054000Y-59578000D03*
D18*
X48514000Y-59578000D03*
X45974000Y-59578000D03*
X43434000Y-59578000D03*
D17*
X48514000Y-92075000D03*
D18*
X45974000Y-92075000D03*
X43434000Y-92075000D03*
D14*
X47919000Y-112395000D03*
X52919000Y-112395000D03*
X69469000Y-100965000D03*
X69469000Y-103465000D03*
D26*
X66294000Y-116840000D03*
D21*
X109474000Y-27940000D03*
D17*
X51054000Y-82578000D03*
D18*
X48514000Y-82578000D03*
X45974000Y-82578000D03*
X43434000Y-82578000D03*
D17*
X106934000Y-101600000D03*
X86614000Y-127000000D03*
X51054000Y-77978000D03*
D18*
X48514000Y-77978000D03*
X45974000Y-77978000D03*
X43434000Y-77978000D03*
D17*
X109474000Y-85090000D03*
D26*
X58294000Y-121920000D03*
D27*
X60294000Y-121920000D03*
X62294000Y-121920000D03*
X64294000Y-121920000D03*
X66294000Y-121920000D03*
X68294000Y-121920000D03*
X70294000Y-121920000D03*
X72294000Y-121920000D03*
X74294000Y-121920000D03*
D28*
X79629000Y-111760000D03*
X82169000Y-111760000D03*
X84709000Y-111760000D03*
D19*
X33909000Y-107315000D03*
D20*
X36449000Y-107315000D03*
X38989000Y-107315000D03*
D17*
X94244000Y-64745000D03*
D18*
X96784000Y-64745000D03*
X99324000Y-64745000D03*
X101864000Y-64745000D03*
D29*
X56384000Y-49710000D03*
X56384000Y-47170000D03*
X56384000Y-44630000D03*
X56384000Y-42090000D03*
X56384000Y-39550000D03*
X56384000Y-37010000D03*
D30*
X45974000Y-99695000D03*
X35814000Y-99695000D03*
X30734000Y-126365000D03*
X40259000Y-94615000D03*
X45974000Y-94615000D03*
X29464000Y-118110000D03*
X40259000Y-89535000D03*
X45974000Y-89535000D03*
X28194000Y-111125000D03*
X38989000Y-111125000D03*
X38989000Y-118110000D03*
X38989000Y-126365000D03*
X58674000Y-46990000D03*
X63119000Y-39370000D03*
X55499000Y-120015000D03*
X38989000Y-85090000D03*
X38989000Y-97790000D03*
X55499000Y-102235000D03*
X66929000Y-99060000D03*
X81534000Y-99060000D03*
X63754000Y-52070000D03*
X63754000Y-43180000D03*
X63754000Y-125095000D03*
X63119000Y-116205000D03*
D31*
X52919000Y-116205000D02*
X52919000Y-104775000D01*
X52919000Y-122555000D02*
X52919000Y-116205000D01*
X52959000Y-122595000D02*
X52919000Y-122555000D01*
X52959000Y-132080000D02*
X52959000Y-122595000D01*
X47919000Y-139025000D02*
X47919000Y-122555000D01*
X47879000Y-139065000D02*
X47919000Y-139025000D01*
X47919000Y-117435000D02*
X38989000Y-126365000D01*
X47919000Y-116205000D02*
X47919000Y-117435000D01*
X44704000Y-112395000D02*
X38989000Y-118110000D01*
X47919000Y-112395000D02*
X44704000Y-112395000D01*
X41529000Y-108585000D02*
X38989000Y-111125000D01*
X47919000Y-108585000D02*
X41529000Y-108585000D01*
D32*
X47879000Y-139065000D02*
X89154000Y-139065000D01*
X38989000Y-139065000D02*
X47879000Y-139065000D01*
D31*
X36449000Y-102870000D02*
X36449000Y-107315000D01*
X37719000Y-97155000D02*
X37719000Y-101600000D01*
X37719000Y-101600000D02*
X36449000Y-102870000D01*
X38354000Y-96520000D02*
X37719000Y-97155000D01*
X42849000Y-96520000D02*
X38354000Y-96520000D01*
X43434000Y-97105000D02*
X42849000Y-96520000D01*
X33909000Y-99695000D02*
X35814000Y-99695000D01*
X30734000Y-126365000D02*
X30734000Y-102870000D01*
X30734000Y-102870000D02*
X33909000Y-99695000D01*
X43434000Y-97105000D02*
X43434000Y-87020000D01*
X43434000Y-100965000D02*
X43434000Y-97105000D01*
X37084000Y-94615000D02*
X40259000Y-94615000D01*
X29464000Y-118110000D02*
X29464000Y-102235000D01*
X29464000Y-102235000D02*
X37084000Y-94615000D01*
X28194000Y-101600000D02*
X28194000Y-111125000D01*
X40259000Y-89535000D02*
X28194000Y-101600000D01*
X45974000Y-87020000D02*
X45974000Y-89535000D01*
X45974000Y-92075000D02*
X45974000Y-94615000D01*
X45974000Y-97105000D02*
X45974000Y-99695000D01*
X38989000Y-130175000D02*
X38989000Y-126365000D01*
X38989000Y-122555000D02*
X38989000Y-118110000D01*
X38989000Y-114935000D02*
X38989000Y-111125000D01*
X56769000Y-101057000D02*
X57312000Y-101600000D01*
X56769000Y-97325000D02*
X56769000Y-101057000D01*
X58674000Y-95420000D02*
X56769000Y-97325000D01*
X56947000Y-101235000D02*
X57312000Y-101600000D01*
X48244000Y-101235000D02*
X56947000Y-101235000D01*
X47244000Y-102235000D02*
X48244000Y-101235000D01*
X44704000Y-102235000D02*
X47244000Y-102235000D01*
X43434000Y-100965000D02*
X44704000Y-102235000D01*
X57312000Y-101600000D02*
X57312000Y-102962000D01*
X49199000Y-97105000D02*
X48514000Y-97105000D01*
X55964000Y-90340000D02*
X49199000Y-97105000D01*
X55964000Y-85260000D02*
X58674000Y-85260000D01*
X53569000Y-87655000D02*
X55964000Y-85260000D01*
X49149000Y-87655000D02*
X53569000Y-87655000D01*
X48514000Y-87020000D02*
X49149000Y-87655000D01*
X51689000Y-92075000D02*
X55964000Y-87800000D01*
X48514000Y-92075000D02*
X51689000Y-92075000D01*
X55964000Y-87800000D02*
X58674000Y-87800000D01*
X45974000Y-83185000D02*
X45974000Y-82578000D01*
X43434000Y-85725000D02*
X45974000Y-83185000D01*
X43434000Y-87020000D02*
X43434000Y-85725000D01*
X57849000Y-117475000D02*
X52919000Y-117475000D01*
X62294000Y-121920000D02*
X57849000Y-117475000D01*
X87249000Y-97155000D02*
X87249000Y-99695000D01*
X89789000Y-102235000D02*
X98044000Y-102235000D01*
X85514000Y-95420000D02*
X87249000Y-97155000D01*
X84074000Y-95420000D02*
X85514000Y-95420000D01*
X87249000Y-99695000D02*
X89789000Y-102235000D01*
X81534000Y-100330000D02*
X81534000Y-99060000D01*
X87884000Y-106680000D02*
X81534000Y-100330000D01*
X89789000Y-106680000D02*
X87884000Y-106680000D01*
X89789000Y-96520000D02*
X89789000Y-98425000D01*
X86149000Y-92880000D02*
X89789000Y-96520000D01*
X84074000Y-92880000D02*
X86149000Y-92880000D01*
X84074000Y-90340000D02*
X89619000Y-90340000D01*
X89619000Y-90340000D02*
X89789000Y-90170000D01*
X98044000Y-115570000D02*
X98044000Y-110490000D01*
X86614000Y-127000000D02*
X98044000Y-115570000D01*
D32*
X89154000Y-139065000D02*
X130429000Y-97790000D01*
X130429000Y-97790000D02*
X130429000Y-54045000D01*
X130429000Y-54045000D02*
X136144000Y-48330000D01*
X33909000Y-133985000D02*
X38989000Y-139065000D01*
X33909000Y-130175000D02*
X33909000Y-133985000D01*
D31*
X58039000Y-131445000D02*
X89789000Y-131445000D01*
X55499000Y-133985000D02*
X58039000Y-131445000D01*
X55499000Y-120015000D02*
X55499000Y-133985000D01*
X89789000Y-131445000D02*
X112014000Y-109220000D01*
X106299000Y-102235000D02*
X106934000Y-101600000D01*
X100584000Y-102235000D02*
X106299000Y-102235000D01*
X98044000Y-93980000D02*
X98044000Y-110490000D01*
X99314000Y-90805000D02*
X99949000Y-90170000D01*
X99314000Y-93980000D02*
X99314000Y-90805000D01*
X99314000Y-99060000D02*
X99949000Y-98425000D01*
X99314000Y-102235000D02*
X99314000Y-99060000D01*
X99314000Y-107315000D02*
X99949000Y-106680000D01*
X99314000Y-110490000D02*
X99314000Y-107315000D01*
X105664000Y-110490000D02*
X106934000Y-109220000D01*
X100584000Y-110490000D02*
X105664000Y-110490000D01*
X112014000Y-109220000D02*
X112014000Y-93980000D01*
X100584000Y-93980000D02*
X106934000Y-93980000D01*
X73279000Y-123825000D02*
X72294000Y-122840000D01*
X84709000Y-123825000D02*
X73279000Y-123825000D01*
X86614000Y-127000000D02*
X86614000Y-125730000D01*
X72294000Y-121920000D02*
X72294000Y-122840000D01*
X72294000Y-122840000D02*
X72294000Y-122905000D01*
X86614000Y-125730000D02*
X84709000Y-123825000D01*
X62484000Y-123825000D02*
X67119000Y-123825000D01*
X67119000Y-123825000D02*
X68294000Y-122650000D01*
X62294000Y-123635000D02*
X62484000Y-123825000D01*
X62294000Y-121920000D02*
X62294000Y-123635000D01*
X68294000Y-122650000D02*
X68294000Y-121920000D01*
X69469000Y-123825000D02*
X68294000Y-122650000D01*
X71374000Y-123825000D02*
X69469000Y-123825000D01*
X72294000Y-122905000D02*
X71374000Y-123825000D01*
X73019000Y-120645000D02*
X74294000Y-121920000D01*
X71569000Y-120645000D02*
X73019000Y-120645000D01*
X70294000Y-121920000D02*
X71569000Y-120645000D01*
X77089000Y-121920000D02*
X74294000Y-121920000D01*
X82169000Y-116840000D02*
X77089000Y-121920000D01*
X82169000Y-111760000D02*
X82169000Y-116840000D01*
X45974000Y-59578000D02*
X45974000Y-82578000D01*
X36449000Y-108585000D02*
X36449000Y-107315000D01*
X36449000Y-114935000D02*
X36449000Y-108585000D01*
X36449000Y-130175000D02*
X36449000Y-114935000D01*
D32*
X33909000Y-117475000D02*
X33909000Y-130175000D01*
X33909000Y-107315000D02*
X33909000Y-117475000D01*
D31*
X55499000Y-104775000D02*
X52919000Y-104775000D01*
X57312000Y-102962000D02*
X55499000Y-104775000D01*
X79629000Y-100965000D02*
X80264000Y-100965000D01*
X67564000Y-37010000D02*
X65479000Y-37010000D01*
X81364000Y-95420000D02*
X84074000Y-95420000D01*
X65479000Y-37010000D02*
X63119000Y-39370000D01*
X45974000Y-57150000D02*
X53414000Y-49710000D01*
X45974000Y-59578000D02*
X45974000Y-57150000D01*
X79629000Y-97155000D02*
X81364000Y-95420000D01*
X79629000Y-100965000D02*
X79629000Y-97155000D01*
D33*
X109474000Y-27940000D02*
X109474000Y-36540000D01*
D31*
X57859000Y-49710000D02*
X58039000Y-49530000D01*
X67564000Y-37010000D02*
X109004000Y-37010000D01*
X58039000Y-49530000D02*
X58674000Y-48895000D01*
X109004000Y-37010000D02*
X109364000Y-36650000D01*
X56384000Y-37010000D02*
X67564000Y-37010000D01*
X86614000Y-126365000D02*
X86614000Y-127000000D01*
X58674000Y-48895000D02*
X58674000Y-46990000D01*
D33*
X109474000Y-36540000D02*
X109364000Y-36650000D01*
D31*
X53414000Y-49710000D02*
X56384000Y-49710000D01*
X56384000Y-49710000D02*
X57859000Y-49710000D01*
X48514000Y-102870000D02*
X49149000Y-102235000D01*
X43434000Y-82578000D02*
X40231000Y-82578000D01*
X47919000Y-104775000D02*
X47919000Y-103465000D01*
X43434000Y-59578000D02*
X43434000Y-55880000D01*
X38989000Y-83820000D02*
X38989000Y-85090000D01*
X44069000Y-104775000D02*
X38989000Y-99695000D01*
X49149000Y-102235000D02*
X55499000Y-102235000D01*
X52144000Y-47170000D02*
X56384000Y-47170000D01*
X47919000Y-103465000D02*
X48514000Y-102870000D01*
X41529000Y-107315000D02*
X44069000Y-104775000D01*
X38989000Y-107315000D02*
X41529000Y-107315000D01*
X38989000Y-99695000D02*
X38989000Y-97790000D01*
X43434000Y-55880000D02*
X52144000Y-47170000D01*
X40231000Y-82578000D02*
X38989000Y-83820000D01*
X44069000Y-104775000D02*
X47919000Y-104775000D01*
X43434000Y-59578000D02*
X43434000Y-82578000D01*
X79629000Y-111760000D02*
X79629000Y-103465000D01*
X79629000Y-116840000D02*
X79629000Y-111760000D01*
X69469000Y-88265000D02*
X63924000Y-82720000D01*
X63924000Y-82720000D02*
X58674000Y-82720000D01*
X69469000Y-100965000D02*
X69469000Y-88265000D01*
X69469000Y-103465000D02*
X69469000Y-116840000D01*
D33*
X135734000Y-27940000D02*
X136144000Y-27530000D01*
X136144000Y-34290000D02*
X136144000Y-27530000D01*
X122174000Y-27940000D02*
X135734000Y-27940000D01*
X136144000Y-41570000D02*
X136144000Y-48330000D01*
X131784000Y-41570000D02*
X126864000Y-36650000D01*
D32*
X136214000Y-48260000D02*
X136144000Y-48330000D01*
D33*
X136144000Y-41570000D02*
X131784000Y-41570000D01*
D31*
X57574000Y-64940000D02*
X52212000Y-59578000D01*
X51054000Y-59578000D02*
X52212000Y-59578000D01*
X58674000Y-64940000D02*
X57574000Y-64940000D01*
X53256000Y-64178000D02*
X56558000Y-67480000D01*
X56558000Y-67480000D02*
X58674000Y-67480000D01*
X50800000Y-64178000D02*
X53256000Y-64178000D01*
X54046000Y-68778000D02*
X50800000Y-68778000D01*
X58674000Y-70020000D02*
X55288000Y-70020000D01*
X55288000Y-70020000D02*
X54046000Y-68778000D01*
X50800000Y-73378000D02*
X54384000Y-73378000D01*
X54384000Y-73378000D02*
X55202000Y-72560000D01*
X55202000Y-72560000D02*
X58674000Y-72560000D01*
X53594000Y-77978000D02*
X56472000Y-75100000D01*
X56472000Y-75100000D02*
X58674000Y-75100000D01*
X50800000Y-77978000D02*
X53594000Y-77978000D01*
X52042000Y-82578000D02*
X51054000Y-82578000D01*
X52042000Y-82578000D02*
X56980000Y-77640000D01*
X56980000Y-77640000D02*
X58674000Y-77640000D01*
X48514000Y-82578000D02*
X48514000Y-84034081D01*
X57742000Y-80180000D02*
X58674000Y-80180000D01*
X49569919Y-85090000D02*
X52832000Y-85090000D01*
X48514000Y-59578000D02*
X48514000Y-82578000D01*
X48514000Y-84034081D02*
X49569919Y-85090000D01*
X52832000Y-85090000D02*
X57742000Y-80180000D01*
X55964000Y-90340000D02*
X58674000Y-90340000D01*
X64854000Y-99060000D02*
X65024000Y-99060000D01*
X58674000Y-92880000D02*
X64854000Y-99060000D01*
X65024000Y-99060000D02*
X66929000Y-99060000D01*
X84074000Y-87800000D02*
X95266081Y-87800000D01*
X96774000Y-86292081D02*
X96774000Y-85090000D01*
X95266081Y-87800000D02*
X96774000Y-86292081D01*
X84074000Y-85260000D02*
X94064000Y-85260000D01*
X94064000Y-85260000D02*
X94234000Y-85090000D01*
X96774000Y-81212081D02*
X96774000Y-80010000D01*
X84074000Y-82720000D02*
X95266081Y-82720000D01*
X95266081Y-82720000D02*
X96774000Y-81212081D01*
X94064000Y-80180000D02*
X94234000Y-80010000D01*
X84074000Y-80180000D02*
X94064000Y-80180000D01*
X56384000Y-39550000D02*
X60124000Y-39550000D01*
X60124000Y-39550000D02*
X63754000Y-43180000D01*
X84074000Y-77640000D02*
X80264000Y-73830000D01*
X80264000Y-68580000D02*
X63754000Y-52070000D01*
X80264000Y-73830000D02*
X80264000Y-68580000D01*
X78994000Y-62230000D02*
X58854000Y-42090000D01*
X84074000Y-62400000D02*
X83904000Y-62230000D01*
X83904000Y-62230000D02*
X78994000Y-62230000D01*
X58854000Y-42090000D02*
X56384000Y-42090000D01*
X56384000Y-44630000D02*
X58854000Y-44630000D01*
X81534000Y-72560000D02*
X84074000Y-75100000D01*
X81534000Y-67310000D02*
X81534000Y-72560000D01*
X58854000Y-44630000D02*
X81534000Y-67310000D01*
X94049000Y-64940000D02*
X94244000Y-64745000D01*
X84074000Y-64940000D02*
X94049000Y-64940000D01*
X84074000Y-70020000D02*
X94064000Y-70020000D01*
X94064000Y-70020000D02*
X94234000Y-69850000D01*
X95251081Y-67480000D02*
X96784000Y-65947081D01*
X84074000Y-67480000D02*
X95251081Y-67480000D01*
X96784000Y-65947081D02*
X96784000Y-64745000D01*
X84074000Y-72560000D02*
X95266081Y-72560000D01*
X95266081Y-72560000D02*
X96774000Y-71052081D01*
X96774000Y-71052081D02*
X96774000Y-69850000D01*
X58674000Y-114300000D02*
X58674000Y-97960000D01*
X60261500Y-115887500D02*
X60579000Y-116205000D01*
X64294000Y-121920000D02*
X64294000Y-119920000D01*
X81534000Y-127000000D02*
X65659000Y-127000000D01*
X60261500Y-115887500D02*
X58674000Y-114300000D01*
X64294000Y-119920000D02*
X60261500Y-115887500D01*
X60579000Y-116205000D02*
X63119000Y-116205000D01*
X65659000Y-127000000D02*
X63754000Y-125095000D01*
D33*
X104394000Y-60960000D02*
X100584000Y-60960000D01*
X99324000Y-64745000D02*
X99324000Y-85080000D01*
X109364000Y-78150000D02*
X109364000Y-65930000D01*
X99314000Y-62230000D02*
X99324000Y-62240000D01*
X99324000Y-62240000D02*
X99324000Y-64745000D01*
X100584000Y-60960000D02*
X99314000Y-62230000D01*
X109364000Y-65930000D02*
X104394000Y-60960000D01*
D31*
X99314000Y-85090000D02*
X99314000Y-86292081D01*
D33*
X99324000Y-85080000D02*
X99314000Y-85090000D01*
X109474000Y-85090000D02*
X101854000Y-85090000D01*
X101864000Y-85080000D02*
X101854000Y-85090000D01*
X101864000Y-64745000D02*
X101864000Y-85080000D01*
D31*
X58134000Y-127635000D02*
X58134000Y-122080000D01*
X58134000Y-122080000D02*
X58294000Y-121920000D01*
D33*
X126619000Y-85090000D02*
X126619000Y-78395000D01*
X126619000Y-78395000D02*
X126864000Y-78150000D01*
D31*
X60674000Y-122300000D02*
X60294000Y-121920000D01*
X60674000Y-127635000D02*
X60674000Y-122300000D01*
X66294000Y-121920000D02*
X66294000Y-116840000D01*
M02*
