M48
; DRILL file {KiCad 7.0.10} date Di 13 Feb 2024 08:47:22
; FORMAT={-:-/ absolute / metric / decimal}
; #@! TF.CreationDate,2024-02-13T08:47:22+01:00
; #@! TF.GenerationSoftware,Kicad,Pcbnew,7.0.10
; #@! TF.FileFunction,MixedPlating,1,2
FMAT,2
METRIC
; #@! TA.AperFunction,Plated,PTH,ComponentDrill
T1C0.800
; #@! TA.AperFunction,Plated,PTH,ComponentDrill
T2C0.920
; #@! TA.AperFunction,Plated,PTH,ComponentDrill
T3C1.000
; #@! TA.AperFunction,Plated,PTH,ViaDrill
T4C1.800
; #@! TA.AperFunction,Plated,PTH,ViaDrill
T5C2.000
; #@! TA.AperFunction,Plated,PTH,ComponentDrill
T6C2.300
; #@! TA.AperFunction,Plated,PTH,ComponentDrill
T7C3.200
; #@! TA.AperFunction,NonPlated,NPTH,ComponentDrill
T8C3.500
%
G90
G05
T1
X112.395Y-93.98
X122.555Y-93.98
X125.73Y-109.22
X129.54Y-100.584
X135.89Y-109.22
X137.16Y-93.98
X139.7Y-100.584
X147.32Y-93.98
T2
X183.605Y-94.445
X186.105Y-94.445
X188.105Y-94.445
X190.605Y-94.445
T3
X97.155Y-90.805
X102.065Y-98.76
X103.45Y-101.6
X104.655Y-90.805
X104.775Y-73.025
X104.775Y-75.565
X104.775Y-78.105
X104.775Y-80.645
X104.835Y-98.76
X106.22Y-101.6
X107.605Y-98.76
X108.99Y-101.6
X109.22Y-67.945
X109.22Y-70.485
X109.22Y-73.025
X109.22Y-75.565
X109.22Y-78.105
X109.22Y-80.645
X109.22Y-83.185
X109.22Y-85.725
X110.375Y-98.76
X111.76Y-101.6
X113.145Y-98.76
X121.92Y-67.96
X121.92Y-70.5
X121.92Y-73.04
X121.92Y-75.58
X121.92Y-78.12
X121.92Y-80.66
X121.92Y-83.2
X121.92Y-85.74
X127.0Y-64.52
X127.0Y-67.06
X127.0Y-69.6
X127.0Y-72.14
X127.0Y-74.68
X127.0Y-77.22
X127.0Y-79.76
X127.0Y-93.98
X127.0Y-96.52
X127.0Y-99.06
X127.0Y-101.6
X127.0Y-104.14
X134.62Y-82.55
X139.7Y-82.55
X175.26Y-68.58
X175.26Y-71.12
X175.26Y-73.66
X175.26Y-76.2
X175.26Y-78.74
X175.26Y-81.28
X175.26Y-83.82
X175.26Y-86.36
X175.26Y-91.44
X175.26Y-93.98
X175.26Y-96.52
X175.26Y-99.06
X175.26Y-101.6
X175.26Y-104.14
T4
X163.195Y-88.9
X172.085Y-88.9
T5
X115.824Y-62.992
X115.824Y-73.66
X146.685Y-55.245
X146.685Y-65.405
X151.765Y-58.42
X151.765Y-65.405
T6
X180.535Y-97.155
X193.675Y-97.155
T7
X95.105Y-100.18
X120.105Y-100.18
T8
X96.0Y-57.0
X153.0Y-102.0
X193.0Y-57.0
M30
