G04 #@! TF.GenerationSoftware,KiCad,Pcbnew,7.0.10*
G04 #@! TF.CreationDate,2024-02-13T08:47:13+01:00*
G04 #@! TF.ProjectId,240116_Turning_Platform,32343031-3136-45f5-9475-726e696e675f,rev?*
G04 #@! TF.SameCoordinates,Original*
G04 #@! TF.FileFunction,Copper,L2,Bot*
G04 #@! TF.FilePolarity,Positive*
%FSLAX46Y46*%
G04 Gerber Fmt 4.6, Leading zero omitted, Abs format (unit mm)*
G04 Created by KiCad (PCBNEW 7.0.10) date 2024-02-13 08:47:13*
%MOMM*%
%LPD*%
G01*
G04 APERTURE LIST*
%ADD10C,0.300000*%
G04 #@! TA.AperFunction,NonConductor*
%ADD11C,0.300000*%
G04 #@! TD*
G04 #@! TA.AperFunction,ComponentPad*
%ADD12C,1.600000*%
G04 #@! TD*
G04 #@! TA.AperFunction,ComponentPad*
%ADD13O,1.600000X1.600000*%
G04 #@! TD*
G04 #@! TA.AperFunction,ComponentPad*
%ADD14R,2.000000X2.000000*%
G04 #@! TD*
G04 #@! TA.AperFunction,ComponentPad*
%ADD15C,2.000000*%
G04 #@! TD*
G04 #@! TA.AperFunction,ComponentPad*
%ADD16C,4.000000*%
G04 #@! TD*
G04 #@! TA.AperFunction,ComponentPad*
%ADD17R,1.600000X1.600000*%
G04 #@! TD*
G04 #@! TA.AperFunction,ComponentPad*
%ADD18R,1.700000X1.700000*%
G04 #@! TD*
G04 #@! TA.AperFunction,ComponentPad*
%ADD19O,1.700000X1.700000*%
G04 #@! TD*
G04 #@! TA.AperFunction,ComponentPad*
%ADD20R,1.524000X1.524000*%
G04 #@! TD*
G04 #@! TA.AperFunction,ComponentPad*
%ADD21C,1.524000*%
G04 #@! TD*
G04 #@! TA.AperFunction,ComponentPad*
%ADD22C,3.500000*%
G04 #@! TD*
G04 #@! TA.AperFunction,ViaPad*
%ADD23C,3.000000*%
G04 #@! TD*
G04 #@! TA.AperFunction,Conductor*
%ADD24C,2.000000*%
G04 #@! TD*
G04 #@! TA.AperFunction,Conductor*
%ADD25C,1.500000*%
G04 #@! TD*
G04 APERTURE END LIST*
D10*
D11*
X185930828Y-66842857D02*
X185930828Y-67700000D01*
X187430828Y-67271428D02*
X185930828Y-67271428D01*
X186430828Y-68842857D02*
X187430828Y-68842857D01*
X186430828Y-68199999D02*
X187216542Y-68199999D01*
X187216542Y-68199999D02*
X187359400Y-68271428D01*
X187359400Y-68271428D02*
X187430828Y-68414285D01*
X187430828Y-68414285D02*
X187430828Y-68628571D01*
X187430828Y-68628571D02*
X187359400Y-68771428D01*
X187359400Y-68771428D02*
X187287971Y-68842857D01*
X187430828Y-69557142D02*
X186430828Y-69557142D01*
X186716542Y-69557142D02*
X186573685Y-69628571D01*
X186573685Y-69628571D02*
X186502257Y-69700000D01*
X186502257Y-69700000D02*
X186430828Y-69842857D01*
X186430828Y-69842857D02*
X186430828Y-69985714D01*
X186430828Y-70485713D02*
X187430828Y-70485713D01*
X186573685Y-70485713D02*
X186502257Y-70557142D01*
X186502257Y-70557142D02*
X186430828Y-70699999D01*
X186430828Y-70699999D02*
X186430828Y-70914285D01*
X186430828Y-70914285D02*
X186502257Y-71057142D01*
X186502257Y-71057142D02*
X186645114Y-71128571D01*
X186645114Y-71128571D02*
X187430828Y-71128571D01*
X187430828Y-71842856D02*
X186430828Y-71842856D01*
X185930828Y-71842856D02*
X186002257Y-71771428D01*
X186002257Y-71771428D02*
X186073685Y-71842856D01*
X186073685Y-71842856D02*
X186002257Y-71914285D01*
X186002257Y-71914285D02*
X185930828Y-71842856D01*
X185930828Y-71842856D02*
X186073685Y-71842856D01*
X186430828Y-72557142D02*
X187430828Y-72557142D01*
X186573685Y-72557142D02*
X186502257Y-72628571D01*
X186502257Y-72628571D02*
X186430828Y-72771428D01*
X186430828Y-72771428D02*
X186430828Y-72985714D01*
X186430828Y-72985714D02*
X186502257Y-73128571D01*
X186502257Y-73128571D02*
X186645114Y-73200000D01*
X186645114Y-73200000D02*
X187430828Y-73200000D01*
X186430828Y-74557143D02*
X187645114Y-74557143D01*
X187645114Y-74557143D02*
X187787971Y-74485714D01*
X187787971Y-74485714D02*
X187859400Y-74414285D01*
X187859400Y-74414285D02*
X187930828Y-74271428D01*
X187930828Y-74271428D02*
X187930828Y-74057143D01*
X187930828Y-74057143D02*
X187859400Y-73914285D01*
X187359400Y-74557143D02*
X187430828Y-74414285D01*
X187430828Y-74414285D02*
X187430828Y-74128571D01*
X187430828Y-74128571D02*
X187359400Y-73985714D01*
X187359400Y-73985714D02*
X187287971Y-73914285D01*
X187287971Y-73914285D02*
X187145114Y-73842857D01*
X187145114Y-73842857D02*
X186716542Y-73842857D01*
X186716542Y-73842857D02*
X186573685Y-73914285D01*
X186573685Y-73914285D02*
X186502257Y-73985714D01*
X186502257Y-73985714D02*
X186430828Y-74128571D01*
X186430828Y-74128571D02*
X186430828Y-74414285D01*
X186430828Y-74414285D02*
X186502257Y-74557143D01*
X187430828Y-76414285D02*
X185930828Y-76414285D01*
X185930828Y-76414285D02*
X185930828Y-76985714D01*
X185930828Y-76985714D02*
X186002257Y-77128571D01*
X186002257Y-77128571D02*
X186073685Y-77200000D01*
X186073685Y-77200000D02*
X186216542Y-77271428D01*
X186216542Y-77271428D02*
X186430828Y-77271428D01*
X186430828Y-77271428D02*
X186573685Y-77200000D01*
X186573685Y-77200000D02*
X186645114Y-77128571D01*
X186645114Y-77128571D02*
X186716542Y-76985714D01*
X186716542Y-76985714D02*
X186716542Y-76414285D01*
X187430828Y-78128571D02*
X187359400Y-77985714D01*
X187359400Y-77985714D02*
X187216542Y-77914285D01*
X187216542Y-77914285D02*
X185930828Y-77914285D01*
X187430828Y-79342857D02*
X186645114Y-79342857D01*
X186645114Y-79342857D02*
X186502257Y-79271428D01*
X186502257Y-79271428D02*
X186430828Y-79128571D01*
X186430828Y-79128571D02*
X186430828Y-78842857D01*
X186430828Y-78842857D02*
X186502257Y-78699999D01*
X187359400Y-79342857D02*
X187430828Y-79199999D01*
X187430828Y-79199999D02*
X187430828Y-78842857D01*
X187430828Y-78842857D02*
X187359400Y-78699999D01*
X187359400Y-78699999D02*
X187216542Y-78628571D01*
X187216542Y-78628571D02*
X187073685Y-78628571D01*
X187073685Y-78628571D02*
X186930828Y-78699999D01*
X186930828Y-78699999D02*
X186859400Y-78842857D01*
X186859400Y-78842857D02*
X186859400Y-79199999D01*
X186859400Y-79199999D02*
X186787971Y-79342857D01*
X186430828Y-79842857D02*
X186430828Y-80414285D01*
X185930828Y-80057142D02*
X187216542Y-80057142D01*
X187216542Y-80057142D02*
X187359400Y-80128571D01*
X187359400Y-80128571D02*
X187430828Y-80271428D01*
X187430828Y-80271428D02*
X187430828Y-80414285D01*
X186430828Y-80700000D02*
X186430828Y-81271428D01*
X187430828Y-80914285D02*
X186145114Y-80914285D01*
X186145114Y-80914285D02*
X186002257Y-80985714D01*
X186002257Y-80985714D02*
X185930828Y-81128571D01*
X185930828Y-81128571D02*
X185930828Y-81271428D01*
X187430828Y-81985714D02*
X187359400Y-81842857D01*
X187359400Y-81842857D02*
X187287971Y-81771428D01*
X187287971Y-81771428D02*
X187145114Y-81700000D01*
X187145114Y-81700000D02*
X186716542Y-81700000D01*
X186716542Y-81700000D02*
X186573685Y-81771428D01*
X186573685Y-81771428D02*
X186502257Y-81842857D01*
X186502257Y-81842857D02*
X186430828Y-81985714D01*
X186430828Y-81985714D02*
X186430828Y-82200000D01*
X186430828Y-82200000D02*
X186502257Y-82342857D01*
X186502257Y-82342857D02*
X186573685Y-82414286D01*
X186573685Y-82414286D02*
X186716542Y-82485714D01*
X186716542Y-82485714D02*
X187145114Y-82485714D01*
X187145114Y-82485714D02*
X187287971Y-82414286D01*
X187287971Y-82414286D02*
X187359400Y-82342857D01*
X187359400Y-82342857D02*
X187430828Y-82200000D01*
X187430828Y-82200000D02*
X187430828Y-81985714D01*
X187430828Y-83128571D02*
X186430828Y-83128571D01*
X186716542Y-83128571D02*
X186573685Y-83200000D01*
X186573685Y-83200000D02*
X186502257Y-83271429D01*
X186502257Y-83271429D02*
X186430828Y-83414286D01*
X186430828Y-83414286D02*
X186430828Y-83557143D01*
X187430828Y-84057142D02*
X186430828Y-84057142D01*
X186573685Y-84057142D02*
X186502257Y-84128571D01*
X186502257Y-84128571D02*
X186430828Y-84271428D01*
X186430828Y-84271428D02*
X186430828Y-84485714D01*
X186430828Y-84485714D02*
X186502257Y-84628571D01*
X186502257Y-84628571D02*
X186645114Y-84700000D01*
X186645114Y-84700000D02*
X187430828Y-84700000D01*
X186645114Y-84700000D02*
X186502257Y-84771428D01*
X186502257Y-84771428D02*
X186430828Y-84914285D01*
X186430828Y-84914285D02*
X186430828Y-85128571D01*
X186430828Y-85128571D02*
X186502257Y-85271428D01*
X186502257Y-85271428D02*
X186645114Y-85342857D01*
X186645114Y-85342857D02*
X187430828Y-85342857D01*
X188345828Y-63450001D02*
X188345828Y-62735715D01*
X188345828Y-62735715D02*
X189060114Y-62664287D01*
X189060114Y-62664287D02*
X188988685Y-62735715D01*
X188988685Y-62735715D02*
X188917257Y-62878573D01*
X188917257Y-62878573D02*
X188917257Y-63235715D01*
X188917257Y-63235715D02*
X188988685Y-63378573D01*
X188988685Y-63378573D02*
X189060114Y-63450001D01*
X189060114Y-63450001D02*
X189202971Y-63521430D01*
X189202971Y-63521430D02*
X189560114Y-63521430D01*
X189560114Y-63521430D02*
X189702971Y-63450001D01*
X189702971Y-63450001D02*
X189774400Y-63378573D01*
X189774400Y-63378573D02*
X189845828Y-63235715D01*
X189845828Y-63235715D02*
X189845828Y-62878573D01*
X189845828Y-62878573D02*
X189774400Y-62735715D01*
X189774400Y-62735715D02*
X189702971Y-62664287D01*
X189417257Y-64092858D02*
X189417257Y-64807144D01*
X189845828Y-63950001D02*
X188345828Y-64450001D01*
X188345828Y-64450001D02*
X189845828Y-64950001D01*
X189845828Y-65450000D02*
X188345828Y-65450000D01*
X189060114Y-65450000D02*
X189060114Y-66307143D01*
X189845828Y-66307143D02*
X188345828Y-66307143D01*
X189845828Y-67021429D02*
X188345828Y-67021429D01*
X188345828Y-67021429D02*
X189417257Y-67521429D01*
X189417257Y-67521429D02*
X188345828Y-68021429D01*
X188345828Y-68021429D02*
X189845828Y-68021429D01*
X189060114Y-68735715D02*
X189060114Y-69235715D01*
X189845828Y-69450001D02*
X189845828Y-68735715D01*
X189845828Y-68735715D02*
X188345828Y-68735715D01*
X188345828Y-68735715D02*
X188345828Y-69450001D01*
X188488685Y-71164287D02*
X188417257Y-71235715D01*
X188417257Y-71235715D02*
X188345828Y-71378573D01*
X188345828Y-71378573D02*
X188345828Y-71735715D01*
X188345828Y-71735715D02*
X188417257Y-71878573D01*
X188417257Y-71878573D02*
X188488685Y-71950001D01*
X188488685Y-71950001D02*
X188631542Y-72021430D01*
X188631542Y-72021430D02*
X188774400Y-72021430D01*
X188774400Y-72021430D02*
X188988685Y-71950001D01*
X188988685Y-71950001D02*
X189845828Y-71092858D01*
X189845828Y-71092858D02*
X189845828Y-72021430D01*
X188345828Y-72950001D02*
X188345828Y-73092858D01*
X188345828Y-73092858D02*
X188417257Y-73235715D01*
X188417257Y-73235715D02*
X188488685Y-73307144D01*
X188488685Y-73307144D02*
X188631542Y-73378572D01*
X188631542Y-73378572D02*
X188917257Y-73450001D01*
X188917257Y-73450001D02*
X189274400Y-73450001D01*
X189274400Y-73450001D02*
X189560114Y-73378572D01*
X189560114Y-73378572D02*
X189702971Y-73307144D01*
X189702971Y-73307144D02*
X189774400Y-73235715D01*
X189774400Y-73235715D02*
X189845828Y-73092858D01*
X189845828Y-73092858D02*
X189845828Y-72950001D01*
X189845828Y-72950001D02*
X189774400Y-72807144D01*
X189774400Y-72807144D02*
X189702971Y-72735715D01*
X189702971Y-72735715D02*
X189560114Y-72664286D01*
X189560114Y-72664286D02*
X189274400Y-72592858D01*
X189274400Y-72592858D02*
X188917257Y-72592858D01*
X188917257Y-72592858D02*
X188631542Y-72664286D01*
X188631542Y-72664286D02*
X188488685Y-72735715D01*
X188488685Y-72735715D02*
X188417257Y-72807144D01*
X188417257Y-72807144D02*
X188345828Y-72950001D01*
X188488685Y-74021429D02*
X188417257Y-74092857D01*
X188417257Y-74092857D02*
X188345828Y-74235715D01*
X188345828Y-74235715D02*
X188345828Y-74592857D01*
X188345828Y-74592857D02*
X188417257Y-74735715D01*
X188417257Y-74735715D02*
X188488685Y-74807143D01*
X188488685Y-74807143D02*
X188631542Y-74878572D01*
X188631542Y-74878572D02*
X188774400Y-74878572D01*
X188774400Y-74878572D02*
X188988685Y-74807143D01*
X188988685Y-74807143D02*
X189845828Y-73950000D01*
X189845828Y-73950000D02*
X189845828Y-74878572D01*
X188345828Y-75378571D02*
X188345828Y-76307143D01*
X188345828Y-76307143D02*
X188917257Y-75807143D01*
X188917257Y-75807143D02*
X188917257Y-76021428D01*
X188917257Y-76021428D02*
X188988685Y-76164286D01*
X188988685Y-76164286D02*
X189060114Y-76235714D01*
X189060114Y-76235714D02*
X189202971Y-76307143D01*
X189202971Y-76307143D02*
X189560114Y-76307143D01*
X189560114Y-76307143D02*
X189702971Y-76235714D01*
X189702971Y-76235714D02*
X189774400Y-76164286D01*
X189774400Y-76164286D02*
X189845828Y-76021428D01*
X189845828Y-76021428D02*
X189845828Y-75592857D01*
X189845828Y-75592857D02*
X189774400Y-75450000D01*
X189774400Y-75450000D02*
X189702971Y-75378571D01*
X188274400Y-78021428D02*
X190202971Y-76735714D01*
X188488685Y-78450000D02*
X188417257Y-78521428D01*
X188417257Y-78521428D02*
X188345828Y-78664286D01*
X188345828Y-78664286D02*
X188345828Y-79021428D01*
X188345828Y-79021428D02*
X188417257Y-79164286D01*
X188417257Y-79164286D02*
X188488685Y-79235714D01*
X188488685Y-79235714D02*
X188631542Y-79307143D01*
X188631542Y-79307143D02*
X188774400Y-79307143D01*
X188774400Y-79307143D02*
X188988685Y-79235714D01*
X188988685Y-79235714D02*
X189845828Y-78378571D01*
X189845828Y-78378571D02*
X189845828Y-79307143D01*
X188845828Y-80592857D02*
X189845828Y-80592857D01*
X188274400Y-80235714D02*
X189345828Y-79878571D01*
X189345828Y-79878571D02*
X189345828Y-80807142D01*
X189845828Y-82521427D02*
X188345828Y-82521427D01*
X188345828Y-82521427D02*
X188345828Y-83092856D01*
X188345828Y-83092856D02*
X188417257Y-83235713D01*
X188417257Y-83235713D02*
X188488685Y-83307142D01*
X188488685Y-83307142D02*
X188631542Y-83378570D01*
X188631542Y-83378570D02*
X188845828Y-83378570D01*
X188845828Y-83378570D02*
X188988685Y-83307142D01*
X188988685Y-83307142D02*
X189060114Y-83235713D01*
X189060114Y-83235713D02*
X189131542Y-83092856D01*
X189131542Y-83092856D02*
X189131542Y-82521427D01*
X189845828Y-84664285D02*
X189060114Y-84664285D01*
X189060114Y-84664285D02*
X188917257Y-84592856D01*
X188917257Y-84592856D02*
X188845828Y-84449999D01*
X188845828Y-84449999D02*
X188845828Y-84164285D01*
X188845828Y-84164285D02*
X188917257Y-84021427D01*
X189774400Y-84664285D02*
X189845828Y-84521427D01*
X189845828Y-84521427D02*
X189845828Y-84164285D01*
X189845828Y-84164285D02*
X189774400Y-84021427D01*
X189774400Y-84021427D02*
X189631542Y-83949999D01*
X189631542Y-83949999D02*
X189488685Y-83949999D01*
X189488685Y-83949999D02*
X189345828Y-84021427D01*
X189345828Y-84021427D02*
X189274400Y-84164285D01*
X189274400Y-84164285D02*
X189274400Y-84521427D01*
X189274400Y-84521427D02*
X189202971Y-84664285D01*
X188845828Y-85164285D02*
X188845828Y-85735713D01*
X188345828Y-85378570D02*
X189631542Y-85378570D01*
X189631542Y-85378570D02*
X189774400Y-85449999D01*
X189774400Y-85449999D02*
X189845828Y-85592856D01*
X189845828Y-85592856D02*
X189845828Y-85735713D01*
X188845828Y-86092856D02*
X188845828Y-86878571D01*
X188845828Y-86878571D02*
X189845828Y-86092856D01*
X189845828Y-86092856D02*
X189845828Y-86878571D01*
X189774400Y-88021428D02*
X189845828Y-87878571D01*
X189845828Y-87878571D02*
X189845828Y-87592857D01*
X189845828Y-87592857D02*
X189774400Y-87449999D01*
X189774400Y-87449999D02*
X189631542Y-87378571D01*
X189631542Y-87378571D02*
X189060114Y-87378571D01*
X189060114Y-87378571D02*
X188917257Y-87449999D01*
X188917257Y-87449999D02*
X188845828Y-87592857D01*
X188845828Y-87592857D02*
X188845828Y-87878571D01*
X188845828Y-87878571D02*
X188917257Y-88021428D01*
X188917257Y-88021428D02*
X189060114Y-88092857D01*
X189060114Y-88092857D02*
X189202971Y-88092857D01*
X189202971Y-88092857D02*
X189345828Y-87378571D01*
X189845828Y-88949999D02*
X189774400Y-88807142D01*
X189774400Y-88807142D02*
X189631542Y-88735713D01*
X189631542Y-88735713D02*
X188345828Y-88735713D01*
X188845828Y-89307142D02*
X188845828Y-89878570D01*
X188345828Y-89521427D02*
X189631542Y-89521427D01*
X189631542Y-89521427D02*
X189774400Y-89592856D01*
X189774400Y-89592856D02*
X189845828Y-89735713D01*
X189845828Y-89735713D02*
X189845828Y-89878570D01*
D12*
X135890000Y-109220000D03*
D13*
X125730000Y-109220000D03*
D14*
X97155000Y-90805000D03*
D15*
X104655000Y-90805000D03*
D12*
X112395000Y-93980000D03*
D13*
X122555000Y-93980000D03*
D16*
X95105000Y-100180000D03*
X120105000Y-100180000D03*
D17*
X113145000Y-98760000D03*
D12*
X110375000Y-98760000D03*
X107605000Y-98760000D03*
X104835000Y-98760000D03*
X102065000Y-98760000D03*
X111760000Y-101600000D03*
X108990000Y-101600000D03*
X106220000Y-101600000D03*
X103450000Y-101600000D03*
D17*
X175260000Y-68580000D03*
D13*
X175260000Y-71120000D03*
X175260000Y-73660000D03*
X175260000Y-76200000D03*
X175260000Y-78740000D03*
X175260000Y-81280000D03*
X175260000Y-83820000D03*
X175260000Y-86360000D03*
X175260000Y-91440000D03*
X175260000Y-93980000D03*
X175260000Y-96520000D03*
X175260000Y-99060000D03*
X175260000Y-101600000D03*
X175260000Y-104140000D03*
X127000000Y-104140000D03*
X127000000Y-101600000D03*
X127000000Y-99060000D03*
X127000000Y-96520000D03*
X127000000Y-93980000D03*
X127000000Y-79760000D03*
X127000000Y-77220000D03*
X127000000Y-74680000D03*
X127000000Y-72140000D03*
X127000000Y-69600000D03*
X127000000Y-67060000D03*
X127000000Y-64520000D03*
D18*
X104775000Y-73025000D03*
D19*
X104775000Y-75565000D03*
X104775000Y-78105000D03*
X104775000Y-80645000D03*
D12*
X147320000Y-93980000D03*
D13*
X137160000Y-93980000D03*
D12*
X139700000Y-100584000D03*
D13*
X129540000Y-100584000D03*
D18*
X134620000Y-82550000D03*
X109220000Y-67945000D03*
D19*
X109220000Y-70485000D03*
X109220000Y-73025000D03*
X109220000Y-75565000D03*
X109220000Y-78105000D03*
X109220000Y-80645000D03*
X109220000Y-83185000D03*
X109220000Y-85725000D03*
D18*
X121920000Y-67960000D03*
D19*
X121920000Y-70500000D03*
X121920000Y-73040000D03*
X121920000Y-75580000D03*
X121920000Y-78120000D03*
X121920000Y-80660000D03*
X121920000Y-83200000D03*
X121920000Y-85740000D03*
D18*
X139700000Y-82550000D03*
D20*
X183605000Y-94445000D03*
D21*
X186105000Y-94445000D03*
X188105000Y-94445000D03*
X190605000Y-94445000D03*
D22*
X180535000Y-97155000D03*
X193675000Y-97155000D03*
D23*
X172085000Y-88900000D03*
X163195000Y-88900000D03*
X151765000Y-65405000D03*
X151765000Y-58420000D03*
X115824000Y-62992000D03*
X115824000Y-73660000D03*
X146685000Y-65405000D03*
X146685000Y-55245000D03*
D24*
X109220000Y-90805000D02*
X111823500Y-93408500D01*
X111823500Y-93408500D02*
X112395000Y-93980000D01*
D25*
X107605000Y-98760000D02*
X107605000Y-97627000D01*
X107605000Y-97627000D02*
X111823500Y-93408500D01*
X108990000Y-101600000D02*
X108990000Y-100862000D01*
X108990000Y-100862000D02*
X107605000Y-99477000D01*
X107605000Y-99477000D02*
X107605000Y-98760000D01*
X125730000Y-109220000D02*
X114300000Y-109220000D01*
X114300000Y-109220000D02*
X108990000Y-103910000D01*
X108990000Y-103910000D02*
X108990000Y-101600000D01*
X135890000Y-109220000D02*
X139700000Y-105410000D01*
X139700000Y-105410000D02*
X139700000Y-100584000D01*
D24*
X104655000Y-90805000D02*
X109220000Y-90805000D01*
X95105000Y-100180000D02*
X95105000Y-92855000D01*
X95105000Y-92855000D02*
X97155000Y-90805000D01*
D25*
X103450000Y-101600000D02*
X100965000Y-101600000D01*
X100965000Y-101600000D02*
X99695000Y-100330000D01*
X99695000Y-100330000D02*
X99695000Y-67310000D01*
X99695000Y-67310000D02*
X111760000Y-55245000D01*
X111760000Y-55245000D02*
X146685000Y-55245000D01*
X122555000Y-93980000D02*
X125095000Y-96520000D01*
X125095000Y-96520000D02*
X127000000Y-96520000D01*
D24*
X121920000Y-85740000D02*
X131430000Y-85740000D01*
X131430000Y-85740000D02*
X134620000Y-82550000D01*
X120635000Y-85740000D02*
X118745000Y-87630000D01*
X120792000Y-85740000D02*
X120635000Y-85740000D01*
X118745000Y-87630000D02*
X118745000Y-98700000D01*
X118745000Y-98700000D02*
X118685000Y-98760000D01*
D25*
X160083500Y-85788500D02*
X163195000Y-88900000D01*
X183605000Y-94445000D02*
X183605000Y-91530000D01*
D24*
X173355000Y-78740000D02*
X175260000Y-78740000D01*
D25*
X151765000Y-64770000D02*
X151765000Y-77470000D01*
X157797500Y-83502500D02*
X160083500Y-85788500D01*
X147320000Y-93980000D02*
X147320000Y-97536000D01*
X180975000Y-88900000D02*
X172085000Y-88900000D01*
X106553000Y-70485000D02*
X103441500Y-67373500D01*
D24*
X163195000Y-88900000D02*
X173355000Y-78740000D01*
D25*
X102065000Y-98760000D02*
X102065000Y-68750000D01*
X109220000Y-70485000D02*
X106553000Y-70485000D01*
X142748000Y-97536000D02*
X147320000Y-97536000D01*
X103441500Y-67373500D02*
X112395000Y-58420000D01*
X182245000Y-90170000D02*
X180975000Y-88900000D01*
X151765000Y-77470000D02*
X157797500Y-83502500D01*
X102065000Y-68750000D02*
X103441500Y-67373500D01*
X112395000Y-58420000D02*
X151765000Y-58420000D01*
X147320000Y-93980000D02*
X157797500Y-83502500D01*
X139700000Y-100584000D02*
X142748000Y-97536000D01*
X183605000Y-91530000D02*
X182245000Y-90170000D01*
X175260000Y-83820000D02*
X172085000Y-83820000D01*
X193675000Y-95885000D02*
X192235000Y-94445000D01*
X193675000Y-97155000D02*
X193675000Y-95885000D01*
X172085000Y-83820000D02*
X168275000Y-87630000D01*
X168275000Y-87630000D02*
X168275000Y-107315000D01*
X183515000Y-109855000D02*
X193675000Y-99695000D01*
X168275000Y-107315000D02*
X170815000Y-109855000D01*
X192235000Y-94445000D02*
X190605000Y-94445000D01*
X170815000Y-109855000D02*
X183515000Y-109855000D01*
X193675000Y-99695000D02*
X193675000Y-97155000D01*
D24*
X115824000Y-83820000D02*
X115824000Y-73660000D01*
X139700000Y-67310000D02*
X136525000Y-64135000D01*
X139700000Y-82550000D02*
X139700000Y-67310000D01*
X136525000Y-64135000D02*
X139065000Y-61595000D01*
X134366000Y-61976000D02*
X116840000Y-61976000D01*
X179705000Y-84455000D02*
X177800000Y-86360000D01*
X177800000Y-86360000D02*
X175260000Y-86360000D01*
X139065000Y-61595000D02*
X175260000Y-61595000D01*
X113919000Y-85725000D02*
X115824000Y-83820000D01*
X179705000Y-66040000D02*
X179705000Y-84455000D01*
X175260000Y-61595000D02*
X179705000Y-66040000D01*
X109220000Y-85725000D02*
X113919000Y-85725000D01*
X136525000Y-64135000D02*
X134366000Y-61976000D01*
X116840000Y-61976000D02*
X115824000Y-62992000D01*
D25*
X172085000Y-103505000D02*
X173990000Y-101600000D01*
X172085000Y-106680000D02*
X172085000Y-103505000D01*
X188105000Y-100820000D02*
X181610000Y-107315000D01*
X172720000Y-107315000D02*
X172085000Y-106680000D01*
X173990000Y-101600000D02*
X175260000Y-101600000D01*
X188105000Y-94445000D02*
X188105000Y-100820000D01*
X181610000Y-107315000D02*
X172720000Y-107315000D01*
X186055000Y-98425000D02*
X180340000Y-104140000D01*
X186105000Y-94445000D02*
X186105000Y-95522630D01*
X186055000Y-95572630D02*
X186055000Y-98425000D01*
X180340000Y-104140000D02*
X175260000Y-104140000D01*
X186105000Y-95522630D02*
X186055000Y-95572630D01*
X113665000Y-101600000D02*
X111760000Y-101600000D01*
X118745000Y-106680000D02*
X113665000Y-101600000D01*
X128270000Y-106680000D02*
X118745000Y-106680000D01*
X129540000Y-100330000D02*
X129540000Y-105410000D01*
X129540000Y-105410000D02*
X128270000Y-106680000D01*
X127000000Y-99060000D02*
X128270000Y-99060000D01*
X128270000Y-99060000D02*
X129540000Y-100330000D01*
X132588000Y-97536000D02*
X131572000Y-96520000D01*
X131572000Y-96520000D02*
X127000000Y-96520000D01*
X137160000Y-97536000D02*
X132588000Y-97536000D01*
X146685000Y-64770000D02*
X146685000Y-84455000D01*
X139192000Y-91948000D02*
X137160000Y-93980000D01*
X137160000Y-93980000D02*
X127000000Y-93980000D01*
X146685000Y-84455000D02*
X139192000Y-91948000D01*
X125715000Y-83200000D02*
X127000000Y-81915000D01*
X127000000Y-81915000D02*
X127000000Y-79760000D01*
X121920000Y-83200000D02*
X125715000Y-83200000D01*
X126488000Y-77220000D02*
X127000000Y-77220000D01*
X121920000Y-80660000D02*
X123048000Y-80660000D01*
X123048000Y-80660000D02*
X126488000Y-77220000D01*
X125984000Y-74676000D02*
X125988000Y-74680000D01*
X121920000Y-78120000D02*
X122540000Y-78120000D01*
X125988000Y-74680000D02*
X127000000Y-74680000D01*
X122540000Y-78120000D02*
X125984000Y-74676000D01*
X123332000Y-70500000D02*
X124972000Y-72140000D01*
X124972000Y-72140000D02*
X127000000Y-72140000D01*
X121920000Y-70500000D02*
X123332000Y-70500000D01*
X123840000Y-67960000D02*
X125480000Y-69600000D01*
X125480000Y-69600000D02*
X127000000Y-69600000D01*
X121920000Y-67960000D02*
X123840000Y-67960000D01*
D24*
X118685000Y-98760000D02*
X120105000Y-100180000D01*
X119380000Y-71628000D02*
X115697000Y-67945000D01*
D25*
X121920000Y-75580000D02*
X121920000Y-73040000D01*
D24*
X112268000Y-67945000D02*
X109220000Y-67945000D01*
X112268000Y-81339081D02*
X112268000Y-67945000D01*
X134620000Y-73548630D02*
X128131370Y-67060000D01*
X120792000Y-73040000D02*
X119380000Y-71628000D01*
X121920000Y-73040000D02*
X120792000Y-73040000D01*
X120792000Y-85740000D02*
X119380000Y-84328000D01*
X128131370Y-67060000D02*
X127000000Y-67060000D01*
X134620000Y-82550000D02*
X134620000Y-73548630D01*
X119380000Y-84328000D02*
X119380000Y-71628000D01*
X117140000Y-98760000D02*
X118685000Y-98760000D01*
D25*
X114600000Y-98760000D02*
X114300000Y-98760000D01*
D24*
X110422081Y-83185000D02*
X112268000Y-81339081D01*
X109220000Y-83185000D02*
X110422081Y-83185000D01*
D25*
X113145000Y-98760000D02*
X114300000Y-98760000D01*
D24*
X115697000Y-67945000D02*
X112268000Y-67945000D01*
X117140000Y-98760000D02*
X113145000Y-98760000D01*
X121920000Y-85740000D02*
X120792000Y-85740000D01*
X104775000Y-73025000D02*
X109220000Y-73025000D01*
X109220000Y-75565000D02*
X104775000Y-75565000D01*
X104775000Y-78105000D02*
X109220000Y-78105000D01*
X109220000Y-80645000D02*
X104775000Y-80645000D01*
M02*
